<svg id="Layer_1" data-name="Layer 1" xmlns="http://www.w3.org/2000/svg" viewBox="0 0 975.53 720"><defs><style>.cls-1{fill:#344f47;}.cls-2{fill:#564130;}.cls-3{fill:#5b706a;}.cls-18,.cls-4{fill:#302e2b;}.cls-4,.cls-6{opacity:0.64;}.cls-5{fill:#442e1d;}.cls-6{fill:#191817;}.cls-7{fill:#384059;}.cls-8{fill:#5d6982;}.cls-9{fill:#5b5751;}.cls-10{fill:#b3a692;}.cls-11{fill:#300e02;}.cls-12{fill:#1b0603;}.cls-13{fill:#7d7a76;}.cls-14{fill:#635f5a;}.cls-15{fill:#77746f;}.cls-16{fill:#6f6b66;}.cls-17{fill:#44413d;opacity:0.57;}.cls-19,.cls-22{fill:none;stroke-linecap:round;stroke-linejoin:round;}.cls-19{stroke:#161615;stroke-width:4px;}.cls-20{fill:#ffe;}.cls-21{fill:#1e1e1c;}.cls-22{stroke:#1e1e1c;}.cls-23{fill:#280e0b;}.cls-24{fill:#4c241b;}.cls-25{fill:#442342;}.cls-26{fill:#382138;}</style></defs><title>Dynamic</title><rect class="cls-1" x="-2.44" y="-0.91" width="978.6" height="566.33"/><rect class="cls-2" x="-2.44" y="565.41" width="978.6" height="154.59"/><rect class="cls-3" x="-2.44" y="520.24" width="978.6" height="45.18"/><path class="cls-4" d="M861.84,369.8l-26.93-2.22a1.38,1.38,0,0,1-1.17-.91l-2.51-7a1.36,1.36,0,0,0-1.57-.88l-40.07,8.75a1.38,1.38,0,0,1-1.66-1.31l-1.37-51.87a1.38,1.38,0,0,1,.86-1.31l43.52-17.84a1.38,1.38,0,0,0-.59-2.66L801.92,294a1.36,1.36,0,0,1-1.43-1.49L801.74,277a1.38,1.38,0,0,1,1.09-1.24l21.75-4.46a1.39,1.39,0,0,0,1-1.7L821,251.63a1.36,1.36,0,0,0-2.66.08l-2.25,11.7a1.37,1.37,0,0,1-1.15,1.11l-22,3.13a1.37,1.37,0,0,0-1.17,1.26l-1.83,24.6a1.37,1.37,0,0,1-.89,1.19l-10.62,3.95a1.36,1.36,0,0,0-.89,1.15l-4.27,41.49a1.36,1.36,0,0,1-2.5.61L747,305.25a1.36,1.36,0,0,0-1.06-.63l-38.1-2.2a1.34,1.34,0,0,1-1.09-.66l-5.15-8.55a1.37,1.37,0,0,0-2.49,1.08c1.61,5.92,3.47,12.59,3.87,13.41.7,1.4,29.72,5.69,34.37,6.37a1.36,1.36,0,0,1,1,.65l4.88,8a1.38,1.38,0,0,1-.59,2L722.88,334a1.38,1.38,0,0,0,.88,2.59l22-5.2a1.36,1.36,0,0,1,1.43.55l21.42,30.91a1.47,1.47,0,0,1,.25.86l-2.61,54.68H727.56a8.64,8.64,0,0,0,0,17.28h.51l9.14,126.55c.44,6.17,6.08,11,12.87,11h65.76c6.83,0,12.47-4.84,12.88-11L837,435.67h.49a8.64,8.64,0,0,0,0-17.28H790.58l-1.12-34.29a1.38,1.38,0,0,1,1-1.36l28.65-8.88a1.35,1.35,0,0,1,1.71.93L823,382.4a1.36,1.36,0,0,0,1.69.93l37.4-10.83A1.38,1.38,0,0,0,861.84,369.8Z"/><path class="cls-5" d="M760.52,438.26h22.66a1.36,1.36,0,0,0,1.36-1.41L783,389.32a1.37,1.37,0,0,1,1-1.35l28.65-8.79a1.36,1.36,0,0,1,1.71.92l2.23,7.54a1.37,1.37,0,0,0,1.69.92l37.4-10.73a1.36,1.36,0,0,0-.27-2.67L828.42,373a1.35,1.35,0,0,1-1.17-.9l-2.51-6.92a1.35,1.35,0,0,0-1.57-.87l-40.07,8.66a1.38,1.38,0,0,1-1.66-1.3l-1.37-51.35a1.37,1.37,0,0,1,.86-1.3l43.52-17.67a1.37,1.37,0,0,0-.59-2.63l-28.43,1.48a1.36,1.36,0,0,1-1.43-1.47l1.25-15.42a1.37,1.37,0,0,1,1.09-1.22l21.75-4.42a1.36,1.36,0,0,0,1-1.68l-4.65-17.78a1.36,1.36,0,0,0-2.66.09l-2.25,11.58a1.36,1.36,0,0,1-1.15,1.09l-22,3.1a1.37,1.37,0,0,0-1.18,1.25l-1.83,24.36a1.38,1.38,0,0,1-.89,1.18l-10.62,3.9a1.36,1.36,0,0,0-.89,1.14l-4.27,41.07a1.36,1.36,0,0,1-2.5.61l-23.68-36.28a1.36,1.36,0,0,0-1.07-.62l-38.1-2.18a1.35,1.35,0,0,1-1.09-.65l-5.15-8.47a1.37,1.37,0,0,0-2.49,1.07c1.61,5.86,3.47,12.46,3.87,13.28.7,1.38,29.72,5.63,34.37,6.3a1.34,1.34,0,0,1,1,.64l4.88,7.93a1.36,1.36,0,0,1-.59,1.95l-19.75,9.21a1.37,1.37,0,0,0,.88,2.57l22.05-5.16a1.38,1.38,0,0,1,1.43.55l21.42,30.61a1.39,1.39,0,0,1,.25.84l-3.26,67.7A1.36,1.36,0,0,0,760.52,438.26Z"/><rect class="cls-6" x="706.57" y="567.02" width="127.08" height="17.11" rx="8.56" ry="8.56"/><path class="cls-7" d="M809.35,576.52H743.6c-6.8,0-12.44-4.75-12.88-10.87l-9.3-127.49c-.49-6.71,5.41-12.4,12.87-12.4h83.52c7.43,0,13.32,5.64,12.88,12.33l-8.46,127.49C821.82,571.73,816.18,576.52,809.35,576.52Z"/><rect class="cls-8" x="712.51" y="423.26" width="127.08" height="17.11" rx="8.56" ry="8.56"/><path class="cls-4" d="M687,256H289.39c-6.66,0-12.06,4.92-12.06,11v8.45c0,6.07,5.4,11,12.06,11h8.24a6.12,6.12,0,0,0-.26,1.72v15.51c0,3.58,3.19,6.49,7.12,6.49h1.87v47.61a5.4,5.4,0,0,0,0,10.79V572.71H347.3V368.52a5.4,5.4,0,0,0,0-10.79V310.12h1.87c3.93,0,7.12-2.91,7.12-6.49V288.12a6.12,6.12,0,0,0-.26-1.72H620.39a6.12,6.12,0,0,0-.26,1.72v15.51c0,3.58,3.19,6.49,7.12,6.49h1.87v47.61a5.4,5.4,0,0,0,0,10.79V573.74h40.94V368.52a5.4,5.4,0,0,0,0-10.79V310.12h1.87c3.93,0,7.12-2.91,7.12-6.49V288.12a6.12,6.12,0,0,0-.26-1.72H687c6.66,0,12.06-4.93,12.06-11V267C699.09,260.87,693.69,256,687,256Z"/><rect class="cls-9" x="323.27" y="263.19" width="331.76" height="91.18"/><rect x="418.65" y="41.44" width="136.42" height="194.96" rx="9.21" ry="9.21"/><rect class="cls-10" x="429.13" y="51.47" width="115.45" height="174.91"/><rect class="cls-9" x="323.27" y="280.54" width="64.76" height="292.17"/><rect class="cls-9" x="590.27" y="280.54" width="64.76" height="292.17"/><rect class="cls-11" x="388.03" y="354.37" width="202.24" height="218.34"/><rect class="cls-12" x="410.81" y="396.58" width="156.67" height="176.13"/><rect x="421.85" y="396.58" width="134.6" height="176.13"/><rect class="cls-13" x="375.71" y="285.63" width="226.88" height="51.4" rx="7" ry="7"/><rect class="cls-14" x="382.33" y="292.7" width="213.63" height="37.26" rx="7" ry="7"/><rect class="cls-15" x="386.62" y="296.49" width="205.06" height="29.67" rx="7" ry="7"/><rect class="cls-13" x="378.36" y="351.84" width="221.59" height="10.85" rx="5.43" ry="5.43"/><rect class="cls-16" x="323.27" y="299.47" width="37.35" height="273.25"/><rect class="cls-13" x="318.43" y="351.84" width="47.02" height="10.85" rx="5.43" ry="5.43"/><rect class="cls-13" x="315.07" y="275.76" width="53.74" height="28.5" rx="6.5" ry="6.5"/><rect class="cls-16" x="617.68" y="299.47" width="37.35" height="273.25" transform="translate(1272.71 872.18) rotate(-180)"/><rect class="cls-13" x="612.84" y="351.84" width="47.02" height="10.85" rx="5.43" ry="5.43" transform="translate(1272.71 714.53) rotate(-180)"/><rect class="cls-13" x="609.49" y="275.76" width="53.74" height="28.5" rx="6.5" ry="6.5" transform="translate(1272.71 580.03) rotate(-180)"/><rect class="cls-13" x="296.79" y="250.09" width="384.71" height="30.45" rx="11" ry="11"/><rect class="cls-17" x="315.07" y="280.54" width="348.16" height="10.18"/><path class="cls-18" d="M675.11,640.68H303.19c-10.22,0-16.39-10.44-10.86-18.38l27.13-38.92a13.18,13.18,0,0,1,10.85-5.47H648a13.18,13.18,0,0,1,10.85,5.47L686,622.3C691.49,630.24,685.33,640.68,675.11,640.68Z"/><path class="cls-19" d="M-3.61,149.73c23-11.34,67.7-2.12,87.7,24.53,17.11-54.75,43.66-78,98.33-80-33.33-34-11.33-90,19.33-95.17"/><path class="cls-19" d="M-3.61,109.7C13.92,101.58,51,101.9,66.28,121c13-39.24,29.12-54.84,70.79-56.27C111.66,40.36,130.9,2.8,154.27-.91"/><line class="cls-19" x1="86.09" y1="178.76" x2="28.03" y2="21.49"/><line class="cls-19" x1="186.42" y1="95.93" x2="39.67" y2="8.38"/><path class="cls-19" d="M-3.61,71.52C7.72,68.38,35.75,63.93,49.62,80c4.5-16.75,21.59-37.59,45.28-38.65C91.34,28,89.34,9,105.6-4.24"/><path class="cls-19" d="M-3.61,44.39C.06,41.56,22.42,30.1,37,45.87c4.25-21.75,18.19-24.15,24.62-24.38C57.59,5.26,64.34.51,73.34-2.74"/><line class="cls-19" x1="9.34" y1="20.51" x2="-8.91" y2="42.58"/><path class="cls-19" d="M9.34,20.51c0-9.58-7.73-14.78-7.73-14.78l8.67-17.8L39.67-10.4S32.75.93,39.67,8.38C36.42,10.26,30.59,14.1,28,21.49,25.59,18.26,15.75,16.93,9.34,20.51Z"/><path class="cls-20" d="M390.08,211.9c0,19.78-14.1,19.86-21.23,25.65-2.1,1.71-5.07,1-8.23,1-2.89,0-6,.39-8.32-1.07-10.43-6.61-21.15-5.64-21.15-25.58,0-14.71,13.19-26.64,29.47-26.64S390.08,197.19,390.08,211.9Z"/><rect class="cls-20" x="345.62" y="231.28" width="9.48" height="19.93" rx="3.01" ry="3.01"/><rect class="cls-20" x="355.88" y="231.28" width="9.48" height="19.93" rx="3.01" ry="3.01"/><rect class="cls-20" x="366.14" y="231.28" width="9.48" height="19.93" rx="3.01" ry="3.01"/><circle class="cls-21" cx="349.47" cy="216.92" r="6.09"/><circle class="cls-21" cx="371.92" cy="216.92" r="6.09"/><path class="cls-21" d="M359.55,221.22a1.11,1.11,0,0,1,2.13,0l1.09,2.56,1.16,2.73c.44,1.05-.14,2.33-1.07,2.33h-4.49c-.92,0-1.51-1.28-1.06-2.33l1.15-2.73Z"/><polyline class="cls-22" points="377.05 189.78 374.09 197.92 368.37 200.47 366.14 204.86"/><line class="cls-22" x1="369.34" y1="196.09" x2="370.87" y2="199.08"/><polyline class="cls-22" points="345.62 212.2 340.73 210.82 341.34 204.25 338.42 204.25"/><polygon class="cls-23" points="410.81 572.71 423.15 557.75 555.83 557.75 567.49 572.71 410.81 572.71"/><rect class="cls-24" x="405.72" y="391.76" width="166.73" height="12.5" rx="6.25" ry="6.25"/><path class="cls-25" d="M637.25,192.59a20.58,20.58,0,0,1,2.42-13l18.81-34.3a3.23,3.23,0,0,0-3.94,0l-36.76,26.69a8.83,8.83,0,0,0-3.35,4.93l-13.27,51.22h41.21Z"/><path class="cls-26" d="M659.69,228.08l-13.26-36.85a8.28,8.28,0,0,1,0-5.6L659.59,149a3.23,3.23,0,0,0-1.11-3.75l-18.81,34.3a20.58,20.58,0,0,0-2.42,13L641.06,219a7.91,7.91,0,0,1-7.83,9H601.16l-2.54,9.85h64.61Z"/><rect class="cls-25" x="575.38" y="232.66" width="114.49" height="18.23" rx="9.11" ry="9.11"/></svg>