<svg xmlns="http://www.w3.org/2000/svg" viewBox="0 0 136.42 194.96"><defs><style>.cls-1{fill:#b3a692;}.cls-2,.cls-5{fill:#7651a0;}.cls-2,.cls-3,.cls-4,.cls-6,.cls-7,.cls-8{fill-rule:evenodd;}.cls-3{fill:#512a73;}.cls-4{fill:#3e144e;}.cls-6{fill:#fff;}.cls-7{fill:#d01c55;}.cls-8{fill:#f48120;}.cls-9{fill:#49392c;}.cls-10{fill:#e27d39;}</style></defs><title>owl</title><g id="Layer_2" data-name="Layer 2"><g id="움직이는거"><rect width="136.42" height="194.96" rx="9.21" ry="9.21"/><rect class="cls-1" x="10.48" y="10.02" width="115.45" height="174.91"/><path class="cls-2" d="M106.88,160c-18.22,3.28-37.59-2.61-51.65-17.66-16.86-18.06-21.4-53.15-13.64-75.63h65.29Z"/><path class="cls-3" d="M47.71,66.67h59.17v90.48a56.89,56.89,0,0,1-44.4-18.48C46.52,121.58,41.6,88.3,47.71,66.67Z"/><path class="cls-4" d="M62.21,66.67h44.67v89.25A57.69,57.69,0,0,1,77,138.67C61,121.58,56.1,88.3,62.21,66.67Z"/><circle class="cls-5" cx="73.81" cy="68.17" r="34.05" transform="translate(-13.22 17.96) rotate(-12.74)"/><path class="cls-4" d="M62,44.49a23.21,23.21,0,0,1,11.27,2.85,1.2,1.2,0,0,0,1.16,0,23.73,23.73,0,0,1,22.79.13l2.16-9.87a1.09,1.09,0,0,1,2.12,0l2.36,10.8L105.7,57a16.4,16.4,0,0,1,1.15,5.27l.11.47a1.11,1.11,0,0,1-.09.72c-.39,36-65.72,36-66.11,0a1,1,0,0,1-.09-.72l.1-.47A16.67,16.67,0,0,1,41.92,57L43.8,48.4l2.36-10.8a1.09,1.09,0,0,1,2.13,0l2.15,9.87A23.25,23.25,0,0,1,62,44.49Z"/><path class="cls-6" d="M85.67,55.36A10.34,10.34,0,1,1,75.33,65.7,10.34,10.34,0,0,1,85.67,55.36ZM62,55.36A10.34,10.34,0,1,1,51.62,65.7,10.34,10.34,0,0,1,62,55.36Z"/><path class="cls-7" d="M62,61.89a3.81,3.81,0,1,1-3.81,3.81A3.8,3.8,0,0,1,62,61.89Zm23.71,0a3.81,3.81,0,1,1-3.81,3.81A3.8,3.8,0,0,1,85.67,61.89Z"/><path class="cls-8" d="M74.64,93.72l4-4.66,3.26-3.84A1.07,1.07,0,0,0,82,84.06a1.06,1.06,0,0,0-1-.64H66.59a1.09,1.09,0,0,0-.83,1.8L69,89.06l4,4.66a1.07,1.07,0,0,0,.83.38A1.05,1.05,0,0,0,74.64,93.72Z"/><path class="cls-9" d="M37.55,133.79h88.39a0,0,0,0,1,0,0V152.5a0,0,0,0,1,0,0H37.55a9.36,9.36,0,0,1-9.36-9.36v0a9.36,9.36,0,0,1,9.36-9.36Z"/><path class="cls-10" d="M62.22,140.46l1.41-6.39a2.63,2.63,0,0,0-2.57-3.19h-2.8a2.63,2.63,0,0,0-2.57,3.19l1.41,6.39A2.62,2.62,0,0,0,62.22,140.46Z"/><path class="cls-10" d="M68.84,140.46l1.4-6.39a2.62,2.62,0,0,0-2.56-3.19H64.87a2.63,2.63,0,0,0-2.56,3.19l1.4,6.39A2.63,2.63,0,0,0,68.84,140.46Z"/><path class="cls-10" d="M75.46,140.46l1.4-6.39a2.63,2.63,0,0,0-2.56-3.19H71.49a2.62,2.62,0,0,0-2.56,3.19l1.4,6.39A2.63,2.63,0,0,0,75.46,140.46Z"/><path class="cls-10" d="M90.15,140.46l1.4-6.39A2.63,2.63,0,0,0,89,130.88H86.18a2.63,2.63,0,0,0-2.57,3.19L85,140.46A2.63,2.63,0,0,0,90.15,140.46Z"/><path class="cls-10" d="M96.76,140.46l1.41-6.39a2.63,2.63,0,0,0-2.57-3.19H92.8a2.63,2.63,0,0,0-2.57,3.19l1.4,6.39A2.63,2.63,0,0,0,96.76,140.46Z"/><path class="cls-10" d="M103.38,140.46l1.4-6.39a2.62,2.62,0,0,0-2.56-3.19H99.41a2.62,2.62,0,0,0-2.56,3.19l1.4,6.39A2.63,2.63,0,0,0,103.38,140.46Z"/></g></g></svg>