<svg xmlns="http://www.w3.org/2000/svg" viewBox="0 0 94.5 98.97"><defs><style>.cls-1{fill:#eac324;}.cls-2{fill:#efe526;}.cls-3{fill:#f72145;}</style></defs><title>pop</title><g id="Layer_2" data-name="Layer 2"><g id="Layer_7" data-name="Layer 7"><path class="cls-1" d="M72.45,22a17.58,17.58,0,0,1,1.85,2c.72.92.27.47,1.85,1.2,2.44,1.13,14.07-.37,16.81-2,1.59-1,2.1-2.75.8-3.94A7.3,7.3,0,0,0,91.24,18l-1.3-.22c-1.4-.24-2.18-1.66-2.44-3.06h0a3.39,3.39,0,0,0-2.91-2.74L83.4,12a2.51,2.51,0,0,1-2.34-1.93l-.14-1.81a3.08,3.08,0,0,0-2.37-2.09L77,6a2.7,2.7,0,0,1-2.26-2.43l-.14-.75a3.39,3.39,0,0,0-1-1.87L73,.45c-1.3-1.19-2.72.18-3.64,1.71-1.19,2-1.94,12-.5,15.22.67,1.51.52,2.29,1.5,3a17.7,17.7,0,0,1,1.93,1.55Z"/><path class="cls-1" d="M22,76.9a19.1,19.1,0,0,0,2.17,1.68c1,.64.5.22,1.36,1.74,1.33,2.34.8,14.05-.64,16.91C24,98.9,22.3,99.56,21,98.37A7.47,7.47,0,0,1,19.51,96l-.33-1.28c-.35-1.37-1.83-2-3.24-2.18h0a3.37,3.37,0,0,1-3-2.67l0-1.18a2.54,2.54,0,0,0-2.12-2.18H9A3,3,0,0,1,6.71,84.3l-.29-1.52a2.72,2.72,0,0,0-2.61-2l-.76-.08a3.36,3.36,0,0,1-2-.88l-.55-.5C-.75,78.08.49,76.54,2,75.5c1.9-1.36,11.76-2.93,15.11-1.77,1.57.54,2.33.33,3.08,1.24a18.07,18.07,0,0,0,1.71,1.8A1.59,1.59,0,0,0,22,76.9Z"/><polygon class="cls-2" points="18.18 60.91 44.44 72.88 51.45 65.25 25.19 53.28 18.18 60.91"/><polygon class="cls-2" points="77.33 37.1 51.08 25.13 44.07 32.75 70.33 44.72 77.33 37.1"/><path class="cls-2" d="M77,19.78l-2.53-2.32a12,12,0,0,0-17,.71l-.47.51L80.78,29.51A12,12,0,0,0,77,19.78Z"/><path class="cls-2" d="M17.61,79.25l2.52,2.33a12.05,12.05,0,0,0,17-.71l1.41-1.54L14,68.15A12,12,0,0,0,17.61,79.25Z"/><polygon class="cls-2" points="38.13 39.21 31.12 46.83 57.38 58.8 64.39 51.17 38.13 39.21"/><path class="cls-3" d="M16.9,62.3A11.91,11.91,0,0,0,14,68.15L38.5,79.33l5.94-6.45-26.26-12Z"/><polygon class="cls-3" points="25.19 53.28 51.45 65.25 57.38 58.8 31.12 46.83 25.19 53.28"/><polygon class="cls-3" points="70.33 44.72 44.07 32.75 38.13 39.21 64.39 51.17 70.33 44.72"/><path class="cls-3" d="M77.67,36.74a11.94,11.94,0,0,0,3.11-7.23L57,18.68l-5.93,6.45,26.26,12Z"/></g></g></svg>