<svg xmlns="http://www.w3.org/2000/svg" viewBox="0 0 63.65 87.03"><defs><style>.cls-1,.cls-2{fill:#f91515;}.cls-2{opacity:0.84;}</style></defs><title>Sblood1</title><g id="Layer_2" data-name="Layer 2"><g id="움직이는거"><circle class="cls-1" cx="61.22" cy="84.6" r="2.43"/><path class="cls-2" d="M60.35,78.36C56.64,73,45.69,57.2,40.79,49.13a8.16,8.16,0,0,1-.44-7.63l.13-.28a5.64,5.64,0,0,1,5.12-3.3H56a2.11,2.11,0,0,0,2.12-2.14h0A2.11,2.11,0,0,0,56,33.69c-1.7,0-11.11-.15-12.88-.55a3.3,3.3,0,0,1-2.36-2.05v0a6.13,6.13,0,0,1,1.41-6.46l11-11a2.12,2.12,0,0,0,0-3h0a2.12,2.12,0,0,0-3,0L38.45,22.31a4.61,4.61,0,0,1-5.08,1L33,23.11a4.55,4.55,0,0,1-2.88-4.24V17.28a2.2,2.2,0,0,0-1.77-2.21,2.12,2.12,0,0,0-2.47,2.09s.93,5.5-1.5,5.5c-1.56,0-3.09-.14-4-1.41L6.17,1A2.21,2.21,0,0,0,3.46.19a2.13,2.13,0,0,0-.83,3.14L14.3,20a10.88,10.88,0,0,1,1.11,10.48l-.11.24a4.86,4.86,0,0,1-4.48,3h-7a2.18,2.18,0,0,0-2.2,1.77A2.11,2.11,0,0,0,3.7,37.92h8.24A3.26,3.26,0,0,1,15,40.15c.17.48.35,1,.56,1.41a3.79,3.79,0,0,1-.7,4.31L5.16,55.61a2.18,2.18,0,0,0-.31,2.8,2.12,2.12,0,0,0,3.23.28l8.1-8.11a7.41,7.41,0,0,1,7.55-1.81l.15,0a2.84,2.84,0,0,1,2,2.7v14a2.2,2.2,0,0,0,1.76,2.21,2.13,2.13,0,0,0,2.48-2.09V51.27a2.51,2.51,0,0,1,1.79-2.4h0a3.17,3.17,0,0,1,3.5,1.22l21.48,30.7a2.14,2.14,0,0,0,2.91.57h0A2.13,2.13,0,0,0,60.35,78.36Z"/><circle class="cls-1" cx="27.72" cy="6.89" r="2"/><circle class="cls-1" cx="3.54" cy="65.32" r="3.54"/></g></g></svg>