<svg xmlns="http://www.w3.org/2000/svg" viewBox="0 0 53.31 192.51"><defs><style>.cls-1{fill:none;stroke:#161615;stroke-linecap:round;stroke-linejoin:round;stroke-width:3px;}</style></defs><title>spider2</title><g id="Layer_2" data-name="Layer 2"><g id="움직이는거"><line class="cls-1" x1="26.66" y1="1.5" x2="26.66" y2="162.45"/><path d="M17.31,163.38,9.13,141.6l.51-.42c2,3.08,4.18,6,5.81,9.27,1.71,3.4,2.86,7.07,4.23,10.57,4-.32,1.51-2.67,1.84-4.12.43-1.87,1.6-3.56,2.24-5.4a42.34,42.34,0,0,0,1-4.65l1.11.21-.31,3.42,4,.27c.13-1.23.23-2.3.34-3.37l1.19-.12c.5,5,1,10,1.55,15.67,5.47-6.2,7.26-14.53,14.66-17.88Q41.52,155,35.6,165l.27,1.08,17.22-3.5.22.69-17.56,6.31L50.6,177l-.27.79-14-4.45c3.92,12.19,3.31,15.14-4.34,19.14,4.49-5.39,5.37-11.12,2.44-16.57-3.24,1.36-6.44,3.84-9.44,3.62-2.84-.22-5.46-3.27-8.31-5.17-3.65,4.3-3.92,7.28-.85,16.69-6.37-4.65-6.51-7.92-.75-19.59l-14.22,2-.19-.89,15.69-4.78L0,158.51l.32-.69,16.34,6.58Z"/></g></g></svg>