<svg xmlns="http://www.w3.org/2000/svg" viewBox="0 0 117.5 274.13"><defs><style>.cls-1{opacity:0.69;}.cls-2{fill:#fce5ee;}.cls-3{fill:#ac8f8b;}</style></defs><title>Asset 38</title><g id="Layer_2" data-name="Layer 2"><g id="Layer_1-2" data-name="Layer 1"><g class="cls-1"><path class="cls-2" d="M0,56.06v2.69c0-.9,0-1.79.07-2.69Z"/><path class="cls-2" d="M117.43,56.06a58.74,58.74,0,0,0-117.36,0C0,57,0,57.85,0,58.75v180a14.76,14.76,0,0,0,29.52,0h0V187.4h0a7.24,7.24,0,0,1,14.47,0v26.27a14.76,14.76,0,1,0,29.52,0V187.4a7.23,7.23,0,1,1,14.46,0v72a14.77,14.77,0,0,0,29.53,0V56.06Z"/><circle class="cls-3" cx="33.02" cy="52.82" r="6.64"/><circle class="cls-3" cx="75.07" cy="52.11" r="6.64"/><rect class="cls-3" x="24.37" y="69.85" width="63.32" height="31.99" rx="5.03" ry="5.03"/></g></g></g></svg>