<svg xmlns="http://www.w3.org/2000/svg" xmlns:xlink="http://www.w3.org/1999/xlink" viewBox="0 0 986.94 751.64"><defs><style>.cls-1{fill:url(#linear-gradient);}.cls-2,.cls-5{fill:#edb55d;}.cls-2{opacity:0.25;}.cls-3{opacity:0.13;}.cls-4{fill:#fff;}.cls-6{fill:none;stroke:#edb55d;stroke-linecap:round;stroke-linejoin:round;stroke-width:0;}.cls-7{opacity:0.08;}.cls-8{fill:#efbe72;}.cls-9{opacity:0.09;}.cls-10{fill:#30272a;}.cls-11,.cls-26{fill:#1b1215;}.cls-12{fill:#393133;}.cls-13{fill:#406b79;}.cls-14{fill:#12444f;}.cls-15{fill:#93a599;}.cls-16{fill:#8e6a50;}.cls-17{fill:#2c5962;}.cls-18{fill:#e1bd89;}.cls-19{fill:#7f9ca5;}.cls-20,.cls-22{fill:#0d383f;}.cls-20{opacity:0.63;}.cls-21{fill:#517885;}.cls-23{fill:#0b383f;}.cls-24{fill:#23515b;}.cls-25{fill:#093135;}.cls-26{opacity:0.48;}</style><linearGradient id="linear-gradient" x1="487.77" y1="51.74" x2="487.77" y2="1306.43" gradientUnits="userSpaceOnUse"><stop offset="0"/><stop offset="1" stop-color="#319196"/></linearGradient></defs><title>Asset 23</title><g id="Layer_2" data-name="Layer 2"><g id="Layer_1-2" data-name="Layer 1"><rect class="cls-1" y="31.64" width="975.53" height="720"/><circle class="cls-2" cx="737.06" cy="241.42" r="117.21"/><g class="cls-3"><path class="cls-4" d="M1062.31,88.42c5.34,1.6,16.33,7,15.86,7.33.21-.16.32-.24,1.32.17.49.2,1.21.52,2.28,1,.53.25,1.16.53,1.87.89l2.43,1.29c-.15.09,1.39,1.07,3.49,2.32s4.64,2.93,6.65,4.2a123.75,123.75,0,0,0-17.14-10.5c-1.14-.49-2.4-1.08-3.76-1.75l-4.46-2c-1.58-.69-3.18-1.51-4.89-2.21l-5.16-2.13L1058.21,86l-2.6-.92-5-1.73c-3.21-1-6.14-1.71-8.39-2.19l4.75,1.56,2.4.81,2.41.92q2.43.93,5,1.88c.88.3,1.77.65,2.67,1Z" transform="translate(-256 -20)"/><path class="cls-4" d="M1099.65,111.19l1.27.69c-1.15-.79-2.28-1.63-3.45-2.4l-3.56-2.24-3.56-2.25c-1.2-.72-2.44-1.38-3.65-2.07l3.31,1.8,4.23,2.68c1.41.9,2.74,1.76,3.73,2.44A13.88,13.88,0,0,1,1099.65,111.19Z" transform="translate(-256 -20)"/><path class="cls-5" d="M1139.14,148.27c-1.18-1,3.74,6,3.38,6,.56-.78,7.71,11,11.33,17.37l1.87,2.36c-.38-.81-.84-1.78-1.38-2.86s-1.25-2.24-2-3.53l-2.39-4.1c-.86-1.45-1.89-2.9-2.89-4.44A191.65,191.65,0,0,0,1133,140.47C1135,143.05,1137.1,145.66,1139.14,148.27Z" transform="translate(-256 -20)"/><path class="cls-4" d="M1146.82,159.75c1,1.29,2,2.54,3,3.86C1147.5,160.25,1142.23,152.51,1146.82,159.75Z" transform="translate(-256 -20)"/><path class="cls-4" d="M1142.4,150.14c-7.2-9.71,4.21,6-3.23-3.68C1141.76,149.61,1144.53,153.45,1142.4,150.14Z" transform="translate(-256 -20)"/><path class="cls-5" d="M1165.82,194.72c-1.69-3.92-3.23-7.9-5.17-11.7l-1.38-2.88-.7-1.44-.76-1.41-3-5.61,2.37,4.73,1.19,2.36,1.06,2.41c1.12,2.23,2.33,4.43,3.36,6.7Z" transform="translate(-256 -20)"/><path class="cls-5" d="M1165.22,196.44c-1.16-3.1-3-8-1-3.67.37,1.08.78,2.08,1.11,3.07s.65,1.94,1,2.86l1.89,5.24c.54,1.73,1.08,3.43,1.63,5.21.26.9.53,1.81.81,2.76s.44,2,.66,3c-.66-2.61-1.56-5.16-2.39-7.73a15.66,15.66,0,0,0,.77,3c.23.79.54,1.66.8,2.59s.52,1.92.78,2.9c.52,1.94,1,3.84,1.34,5.25s.33,2.32.12,2.26c2.7,10.63-1-8.31,2.22,5.59l-1-4.79c-.34-1.55-.59-3.06-1-4.51-.76-2.9-1.37-5.7-2.12-8.38s-1.55-5.29-2.32-7.91-1.77-5.17-2.68-7.85c.93,3.14,1.44,4.38,2.81,8.78-.63-1.9-1.41-3.94-2.2-6.09-.4-1.07-.78-2.18-1.24-3.28l-1.42-3.33c-1.84-4.52-4.13-9-6.19-13.22.92,2.37,2.13,5.11,3.58,8.12.72,1.5,1.34,3.15,2,4.83S1164.64,194.57,1165.22,196.44Z" transform="translate(-256 -20)"/><path class="cls-5" d="M1175.09,235.68c1.25,8.54,1.93,21.82,2.35,24.14a55.2,55.2,0,0,0-.23-9.3c-.22-2.05-.45-3.47-.82-5.5-.1-1.31-.32-4.12-.48-6.16s-.33-3.32.1-1.6C1176.07,238.53,1174.74,231.8,1175.09,235.68Z" transform="translate(-256 -20)"/><path class="cls-5" d="M1176.62,269.45c.09,2.1.23,4.21.18,6.31l.13-2c0-.68,0-1.35,0-2l.4-.45c0-.36-.19-1.31-.3-3.24,0-1-.07-2.18-.1-3.69s-.12-3.31-.12-5.47c-.14,2.25-.11,3.75-.07,5.27S1176.77,267.17,1176.62,269.45Z" transform="translate(-256 -20)"/><path class="cls-5" d="M1179.2,271.67c-.06.74-.11,1.44-.17,2.11s-.15,1.31-.22,1.94c-.13,1.26-.24,2.45-.33,3.68s-.16,2.48-.31,3.85-.32,2.85-.51,4.54c.7-4.68,1.18-10.41,1.49-15.3.08-2.45.14-4.69.2-6.5a35.54,35.54,0,0,0-.09-3.89l.1.74s-.1-2.22-.22-5.24c0-1.5-.22-3.2-.39-4.91s-.37-3.43-.54-5c.23,2.4.42,5.27.59,8.18s0,5.88.08,8.45C1178.73,269.47,1178.65,273.06,1179.2,271.67Z" transform="translate(-256 -20)"/><polygon class="cls-5" points="923.5 239.55 923.68 243.01 923.77 244.74 923.78 246.47 923.77 244.74 923.68 243.01 923.5 239.55"/><polygon class="cls-5" points="917.68 275.94 918.33 272.7 918.65 271.08 918.9 269.45 919.89 262.92 919.29 266.1 918.6 271.04 917.68 275.94"/><path class="cls-5" d="M1177.6,280.51c-.23,2.66-.43,3.61-.39,3.73a7.07,7.07,0,0,0,.34-1.37,14.87,14.87,0,0,1,.31-1.5,3.44,3.44,0,0,1,0,.77c0,.53-.16,1.37-.32,2.62a59,59,0,0,0,.66-6.44c.08-1,.16-2.09.24-3.11s.14-2,.13-2.84c0-1.72,0-3,0-3.17-.06.65-.09,1.62-.12,2.72,0,.55,0,1.14,0,1.73s-.08,1.2-.13,1.79A24.48,24.48,0,0,1,1177.6,280.51Z" transform="translate(-256 -20)"/><path class="cls-5" d="M1171.83,304.36c-.38,1.77-.65,3.57-1.12,5.32l-1.32,5.28,1.32-5.28C1171.18,307.93,1171.45,306.13,1171.83,304.36Z" transform="translate(-256 -20)"/><path class="cls-5" d="M1163.33,330.1l-.52,2.09c-2.15,4.8-4.7,10.43-7.48,15.55-1.29,2.6-2.8,5-4.13,7.19-.68,1.09-1.33,2.13-1.94,3.08s-1.3,1.78-1.89,2.54c.64-.66.2.36.24.58s.16,0,.62-.58a34.35,34.35,0,0,0,2.45-3.68c.57-1.34,2.25-4.2,1.78-3.85,2.07-3.37,1.87-2.55,3.19-4.84,3-6.09,7.49-15.67,9.16-20.88-.94,2.51-1.24,3.08-2,4.89,1-2.73,1.79-4.86,2.53-6.61s1.21-3.17,1.69-4.37a22.13,22.13,0,0,0,2-6.62,51.37,51.37,0,0,1-2.45,7.38c-.54,1.37-1,2.8-1.6,4.16S1163.81,328.84,1163.33,330.1Z" transform="translate(-256 -20)"/><path class="cls-5" d="M1165.52,329.94c.58-1.45,1.22-2.88,1.76-4.34l1.58-4.42c-.15.72-.45,1.76-.83,2.94s-.82,2.49-1.35,3.73a48.08,48.08,0,0,0-2.06,5.62c.42-.43,4-9.09,2.87-5.85-.36-1.35,4.16-12.14,1.65-7.85,1-2.87,1.41-4.57,1.79-5.63a16.79,16.79,0,0,1,.78-2c.39-.94,1-1.92,2.39-8.17l.37-3.62c-.76,3.47-1.4,6.23-2,8.61l-1.9,6.36c-.56,2-1.29,4-2.09,6.28-.39,1.17-.82,2.42-1.29,3.8S1166.13,328.27,1165.52,329.94Z" transform="translate(-256 -20)"/><path class="cls-5" d="M1148.84,362l-2.74,3.63,1.71-1.82-2.1,3.18-2.18,2.9c-1.44,1.87-2.75,3.68-4.15,5.3l-4.06,4.6c-.65.72-1.27,1.45-1.93,2.12l-2,1.95-3.71,3.7c-1.18,1.22-2.45,2.27-3.62,3.38s-2.33,2.19-3.45,3.29-2.32,2.1-3.44,3.18c-1.41,1.36-2.79,2.72-4.22,4l-4.42,3.68-2.21,1.81c-.75.57-1.53,1.12-2.29,1.68l-4.62,3.31c-1.55,1.09-3.19,2.07-4.78,3.11s-3.18,2.11-4.87,3c-3.34,1.91-6.66,3.94-10.21,5.75-3.34,2-1.67,1.16.94-.19s6.08-3.38,6.49-3.48a15.25,15.25,0,0,1-4.32,2.69,30.42,30.42,0,0,0-5.38,2.92c-.17.24.67-.09,2.11-.77l2.59-1.25c1-.48,2.07-1,3.16-1.66,2.21-1.26,4.65-2.62,6.88-3.93s4.21-2.66,5.69-3.55l1.63-1.12c.46-.34.85-.65,1.19-.92.67-.54,1.14-.93,1.5-1.25.72-.64,1-1,1.64-1.65a32.88,32.88,0,0,0,3.84-2.48c1.53-1.14,3.07-2.27,3.75-2.65,1.17-1,2.32-2,3.34-2.91l3-2.72c1.9-1.71,3.71-3.25,5.38-4.94s3.42-3.28,5.17-5.11,3.5-3.93,5.47-6.29c2.87-2.6-6.1,6.91-3.33,3.91,1.48-1.68,3-3.3,4.45-5l-.5.51c1.36-1.84,3.07-4,4.92-6.32.95-1.13,1.81-2.39,2.73-3.62l2.75-3.7c.94-1.2,1.76-2.45,2.57-3.64l2.32-3.36c1.5-2.07,2.6-3.93,3.41-5.16a32.45,32.45,0,0,1-2.81,4.08c-.24.26-.31.26-.13-.09s.6-1.05,1.25-2.25l2.65-3.62,1.34-2.62c.45-.87.82-1.78,1.24-2.67l2.41-5.35c-.93,2-2,4.1-3,6.08-.51,1-1.08,2-1.64,2.87l-1.6,2.63-2.58,4.32A9,9,0,0,0,1148.84,362Z" transform="translate(-256 -20)"/><path class="cls-5" d="M1156.27,351.23c3.35-6.16,3-5.87,2.74-5.73s-.25.1.12-.73c.18-.42.5-1,1-2l1.87-4-1.67,3.68c-.57,1.22-1.23,2.4-1.83,3.6l-1.86,3.59c-.31.6-.61,1.2-.94,1.79l-1,1.75C1155.19,352.53,1155.75,351.89,1156.27,351.23Z" transform="translate(-256 -20)"/><path class="cls-4" d="M1113.35,402.15l-5.53,4.13a47.79,47.79,0,0,0,6.1-4.76C1115.51,400,1116.07,399.41,1113.35,402.15Z" transform="translate(-256 -20)"/><path class="cls-4" d="M1092.93,417.32l2.72-2.51-2.61,1.93c-.86.65-1.74,1.3-2.65,1.88l1.29-.62Z" transform="translate(-256 -20)"/><path class="cls-5" d="M1072.33,427.92c-2.27,1.23-2,1.25-.45.63a59.2,59.2,0,0,0,6.92-3.32c-1.2.62-2.25,1.17-3.16,1.6s-1.68.71-2.26.93C1072.23,428.2,1071.83,428.27,1072.33,427.92Z" transform="translate(-256 -20)"/><path class="cls-4" d="M1036.21,439.52c5.62-1.4,3.12-.81.21-.19s-6.24,1.16-2.25,0c-.69.34-2.47.8-2.92,1-.22.11-.12.15.61.05l1.61-.25Z" transform="translate(-256 -20)"/><path class="cls-5" d="M999.11,443.21a33.06,33.06,0,0,1,6.41-.21C1002.5,443.15,1000.09,443.25,999.11,443.21Z" transform="translate(-256 -20)"/><path class="cls-5" d="M1127.54,386.53l2.74-3Z" transform="translate(-256 -20)"/><path class="cls-5" d="M1125.72,388.47c.64-.61,1.23-1.28,1.82-1.94C1126.88,387.28,1126.29,387.94,1125.72,388.47Z" transform="translate(-256 -20)"/><path class="cls-5" d="M1053.54,433.53h0l.87-.25Z" transform="translate(-256 -20)"/><path class="cls-5" d="M1125.14,133.39l-3.86-3.78,3.82,3.74Z" transform="translate(-256 -20)"/><path class="cls-5" d="M1121.27,128.39c1.76,1.63,3.06,2.93,4.19,4.14a44.91,44.91,0,0,1,3.06,3.66c1,1.3,2.17,2.74,3.72,4.56s3.32,4.17,5.84,7.11c-2-2.37-4-4.87-6.2-7.29q-1.65-1.8-3.34-3.61c-1.13-1.21-2.22-2.47-3.44-3.61C1119.23,126.68,1130.19,138,1121.27,128.39Z" transform="translate(-256 -20)"/><path class="cls-5" d="M1177.5,242.4l.07.54C1177.69,243.88,1177.62,243.39,1177.5,242.4Z" transform="translate(-256 -20)"/><path class="cls-4" d="M809.21,251l.16.09-.28,4.26c-.09,1.43-.21,2.85-.21,4.27,0-1.44.07-2.88.13-4.31Z" transform="translate(-256 -20)"/><path class="cls-4" d="M809.55,249.85c.49-4.8,1-9.6,1.81-14.35A184.45,184.45,0,0,0,819.19,320c-.39-.84-.74-1.7-1.07-2.57a23.52,23.52,0,0,1-.86-2.57c-.54-1.77-1.4-4.35-2.15-7.55l-1.3-5.15q-.55-2.79-1.17-5.84c-.2-1-.41-2-.62-3.08s-.31-2.12-.47-3.19c-.3-2.15-.7-4.32-.93-6.51s-.44-4.37-.66-6.52-.26-4.27-.39-6.31c-.31-4.08-.2-7.87-.25-11.07-.05-1.6,0-3.05.09-4.32s.09-2.35.12-3.22A11.46,11.46,0,0,0,809.55,249.85Z" transform="translate(-256 -20)"/><path class="cls-4" d="M809.64,245.72c0-2.09.09-4,.3-5.85s.52-3.61.81-5.44c.15-.92.3-1.84.45-2.8s.39-1.94.6-3c.41-2,.73-4.29,1.18-6.81-.57,3.37-.87,6.28-1.33,9.13s-.65,5.7-1.2,8.95C810.13,241.86,809.91,243.79,809.64,245.72Z" transform="translate(-256 -20)"/><path class="cls-6" d="M813,217.17c.31-1.12.58-2.3.88-3.47l1-3.43c.6-2.2,1.1-4.18,1.55-5.41a28.27,28.27,0,0,1-1.32,5.34l-1.16,3.64Z" transform="translate(-256 -20)"/><path class="cls-5" d="M814.47,204.59l.7-2-.63,2.12Z" transform="translate(-256 -20)"/><path class="cls-5" d="M814.54,204.67l.18.19C814.22,206.3,814.26,205.87,814.54,204.67Z" transform="translate(-256 -20)"/><path class="cls-5" d="M815.17,202.55c.56-1.86,1.24-4.05,1.53-5.2l-.68,1.89a69.13,69.13,0,0,1,3-8.37c-2,5-1.94,5.15-1.68,5.42l3.29-8.14c0,.92-.67,2.67-1.76,5.1A94.54,94.54,0,0,0,815.17,202.55Z" transform="translate(-256 -20)"/><path class="cls-6" d="M825.65,176.86l-.95,2.06c-.29.69-.56,1.4-.85,2.09l-1.68,4.2c-.71,1-.23-.29.62-2.27l1.43-3.23C824.7,178.61,825.27,177.62,825.65,176.86Z" transform="translate(-256 -20)"/><path class="cls-5" d="M832.52,165.46c-.48.94-1.84,3.3-2.72,4.86a11.23,11.23,0,0,0-.76,1.48c0,.12.18-.29.91-1.4-.66,1.27-1.41,2.8-2.26,4.38C830.38,169.51,827.16,174.09,832.52,165.46Z" transform="translate(-256 -20)"/><path class="cls-5" d="M827.69,174.78,826.54,177C826.92,176.28,827.32,175.52,827.69,174.78Z" transform="translate(-256 -20)"/><path class="cls-6" d="M808.33,265.35c.06-1.08.11-1,.17-.57Z" transform="translate(-256 -20)"/><path class="cls-5" d="M842.9,150.76l2-2.72c-.56.79-1.09,1.51-1.59,2.21Z" transform="translate(-256 -20)"/><path class="cls-5" d="M874.49,400.16l-6.34-5.83c-2.09-2-4.14-4.16-6.35-6.35s-4.32-4.72-6.74-7.3c-1.15-1.33-2.31-2.76-3.54-4.21s-2.56-3-3.78-4.63c-.2.64-4.12-5.26-5.13-5.74,5.18,6.94-5-5.9-12.67-20.78-1-1.82-1.89-3.74-2.79-5.59L825.83,337c-.44-.9-.86-1.8-1.22-2.69l-2.13-5c-.32-.79-.66-1.53-.94-2.26l-.76-2.06c-1.92-5.19-2.86-7.59-1.75-4.31l1.62,3.82-2-3.87c-2.54-7.94-4.93-19.05-6.17-24.56,0-.2.19.74.56,2.53.19.9.41,2,.68,3.28l1.08,4.29a182.48,182.48,0,0,0,7.36,22.94c.84,2,1.67,4.06,2.49,6.05s1.8,3.87,2.66,5.72c.44.92.86,1.83,1.28,2.71s.9,1.71,1.33,2.53l2.44,4.58c3.18,5.52,5.32,8.91,5,8.31.34.74-.19,0-1.37-1.88s-3.14-4.82-5.18-8.74-4.51-8.62-6.88-13.91l-1.71-4.09c-.57-1.39-1.2-2.79-1.69-4.25s-1.06-2.92-1.59-4.4l-.81-2.23c-.26-.75-.47-1.51-.71-2.27a188.62,188.62,0,0,1-7.58-34.83c-.26-2.48-.5-4.78-.72-6.84s-.24-3.89-.34-5.43c-.24-3.07-.24-5-.28-5.31l.34-1.16c-.06-1.61-.12-3.15-.17-4.63s0-2.9,0-4.28c0-2.76,0-5.35.13-7.87s.19-5,.43-7.48.54-5,.84-7.74l.86-2.35c-.43,1.95-.66,3.56-.84,5s-.33,2.7-.47,4c-.33,2.53-.33,5.12-.63,9.17.15-1.76.29-3.33.41-4.76q.09-1.07.18-2c.08-.65.18-1.27.26-1.86.34-2.35.63-4.31.9-6.15s.69-3.57,1-5.5.72-4.08,1.37-6.68a9.86,9.86,0,0,0-1,2.9c-.06.28-.07.12.14-.93s.64-3,1.35-6.3c.56-1.87.47-.57.57-.29s.3-.46,2-6.26c4.53-13.86,2.87-11.37,7.72-23.17l-.94,1.93-.85,2-1.7,4c1.63-4.42,5.1-12.52,7.48-16.39l-1.08,2.08c-.38.8-.76,1.68-1.17,2.61-.81,1.84-1.68,3.85-2.45,5.7-1.38,3.76-2.39,6.9-2.06,6.81a169.59,169.59,0,0,1,9.18-20l-1,2.72c1.36-2.19,2.2-4,3.24-5.95s2.21-4,4-6.68c1.53-2.64.94-1.92.13-.93s-1.68,2.34-.89.82c.33-.55,2.26-3.22,4.28-6.26l1.54-2.3,1.58-2.17c1-1.39,1.86-2.63,2.42-3.51a17,17,0,0,0-2.35,2.68c-.94,1.27-2.1,2.8-3.17,4.57s-2.29,3.61-3.5,5.4-2.28,3.64-3.43,5.18c1-1.61,1.93-3.24,2.93-4.83l3.16-4.68c1.62-3.19-.86.59-3.56,4.74-2.49,4.28-5.18,8.95-4.53,7.21A63.87,63.87,0,0,1,837.86,160l1.87-2.65.91-1.33,1-1.27a49.19,49.19,0,0,0,3.33-5.18c-1.61,2.07-5,6.42-7.49,10.29-2.64,3.76-4.48,6.93-4.07,5.92,1.58-2.52,3-4.63,4.44-7.07.74-1.21,1.45-2.53,2.37-3.89s1.94-2.86,3.13-4.53c2-2.65,4.26-5.07,6.42-7.57,2.45-3.42.32-.8-1.88,1.65,1.2-1.37,2.45-2.91,3.85-4.49l4.52-4.93c1.53-1.77,3.3-3.45,5.07-5.24L864,127c.91-.92,1.91-1.76,2.88-2.66a155,155,0,0,1,25.52-19.42c1.25-.88,2.24-1.49,3-1.95s1.26-.79,1.6-1c.66-.44.62-.48.4-.41-.44.13-1.61.68.71-.86,2.87-1.53,6.77-3.51,10.64-5.61,1.94-1,4-2,5.82-2.88s3.63-1.78,5.2-2.38c1.87-.74,5.06-2.57,3.2-2-2.6,1.15-5.26,2.19-7.79,3.5l-3.83,1.89-1.92.94-1.86,1c.62-.6-1.82.15-7.17,3.14,1-.34.23.23-1.55,1.3l-3.31,1.93-2,1.15c-.69.41-1.38.87-2.09,1.32-5.74,3.49-11.69,7.93-11.87,8.7l-.1-.53c-1.47,1.07-2.84,2.28-4.24,3.46L871,119.12c-1.35,1.22-2.67,2.49-4,3.73s-2.7,2.45-4,3.77l.5-.41a3.92,3.92,0,0,0-.58.54l-1.58,1.6L859,130.79c-.9.94-1.92,2-2.91,3.13l-3.19,3.63c-1.11,1.25-2.27,2.53-3.32,3.89l-3.21,3.95c-.52.64-1,1.28-1.55,1.89l-1.41,1.86,1.14-1.63c.52-.69,1.17-1.48,1.85-2.34l4.18-5.21c2.63-3,4-4.61-.22-.35,1.44-1.72,3.23-3.73,5.25-6,1-1.15,2.12-2.27,3.31-3.44l3.69-3.67,1-1,1-.92,2.1-1.88c1.42-1.26,2.84-2.59,4.34-3.87l4.64-3.82,2.35-1.93,2.45-1.85-2.78,1.64a165.39,165.39,0,0,1,24-16,200.53,200.53,0,0,1,27.62-12.32c-1.73.79-3.48,1.5-5.15,2.39,1.55-.63,3.28-1.14,5-1.72l5.36-1.75c1.81-.52,3.61-1,5.33-1.58s3.34-1.1,4.85-1.54c-2,.47-3.18.87-3.89,1s-.9.21-.81.14,1.5-.66,2.18-1c2.64-.79,5.62-1.52,8.82-2.35,1.6-.38,3.28-.68,5-1s3.47-.73,5.27-1l5.5-.82c.93-.13,1.86-.29,2.79-.41l2.83-.29,5.69-.59,5.67-.37s-.73.14-.08.17c1.31-.09,2.62-.21,3.93-.27l3.94-.09,3.94-.1c1.32,0,2.63,0,3.95.06a79,79,0,0,1,8.35.69c2.13.3,3.9.6,6.16.95,2.74.28,9.47,1.25,6.94.63-1.44-.23-2.89-.45-3.85-.56,8,.59,5.5.87,15.35,2.42-7.64-1,2.25,1,1.24,1.32,11.34,2.52,1.22-.47,2.67-.32l4.63,1.2,3.73,1.19c2.26.75,4.18,1.3,6,2l6,2.24,1.75.65,1.89.79,4.43,1.82c.43,0-1.89-.94-4.44-2-.64-.26-1.3-.54-1.92-.81l-1.81-.67a18.2,18.2,0,0,1-2.2-.93c3.83,1.3,8.21,3.13,8.94,3.3l-4-1.72c-1.33-.59-2.71-1-4.07-1.56,3.5,1.2,6.83,2.74,10.23,4.12,1.71.66,3.34,1.51,5,2.28l5,2.36a225.58,225.58,0,0,1,20.25,11.51l-1-.82,4.26,2.8c1.42.94,2.75,2,4.13,3l-3.23-1.77c2.25,1.57,4.49,3.3,6.5,4.83s3.65,3,4.92,3.75l-1.55-1.3c1.8,1.41,3.64,2.79,5.41,4.23-1.89-1.4-3.84-2.73-5.76-4.1,6.71,5.5,16.4,12.84,25.71,23.65.39.67-.45-.12-2-1.7l-2.71-2.86-1.6-1.71c-.55-.59-1.17-1.16-1.76-1.75l-3.63-3.51-1.74-1.67-1.69-1.43a28,28,0,0,0-4.22-3.23c1.67,1.63,4,3.75,6.13,5.8s4,4,5.09,4.91a51.65,51.65,0,0,0-5-5.33c1.13,1.05,2.33,2.19,3.56,3.38l1.86,1.82,1,.93.91,1,3.68,4.06,1.83,2c.57.71,1.15,1.41,1.71,2.1l3.32,4.06c1.1,1.29,2,2.64,3,3.83,1.82,2.43,3.53,4.44,4.72,6-.8-1.34-1.69-2.62-2.59-3.89l-2.67-3.84c1.63,2.17,3.08,4.19,4.36,6s2.23,3.63,3.16,5.16c1.9,3,3.09,5.4,4.25,6.83l-2.55-3.46c-.86-1.14-1.8-2.23-2.69-3.35.8,1.13,1.65,2.27,2.45,3.49l2.37,3.8c.79,1.29,1.63,2.59,2.4,3.93l2.23,4.09c.73,1.37,1.51,2.7,2.19,4.07l2,4.06c.64,1.33,1.29,2.62,1.88,3.88s1.11,2.52,1.63,3.7c.14,0-.15-.84-.65-2.12-.26-.64-.55-1.39-.9-2.18l-1.17-2.44-3.07-6.21c.86,1.41,1.62,2.87,2.44,4.3l2,4.44,1.06,2.77,1,2.78c.27.74.58,1.58,1.23,3.38s1.59,4.58,3,9.22l.36.07c.35,1.6,1,3.82,1.7,6.16.38,1.16.68,2.39,1,3.57s.63,2.33.91,3.38.52,2,.73,2.8.3,1.43.36,1.83c.12.81,0,.69-.54-.87-.3-1.74-.71-3.45-1.06-5.18l-.26.53a193.22,193.22,0,0,1,4.41,22c-.51-2.14.68,8.64,0,5.79.45,2.73.65,5.48.93,8.23-.19,1.89-.5-1.9-1-6.25s-1.21-9.24-1.56-9.63a10.85,10.85,0,0,0,.13,2.43c.1,1.24.27,2.67.38,3.61-1.46-9.79-1.39-14.75-3.57-24.41l-1.54-4.68.54.14a53,53,0,0,0-1.77-5.24c-.57-1.47-1.05-2.62-1.35-3.29-.14-.59-.27-1.19-.43-1.78s-.37-1.18-.55-1.78c-.38-1.19-.79-2.39-1.21-3.61s-.83-2.47-1.37-3.72l-1.63-3.81c-.57-1.3-1.13-2.65-1.75-4s-1.35-2.74-2-4.18-1.38-3-2.19-4.46l-2.49-4.71c3,5.34,2.18,3.56.75.67s-3.64-6.82-3.05-6c-.87-1.45-2.07-3.41-3.48-5.58l-4.81-6.82c-1.71-2.28-3.46-4.5-4.91-6.49-.72-1-1.43-1.9-2.05-2.7s-1.14-1.52-1.54-2.12c-2.31-3.18,5.5,6.17-.36-1.15-1-1.17-1.88-2.25-2.69-3.13s-1.51-1.54-2-2c-1-.91-1.09-.87.15.66-2.31-2.47-4.65-5.14-7.29-7.64l-3.92-3.9-4.18-3.77a194.47,194.47,0,0,0-17.72-14.1l3,1.83-2.75-2.1c-.92-.68-1.89-1.28-2.82-1.89-1.86-1.22-3.68-2.36-5.39-3.41-3.53-1.94-6.61-3.54-8.82-4.58-1.07-.71-1.76-1-.39-.46-2.56-1.48-4.7-2.63-6.73-3.65s-4.06-1.73-6.25-2.63c-1.1-.43-2.23-1-3.51-1.39l-4.16-1.5c-1.52-.53-3.13-1.24-5-1.82s-3.91-1.32-6.2-2.13a31.75,31.75,0,0,0,5.61,2.35c.72.26,1.49.51,2.26.81l2.34.92c1.58.61,3.16,1.2,4.6,1.72l-1.68-.12c15.53,6.19,31.63,16,42.52,24l-5.25-3.37c2.26,1.87,3.83,3.07,5,3.94s2,1.52,2.84,2.09,1.64,1.13,2.74,2c.55.44,1.17,1,1.91,1.61s1.51,1.5,2.46,2.49c6.16,5.29-4.19-4.13.51-.2,2.09,2,1.66,1.9,1.61,2.13s0,.31.55.88,1.5,1.48,3.17,3.2a189,189,0,0,0-46.07-32.52,193.72,193.72,0,0,0-27-10.91,188.85,188.85,0,0,0-28-6.35c-.73,0,1.24.27,3.17.65-1.61-.21-4.65-.53-8.71-1.09-2-.25-4.35-.4-6.87-.65s-5.26-.35-8.18-.49a184.91,184.91,0,0,0-40,2.63,179.37,179.37,0,0,0-36.8,10.69L919.4,93c-1.1.47-2.12,1-3.1,1.46L911.21,97a32.51,32.51,0,0,0-4.82,3c-1.75.71,3.52-2.34-3.51,1.43-.58.46-2.27,1.61-.56.82a151,151,0,0,0-28.12,19.35,208.39,208.39,0,0,0-25.86,26.8c.27-.13-.47.82-1.15,1.92a22.23,22.23,0,0,0-1.41,2.31c-.66.8-1.37,1.69-2.11,2.64s-1.53,1.95-2.24,3.06c-1.46,2.18-3,4.52-4.49,6.88l-4.07,7c-1.25,2.24-2.31,4.34-3.29,6l1.4-2.12a181.56,181.56,0,0,0-10,22.4c-.06.36.15-.26.52-1.18l1.26-3c-.47,1.26-.86,2.26-1.2,3.06s-.55,1.44-.76,1.91a5.16,5.16,0,0,1-.88,1.52l-1.5,5.26-1.25,5.31c-.31.95-.61,1.91-.92,2.88s-.53,2-.8,3c-.5,2-1,4-1.54,6.06-.79,4.14-1.75,8.37-2.26,12.75-.7,4.35-1,8.83-1.38,13.36-.15,4.54-.38,9.14-.22,13.78A184.4,184.4,0,0,0,812.68,291a222.87,222.87,0,0,0,6.45,27.19c1.09,2.55,2.13,4.89,3.24,7.71.53,1.42,1.26,2.88,2,4.57.36.85.74,1.73,1.15,2.68s.81,1.95,1.33,3c-.64-1.38-1.12-2.82-1.67-4.23,1,2.14,1.47,3.25,1.75,3.8s.24.59.2.59-.28-.16,1.5,3.43c2.57,4.78,1.3,1.21-2-5.36-1.59-4.33-.44-1.72,1,1.22a194.92,194.92,0,0,0,21.32,36.3A201,201,0,0,0,874.49,400.16Z" transform="translate(-256 -20)"/><path class="cls-5" d="M901.84,417.5c1.32.89-1.41-.65-3.67-1.89s-3.93-2.35-.84,0c10.12,6.9,24.67,14.12,40.54,19.26l6,1.76c1,.28,2,.61,3,.86l3.06.73c2,.47,4,1,6.1,1.42l6.09,1.17a206.39,206.39,0,0,0,23.28,2.74c1.93.15,3.52.32,4.91.38l3.79.1,3.65.07c1.3,0,2.75-.06,4.5-.1.13-.08.14-.17-.2-.24l3.19-.16c1.13-.06,2.31-.12,3.52-.27l7.61-.81,7.56-1.12c2.41-.39,4.66-.86,6.62-1.18,2.2-.53,3.74-1.2-.47-.27,3-.61,5.66-1.34,8.21-1.93l3.71-.85,3.41-.91,3.19-.84c1-.26,2-.53,2.94-.86,1.87-.61,3.59-1.22,5.17-1.85-5.6,1.74,5.38-2.27-1.28-.1,3-1,5.11-1.88,6.85-2.47s3-1,4.29-1.3a62.08,62.08,0,0,0,9.18-3.52c.48-.37,1-.73-.83.18,2.48-1.17,5.6-2.72,8.82-4.51l4.84-2.88c.8-.5,1.62-1,2.4-1.47l2.28-1.53,4.25-2.84c1.33-.86,2.45-1.76,3.47-2.46,2-1.43,3.41-2.32,3.78-2.32,1.14-.95,2.18-2,3.25-3,2-1.42,2.73-1.91,3.81-2.66a60.57,60.57,0,0,0,5.43-4.51c3.79-3.63-.37-.1,1-1.49,1-.56,3.88-3.43,7.17-6.64l1.24-1.22,1.21-1.3,2.38-2.53c1.55-1.64,3-3.12,4.1-4.31.17,0-.24.55-1,1.42s-2,2-3.27,3.31-2.72,2.81-4.16,4.2a54.71,54.71,0,0,0-3.82,4c-.07.22.6-.41,1.53-1.33a166.72,166.72,0,0,1-17.91,15.52,183.89,183.89,0,0,1-18.15,11.75,226.44,226.44,0,0,1-37.11,16.59,77.63,77.63,0,0,0-7.58,2.19c-2.12.72-3.86,1.27-5.11,1.8,1.21-.27,3-.61,4.94-1.12s4.1-1.15,6.11-1.75a48.64,48.64,0,0,0,5.17-1.83c1.34-.55,2.18-1,2.19-1.19,2.77-.74,5.43-1.75,8.15-2.67,3-1.26,3.23-.53,4.56-1-1.37.65-2.82,1.24-4.06,1.83s-2.29,1.11-2.93,1.49c-1.27.75-.87.86,3-.58-7.41,3.11-6.37,2.17-5.09,1.28.63-.47,1.31-1,1-1a39.42,39.42,0,0,0-4.84,1.66l-1.76,1.21c1.21-.6-1.07.12-4.22,1.08-1.59.44-3.39,1-5.06,1.46s-3.22,1-4.32,1.28c.62-.12,1.25-.22,1.86-.36a199.69,199.69,0,0,1-29.67,5.52,189.08,189.08,0,0,1-32.9.66,182.1,182.1,0,0,1-33.23-5.32A184.61,184.61,0,0,1,916.09,429c-1.09-.69-2.34-1.4-3.71-2.12s-2.8-1.59-4.34-2.41-3.17-1.61-4.78-2.53l-4.9-2.77c-.82-.46-1.65-.91-2.45-1.39l-2.36-1.48c-1.55-1-3.06-1.95-4.48-2.89a67.51,67.51,0,0,1-7-5.5c-3.79-2.57,4.94,4.27-2.2-.85-3.47-2.71-3.55-3.24-3.33-3.19l-3.19-2.45c-.79-1.56.47-1.26,4.74,1.44q1.59,1,3.76,2.51l5.13,3.28,3.06,2,3.52,2.09,3.88,2.34C898.84,415.9,900.32,416.66,901.84,417.5Z" transform="translate(-256 -20)"/></g><g class="cls-7"><path class="cls-8" d="M1110.11,51.64c2.07,1.14,4.18,2.31,4.65,2.6l3,1.8c2,1.23,4,2.37,5.92,3.65l5.76,3.89,2.87,1.94,2.79,2.07,5.56,4.15c.94.67,1.82,1.42,2.72,2.16l2.67,2.2a237.68,237.68,0,0,1,38.4,39.71c-.48-.84-.67-1.27,1.56,1.64,1.16,1.53,2.36,3.14,3.62,4.81l3.65,5.4,1.91,2.84c.32.48.65,1,1,1.45s.61,1,.92,1.52l3.78,6.27c1.34,2.1,2.48,4.38,3.72,6.66.62,1.14,1.23,2.29,1.86,3.44s1.27,2.31,1.82,3.53l3.47,7.29.88,1.84c.28.62.53,1.26.8,1.89l1.59,3.79,1.92,4.48c.64,1.49,1.14,3,1.72,4.51a24,24,0,0,0,1.45,3.26c.43,1.17.85,2.32,1.26,3.46s.72,2.29,1.08,3.42q1,3.38,2,6.59c.7,2.13,1.16,4.28,1.7,6.35l1.53,6.09a241.87,241.87,0,0,1-38.38,197.12c-2.13,2.84-4.19,5.75-6.39,8.56l-6.79,8.31-7.2,8c-2.48,2.61-5.06,5.14-7.59,7.72a243.57,243.57,0,0,1-72.91,49l-4.36,1.9-2.19.95-2.22.84-8.91,3.36-9,2.9-2.26.73-2.29.61-4.57,1.22-4.56,1.21c-1.53.37-3.07.67-4.6,1l-4.6,1c-1.53.31-3,.68-4.6.89l-9.2,1.46c-1.52.27-3.07.39-4.6.56l-4.58.48A248.07,248.07,0,0,1,987,505.2c-2.5,0-5-.25-7.56-.36l-3.8-.21-1.92-.1-1.9-.2c-5.09-.57-10.23-.95-15.3-1.87-2.54-.41-5.08-.77-7.6-1.22l-7.5-1.57-3.73-.77-3.66-1-7.24-1.89c-2.39-.66-4.71-1.46-7-2.17l-3.44-1.09-1.71-.54-1.67-.61-6.56-2.43L903.2,488l-3.08-1.31c.57.39-.18.22-1.9-.37-.86-.29-2-.69-3.26-1.18s-2.81-1-4.42-1.77L885.27,481c-1.87-.86-3.89-1.7-5.88-2.78-4-2.1-8.34-4.16-12.38-6.62l-6-3.48c-1.92-1.19-3.75-2.4-5.51-3.51l-4.92-3.13-4-2.76c-4.65-3.19-6.57-4.31-3.26-1.46-2.42-1.75-4.84-3.8-7.36-5.89l-3.82-3.17c-1.29-1.07-2.5-2.25-3.76-3.37l-3.74-3.4-1.86-1.7L821,438l-6.76-6.77c-8.36-8.88-14.21-16.29-15-16.88a52,52,0,0,1-4.88-5.19c-1.14-1.34-2.52-2.92-4.06-4.86s-3.19-4.3-5.15-7a224.75,224.75,0,0,1-13.69-22.09,244.79,244.79,0,0,1-15.84-36.78,228.19,228.19,0,0,1-9.49-41.27c-.24-1.72-.52-3.4-.71-5.05s-.32-3.27-.46-4.83l-.43-4.51c-.13-1.45-.31-2.83-.34-4.14-.24-5.25-.45-9.32-.61-11.53-.15-3.42-.23-3.13-.26-1s.11,6.25.21,10.32c0,1,.06,2,.08,3s.14,1.95.19,2.85l.32,4.46c.13,2.18.08,2.49-.35-1A249.62,249.62,0,0,0,760,353.69c2.27,5.36,4.4,10.77,7,16,2.4,5.29,5.27,10.34,8,15.45,1.43,2.52,3,5,4.47,7.46l2.25,3.71,2.42,3.61c1.64,2.38,3.2,4.82,4.89,7.17l5.19,7,1.3,1.73c.44.57.91,1.12,1.37,1.68l2.75,3.35c1.85,2.22,3.63,4.5,5.62,6.6l5.82,6.42c2,2.07,4.07,4.1,6.1,6.15,1,1,2,2.06,3.08,3l3.19,2.92,3.21,2.91c1.07,1,2.11,2,3.24,2.86l6.67,5.51c.56.46,1.1.93,1.67,1.37l1.74,1.3,3.46,2.59L847,465c1.14.88,2.37,1.64,3.55,2.46l7.16,4.85,7.39,4.5c1.24.73,2.44,1.53,3.71,2.21l3.8,2.06,3.79,2.07c1.27.69,2.53,1.39,3.84,2l7.78,3.76c1.29.65,2.61,1.21,3.94,1.77l4,1.69,4,1.69c1.32.58,2.7,1,4,1.53l8.12,3,8.25,2.6c1.38.42,2.75.87,4.13,1.26l4.19,1.09c2.8.7,5.57,1.49,8.39,2.11,5.65,1.14,11.28,2.45,17,3.21l4.28.66,2.14.33,2.15.23,8.61.89a251.85,251.85,0,0,0,34.64.54c5.78-.16,11.53-.88,17.3-1.43,1.44-.11,2.87-.39,4.3-.59l4.3-.65,4.3-.65c1.43-.21,2.85-.55,4.27-.82l8.53-1.73,8.44-2.15c1.41-.36,2.82-.7,4.22-1.09l4.17-1.29c2.77-.88,5.57-1.67,8.32-2.63l8.2-3,2.06-.74c.68-.26,1.34-.56,2-.84l4-1.7c5.43-2.15,10.63-4.8,15.91-7.31,2.59-1.34,5.14-2.77,7.72-4.15,1.28-.71,2.58-1.38,3.85-2.11l3.75-2.27,3.76-2.28c1.25-.77,2.52-1.5,3.72-2.34l7.29-4.92c1.23-.8,2.41-1.68,3.58-2.56l3.53-2.63,3.53-2.64c1.17-.89,2.28-1.86,3.42-2.78,2.27-1.88,4.56-3.72,6.8-5.63l6.55-5.94a256.85,256.85,0,0,0,26.88-29.6l4.2-5.64c.71-1,1.44-1.95,2.18-2.94l2.11-3.12c1.41-2.11,2.87-4.27,4.36-6.48s2.8-4.6,4.25-7l2.19-3.61,2.05-3.78c1.37-2.56,2.84-5.12,4.18-7.81s2.63-5.47,4-8.27c.7-1.39,1.31-2.83,1.92-4.29s1.24-2.92,1.86-4.4a251.26,251.26,0,0,0,12.52-38.6,255.14,255.14,0,0,0,4.46-90.35,248,248,0,0,0-30.89-91.49,251.06,251.06,0,0,0-61.86-71.75q-9.52-7.53-19.42-13.9Z" transform="translate(-256 -20)"/><path class="cls-8" d="M857.51,51.63c-5.7,3.72-11.15,7.62-16.3,11.62a243.95,243.95,0,0,0-70.45,87.09c1.19-2.48,2.6-4.79,3.89-7.1s2.53-4.57,3.87-6.69l3.94-6.18c.63-1,1.26-2,1.88-2.94s1.31-1.85,1.94-2.76a238.15,238.15,0,0,0-16.87,29.74c-2.29,4.54-4,8.85-5.51,12.47s-2.55,6.69-3.33,8.86c-2.26,6-3.59,11-4.77,14.85l-.8,2.74-.57,2.39c-.34,1.48-.63,2.71-.86,3.73-.92,4.06-.92,4.63-.35,3.07s1.65-5.26,3-9.71c.78-2.2,1.62-4.59,2.48-7l1.28-3.62c.48-1.18,1-2.35,1.43-3.48,2.58-6.53,2.36-5.29,2.48-5s.42-.4,4.92-10.38l-2.18,5.14c-.7,1.61-1.36,3.14-1.89,4.66-1.11,3-2.13,5.79-3.16,8.57s-1.8,5.65-2.79,8.72c-.24.76-.48,1.55-.74,2.35l-.38,1.21-.33,1.27L756,200.69c0,.46.7-2.26,1.79-6.43l2.19-7c.4-1.27.81-2.59,1.22-3.91s.93-2.62,1.39-3.92l2.71-7.36c.87-2.22,1.74-4.13,2.36-5.59,1.27-2.89,1.76-3.88.81-1.3a236.24,236.24,0,0,0-14.4,45.68c.2-.66.52-2,.93-3.8.19-.91.46-1.93.77-3.05l1-3.62c.34-1.28.71-2.65,1.09-4.07l.57-2.16.7-2.19c.94-3,1.91-6,2.87-9.05,4.18-12,9.11-22.57,8.76-21.39-.8,2-2.32,5.48-4.16,9.69-.86,2.13-1.71,4.47-2.63,6.86s-1.9,4.85-2.64,7.34L759,192.57l-.53,1.68-.43,1.64c-.28,1.06-.54,2.08-.78,3a69.42,69.42,0,0,0-1.67,7.29c-.05.3.95-3.36,2.18-8l1-3.66c.39-1.24.78-2.5,1.17-3.73l2.1-6.68c-.9,2.9-1.76,5.71-2.6,8.43-.21.68-.43,1.35-.61,2l-.52,2c-.33,1.33-.66,2.64-1,3.92s-.64,2.53-1,3.76l-.45,1.81-.36,1.8c-.47,2.36-.91,4.61-1.33,6.72-.21,1.06-.41,2.08-.6,3.07l-.43,2.89c-.26,1.86-.5,3.58-.72,5.14l-.58,4.2-.25,3.22c-.26,3.58-.21,4.29.23,1.37l.4-2.88c.14-1.2.39-2.62.69-4.29s.63-3.59,1-5.77l.59-3.47.85-3.83a254.2,254.2,0,0,0-3.82,25.9c-.31,2.32-.35,4.66-.51,7l-.39,6.89c-.07,4.54,0,8.92,0,13v-.13l0-6.95c0-2.56,0-5.29.19-8s.32-5.39.46-7.86l.11-1.81.18-1.71c.12-1.1.23-2.13.32-3.05a244.37,244.37,0,0,0-1.19,27.47l.24-4.81L751,255c.05-1.72.19-3.44.28-5.17l.31-5.22c0-.87.09-1.76.16-2.64l.28-2.65c-.39,3-.45,6.05-.64,9.09s-.4,6.08-.34,9.13c.06-1.14.07-2.32.17-3.54l.33-3.77c.22-2.58.45-5.32.69-8.18l1-8q.24-2,.48-3.93c.22-1.29.45-2.58.67-3.85.44-2.54.88-5,1.3-7.47s1.07-4.77,1.57-7l.76-3.35c.24-1.1.48-2.18.79-3.21q.87-3.12,1.65-6c.26-.94.51-1.86.75-2.75s.48-1.75.76-2.57c.53-1.64,1-3.16,1.46-4.55,1.65-5.65,3.85-11.11,5.87-16.64,2.34-5.4,4.53-10.87,7.22-16.11,1.29-2.65,2.54-5.32,4-7.87s2.81-5.18,4.26-7.73l4.62-7.54,1.15-1.88,1.24-1.83,2.49-3.65,2.48-3.65c.84-1.21,1.76-2.36,2.64-3.55,1.79-2.34,3.5-4.74,5.35-7l5.65-6.8c.92-1.16,1.93-2.22,2.92-3.31l3-3.26a233.32,233.32,0,0,1,25.8-24.1,239,239,0,0,1,33.79-22.8Z" transform="translate(-256 -20)"/></g><g class="cls-9"><path class="cls-8" d="M744.6,41,753,31.86c1.45-1.63,3.08-3.19,4.79-4.86l5.41-5.29c-10.8,10.2-11.44,11-11.41,10.58s1-1.78-5.55,5.1L742.71,41l-3.45,3.9-5.93,6.71h2.23l1-1.2C739.4,47.1,741.92,44,744.6,41Z" transform="translate(-256 -20)"/><path class="cls-8" d="M749.16,37.34c2.4-2.53,4.67-5,6.86-7.25,4.49-4.34,8.22-7.95,10.27-10,1.1-1.24-10.61,9.49-22.07,22.32l-7.76,9.21h.12c1.76-2.08,3.6-4.24,5.46-6.45C744.27,42.44,746.79,39.89,749.16,37.34Z" transform="translate(-256 -20)"/><path class="cls-8" d="M742.33,44.07c.89-1,1.75-2.13,2.7-3.11l5.53-6,2.75-3c.91-1,1.8-2,2.77-2.87l5.62-5.47c2.57-2.7,1.46-1.71-1.63,1.27-1.53,1.51-3.62,3.45-5.88,5.78L747,38.52c-1.25,1.39-2.59,2.73-3.79,4.18L739.61,47c-1.36,1.63-2.66,3.19-3.9,4.66H736l3.66-4.39Z" transform="translate(-256 -20)"/><path class="cls-8" d="M737.38,51.16l-.4.47H737l6.46-7.76Z" transform="translate(-256 -20)"/><path class="cls-8" d="M734.39,53.61c-.91,1-1.7,2.18-2.54,3.27l-2.48,3.3c-1.66,2.2-3.31,4.38-4.94,6.56s-3.08,4.47-4.61,6.66c.57-.73,1.65-2.24,3.1-4.31.71-1,1.58-2.18,2.55-3.42l3.1-4,3.48-4.54,1.84-2.42,2-2.38.55-.66H736Z" transform="translate(-256 -20)"/><path class="cls-8" d="M735.42,53l-1.54,1.83-1.39,1.83-2.57,3.39c-3.19,4.26-5.47,7.31-5.95,8.24-.23.33,2.92-3.73,6.9-9L734,55.22c1-1.21,2-2.4,3-3.59h-.4Z" transform="translate(-256 -20)"/><path class="cls-8" d="M717.81,79.8c.42-.6.85-1.21,1.28-1.84C718.66,78.56,718.24,79.17,717.81,79.8Z" transform="translate(-256 -20)"/><path class="cls-8" d="M735.83,53.08c-.61.74-1.24,1.47-1.82,2.22l-1.7,2.25L729,62l-3.16,4.21-1.52,2c-.47.7-.94,1.38-1.39,2.06L717.75,78q-1.21,1.83-2.37,3.54c-.72,1.16-1.39,2.3-2,3.4l-3.61,6-2.94,5-2,3.9c-2.23,4.35-2.58,5.24-.54,1.78l2-3.42c.42-.71.83-1.51,1.36-2.34l1.72-2.71,4.24-6.75,2.54-4,1.76-2.54c.43-.63.85-1.24,1.28-1.84-.43.63-.86,1.24-1.28,1.84-2.57,3.8-5.07,8.08-7.8,12.46l-2.4,3.89c-.74,1.35-1.49,2.7-2.25,4.07-1.5,2.74-3,5.52-4.55,8.3l-1.14,2.09c-.38.69-.71,1.42-1.06,2.13L696.54,117l-4.08,8.46c-2.46,5.66-4.72,11.18-6.84,16.26l.08-.15c1.06-2.53,2.32-5.52,3.68-8.72s2.71-6.66,4.4-9.94,3.2-6.61,4.67-9.64l1.07-2.22,1.12-2,2-3.67c-3.1,5.41-5.66,11.1-8.39,16.71l-2,4.23-1.81,4.32-3.62,8.63,2.73-6c.92-2.14,1.83-4.28,2.75-6.43s2-4.22,3.05-6.35l3.1-6.41c.53-1.07,1-2.16,1.58-3.23s1.15-2.12,1.73-3.18c-2.06,3.58-3.72,7.37-5.54,11.08s-3.68,7.43-5.2,11.3c.65-1.4,1.27-2.89,2-4.38l2.35-4.58,5.06-10,5.36-9.57,2.63-4.71c1-1.51,1.9-3,2.84-4.5l5.5-8.74c1.87-2.8,3.81-5.46,5.62-8.07l2.68-3.83,1.31-1.86c.44-.62.91-1.19,1.36-1.77l5.16-6.66c.82-1.06,1.61-2.08,2.37-3.08.39-.5.76-1,1.14-1.47l1.15-1.37,3.29-3.88H737Z" transform="translate(-256 -20)"/><path class="cls-8" d="M734.42,53l-1.11,1.32-1.07,1.42c-1.45,1.9-3,3.91-4.6,6.06-.3.54,2-2.49,5.56-7.15l2.51-3h-.15Z" transform="translate(-256 -20)"/><path class="cls-8" d="M731,52.67c-.7,1-1.36,1.86-2,2.69-1.2,1.66-2.21,3-3,4.18-3.29,4.58-3.63,5.26-2.16,3.57s4.71-5.79,8.74-10.65l.72-.82h-1.44C731.59,52,731.31,52.34,731,52.67Z" transform="translate(-256 -20)"/><path class="cls-8" d="M1211.46,507.92a332.2,332.2,0,0,1-46.1,34.48l-6.23,3.72L1156,548c-1,.62-2.07,1.25-3.16,1.8L1140,556.66l-13.24,6.28c-4.48,2-9,3.8-13.56,5.71A331.51,331.51,0,0,1,996,591.87l-6.47.09-3.24,0-3.23-.12-12.93-.47-12.86-1.11-3.21-.28-3.19-.43-6.37-.88-6.36-.87c-2.1-.34-4.19-.78-6.29-1.17l-6.27-1.19c-2.08-.41-4.18-.74-6.23-1.29l-12.3-3c-2-.45-4-1.11-6-1.7l-6-1.8A336.88,336.88,0,0,1,858.34,564l-1.18-.49L856,563l-2.32-1.11-4.64-2.24-4.67-2.24L842,556.25,839.74,555c-6.07-3.37-12.33-6.52-18.21-10.31-3-1.83-6-3.62-8.91-5.49L804,533.33l-4.26-2.91-4.1-3.1-8.1-6.16-1-.76-1-.81L783.69,518l-3.81-3.2-3.76-3.16-1.86-1.56-1.78-1.64-7-6.47-3.39-3.16-3.19-3.25c.55.76-.26.12-2.08-1.55-.9-.83-2.06-1.92-3.42-3.22s-3-2.79-4.57-4.58l-5.33-5.74c-1.88-2.07-4-4.19-5.87-6.58s-4-4.79-6-7.24c-1-1.24-2.09-2.43-3-3.73l-2.9-3.84L720,451.52c-1.78-2.5-3.43-5-5-7.3s-3.1-4.51-4.47-6.52L707,432.16c-4.08-6.46-5.82-8.89-3.07-3.67l-1.56-2.65-.8-1.35-.74-1.41c-1-1.89-2-3.82-3.05-5.78s-2.08-3.94-3.13-5.95-2-4.1-2.95-6.16L688.82,399l-1.44-3.08-1.29-3.12-4.93-12c-5.83-15.45-9.26-27.77-9.85-28.9a33.84,33.84,0,0,1-1.33-3.5c-.5-1.49-1.1-3.33-1.8-5.6s-1.55-5-2.42-8.21-1.65-7-2.68-11.43a319.32,319.32,0,0,1-5.38-34.7,335.16,335.16,0,0,1-.5-54.07c.39-4.23.78-8.74,1.27-13.41.68-4.65,1.38-9.47,2.09-14.34l.28-1.83.36-1.81.73-3.64c.48-2.43,1-4.86,1.45-7.27l.72-3.61c.3-1.18.6-2.36.89-3.53q.88-3.52,1.76-6.93c.59-2.27,1.11-4.52,1.72-6.68s1.3-4.24,1.92-6.26,1.23-4,1.8-5.85,1.09-3.68,1.73-5.33c2.41-6.68,4.26-11.85,5.23-14.68,1.62-4.36,1.4-4,.27-1.35s-3,7.87-5,13L673,154.71c-.48,1.25-.83,2.5-1.22,3.65-.75,2.31-1.41,4.32-1.87,5.73-.94,2.8-1.14,3.16.16-1.38a336.32,336.32,0,0,0-14.95,92.95c0,7.84-.1,15.68.48,23.5l.31,5.86c.07,1,.08,2,.18,2.93l.3,2.92,1.19,11.67c.47,3.88,1.14,7.74,1.7,11.6l.88,5.8,1.15,5.74,1.16,5.74.57,2.87c.19,1,.39,1.91.65,2.85l2.85,11.35.72,2.84c.25.94.56,1.87.83,2.8l1.7,5.6c1.15,3.72,2.19,7.48,3.58,11.13l3.92,11c1.43,3.63,3,7.21,4.42,10.82.75,1.79,1.45,3.61,2.25,5.38l2.48,5.29,2.47,5.28c.84,1.76,1.62,3.54,2.56,5.25l5.45,10.31c.46.86.9,1.73,1.38,2.58l1.48,2.51,3,5,3,5c.48.84,1,1.66,1.55,2.47l1.6,2.43,6.41,9.75,6.86,9.42c1.16,1.56,2.25,3.18,3.48,4.68l3.65,4.54,3.66,4.54c1.22,1.52,2.42,3,3.74,4.47l7.75,8.71c.65.72,1.27,1.47,2,2.17l2,2.08,4.08,4.16,4.09,4.16c.67.71,1.37,1.38,2.09,2l2.14,2,8.56,7.92,8.93,7.5c1.5,1.24,3,2.52,4.49,3.72l4.65,3.52,4.66,3.52,2.32,1.76c.77.59,1.56,1.17,2.37,1.7,6.45,4.35,12.78,8.89,19.52,12.8l5,3,2.49,1.52c.85.48,1.71.93,2.56,1.4l10.27,5.57a340.6,340.6,0,0,0,42.85,18.63c7.29,2.8,14.83,4.87,22.29,7.18,1.86.61,3.77,1,5.66,1.5l5.69,1.42,5.69,1.41c1.9.49,3.84.79,5.75,1.19L936,594.47c3.87.61,7.75,1.14,11.63,1.71,1.94.27,3.87.58,5.82.82l5.85.55,5.86.56,2.93.27,1.47.14,1.47.07,11.77.52,2.94.13c1,0,2,0,3,0l5.9,0c7.87.13,15.72-.48,23.59-.87,3.93-.32,7.84-.78,11.77-1.17,2-.21,3.93-.38,5.88-.63l5.86-.89,5.86-.89c2-.3,3.91-.55,5.84-1l11.63-2.35c1-.2,2-.36,2.91-.61l2.88-.72,5.76-1.46,5.76-1.45c1.92-.5,3.8-1.13,5.71-1.69,3.79-1.17,7.6-2.27,11.38-3.5l11.23-4a343.45,343.45,0,0,0,48.84-22.9l8.16-4.84,4.25-2.52,4.24-2.8,8.79-5.8c2.94-2.08,5.88-4.28,8.92-6.49l4.6-3.36,4.52-3.64,4.61-3.72,2.33-1.89c.79-.63,1.57-1.27,2.32-1.95l9.25-8.24c.77-.71,1.58-1.38,2.34-2.12l2.27-2.23c.41-.4,2.7-2.8,6-6.38l-.26-11.1Q1222.15,498.38,1211.46,507.92Z" transform="translate(-256 -20)"/></g><path class="cls-10" d="M622,654.79l-37.39-35.2-17.73-16.68,30.6-1.2a11.81,11.81,0,0,0,7.87-20.17l-32.05-31.9-19.36-19.27,18.11-.71a11.09,11.09,0,0,0,7.39-18.95l-20.59-20.49-30.16-30a11.09,11.09,0,0,0-16.25.64l-27.72,32.29-18.92,22a11.09,11.09,0,0,0,8.86,18.31l18.1-.71L475,553.5l-29.45,34.31a11.81,11.81,0,0,0,9.43,19.49l31-1.22-16.37,18-34.52,38c-7.88,8.67-1.08,22,11,21.53l83.35-3.27,83.35-3.27C624.79,676.64,630.52,662.81,622,654.79Z" transform="translate(-256 -20)"/><path class="cls-11" d="M616,650.75l-29.7-22.16-14.07-10.51,21.83-3.37a8.52,8.52,0,0,0,4-15.1l-25.6-20.24L557,567.14l12.92-2A8,8,0,0,0,573.65,551l-16.44-13L533.12,518.9a8,8,0,0,0-11.6,1.79L504.3,546.12l-11.75,17.36a8,8,0,0,0,7.85,12.4l12.92-2L502.27,590.2l-18.3,27a8.52,8.52,0,0,0,8.36,13.2L514.47,627l-10.25,14.26-21.64,30.09c-4.93,6.86,1,15.86,9.64,14.53l59.48-9.18,59.49-9.19C619.79,666.18,622.76,655.8,616,650.75Z" transform="translate(-256 -20)"/><path class="cls-10" d="M1009.27,659.25l-25.75-26.53-12.21-12.58,21.38-.49c7.2-.17,10.73-9.35,5.7-14.83l-22-24L963,566.28l12.65-.29c6.77-.16,10.08-8.78,5.36-13.93l-14.17-15.44L946.11,514a7.45,7.45,0,0,0-11.35.26l-19.69,23.55-13.43,16.07c-4.49,5.36-.77,13.83,6,13.67l12.65-.29-12.64,15.11-20.91,25c-4.77,5.7-.82,14.71,6.38,14.55l21.67-.5-11.61,13.12-24.5,27.7a9.67,9.67,0,0,0,7.44,16.08L944.35,677l58.23-1.34A9.67,9.67,0,0,0,1009.27,659.25Z" transform="translate(-256 -20)"/><path class="cls-11" d="M257.46,710.81c258-68,844.15-55,971.57,0v59l-971.57-.33v-52.3" transform="translate(-256 -20)"/><polyline class="cls-12" points="465.76 653.77 390.46 749.48 583.79 749.48 514.48 653.77 465.76 653.77"/><rect class="cls-13" x="334.72" y="548.51" width="306.68" height="103.72"/><path class="cls-13" d="M898.79,586.34H590.39c-5,0-8.62-4.32-7.48-8.83l15.8-56.73a7.59,7.59,0,0,1,7.47-5.52h275.6a7.6,7.6,0,0,1,7.44,5.4l17,56.73C907.47,581.93,903.8,586.34,898.79,586.34Z" transform="translate(-256 -20)"/><rect class="cls-13" x="342.66" y="489.6" width="10.21" height="16.33" rx="5.11" ry="5.11"/><rect class="cls-13" x="623.19" y="489.6" width="10.21" height="16.33" rx="5.11" ry="5.11"/><rect class="cls-14" x="739.82" y="409.39" width="9.54" height="347.08" rx="4.77" ry="4.77" transform="translate(1071.52 -181.65) rotate(90)"/><rect class="cls-15" x="334.68" y="575.79" width="80.93" height="3.42"/><rect class="cls-15" x="334.68" y="613.72" width="80.93" height="3.42"/><rect class="cls-15" x="334.68" y="570.38" width="80.93" height="3.42"/><rect class="cls-15" x="334.68" y="581.21" width="80.93" height="3.42"/><rect class="cls-15" x="334.68" y="624.56" width="80.93" height="3.42"/><rect class="cls-15" x="334.68" y="602.88" width="80.93" height="3.42"/><rect class="cls-15" x="334.68" y="608.3" width="80.93" height="3.42"/><rect class="cls-15" x="334.68" y="619.14" width="80.93" height="3.42"/><rect class="cls-15" x="334.68" y="597.47" width="80.93" height="3.42"/><rect class="cls-15" x="334.68" y="592.05" width="80.93" height="3.42"/><rect class="cls-15" x="334.68" y="586.63" width="80.93" height="3.42"/><rect class="cls-16" x="334.68" y="573.79" width="80.93" height="2"/><rect class="cls-16" x="334.68" y="579.21" width="80.93" height="2"/><rect class="cls-16" x="334.68" y="584.63" width="80.93" height="2"/><rect class="cls-16" x="334.68" y="590.05" width="80.93" height="2"/><rect class="cls-16" x="334.68" y="595.47" width="80.93" height="2"/><rect class="cls-16" x="334.68" y="600.88" width="80.93" height="2"/><rect class="cls-16" x="334.68" y="606.3" width="80.93" height="2"/><rect class="cls-16" x="334.68" y="611.72" width="80.93" height="2"/><rect class="cls-16" x="334.68" y="617.14" width="80.93" height="2"/><rect class="cls-16" x="334.68" y="622.56" width="80.93" height="2"/><rect class="cls-15" x="560.47" y="575.79" width="80.93" height="3.42"/><rect class="cls-15" x="560.47" y="613.72" width="80.93" height="3.42"/><rect class="cls-15" x="560.47" y="570.38" width="80.93" height="3.42"/><rect class="cls-15" x="560.47" y="581.21" width="80.93" height="3.42"/><rect class="cls-15" x="560.47" y="624.56" width="80.93" height="3.42"/><rect class="cls-15" x="560.47" y="602.88" width="80.93" height="3.42"/><rect class="cls-15" x="560.47" y="608.3" width="80.93" height="3.42"/><rect class="cls-15" x="560.47" y="619.14" width="80.93" height="3.42"/><rect class="cls-15" x="560.47" y="597.47" width="80.93" height="3.42"/><rect class="cls-15" x="560.47" y="592.05" width="80.93" height="3.42"/><rect class="cls-15" x="560.47" y="586.63" width="80.93" height="3.42"/><rect class="cls-16" x="560.47" y="573.79" width="80.93" height="2"/><rect class="cls-16" x="560.47" y="579.21" width="80.93" height="2"/><rect class="cls-16" x="560.47" y="584.63" width="80.93" height="2"/><rect class="cls-16" x="560.47" y="590.05" width="80.93" height="2"/><rect class="cls-16" x="560.47" y="595.47" width="80.93" height="2"/><rect class="cls-16" x="560.47" y="600.88" width="80.93" height="2"/><rect class="cls-16" x="560.47" y="606.3" width="80.93" height="2"/><rect class="cls-16" x="560.47" y="611.72" width="80.93" height="2"/><rect class="cls-16" x="560.47" y="617.14" width="80.93" height="2"/><rect class="cls-16" x="560.47" y="622.56" width="80.93" height="2"/><rect class="cls-17" x="334.04" y="631.32" width="304.75" height="21.16"/><rect class="cls-13" x="415.6" y="474.02" width="144.86" height="168.02"/><path class="cls-13" d="M826.06,495.81H665a7.59,7.59,0,0,1-7.61-9.24l16.08-65.31a7.76,7.76,0,0,1,7.61-5.79H808.74a7.77,7.77,0,0,1,7.58,5.66l17.31,65.32A7.58,7.58,0,0,1,826.06,495.81Z" transform="translate(-256 -20)"/><rect class="cls-13" x="417.11" y="389.81" width="10.21" height="16.33" rx="5.11" ry="5.11"/><rect class="cls-13" x="550.26" y="389.81" width="10.21" height="16.33" rx="5.11" ry="5.11"/><rect class="cls-15" x="415.28" y="551.84" width="144.86" height="3.42"/><rect class="cls-15" x="415.28" y="557.25" width="144.86" height="3.42"/><rect class="cls-15" x="415.28" y="568.09" width="144.86" height="3.42"/><rect class="cls-15" x="415.28" y="606.02" width="144.86" height="3.42"/><rect class="cls-15" x="415.28" y="562.67" width="144.86" height="3.42"/><rect class="cls-15" x="415.28" y="573.51" width="144.86" height="3.42"/><rect class="cls-15" x="415.28" y="530.16" width="144.86" height="3.42"/><rect class="cls-15" x="415.28" y="524.74" width="144.86" height="3.42"/><rect class="cls-15" x="415.28" y="535.58" width="144.86" height="3.42"/><rect class="cls-15" x="415.28" y="519.33" width="144.86" height="3.42"/><rect class="cls-15" x="415.28" y="541" width="144.86" height="3.42"/><rect class="cls-15" x="415.28" y="546.42" width="144.86" height="3.42"/><rect class="cls-15" x="415.28" y="616.85" width="144.86" height="3.42"/><rect class="cls-15" x="415.28" y="595.18" width="144.86" height="3.42"/><rect class="cls-15" x="415.28" y="622.27" width="144.86" height="3.42"/><rect class="cls-15" x="415.28" y="600.6" width="144.86" height="3.42"/><rect class="cls-15" x="415.28" y="611.43" width="144.86" height="3.42"/><rect class="cls-15" x="415.28" y="627.69" width="144.86" height="3.42"/><rect class="cls-15" x="415.28" y="643.94" width="144.86" height="3.42"/><rect class="cls-15" x="415.28" y="589.76" width="144.86" height="3.42"/><rect class="cls-15" x="415.28" y="584.34" width="144.86" height="3.42"/><rect class="cls-15" x="415.28" y="633.11" width="144.86" height="3.42"/><rect class="cls-15" x="415.28" y="638.53" width="144.86" height="3.42"/><rect class="cls-15" x="415.28" y="578.93" width="144.86" height="3.42"/><rect class="cls-15" x="415.28" y="497.65" width="144.86" height="3.42"/><rect class="cls-15" x="415.28" y="508.49" width="144.86" height="3.42"/><rect class="cls-15" x="415.28" y="486.82" width="144.86" height="3.42"/><rect class="cls-15" x="415.28" y="492.23" width="144.86" height="3.42"/><rect class="cls-15" x="415.28" y="513.91" width="144.86" height="3.42"/><rect class="cls-15" x="415.28" y="503.07" width="144.86" height="3.42"/><rect class="cls-15" x="415.28" y="481.4" width="144.86" height="3.42"/><rect class="cls-15" x="415.28" y="475.81" width="144.86" height="3.59"/><rect class="cls-16" x="415.28" y="479.4" width="144.86" height="2"/><rect class="cls-16" x="415.28" y="484.82" width="144.86" height="2"/><rect class="cls-16" x="415.28" y="490.23" width="144.86" height="2"/><rect class="cls-16" x="415.28" y="495.65" width="144.86" height="2"/><rect class="cls-16" x="415.28" y="501.07" width="144.86" height="2"/><rect class="cls-16" x="415.28" y="506.49" width="144.86" height="2"/><rect class="cls-16" x="415.28" y="511.91" width="144.86" height="2"/><rect class="cls-16" x="415.28" y="517.33" width="144.86" height="2"/><rect class="cls-16" x="415.28" y="522.74" width="144.86" height="2"/><rect class="cls-16" x="415.28" y="528.16" width="144.86" height="2"/><rect class="cls-16" x="415.28" y="533.58" width="144.86" height="2"/><rect class="cls-16" x="415.28" y="539" width="144.86" height="2"/><rect class="cls-16" x="415.28" y="544.42" width="144.86" height="2"/><polygon class="cls-16" points="560.15 549.84 415.28 549.84 415.28 550.3 415.28 551.84 560.15 551.84 560.15 549.84"/><rect class="cls-16" x="415.28" y="555.25" width="144.86" height="2"/><rect class="cls-16" x="415.28" y="560.67" width="144.86" height="2"/><rect class="cls-16" x="415.28" y="566.09" width="144.86" height="2"/><rect class="cls-16" x="415.28" y="571.51" width="144.86" height="2"/><rect class="cls-16" x="415.28" y="576.93" width="144.86" height="2"/><rect class="cls-16" x="415.28" y="582.34" width="144.86" height="2"/><rect class="cls-16" x="415.28" y="587.76" width="144.86" height="2"/><rect class="cls-16" x="415.28" y="593.18" width="144.86" height="2"/><rect class="cls-16" x="415.28" y="598.6" width="144.86" height="2"/><rect class="cls-16" x="415.28" y="604.02" width="144.86" height="2"/><rect class="cls-16" x="415.28" y="609.43" width="144.86" height="2"/><rect class="cls-16" x="415.28" y="614.85" width="144.86" height="2"/><rect class="cls-16" x="415.28" y="620.27" width="144.86" height="2"/><rect class="cls-16" x="415.28" y="625.69" width="144.86" height="2"/><rect class="cls-16" x="415.28" y="631.11" width="144.86" height="2"/><rect class="cls-16" x="415.28" y="636.53" width="144.86" height="2"/><rect class="cls-16" x="415.28" y="641.94" width="144.86" height="2"/><rect class="cls-16" x="415.28" y="647.36" width="144.86" height="2"/><rect class="cls-14" x="738.85" y="395.56" width="10.21" height="196.92" rx="5.11" ry="5.11" transform="translate(981.97 -269.93) rotate(90)"/><path class="cls-14" d="M721.35,662l.13-52.22c0-13.22,10.16-24,22.6-24a21.82,21.82,0,0,1,16,7.08,24.72,24.72,0,0,1,6.58,17l-.13,52.22Z" transform="translate(-256 -20)"/><path class="cls-18" d="M744.11,593.64c-8.94,0-16.21,7.91-16.22,17.72l0,45.54,32.38.07,0-45.54C760.29,601.62,753.05,593.66,744.11,593.64Z" transform="translate(-256 -20)"/><path d="M744.06,513.35a10.89,10.89,0,0,0-10.88,10.89v33.88h21.76V524.24A10.89,10.89,0,0,0,744.06,513.35Z" transform="translate(-256 -20)"/><rect class="cls-19" x="477.18" y="528.56" width="21.77" height="9.8"/><rect class="cls-14" x="757.23" y="522.89" width="10.69" height="36.29" transform="translate(-180.02 -113.66) rotate(7.4)"/><rect class="cls-14" x="466.48" y="503.04" width="10.69" height="35.33"/><rect class="cls-14" x="589.4" y="508.22" width="37.83" height="7.52" rx="3.76" ry="3.76"/><rect class="cls-14" x="577.88" y="515.74" width="37.83" height="7.52" rx="3.76" ry="3.76"/><rect class="cls-14" x="596.36" y="522.44" width="14.11" height="7.52" rx="3.76" ry="3.76"/><rect class="cls-14" x="604.72" y="528.56" width="19.56" height="7.52" rx="3.76" ry="3.76"/><rect class="cls-14" x="428.12" y="427.57" width="37.22" height="9" rx="4.5" ry="4.5"/><rect class="cls-14" x="501.38" y="447.6" width="37.22" height="9" rx="4.5" ry="4.5"/><rect class="cls-14" x="527.54" y="440.74" width="39.75" height="9" rx="4.5" ry="4.5"/><rect class="cls-14" x="519.99" y="434.74" width="24.24" height="9" rx="4.5" ry="4.5"/><rect class="cls-14" x="529.86" y="427.57" width="24.24" height="9" rx="4.5" ry="4.5"/><rect class="cls-14" x="428.9" y="415.39" width="25.22" height="9" rx="4.5" ry="4.5"/><rect class="cls-14" x="419.36" y="419.89" width="19.08" height="9" rx="4.5" ry="4.5"/><path class="cls-18" d="M707.29,524.48a10.88,10.88,0,1,0-21.76,0V548.8h21.76Z" transform="translate(-256 -20)"/><rect class="cls-19" x="429.53" y="528.8" width="21.77" height="9.56"/><path class="cls-18" d="M640.29,605.27a10.89,10.89,0,0,0-21.76,0V628.6h21.76Z" transform="translate(-256 -20)"/><rect class="cls-19" x="362.53" y="608.6" width="21.77" height="9.18"/><path d="M640.29,553.81a10.88,10.88,0,1,0-21.76,0v14.66h21.76Z" transform="translate(-256 -20)"/><rect class="cls-19" x="362.53" y="548.47" width="21.77" height="9.56"/><path d="M866.47,553.81a10.89,10.89,0,1,0-21.77,0v14.66h21.77Z" transform="translate(-256 -20)"/><rect class="cls-19" x="588.7" y="548.47" width="21.77" height="9.56"/><path d="M867.17,605.27a10.89,10.89,0,0,0-21.77,0V628.6h21.77Z" transform="translate(-256 -20)"/><rect class="cls-19" x="589.4" y="608.6" width="21.77" height="9.18"/><path d="M707.29,602.22a10.88,10.88,0,1,0-21.76,0v24.32h21.76Z" transform="translate(-256 -20)"/><rect class="cls-19" x="429.53" y="606.54" width="21.77" height="9.56"/><path class="cls-18" d="M802.15,602.22a10.88,10.88,0,0,0-21.76,0v24.32h21.76Z" transform="translate(-256 -20)"/><rect class="cls-19" x="524.39" y="606.54" width="21.77" height="9.56"/><path d="M802.15,524.48a10.88,10.88,0,1,0-21.76,0V548.8h21.76Z" transform="translate(-256 -20)"/><rect class="cls-19" x="524.39" y="528.8" width="21.77" height="9.56"/><path class="cls-20" d="M823.32,662V587.7c-1.81-1.05-1.51-8.36.69-9.54s45.54-62.9,45.54-62.9H816.47V662h6.85Z" transform="translate(-256 -20)"/><rect class="cls-14" x="606.9" y="552.29" width="10.69" height="26.18" transform="translate(-295.38 25.88) rotate(-4.16)"/><rect class="cls-14" x="641.47" y="552.29" width="10.69" height="26.18" transform="translate(-201.44 -76.92) rotate(5.26)"/><polygon class="cls-14" points="394.94 618.55 384.29 617.61 387.53 583.87 398.18 584.81 394.94 618.55"/><polygon class="cls-14" points="362.53 618.16 352.49 621.71 340.3 589.9 350.34 586.36 362.53 618.16"/><path class="cls-20" d="M664.43,662V587.7c1.82-1.25,1.51-8.36-.68-9.54s-45.55-62.9-45.55-62.9h53.08V662h-6.85Z" transform="translate(-256 -20)"/><rect class="cls-19" x="739.32" y="578.12" width="10.21" height="167.84" rx="5.11" ry="5.11" transform="translate(1150.47 -102.38) rotate(90)"/><rect class="cls-21" x="739.88" y="574.97" width="8.36" height="182.51" rx="4.18" ry="4.18" transform="translate(1154.28 -97.84) rotate(90)"/><rect class="cls-22" x="739.79" y="575.77" width="8.53" height="192.9" rx="4.27" ry="4.27" transform="translate(1160.28 -91.83) rotate(90)"/><path class="cls-23" d="M783.46,597.48c-8.6-1.23-16.52,5.45-17.71,14.93l-5.48,44,31.11,4.46,5.48-44C798.05,607.38,792.05,598.71,783.46,597.48Z" transform="translate(-256 -20)"/><rect class="cls-24" x="679.57" y="584.51" width="14.75" height="2.94" rx="1" ry="1" transform="translate(-259.7 -15.63) rotate(-0.36)"/><rect class="cls-24" x="689.93" y="582.21" width="15.76" height="2.94" rx="1" ry="1" transform="translate(-259.69 -15.56) rotate(-0.36)"/><rect class="cls-24" x="686.92" y="580.29" width="9.61" height="2.94" rx="1" ry="1" transform="translate(-259.68 -15.6) rotate(-0.36)"/><rect class="cls-24" x="690.82" y="577.92" width="9.61" height="2.94" rx="1" ry="1" transform="translate(-259.66 -15.57) rotate(-0.36)"/><rect class="cls-24" x="790.13" y="571.82" width="12.18" height="2.42" rx="1" ry="1" transform="translate(-259.62 -14.94) rotate(-0.36)"/><rect class="cls-24" x="798.68" y="569.92" width="13" height="2.42" rx="1" ry="1" transform="translate(-259.61 -14.88) rotate(-0.36)"/><rect class="cls-24" x="796.2" y="568.34" width="7.93" height="2.42" rx="1" ry="1" transform="translate(-259.6 -14.91) rotate(-0.36)"/><rect class="cls-25" x="770.67" y="616.02" width="10.08" height="2.01" rx="1" ry="1" transform="translate(-208.65 1269.29) rotate(-81.21)"/><rect class="cls-25" x="775.47" y="617.77" width="16.8" height="1.98" rx="0.99" ry="0.99" transform="translate(-203.46 1278.82) rotate(-81.21)"/><rect class="cls-25" x="762.2" y="641.59" width="10.08" height="2.01" rx="1" ry="1" transform="translate(-241.09 1282.57) rotate(-81.21)"/><rect class="cls-25" x="762.66" y="646.65" width="10.98" height="2.19" rx="1" ry="1" transform="translate(-245.42 1287.84) rotate(-81.21)"/><rect class="cls-25" x="764.22" y="636.55" width="24.64" height="2.51" rx="1" ry="1" transform="translate(-228.48 1287.71) rotate(-81.21)"/><rect class="cls-25" x="779.36" y="651" width="10.08" height="2.01" rx="1" ry="1" transform="translate(-235.86 1307.5) rotate(-81.21)"/><rect class="cls-25" x="783.26" y="643.19" width="10.08" height="1.67" rx="0.84" ry="0.84" transform="translate(-224.67 1304.6) rotate(-81.21)"/><rect class="cls-25" x="778.34" y="641.13" width="17.83" height="1.27" rx="0.5" ry="0.5" transform="translate(-223.32 1301.66) rotate(-81.21)"/><rect class="cls-25" x="769.95" y="608.44" width="10.77" height="2.01" rx="1" ry="1" transform="translate(-201.48 1262.5) rotate(-81.21)"/><rect class="cls-25" x="770.1" y="612.34" width="6.57" height="2.01" rx="1" ry="1" transform="translate(-206.98 1263.86) rotate(-81.21)"/><rect class="cls-25" x="768.93" y="609.45" width="6.57" height="2.01" rx="1" ry="1" transform="translate(-205.12 1260.26) rotate(-81.21)"/><path class="cls-14" d="M589.43,652.11h82.18V648H589.43a2.08,2.08,0,0,0-2.1,2.06h0A2.09,2.09,0,0,0,589.43,652.11Z" transform="translate(-256 -20)"/><path class="cls-14" d="M898.52,652.11H816.34V648h82.18a2.07,2.07,0,0,1,2.09,2.06h0A2.08,2.08,0,0,1,898.52,652.11Z" transform="translate(-256 -20)"/><path class="cls-26" d="M934.86,671.1l-12.44-14.68-5.89-6.95,11.44.84a4.42,4.42,0,0,0,3.77-7.18l-10.58-13.22-6.4-8,6.77.5a4.15,4.15,0,0,0,3.55-6.74l-6.8-8.5-10-12.44a4.16,4.16,0,0,0-6.08-.45l-11.67,10.85-8,7.41a4.15,4.15,0,0,0,2.52,7.19l6.77.5-7.5,7L872,638.74a4.42,4.42,0,0,0,2.69,7.65l11.59.85-6.85,6L865,666c-3.29,2.89-1.32,8.14,3.18,8.47l31.16,2.3L930.48,679C935,679.35,937.7,674.45,934.86,671.1Z" transform="translate(-256 -20)"/><path class="cls-11" d="M942.92,670.8,930,655.6l-6.11-7.21,11.85.87a4.58,4.58,0,0,0,3.91-7.43l-11-13.7-6.63-8.27,7,.51a4.3,4.3,0,0,0,3.68-7l-7-8.8L915.43,591.7a4.31,4.31,0,0,0-6.3-.47L897,602.48l-8.26,7.67a4.3,4.3,0,0,0,2.61,7.45l7,.51-7.77,7.22-12.85,11.95a4.58,4.58,0,0,0,2.79,7.92l12,.89-7.1,6.23-15,13.15c-3.41,3-1.37,8.44,3.3,8.78l32.28,2.38L938.38,679C943.05,679.35,945.86,674.26,942.92,670.8Z" transform="translate(-256 -20)"/><path class="cls-13" d="M952.66,651.47l-9.13-3L946,641a4.5,4.5,0,1,0-8.54-2.81l-2.48,7.5-9.13-3a4.5,4.5,0,1,0-2.81,8.55l9.13,3-9.6,29.07a4.5,4.5,0,0,0,8.55,2.82L940.71,657l9.13,3a4.5,4.5,0,1,0,2.82-8.54Z" transform="translate(-256 -20)"/></g></g></svg>