<svg id="Layer_1" data-name="Layer 1" xmlns="http://www.w3.org/2000/svg" xmlns:xlink="http://www.w3.org/1999/xlink" viewBox="0 0 975.32 720"><defs><style>.cls-1{fill:url(#linear-gradient);}.cls-2{fill:#1d1417;}.cls-3,.cls-33{opacity:0.13;}.cls-4{fill:#fff;}.cls-34,.cls-5{fill:#edb55d;}.cls-12,.cls-36,.cls-6{fill:none;}.cls-6{stroke:#edb55d;stroke-width:0;}.cls-12,.cls-36,.cls-37,.cls-6{stroke-linecap:round;}.cls-12,.cls-6{stroke-linejoin:round;}.cls-7{opacity:0.08;}.cls-8{fill:#efbe72;}.cls-9{opacity:0.09;}.cls-10{fill:#1b1215;}.cls-11{fill:#f4cd87;}.cls-12{stroke:#000;stroke-width:2.03px;}.cls-13{fill:#393133;}.cls-14{fill:#202822;}.cls-15{fill:#363f38;}.cls-16{fill:#171717;}.cls-17{fill:#406b79;}.cls-18{fill:#21454c;}.cls-19{fill:#747c5e;}.cls-20{fill:#c09bae;}.cls-21{fill:#abc5bb;}.cls-22{fill:#ba8263;}.cls-23{fill:#839fa8;}.cls-24,.cls-25{fill:#1b1b1b;}.cls-24{opacity:0.66;}.cls-25{opacity:0.49;}.cls-26{fill:#a3b8bf;}.cls-27{fill:#537a86;}.cls-28{fill:#273a3d;}.cls-29{fill:#0a0a0a;opacity:0.4;}.cls-30{fill:#315259;}.cls-31,.cls-37{fill:#828282;}.cls-32{fill:#959ea0;}.cls-33{filter:url(#AI_GaussianBlur_7);}.cls-34{opacity:0.32;}.cls-35{fill:#5e5e5e;}.cls-36,.cls-37{stroke:#8f8f8f;stroke-miterlimit:10;stroke-width:2.3px;}</style><linearGradient id="linear-gradient" x1="487.66" y1="-1.79" x2="487.66" y2="719.12" gradientUnits="userSpaceOnUse"><stop offset="0"/><stop offset="1" stop-color="#21454c"/></linearGradient><filter id="AI_GaussianBlur_7" name="AI_GaussianBlur_7"><feGaussianBlur stdDeviation="7"/></filter></defs><title>Dynamic</title><rect class="cls-1" y="-1.79" width="975.32" height="720.91"/><path class="cls-2" d="M366.62,377.16l-18.28,55.46-46,48.67-9.92-62.53,32.29-37.34a14.39,14.39,0,0,0,2.62-10.95l-4.38-29.29,12.89-30.13-22.56,22.68a10.53,10.53,0,0,0-2.62,8.2l2.8,33.05-26,24.26c-.23.17-12.95-14.11-12.95-14.11l5-15.55L271.39,381l-7.59-6.9L282,404.55a12.06,12.06,0,0,0-1.86,6l-2.78,58.48-28.29-45c-3-4.75-7.44-7.35-12-7l-16.43-.75L218.27,389,234,378.57a1.35,1.35,0,0,0,.62-1l2-17.93a1.64,1.64,0,0,0-.15-.91l-5.65-9.17,3.77,10.19L231,377.29l-13.14,7-2.55-18.12-2.39,49.75-9.35-.43-17.51-30.05,6.79,29.45,1.36,5.91c1,4.27,3.79,7.3,7.08,7.65l5.55,1.18L196.76,452l16.58-21,26.79,5.7,3.29,6.24-28.67,29.78,17.16-11.11,4.8,11.61-.45-5.29-.71-8.41a1.76,1.76,0,0,0-.12-.49l11.87-8.74,28.62,54.3-2.87,120.25,43.62-1.75L306.55,506.19l47-58.13a24.29,24.29,0,0,0,5.2-12.08Z"/><path d="M334.51,620.11l-1.67-116.33-8.93-47.12a5.57,5.57,0,0,0-4.64-4.47l-9.43-1.41L308.67,423a4.64,4.64,0,0,0-4-4.41l-26.19-3.75a4.43,4.43,0,0,1-3.55-2.89l-10.77-30.15,7.08,34.74a4,4,0,0,0,3.56,3.22l25.28,5.79-1.92,23-49-5.07,12.91,3.8-11.57,8.2-13.68,1c0,.55,14,1,14,1a1,1,0,0,0,.58-.19L264.54,448l49.63,14.63,3.34,65.85-12.93-2.92-4.66-29a1.89,1.89,0,0,0-3.7-.19l-4.72,25.77-14.44-2.79a8.21,8.21,0,0,0-9.45,5l-2.77,7.1-4.69-.4-9.31-19.94,5.54,19.62-27.2-2.28,35.91,9.71a8.49,8.49,0,0,0,8.23-2.19l4.52-4.52,38,13.66-.33,77Z"/><g class="cls-3"><path class="cls-4" d="M806.1,36.79c5.34,1.59,16.33,7,15.86,7.33.21-.16.32-.24,1.32.16.5.2,1.22.52,2.28,1,.54.25,1.17.52,1.88.88l2.42,1.29c-.15.1,1.39,1.07,3.49,2.32S838,52.73,840,54A125.07,125.07,0,0,0,822.86,43.5c-1.13-.49-2.4-1.09-3.76-1.75l-4.46-2c-1.57-.69-3.18-1.51-4.88-2.21l-5.17-2.12L802,34.36l-2.6-.92-5-1.72c-3.21-1-6.14-1.71-8.39-2.19l4.75,1.56,2.4.8,2.41.92c1.63.63,3.3,1.26,5,1.89.89.29,1.77.64,2.67,1Z"/><path class="cls-4" d="M843.44,59.56l1.27.69c-1.15-.8-2.28-1.64-3.45-2.4L837.7,55.6l-3.56-2.24c-1.2-.72-2.43-1.38-3.65-2.08l3.31,1.81L838,55.76c1.41.91,2.74,1.77,3.73,2.45A12.86,12.86,0,0,1,843.44,59.56Z"/><path class="cls-5" d="M882.93,96.63c-1.18-1,3.75,6,3.38,6.05.56-.78,7.71,11,11.34,17.38l1.86,2.36c-.37-.82-.84-1.78-1.38-2.87s-1.25-2.24-2-3.52l-2.39-4.11c-.86-1.44-1.88-2.89-2.89-4.44a190.06,190.06,0,0,0-14.12-18.65C878.84,91.41,880.89,94,882.93,96.63Z"/><path class="cls-4" d="M890.61,108.11c1,1.29,2,2.55,2.95,3.87C891.3,108.62,886,100.88,890.61,108.11Z"/><path class="cls-4" d="M886.19,98.51c-7.2-9.72,4.21,5.94-3.22-3.69C885.55,98,888.32,101.81,886.19,98.51Z"/><path class="cls-5" d="M909.62,143.09c-1.69-3.92-3.24-7.9-5.17-11.7l-1.39-2.88-.7-1.44-.76-1.41L898.55,120l2.37,4.73,1.19,2.36,1.07,2.42c1.11,2.23,2.32,4.42,3.35,6.7Z"/><path class="cls-5" d="M909,144.81c-1.16-3.11-3-8-1-3.68.37,1.08.79,2.08,1.11,3.08s.66,1.93,1,2.86l1.89,5.24c.54,1.72,1.08,3.43,1.63,5.21.26.89.53,1.81.81,2.75s.44,1.95.66,3c-.66-2.62-1.56-5.17-2.39-7.73a15.85,15.85,0,0,0,.77,3c.23.78.55,1.65.8,2.59L915,164c.52,2,1,3.85,1.34,5.25s.34,2.33.12,2.27c2.7,10.62-1-8.31,2.23,5.58-.35-1.65-.68-3.24-1-4.79s-.58-3.06-1-4.51c-.75-2.9-1.37-5.69-2.12-8.37s-1.55-5.29-2.32-7.91-1.77-5.18-2.68-7.85c.93,3.14,1.44,4.38,2.81,8.78-.63-1.91-1.41-3.94-2.19-6.1-.41-1.06-.78-2.18-1.24-3.27l-1.43-3.33c-1.84-4.52-4.13-9-6.19-13.23.92,2.38,2.13,5.12,3.58,8.12.72,1.51,1.35,3.15,2.06,4.84S908.44,142.93,909,144.81Z"/><path class="cls-5" d="M918.89,184c1.24,8.54,1.92,21.83,2.34,24.14a54.45,54.45,0,0,0-.22-9.3c-.23-2-.46-3.46-.83-5.49-.1-1.32-.32-4.12-.48-6.17s-.33-3.31.11-1.6C919.87,186.89,918.53,180.16,918.89,184Z"/><path class="cls-5" d="M920.41,217.81c.09,2.1.23,4.21.18,6.32l.13-2c0-.67,0-1.35,0-2l.4-.45c0-.36-.19-1.31-.29-3.25-.06-1-.07-2.17-.11-3.68s-.12-3.32-.12-5.47c-.13,2.24-.11,3.75-.07,5.26S920.56,215.53,920.41,217.81Z"/><path class="cls-5" d="M923,220c-.06.74-.12,1.44-.18,2.11s-.14,1.32-.21,2c-.14,1.25-.24,2.45-.34,3.67s-.15,2.49-.31,3.85-.32,2.86-.51,4.55c.71-4.69,1.19-10.41,1.49-15.3.08-2.46.15-4.7.2-6.51a35.63,35.63,0,0,0-.09-3.89l.1.75s-.09-2.23-.22-5.24c0-1.51-.22-3.2-.39-4.91s-.37-3.43-.54-5c.23,2.39.42,5.26.59,8.18s0,5.88.08,8.45C922.52,217.84,922.45,221.43,923,220Z"/><polygon class="cls-5" points="923.29 207.92 923.47 211.38 923.56 213.11 923.57 214.84 923.56 213.11 923.47 211.38 923.29 207.92"/><polygon class="cls-5" points="917.47 244.3 918.12 241.07 918.45 239.45 918.7 237.81 919.69 231.28 919.08 234.46 918.39 239.4 917.47 244.3"/><path class="cls-5" d="M921.39,228.87c-.23,2.66-.43,3.62-.39,3.74a7.34,7.34,0,0,0,.34-1.38,11.64,11.64,0,0,1,.32-1.5,3.2,3.2,0,0,1,0,.77c0,.54-.16,1.37-.32,2.62a57.92,57.92,0,0,0,.66-6.44c.08-1,.16-2.09.24-3.11s.14-2,.14-2.84c0-1.71,0-3,0-3.17-.05.66-.09,1.63-.12,2.73,0,.55,0,1.13,0,1.73s-.08,1.19-.13,1.78A24.36,24.36,0,0,1,921.39,228.87Z"/><path class="cls-5" d="M915.62,252.72c-.38,1.77-.65,3.57-1.12,5.32l-1.32,5.28L914.5,258C915,256.29,915.24,254.49,915.62,252.72Z"/><path class="cls-5" d="M907.13,278.46l-.53,2.1c-2.15,4.8-4.7,10.42-7.47,15.54-1.3,2.61-2.81,5-4.14,7.19-.68,1.1-1.32,2.13-1.94,3.09s-1.3,1.78-1.89,2.53c.65-.65.2.36.24.58s.16,0,.62-.58a35.5,35.5,0,0,0,2.46-3.68c.56-1.34,2.24-4.19,1.77-3.84,2.07-3.37,1.88-2.56,3.19-4.85,3-6.08,7.49-15.66,9.16-20.88-.94,2.51-1.24,3.08-2,4.9,1-2.74,1.79-4.87,2.53-6.62s1.21-3.16,1.7-4.36a22.29,22.29,0,0,0,1.95-6.62,51.78,51.78,0,0,1-2.45,7.38c-.54,1.37-1,2.8-1.6,4.16S907.6,277.2,907.13,278.46Z"/><path class="cls-5" d="M909.31,278.31c.58-1.45,1.22-2.88,1.76-4.35l1.58-4.41c-.15.72-.45,1.76-.83,2.93s-.82,2.49-1.35,3.73a48.77,48.77,0,0,0-2.06,5.62c.42-.43,4-9.09,2.87-5.84-.36-1.36,4.17-12.14,1.66-7.86,1-2.86,1.4-4.57,1.79-5.62a17.25,17.25,0,0,1,.77-2c.39-.94,1-1.92,2.4-8.18l.37-3.62c-.77,3.48-1.4,6.23-2,8.62s-1.3,4.35-1.89,6.35-1.3,4-2.1,6.29c-.39,1.16-.82,2.41-1.29,3.79S909.93,276.64,909.31,278.31Z"/><path class="cls-5" d="M892.63,310.31,889.9,314l1.7-1.83-2.1,3.19-2.18,2.9c-1.44,1.86-2.75,3.67-4.15,5.3l-4,4.59c-.66.72-1.28,1.45-1.94,2.12l-1.95,2-3.71,3.69c-1.17,1.22-2.45,2.27-3.61,3.39s-2.34,2.18-3.46,3.28-2.32,2.1-3.44,3.19c-1.41,1.36-2.79,2.72-4.22,4l-4.41,3.68-2.22,1.8c-.75.58-1.53,1.12-2.29,1.68l-4.62,3.32c-1.55,1.09-3.19,2.06-4.78,3.1s-3.18,2.11-4.87,3c-3.34,1.91-6.66,3.94-10.21,5.75-3.34,2-1.67,1.16,1-.19s6.07-3.37,6.48-3.48a15,15,0,0,1-4.32,2.69,31.47,31.47,0,0,0-5.38,2.93c-.17.23.67-.1,2.12-.78l2.58-1.24c1-.48,2.07-1,3.16-1.66,2.21-1.26,4.65-2.63,6.89-3.94s4.2-2.65,5.68-3.54l1.63-1.12,1.19-.93c.68-.53,1.14-.93,1.5-1.24.72-.64,1-1,1.65-1.65a32.88,32.88,0,0,0,3.83-2.49c1.53-1.13,3.07-2.27,3.75-2.64,1.17-1,2.32-2,3.34-2.92l3-2.71c1.9-1.72,3.71-3.26,5.38-4.94s3.42-3.28,5.18-5.12,3.49-3.93,5.47-6.29c2.86-2.6-6.11,6.91-3.34,3.92,1.48-1.68,3-3.31,4.45-5l-.5.51c1.37-1.84,3.07-4,4.92-6.32.95-1.14,1.81-2.4,2.73-3.63l2.75-3.69c.94-1.2,1.76-2.46,2.57-3.64s1.6-2.32,2.32-3.37c1.5-2.07,2.6-3.93,3.41-5.16a31.73,31.73,0,0,1-2.81,4.09c-.24.26-.3.26-.13-.1s.6-1.05,1.25-2.25l2.65-3.61,1.34-2.62c.46-.87.82-1.79,1.24-2.67l2.42-5.36c-.94,2-2,4.1-3,6.09-.51,1-1.07,1.95-1.64,2.87l-1.6,2.63-2.58,4.31A9,9,0,0,0,892.63,310.31Z"/><path class="cls-5" d="M900.06,299.6c3.35-6.17,3-5.88,2.74-5.74s-.25.11.12-.72c.18-.42.51-1,1-2l1.87-4-1.67,3.68c-.56,1.23-1.22,2.4-1.83,3.61L900.4,298c-.31.59-.61,1.2-.94,1.78l-1,1.75C899,300.89,899.54,300.26,900.06,299.6Z"/><path class="cls-4" d="M857.14,350.51l-5.52,4.13a49.23,49.23,0,0,0,6.1-4.76C859.3,348.33,859.86,347.77,857.14,350.51Z"/><path class="cls-4" d="M836.73,365.68l2.71-2.51-2.61,1.93c-.86.65-1.73,1.3-2.64,1.88l1.28-.62Z"/><path class="cls-5" d="M816.12,376.29c-2.27,1.23-2,1.25-.45.63a60.44,60.44,0,0,0,6.92-3.33c-1.2.63-2.25,1.17-3.16,1.6s-1.68.72-2.25.94C816,376.57,815.62,376.63,816.12,376.29Z"/><path class="cls-4" d="M780,387.89c5.62-1.41,3.12-.82.21-.2s-6.23,1.16-2.24,0c-.7.33-2.47.8-2.93,1-.22.11-.12.14.61.05.37-.05.89-.13,1.61-.26Z"/><path class="cls-5" d="M742.9,391.58a34.62,34.62,0,0,1,6.41-.22C746.3,391.51,743.89,391.61,742.9,391.58Z"/><path class="cls-5" d="M871.34,334.9l2.73-3Z"/><path class="cls-5" d="M869.51,336.84c.64-.61,1.23-1.29,1.83-1.94C870.67,335.64,870.08,336.31,869.51,336.84Z"/><path class="cls-5" d="M797.33,381.89h0l.86-.25Z"/><path class="cls-5" d="M868.93,81.76,865.08,78l3.81,3.74Z"/><path class="cls-5" d="M865.06,76.76c1.76,1.62,3.06,2.92,4.19,4.13a42.66,42.66,0,0,1,3.06,3.66c1,1.3,2.17,2.74,3.72,4.56s3.32,4.18,5.84,7.12c-2-2.37-4-4.87-6.19-7.3l-3.35-3.61c-1.12-1.21-2.22-2.46-3.44-3.61C863,75.05,874,86.35,865.06,76.76Z"/><path class="cls-5" d="M921.29,190.77l.08.53C921.48,192.24,921.41,191.76,921.29,190.77Z"/><path class="cls-4" d="M553,199.38l.16.1-.28,4.26c-.09,1.42-.21,2.84-.2,4.27,0-1.44.06-2.88.12-4.32Z"/><path class="cls-4" d="M553.34,198.22c.5-4.8,1-9.61,1.81-14.35A184.6,184.6,0,0,0,563,268.39c-.4-.84-.74-1.71-1.08-2.57a24.71,24.71,0,0,1-.86-2.57c-.54-1.78-1.4-4.35-2.15-7.55-.4-1.6-.83-3.33-1.29-5.16s-.77-3.81-1.18-5.83c-.2-1-.41-2.05-.61-3.09s-.32-2.11-.48-3.19c-.3-2.14-.7-4.31-.93-6.5s-.44-4.38-.66-6.52-.26-4.27-.39-6.31c-.3-4.08-.2-7.87-.25-11.07-.05-1.6.06-3.05.09-4.32s.09-2.36.12-3.22A10.15,10.15,0,0,0,553.34,198.22Z"/><path class="cls-4" d="M553.43,194.08c0-2.09.1-4,.3-5.85s.52-3.61.82-5.44c.14-.91.29-1.84.45-2.8s.38-1.93.59-3c.42-2,.73-4.3,1.19-6.82-.58,3.37-.88,6.29-1.33,9.14s-.66,5.7-1.21,8.94C553.93,190.22,553.7,192.15,553.43,194.08Z"/><path class="cls-6" d="M556.81,165.53c.3-1.12.57-2.3.87-3.47l1-3.43c.61-2.2,1.1-4.18,1.55-5.4a28.23,28.23,0,0,1-1.32,5.33l-1.16,3.65C557.38,163.42,557.06,164.57,556.81,165.53Z"/><path class="cls-5" d="M558.26,153l.7-2.05-.63,2.13Z"/><path class="cls-5" d="M558.33,153l.19.19C558,154.66,558.05,154.23,558.33,153Z"/><path class="cls-5" d="M559,150.91c.56-1.85,1.24-4,1.54-5.2l-.69,1.9a72.31,72.31,0,0,1,3-8.38c-2.05,5-1.94,5.16-1.68,5.42l3.29-8.13c0,.91-.67,2.67-1.76,5.1A95.26,95.26,0,0,0,559,150.91Z"/><path class="cls-6" d="M569.44,125.23l-.94,2c-.3.69-.57,1.4-.86,2.1L566,133.57c-.71,1.05-.22-.28.62-2.26l1.43-3.24C568.49,127,569.06,126,569.44,125.23Z"/><path class="cls-5" d="M576.31,113.83c-.48.94-1.84,3.29-2.72,4.85a10.4,10.4,0,0,0-.75,1.49c0,.11.17-.29.9-1.41-.66,1.28-1.41,2.8-2.26,4.39C574.17,117.87,571,122.45,576.31,113.83Z"/><path class="cls-5" d="M571.48,123.15l-1.15,2.26Z"/><path class="cls-6" d="M552.13,213.71c0-1.08.11-1,.16-.57Z"/><path class="cls-5" d="M586.69,99.12l2-2.71-1.58,2.2Z"/><path class="cls-5" d="M618.28,348.52l-6.34-5.83c-2.09-2-4.13-4.15-6.35-6.34s-4.32-4.72-6.73-7.3c-1.16-1.34-2.32-2.76-3.55-4.22s-2.55-2.95-3.78-4.62c-.2.63-4.12-5.26-5.12-5.75a206.43,206.43,0,0,1-12.68-20.77c-1-1.82-1.88-3.74-2.79-5.59l-1.31-2.75c-.45-.9-.87-1.79-1.23-2.69-.75-1.77-1.46-3.47-2.13-5-.32-.79-.66-1.54-.94-2.26l-.76-2.07c-1.92-5.18-2.85-7.58-1.75-4.31l1.62,3.82-2-3.86c-2.54-7.94-4.93-19.06-6.17-24.57,0-.19.19.75.56,2.54.19.89.41,2,.68,3.28l1.08,4.29A183.52,183.52,0,0,0,566,277.43c.84,2,1.67,4.06,2.49,6.05s1.81,3.86,2.66,5.71l1.28,2.72,1.34,2.52,2.43,4.58c3.19,5.52,5.32,8.92,5,8.32.34.73-.18,0-1.37-1.89s-3.14-4.81-5.18-8.73-4.5-8.63-6.88-13.92c-.55-1.34-1.13-2.7-1.71-4.09s-1.2-2.78-1.69-4.25-1.06-2.92-1.59-4.4l-.81-2.23c-.26-.74-.47-1.51-.71-2.26a188.62,188.62,0,0,1-7.58-34.83c-.26-2.49-.5-4.78-.72-6.84s-.24-3.89-.34-5.43c-.23-3.07-.24-5-.28-5.32l.34-1.16c-.06-1.61-.12-3.14-.17-4.62s0-2.91,0-4.29c0-2.75-.05-5.35.13-7.86s.2-5,.43-7.48.55-5,.84-7.75l.86-2.34c-.43,1.94-.65,3.56-.83,5s-.34,2.71-.47,4c-.34,2.53-.34,5.12-.64,9.16.15-1.75.29-3.32.41-4.75.07-.72.13-1.4.19-2.05s.17-1.26.25-1.85c.35-2.36.63-4.31.91-6.16s.68-3.56,1-5.5.71-4.07,1.36-6.67c-.3.12-.93,2.34-1,2.9-.06.27-.07.12.14-.93s.64-3,1.35-6.3c.57-1.87.47-.58.57-.29s.3-.46,2-6.26c4.53-13.86,2.87-11.37,7.72-23.18l-.94,1.94-.85,2-1.7,4c1.64-4.41,5.1-12.51,7.49-16.38l-1.09,2.08c-.37.79-.76,1.68-1.17,2.6-.81,1.85-1.67,3.85-2.44,5.7-1.39,3.77-2.39,6.9-2.07,6.82A168.85,168.85,0,0,1,574,123.47l-1,2.71c1.36-2.18,2.2-4,3.24-5.94s2.21-4,4-6.68c1.53-2.64,1-1.92.13-.94s-1.68,2.34-.88.82c.32-.54,2.26-3.21,4.27-6.25l1.54-2.3c.54-.75,1.07-1.48,1.58-2.17,1-1.39,1.87-2.64,2.43-3.51a16,16,0,0,0-2.36,2.68c-.94,1.27-2.1,2.8-3.17,4.56s-2.29,3.61-3.5,5.41S578,115.5,576.89,117c1-1.61,1.93-3.23,2.93-4.83l3.16-4.68c1.62-3.19-.86.59-3.56,4.75-2.49,4.28-5.17,8.94-4.52,7.2a64.56,64.56,0,0,1,6.75-11.15l1.88-2.65.91-1.32.94-1.28a48.18,48.18,0,0,0,3.33-5.18c-1.61,2.07-5,6.43-7.49,10.29-2.64,3.76-4.47,6.94-4.07,5.92,1.58-2.51,3-4.62,4.44-7.07.74-1.21,1.45-2.52,2.37-3.89s1.94-2.85,3.14-4.53c2-2.64,4.26-5.07,6.42-7.57,2.44-3.41.31-.8-1.89,1.65,1.21-1.37,2.46-2.9,3.85-4.48L600,83.28c1.53-1.77,3.31-3.45,5.07-5.24l2.7-2.71c.9-.92,1.9-1.76,2.87-2.66a155.22,155.22,0,0,1,25.53-19.43c1.24-.87,2.24-1.48,3-1.94l1.6-1c.66-.45.62-.48.4-.42-.44.14-1.61.69.71-.86,2.88-1.53,6.77-3.51,10.64-5.61,1.94-1,4-2,5.82-2.88s3.63-1.77,5.2-2.38c1.87-.73,5.07-2.56,3.21-2-2.61,1.15-5.26,2.2-7.79,3.51l-3.84,1.88-1.91.94-1.87,1c.62-.6-1.81.16-7.16,3.14,1-.33.22.24-1.56,1.31l-3.31,1.93-2,1.15c-.69.4-1.38.87-2.09,1.31-5.74,3.49-11.69,7.93-11.87,8.7l-.09-.53c-1.48,1.08-2.85,2.29-4.25,3.46l-4.17,3.54c-1.36,1.22-2.67,2.48-4,3.72s-2.7,2.45-3.95,3.78l.5-.41s-.21.17-.58.53l-1.58,1.61-2.37,2.44c-.9.93-1.92,2-2.91,3.12l-3.19,3.63c-1.11,1.26-2.27,2.53-3.32,3.89l-3.2,4-1.56,1.89-1.4,1.86,1.13-1.64c.52-.69,1.17-1.48,1.86-2.34l4.17-5.21c2.63-3,4-4.61-.21-.35,1.44-1.72,3.22-3.73,5.24-6,1-1.14,2.13-2.26,3.31-3.44s2.42-2.39,3.69-3.66l1-1,1-.92,2.1-1.88c1.42-1.25,2.84-2.58,4.34-3.87l4.64-3.81,2.35-1.94,2.45-1.85-2.78,1.65a165,165,0,0,1,24-16A201.63,201.63,0,0,1,673.17,33c-1.72.79-3.47,1.5-5.15,2.4,1.55-.64,3.28-1.14,5-1.72l5.36-1.75c1.81-.52,3.61-1.05,5.33-1.58s3.34-1.1,4.85-1.55c-2,.48-3.18.88-3.89,1.06s-.9.21-.81.14,1.51-.66,2.18-1c2.64-.79,5.63-1.52,8.82-2.34,1.61-.38,3.29-.68,5-1s3.47-.73,5.27-1l5.5-.82c.93-.13,1.86-.29,2.8-.4l2.83-.29,5.68-.6,5.67-.37s-.72.14-.08.17c1.31-.09,2.62-.2,3.93-.27l3.94-.09,4-.09c1.31-.05,2.63,0,3.94.05a75.51,75.51,0,0,1,8.35.7c2.13.3,3.9.6,6.17.95,2.73.28,9.46,1.24,6.94.62-1.45-.22-2.9-.45-3.86-.56,8,.6,5.5.87,15.36,2.43-7.65-1.05,2.24,1,1.23,1.32,11.34,2.52,1.22-.47,2.67-.32l4.63,1.2,3.73,1.18c2.26.75,4.18,1.31,6.05,2l6,2.24,1.75.65,1.89.79L808.64,37c.43,0-1.89-.95-4.44-2l-1.92-.81-1.81-.68a18.78,18.78,0,0,1-2.2-.92c3.83,1.29,8.22,3.12,8.94,3.29l-4-1.71c-1.34-.59-2.72-1-4.08-1.56,3.5,1.2,6.83,2.73,10.23,4.11,1.71.67,3.34,1.52,5,2.28l5,2.37a221.82,221.82,0,0,1,20.25,11.51l-1-.82,4.26,2.8c1.42.93,2.75,2,4.13,3L843.8,56c2.25,1.56,4.5,3.3,6.5,4.82s3.65,3,4.92,3.76l-1.55-1.3c1.81,1.41,3.64,2.78,5.42,4.23-1.9-1.4-3.85-2.74-5.77-4.1C860,68.93,869.72,76.28,879,87.08c.39.67-.45-.12-2-1.69l-2.7-2.86-1.6-1.72c-.56-.59-1.17-1.15-1.77-1.74l-3.63-3.52-1.74-1.66c-.59-.5-1.15-1-1.69-1.44a26.86,26.86,0,0,0-4.22-3.22c1.68,1.62,4,3.74,6.14,5.79s4,4,5.09,4.92a51.89,51.89,0,0,0-5-5.34c1.13,1.05,2.33,2.19,3.56,3.38.61.6,1.23,1.21,1.87,1.82l.95.94.91,1,3.67,4.06,1.83,2,1.71,2.11L883.73,94c1.11,1.28,2,2.63,2.95,3.82,1.83,2.43,3.53,4.45,4.73,6-.81-1.34-1.7-2.61-2.6-3.89l-2.67-3.84c1.64,2.18,3.08,4.2,4.36,6s2.23,3.63,3.16,5.15c1.9,3,3.09,5.4,4.25,6.84l-2.55-3.46c-.86-1.15-1.79-2.24-2.69-3.35.8,1.12,1.65,2.26,2.45,3.49l2.37,3.79c.79,1.3,1.63,2.59,2.4,3.94l2.23,4.08c.74,1.37,1.51,2.71,2.19,4.08s1.33,2.73,2,4.06,1.3,2.61,1.88,3.88,1.11,2.51,1.63,3.69c.14,0-.15-.84-.65-2.12-.26-.64-.55-1.39-.9-2.18s-.77-1.61-1.17-2.43c-1.61-3.27-2.9-5.88-3.07-6.21.86,1.4,1.63,2.86,2.44,4.29.82,1.85,1.47,3.29,2,4.45l1.06,2.77,1,2.78,1.24,3.37c.57,1.83,1.58,4.59,3,9.23l.36.07c.35,1.6,1,3.82,1.7,6.16.38,1.16.68,2.38,1,3.56s.62,2.34.9,3.39.53,2,.73,2.79.3,1.43.36,1.83c.12.81,0,.69-.54-.87-.3-1.73-.71-3.45-1.06-5.18l-.26.53a193.66,193.66,0,0,1,4.41,22c-.51-2.14.68,8.65,0,5.79.45,2.73.66,5.48.93,8.23-.19,1.9-.5-1.9-1-6.24s-1.21-9.24-1.56-9.64a10.85,10.85,0,0,0,.13,2.43c.11,1.24.27,2.67.38,3.62-1.46-9.79-1.39-14.76-3.57-24.41l-1.53-4.68.53.13a49,49,0,0,0-1.77-5.24c-.56-1.47-1.05-2.62-1.35-3.28-.14-.59-.27-1.19-.43-1.79s-.37-1.18-.55-1.77c-.38-1.19-.78-2.39-1.21-3.62s-.83-2.47-1.36-3.71l-1.64-3.82c-.57-1.3-1.13-2.65-1.75-4l-2-4.18c-.72-1.44-1.38-2.95-2.19-4.46s-1.63-3.08-2.48-4.71c3,5.33,2.17,3.56.74.66s-3.64-6.81-3-5.95c-.86-1.44-2.07-3.41-3.48-5.58l-4.8-6.81c-1.72-2.28-3.46-4.5-4.92-6.49-.71-1-1.43-1.9-2-2.7s-1.14-1.52-1.54-2.13c-2.31-3.18,5.5,6.17-.36-1.15-1-1.16-1.87-2.25-2.68-3.12s-1.52-1.55-2-2c-1-.91-1.09-.88.14.66-2.31-2.48-4.65-5.14-7.29-7.65l-3.92-3.89-4.18-3.77a188.46,188.46,0,0,0-17.72-14.1l3,1.82-2.75-2.1c-.92-.68-1.89-1.27-2.81-1.89-1.87-1.21-3.69-2.36-5.4-3.41-3.53-1.93-6.61-3.54-8.82-4.58-1.07-.7-1.75-.95-.39-.46C823.15,45.1,821,44,819,42.94s-4.06-1.74-6.25-2.64c-1.1-.42-2.23-.95-3.51-1.38l-4.15-1.5c-1.52-.54-3.14-1.25-5-1.83s-3.92-1.32-6.21-2.12a32,32,0,0,0,5.61,2.34c.72.27,1.49.51,2.26.82l2.34.92c1.58.61,3.16,1.2,4.61,1.72L807,39.15c15.52,6.18,31.62,16,42.51,24l-5.24-3.37c2.25,1.86,3.82,3.06,5,3.94s2,1.51,2.85,2.08,1.63,1.13,2.73,2c.55.44,1.17,1,1.91,1.62s1.51,1.5,2.46,2.48c6.16,5.3-4.19-4.12.51-.19,2.09,2,1.66,1.9,1.61,2.13s0,.31.55.87,1.51,1.48,3.18,3.2A189.28,189.28,0,0,0,819,45.45a192.68,192.68,0,0,0-27-10.9,188.85,188.85,0,0,0-28-6.35c-.73,0,1.24.27,3.17.64-1.61-.21-4.65-.53-8.71-1.09-2-.25-4.35-.39-6.87-.64s-5.26-.36-8.17-.5a185,185,0,0,0-40,2.64,178.74,178.74,0,0,0-36.8,10.69l-3.48,1.45c-1.11.47-2.13,1-3.11,1.46L655,45.34a30.63,30.63,0,0,0-4.81,2.95c-1.76.71,3.51-2.34-3.52,1.43-.58.45-2.27,1.61-.56.81A151,151,0,0,0,618,69.88a209,209,0,0,0-25.86,26.8c.28-.13-.47.83-1.15,1.92a20,20,0,0,0-1.4,2.32c-.67.8-1.38,1.69-2.12,2.64s-1.53,1.94-2.24,3c-1.45,2.19-3,4.53-4.49,6.89l-4.07,7c-1.25,2.23-2.31,4.34-3.29,6l1.4-2.12a180.7,180.7,0,0,0-10,22.39c-.07.36.15-.25.51-1.17l1.26-3c-.46,1.25-.86,2.25-1.2,3.06s-.55,1.43-.76,1.91a5.67,5.67,0,0,1-.87,1.52l-1.51,5.25L561,159.68c-.31.95-.61,1.91-.92,2.87s-.53,2-.79,3l-1.55,6.06c-.79,4.14-1.75,8.37-2.26,12.75-.7,4.35-1,8.84-1.37,13.36-.15,4.55-.39,9.14-.22,13.78a183.35,183.35,0,0,0,2.61,27.95,222.71,222.71,0,0,0,6.45,27.18c1.09,2.55,2.13,4.9,3.24,7.71.53,1.42,1.26,2.89,2,4.58l1.14,2.67c.4.95.81,2,1.33,3-.64-1.37-1.12-2.82-1.67-4.23,1,2.14,1.47,3.25,1.75,3.8s.24.6.2.59-.28-.15,1.51,3.43c2.56,4.79,1.29,1.21-2-5.35-1.59-4.33-.44-1.73,1,1.22a195.57,195.57,0,0,0,21.32,36.3A200.91,200.91,0,0,0,618.28,348.52Z"/><path class="cls-5" d="M645.64,365.87c1.31.89-1.42-.66-3.67-1.89s-3.94-2.35-.85,0c10.12,6.91,24.67,14.12,40.54,19.26l6,1.76c1,.29,2,.61,3,.86l3.06.74c2,.46,4.06,1,6.1,1.41l6.09,1.17a208.83,208.83,0,0,0,23.28,2.75c1.94.15,3.52.32,4.91.37l3.79.1,3.65.07c1.3,0,2.75-.06,4.5-.09.13-.08.14-.18-.2-.24l3.19-.17c1.13-.06,2.31-.12,3.53-.27l7.6-.81,7.56-1.11c2.42-.39,4.66-.86,6.62-1.18,2.2-.54,3.75-1.2-.47-.28,3-.6,5.66-1.34,8.22-1.93l3.7-.85,3.42-.91,3.18-.83c1-.26,2-.54,2.94-.86,1.87-.62,3.59-1.22,5.17-1.86-5.6,1.75,5.38-2.27-1.28-.09,3-1,5.12-1.89,6.85-2.47s3-1,4.29-1.31a61.75,61.75,0,0,0,9.18-3.51c.48-.37,1-.74-.82.17,2.47-1.16,5.59-2.71,8.82-4.5l4.83-2.89c.81-.49,1.62-1,2.4-1.46l2.29-1.54,4.24-2.83c1.33-.86,2.45-1.77,3.47-2.46a16.44,16.44,0,0,1,3.79-2.33c1.13-.95,2.17-2,3.24-3,2-1.42,2.74-1.9,3.81-2.66a58,58,0,0,0,5.43-4.5c3.79-3.63-.37-.1,1-1.49,1-.56,3.88-3.43,7.17-6.65l1.25-1.22,1.2-1.29,2.38-2.54c1.55-1.64,3-3.11,4.11-4.31.16,0-.24.55-1,1.43s-2,2-3.27,3.31-2.72,2.81-4.16,4.2-2.79,2.75-3.82,4c-.07.22.6-.41,1.53-1.32a165.48,165.48,0,0,1-17.91,15.51A182,182,0,0,1,831.38,367a226.12,226.12,0,0,1-37.12,16.6,78.68,78.68,0,0,0-7.58,2.18c-2.12.72-3.86,1.28-5.1,1.81,1.2-.27,3-.61,4.94-1.12s4.1-1.15,6.1-1.75a47.85,47.85,0,0,0,5.17-1.83c1.34-.55,2.19-1,2.2-1.19,2.76-.74,5.43-1.76,8.14-2.67,3-1.26,3.24-.54,4.56-1-1.37.66-2.82,1.25-4.06,1.83s-2.29,1.11-2.93,1.49c-1.26.75-.87.87,3-.57-7.41,3.11-6.37,2.16-5.09,1.27.63-.47,1.31-1,1-1a38,38,0,0,0-4.84,1.65L798,383.88c1.21-.61-1.07.11-4.22,1.07-1.59.44-3.39,1-5.06,1.46s-3.21,1-4.32,1.29c.62-.12,1.25-.23,1.87-.36a199.85,199.85,0,0,1-29.68,5.51,189,189,0,0,1-32.89.66,182.05,182.05,0,0,1-33.24-5.31,184.61,184.61,0,0,1-30.6-10.79c-1.09-.69-2.34-1.4-3.71-2.12s-2.8-1.6-4.33-2.41-3.18-1.61-4.78-2.54l-4.91-2.76c-.82-.47-1.65-.91-2.45-1.39l-2.36-1.49c-1.55-1-3.06-1.95-4.48-2.88a70,70,0,0,1-7-5.51c-3.79-2.56,4.94,4.27-2.2-.85-3.47-2.71-3.55-3.23-3.33-3.19l-3.19-2.45c-.79-1.55.47-1.26,4.74,1.44,1.07.68,2.32,1.51,3.76,2.51l5.13,3.28,3.06,2,3.52,2.09,3.88,2.33C642.64,364.26,644.11,365,645.64,365.87Z"/></g><g class="cls-7"><path class="cls-8" d="M853.9,0c2.07,1.14,4.18,2.32,4.65,2.6l3,1.81c2,1.22,4,2.36,5.92,3.65l5.76,3.88,2.88,1.94L878.86,16l5.56,4.16c1,.67,1.83,1.42,2.72,2.15l2.68,2.21a238,238,0,0,1,38.39,39.7c-.48-.84-.66-1.27,1.57,1.65l3.62,4.81L937,76,939,78.86l1,1.45.91,1.52,3.78,6.27c1.34,2.11,2.48,4.39,3.72,6.66q.93,1.71,1.86,3.45c.62,1.16,1.27,2.31,1.82,3.52q1.71,3.61,3.47,7.29l.88,1.84c.28.63.53,1.26.8,1.89l1.59,3.8,1.92,4.48c.65,1.48,1.14,3,1.72,4.51a23.47,23.47,0,0,0,1.45,3.25c.43,1.17.85,2.32,1.26,3.46s.72,2.3,1.08,3.42l2,6.6c.71,2.13,1.16,4.27,1.7,6.34s1,4.1,1.53,6.09a244.38,244.38,0,0,1,5.41,81.06,241.34,241.34,0,0,1-43.79,116.06c-2.13,2.85-4.19,5.76-6.39,8.57l-6.79,8.31-7.2,8c-2.48,2.61-5,5.13-7.58,7.72a244,244,0,0,1-72.91,49l-4.37,1.89-2.18.95-2.23.84-8.9,3.36-9,2.91-2.26.72-2.28.62-4.58,1.22-4.56,1.21c-1.53.37-3.07.66-4.6,1l-4.6,1c-1.53.31-3.05.69-4.59.9l-9.21,1.45c-1.52.28-3.06.39-4.59.57l-4.59.48a248.05,248.05,0,0,1-28.79,1.07c-2.5,0-5-.24-7.55-.36l-3.81-.2-1.91-.11-1.91-.19c-5.08-.58-10.23-1-15.29-1.87-2.54-.41-5.09-.78-7.61-1.22l-7.5-1.57-3.73-.78-3.66-.95-7.24-1.9c-2.39-.65-4.71-1.46-7-2.17l-3.45-1.08-1.71-.54-1.67-.62-6.56-2.42-3.2-1.19-3.08-1.32c.57.4-.18.23-1.89-.36-.86-.3-2-.7-3.26-1.18s-2.82-1-4.42-1.78l-5.27-2.36c-1.88-.86-3.9-1.7-5.88-2.77-4-2.1-8.35-4.17-12.38-6.62l-6-3.48c-1.93-1.19-3.76-2.4-5.52-3.52l-4.92-3.13-4-2.75c-4.65-3.19-6.56-4.31-3.25-1.47-2.43-1.74-4.85-3.8-7.37-5.89l-3.82-3.16c-1.29-1.07-2.5-2.25-3.76-3.37l-3.74-3.41-1.86-1.69-1.76-1.76-6.76-6.77c-8.36-8.87-14.21-16.29-15-16.87a52.4,52.4,0,0,1-4.88-5.2c-1.14-1.34-2.51-2.91-4.06-4.86s-3.19-4.29-5.15-7a228.66,228.66,0,0,1-13.69-22.09,244.62,244.62,0,0,1-15.84-36.77A228.38,228.38,0,0,1,490,245.55c-.24-1.72-.52-3.41-.71-5.06s-.31-3.27-.46-4.83l-.43-4.51c-.13-1.44-.31-2.82-.34-4.14-.24-5.24-.45-9.31-.6-11.52-.16-3.43-.24-3.14-.27-1s.11,6.25.21,10.32c0,1,.06,2,.08,3s.14,1.94.2,2.84l.31,4.46c.13,2.19.08,2.49-.35-1a249.34,249.34,0,0,0,16.21,67.9c2.27,5.35,4.4,10.77,7,15.95,2.41,5.29,5.27,10.34,8,15.45,1.42,2.52,3,5,4.46,7.46l2.25,3.72,2.42,3.6c1.64,2.39,3.2,4.83,4.89,7.17l5.19,7,1.3,1.74c.44.57.91,1.12,1.37,1.68l2.75,3.35c1.85,2.22,3.63,4.5,5.62,6.6l5.82,6.42c2,2.07,4.07,4.09,6.1,6.14,1,1,2,2.06,3.08,3.05l3.2,2.91,3.2,2.91c1.07,1,2.11,2,3.24,2.86l6.67,5.52c.56.45,1.11.92,1.68,1.36l1.73,1.3,3.46,2.59,3.46,2.6c1.14.88,2.37,1.63,3.55,2.46l7.17,4.84,7.38,4.5c1.24.73,2.44,1.53,3.71,2.21l3.8,2.07,3.79,2.07c1.27.69,2.53,1.39,3.84,2l7.78,3.76c1.29.65,2.62,1.21,4,1.76l4,1.69,4,1.69c1.31.59,2.69,1,4,1.54l8.12,3,8.25,2.59c1.38.42,2.75.88,4.13,1.27l4.19,1.08c2.8.7,5.57,1.49,8.39,2.12,5.65,1.14,11.28,2.45,17,3.2l4.28.66,2.14.33,2.15.23,8.62.89a251.68,251.68,0,0,0,34.63.55c5.79-.16,11.54-.89,17.3-1.44,1.45-.11,2.87-.38,4.3-.58l4.3-.65,4.3-.65c1.44-.21,2.85-.56,4.27-.83l8.53-1.73,8.45-2.14c1.4-.37,2.82-.71,4.21-1.1l4.17-1.29c2.77-.88,5.57-1.67,8.32-2.63l8.21-3,2-.75c.68-.25,1.34-.56,2-.83l4-1.7c5.42-2.15,10.62-4.81,15.9-7.32,2.59-1.34,5.14-2.77,7.72-4.15,1.28-.7,2.58-1.38,3.85-2.11l3.75-2.27,3.76-2.28c1.25-.76,2.52-1.49,3.72-2.34l7.29-4.91c1.23-.8,2.41-1.68,3.58-2.56l3.53-2.64,3.53-2.64c1.18-.88,2.28-1.85,3.43-2.78,2.26-1.87,4.56-3.72,6.79-5.63l6.55-5.94a256.85,256.85,0,0,0,26.88-29.6l4.2-5.64c.72-1,1.45-1.94,2.18-2.94s1.4-2.06,2.11-3.12l4.36-6.47c1.41-2.26,2.8-4.61,4.25-7,.73-1.19,1.45-2.4,2.19-3.61s1.36-2.51,2.06-3.78c1.36-2.56,2.83-5.13,4.18-7.81l4-8.27c.7-1.39,1.3-2.84,1.91-4.3s1.24-2.92,1.86-4.4a250.9,250.9,0,0,0,12.53-38.6,255.42,255.42,0,0,0,4.45-90.34,247.82,247.82,0,0,0-30.89-91.49A251.06,251.06,0,0,0,891.87,13.9C885.53,8.88,879,4.25,872.45,0Z"/><path class="cls-8" d="M601.3,0c-5.7,3.72-11.15,7.61-16.3,11.62a243.69,243.69,0,0,0-70.45,87.09c1.19-2.49,2.6-4.8,3.89-7.1S521,87,522.32,84.92l3.93-6.19,1.88-2.94,2-2.75a234.26,234.26,0,0,0-16.87,29.74c-2.3,4.54-4,8.85-5.52,12.46s-2.55,6.69-3.33,8.87c-2.26,6-3.59,11-4.77,14.85l-.8,2.73-.57,2.4c-.34,1.47-.63,2.71-.86,3.72-.91,4.07-.91,4.64-.35,3.08s1.65-5.27,3.06-9.71c.77-2.2,1.62-4.59,2.47-7l1.28-3.62c.48-1.18,1-2.34,1.43-3.47,2.59-6.54,2.36-5.29,2.48-5s.42-.39,4.93-10.37l-2.19,5.13c-.69,1.62-1.36,3.14-1.88,4.66-1.12,3-2.14,5.79-3.17,8.57s-1.8,5.66-2.79,8.72l-.73,2.35-.39,1.22-.33,1.26c-.44,1.71-.91,3.51-1.41,5.42a65.35,65.35,0,0,0,1.79-6.42l2.19-7c.4-1.28.81-2.59,1.22-3.92s.94-2.62,1.4-3.92c.95-2.59,1.87-5.11,2.7-7.35s1.75-4.14,2.37-5.59c1.26-2.9,1.76-3.88.81-1.3a234.56,234.56,0,0,0-14.4,45.67c.19-.65.51-2,.92-3.8.19-.91.47-1.93.78-3l1-3.62c.35-1.29.71-2.65,1.09-4.07l.57-2.16.7-2.2c.94-3,1.91-6,2.87-9.05,4.18-12,9.11-22.56,8.76-21.38-.8,2-2.32,5.47-4.16,9.68-.86,2.13-1.71,4.47-2.63,6.86s-1.9,4.85-2.64,7.34l-2.31,7.18-.53,1.68-.43,1.64c-.27,1.07-.54,2.08-.78,3a66.14,66.14,0,0,0-1.66,7.29c-.06.3.95-3.35,2.17-8l1-3.66c.38-1.24.78-2.49,1.16-3.72.77-2.46,1.51-4.8,2.1-6.68l-2.6,8.43c-.21.68-.43,1.35-.61,2l-.51,2c-.34,1.33-.67,2.63-1,3.91s-.64,2.54-.95,3.76l-.45,1.82-.36,1.79L498,163c-.21,1.05-.41,2.08-.6,3.07l-.43,2.89-.72,5.13-.58,4.2-.25,3.22c-.26,3.59-.2,4.3.23,1.38L496,180c.13-1.2.38-2.62.68-4.3s.63-3.59,1-5.77l.59-3.46c.27-1.21.55-2.49.85-3.83a254.2,254.2,0,0,0-3.82,25.9c-.31,2.31-.34,4.65-.5,7l-.39,6.9c-.07,4.53-.05,8.92-.05,13v-.12l0-7c0-2.55,0-5.28.2-8s.31-5.38.46-7.86l.1-1.81.18-1.71.33-3a244.38,244.38,0,0,0-1.2,27.47l.24-4.8.06-5.15c.05-1.71.19-3.43.29-5.16l.3-5.22c.06-.88.09-1.76.16-2.64l.28-2.65c-.39,3-.45,6-.64,9.08s-.4,6.08-.34,9.14c.06-1.14.07-2.32.17-3.54l.33-3.77q.33-3.89.69-8.18l1-8,.48-3.94c.23-1.29.45-2.57.67-3.84.45-2.54.88-5,1.31-7.48s1.06-4.76,1.56-7l.76-3.35c.24-1.1.49-2.17.8-3.21l1.64-6c.26-.94.51-1.86.76-2.75s.47-1.75.75-2.56c.53-1.64,1-3.16,1.46-4.55,1.65-5.65,3.85-11.12,5.88-16.64,2.34-5.4,4.52-10.88,7.21-16.12,1.29-2.64,2.54-5.31,4-7.87s2.81-5.17,4.27-7.73l4.61-7.53L534.34,80l1.24-1.82,2.49-3.66,2.48-3.65c.84-1.21,1.76-2.36,2.64-3.54,1.79-2.34,3.5-4.74,5.36-7l5.64-6.8c.92-1.15,1.93-2.22,2.93-3.31l3-3.26A231.47,231.47,0,0,1,585.9,22.8,238.42,238.42,0,0,1,619.68,0Z"/></g><g class="cls-9"><path class="cls-8" d="M478.18,2c-.91,1.05-1.7,2.18-2.54,3.28l-2.48,3.3c-1.66,2.19-3.3,4.38-4.94,6.55s-3.08,4.47-4.61,6.67c.57-.74,1.65-2.25,3.11-4.31.7-1.06,1.57-2.19,2.54-3.43l3.1-4,3.48-4.55L477.68,3l2-2.39.55-.65h-.42Z"/><path class="cls-8" d="M479.21,1.36,477.67,3.2,476.28,5c-.91,1.19-1.76,2.33-2.57,3.39-3.19,4.25-5.46,7.31-5.94,8.23-.24.34,2.92-3.73,6.9-9l3.11-4.1c1-1.2,2-2.4,3-3.58h-.41Z"/><path class="cls-8" d="M461.61,28.17l1.28-1.85C462.46,26.92,462,27.54,461.61,28.17Z"/><path class="cls-8" d="M479.63,1.44c-.62.75-1.25,1.47-1.83,2.22l-1.7,2.26-3.29,4.39-3.16,4.21-1.52,2.05-1.39,2.06-5.2,7.73-2.37,3.53c-.72,1.16-1.39,2.31-2.05,3.4-1.3,2.19-2.51,4.21-3.61,6.05l-2.93,5c-.79,1.5-1.46,2.81-2,3.89C446.32,52.54,446,53.44,448,50l2-3.43c.42-.7.84-1.5,1.36-2.34l1.72-2.71,4.24-6.74,2.54-4.06c.57-.81,1.16-1.67,1.77-2.53.42-.63.85-1.25,1.28-1.85l-1.28,1.85C459,32,456.53,36.24,453.8,40.63l-2.4,3.88-2.24,4.08-4.56,8.29L443.46,59c-.38.7-.7,1.43-1.06,2.14l-2.07,4.28-4.08,8.46c-2.45,5.66-4.71,11.18-6.83,16.25l.07-.15c1.07-2.53,2.33-5.51,3.68-8.72s2.72-6.65,4.4-9.93l4.67-9.64,1.08-2.23,1.11-2c.73-1.32,1.4-2.55,2-3.67-3.1,5.41-5.66,11.11-8.39,16.72l-2,4.22L434.21,79l-3.62,8.63c.82-1.78,1.75-3.81,2.74-5.94s1.82-4.29,2.74-6.44,2-4.22,3.05-6.34l3.1-6.41c.53-1.07,1-2.16,1.58-3.23s1.15-2.12,1.74-3.19c-2.06,3.58-3.73,7.37-5.55,11.09s-3.68,7.43-5.2,11.3c.66-1.41,1.27-2.9,2-4.38l2.34-4.59,5.06-10,5.36-9.57,2.64-4.7c1-1.51,1.89-3,2.83-4.5q2.81-4.47,5.51-8.75c1.87-2.8,3.8-5.45,5.61-8.06l2.69-3.84,1.3-1.86c.44-.61.91-1.18,1.36-1.77l5.16-6.66,2.38-3.07,1.13-1.47,1.16-1.37c1.16-1.38,2.26-2.67,3.28-3.89h-3.79Z"/><path class="cls-8" d="M478.21,1.35,477.1,2.68,476,4.09l-4.59,6.06c-.31.54,2-2.49,5.56-7.15l2.51-3h-.16Z"/><path class="cls-8" d="M474.83,1l-2,2.68-3.05,4.19c-3.29,4.57-3.63,5.26-2.16,3.57s4.72-5.79,8.74-10.66l.73-.82h-1.45Z"/><path class="cls-8" d="M955.25,456.29a333.43,333.43,0,0,1-46.09,34.47l-6.24,3.73-3.12,1.86c-1,.62-2.08,1.26-3.16,1.81L883.76,505l-13.25,6.28c-4.48,2-9,3.79-13.56,5.71a331.51,331.51,0,0,1-117.16,23.22l-6.47.08-3.24,0-3.23-.11-12.93-.48-12.86-1.11-3.21-.28-3.19-.42-6.37-.88-6.35-.88c-2.11-.34-4.2-.78-6.3-1.16l-6.27-1.19c-2.08-.42-4.18-.74-6.22-1.29l-12.3-3c-2.06-.45-4.05-1.12-6.06-1.7l-6-1.8a341.89,341.89,0,0,1-36.66-13.68l-1.18-.5-1.15-.55-2.31-1.11L592.84,508l-4.67-2.24-2.34-1.13-2.29-1.24c-6.08-3.37-12.34-6.53-18.22-10.31-3-1.84-6-3.62-8.9-5.5l-8.6-5.87-4.26-2.92-4.1-3.1-8.1-6.15-1-.76-1-.81-1.92-1.61-3.8-3.2L519.92,460l-1.87-1.57-1.77-1.64-7-6.46-3.39-3.16-3.18-3.26c.54.76-.27.12-2.08-1.54-.91-.84-2.07-1.93-3.43-3.23s-3-2.78-4.56-4.57l-5.33-5.75c-1.89-2.07-4-4.19-5.88-6.58l-6-7.23c-1-1.25-2.1-2.43-3-3.74l-2.9-3.84-5.69-7.54c-1.78-2.5-3.42-5-5-7.3l-4.47-6.51-3.48-5.54c-4.08-6.46-5.82-8.9-3.07-3.67-.51-.87-1-1.76-1.56-2.65l-.8-1.36-.74-1.4-3-5.78c-1-2-2.09-3.95-3.14-5.95s-2-4.11-3-6.17l-2.9-6.2c-.49-1-1-2.06-1.45-3.09l-1.29-3.11-4.93-12c-5.83-15.45-9.26-27.78-9.84-28.91a30.18,30.18,0,0,1-1.33-3.5c-.51-1.49-1.1-3.33-1.81-5.6s-1.54-5-2.42-8.21-1.65-7.05-2.68-11.43a318.67,318.67,0,0,1-5.38-34.69,336.42,336.42,0,0,1-.5-54.08c.4-4.22.78-8.74,1.27-13.41.68-4.64,1.38-9.46,2.1-14.33l.27-1.83.36-1.82.73-3.64c.48-2.43,1-4.85,1.45-7.27l.72-3.6c.3-1.19.6-2.37.89-3.54.6-2.34,1.18-4.66,1.76-6.93s1.11-4.51,1.72-6.67l1.93-6.26q.93-3,1.79-5.86c.59-1.86,1.09-3.67,1.73-5.33,2.41-6.67,4.27-11.85,5.24-14.68,1.61-4.36,1.39-4,.26-1.35s-3,7.88-5,13l-1.45,3.83c-.47,1.25-.82,2.5-1.21,3.65l-1.88,5.73c-.94,2.8-1.14,3.16.16-1.38a336.75,336.75,0,0,0-14.95,93c.06,7.84-.09,15.69.48,23.5l.31,5.87c.07,1,.08,2,.18,2.92l.3,2.92,1.19,11.68c.47,3.88,1.14,7.73,1.7,11.6l.88,5.79,1.15,5.74,1.16,5.74.58,2.87c.18,1,.38,1.92.64,2.86l2.85,11.35.72,2.83c.26.95.56,1.87.83,2.81l1.7,5.59c1.15,3.73,2.19,7.49,3.58,11.13l3.92,11c1.43,3.62,2.95,7.21,4.42,10.81.75,1.79,1.45,3.61,2.25,5.39l2.48,5.28,2.47,5.29c.84,1.76,1.62,3.54,2.57,5.24l5.44,10.32c.47.86.9,1.73,1.38,2.57l1.49,2.51,3,5,3,5c.48.85,1,1.67,1.55,2.47l1.6,2.44,6.41,9.74,6.86,9.43c1.17,1.55,2.25,3.17,3.48,4.68L473,421l3.65,4.54c1.22,1.51,2.43,3,3.75,4.46l7.74,8.72c.66.72,1.28,1.47,2,2.16l2,2.08,4.08,4.17,4.08,4.16c.67.7,1.37,1.38,2.09,2l2.14,2,8.56,7.91,8.93,7.5c1.5,1.24,3,2.52,4.49,3.73l4.66,3.52,4.65,3.51,2.33,1.76c.77.6,1.55,1.17,2.36,1.71,6.45,4.34,12.78,8.89,19.52,12.8l5,3,2.5,1.52c.84.48,1.7.94,2.56,1.4l10.26,5.57a337.22,337.22,0,0,0,42.86,18.63c7.28,2.81,14.82,4.88,22.28,7.18,1.86.61,3.78,1,5.67,1.5l5.69,1.42,5.69,1.42c1.89.48,3.83.78,5.74,1.19l11.52,2.26c3.87.6,7.75,1.13,11.63,1.7,1.94.28,3.87.59,5.82.82l5.86.56,5.85.55,2.93.28,1.47.13,1.47.07,11.77.53,2.94.13c1,0,2,0,3,0l5.9,0c7.87.13,15.72-.48,23.59-.88,3.93-.31,7.85-.78,11.77-1.16,2-.21,3.93-.38,5.89-.63l5.85-.89,5.86-.89c2-.31,3.91-.55,5.84-1l11.63-2.34c1-.21,1.95-.37,2.91-.61l2.88-.73,5.76-1.45,5.77-1.46c1.91-.49,3.8-1.13,5.7-1.68,3.79-1.17,7.61-2.28,11.38-3.5l11.24-4a343.63,343.63,0,0,0,48.84-22.89l8.15-4.84,4.25-2.53,4.24-2.79,8.79-5.81c2.94-2.08,5.89-4.28,8.92-6.48l4.6-3.36,4.52-3.65,4.61-3.72,2.34-1.89c.78-.62,1.57-1.26,2.31-2l9.25-8.24c.77-.7,1.59-1.37,2.34-2.12l2.27-2.23c.41-.4,2.7-2.79,6-6.38l-.26-11.09Q965.94,446.74,955.25,456.29Z"/></g><path class="cls-10" d="M512,388.66l-12.64-32.31a4.87,4.87,0,0,0-5.14-3.05c-8.31,1.05-27.54,3.43-27.65,2.85-.13-.74-20.1-31.45-20.1-31.45l2.51,14-6.87,2.76-3.72,9-14.21,4.32,13.42-1.36a5.5,5.5,0,0,0,4.38-3.06l2.19-4.49,7.28-3.33,9.12,17a5.31,5.31,0,0,0,5,2.79L492.08,361l9.81,40.65,94.77-22.53,19.81,14.23-11.83-16.42,2.68-.48a4.83,4.83,0,0,0,4-4.74l.2-33.09-6,31.8-18,4.25-7-27.7a3.56,3.56,0,0,0-4-2.64l-13.31,2.18-6-12.38,2.94,14.1a3.34,3.34,0,0,0,3.71,2.63l13.05-1.72,3.3,25.57Z"/><path class="cls-2" d="M650.51,636l21.6-125.23A19.18,19.18,0,0,0,666.47,494l-28.82-31.76a2,2,0,0,0-1.26-.55l-27-5.44,19.92-4.79a2,2,0,0,0,1.33-2.78l-30.16-27.05a2,2,0,0,1,2-3.38h0c1.22.53,6.21,2.23,6.21,2.23l.07-17.16a2,2,0,0,0-.73-1.78l-24.13-19L611.31,398l7-6.61-4,10.48,1.25,19.7,31,22.06,3.76-17.19L646.85,414l6.82,9.95a2,2,0,0,1,.33.85l-2,26.71a2,2,0,0,0,.41,1l19.46,15.09a2,2,0,0,0,3.5-.86L683.48,452c.11-.55,3.55-7.5,4-7.79l7.51-7.48a2,2,0,0,0,1-1.59L704.26,397s-28.88-23-29.37-23l-16-.92a2,2,0,0,1-1.8-1.48l-4.32-16.42,7.37,8.83,19.82,2a1.94,1.94,0,0,1,1.09.4l26.22,19.05s11.59-22.08,12-22.26l23-15.09-15.94,19.06a2.05,2.05,0,0,0-.59.89l-6.46,20.3a2.17,2.17,0,0,0-.09.8l1.25,12.72a2,2,0,0,0,3.5,1.08l20.83-24.84a2,2,0,0,1,1.31-.7L758,376.1l-8.67,5.79c-.29.15-18.66,32.57-18.66,32.57l-6.15,22,29.38-16.56a6.62,6.62,0,0,1,2.56-.81l23.37-2.41L798.9,395.8c1.12-1.28-7.17,15.21-12.08,24.6a12.68,12.68,0,0,1-10.33,6.76L763,428.1c-.46.14-34.13,23-34.13,23l29.79,14.73c1.71-2.56,21.4-24.8,21.4-24.8s-9.56,20.33-8.19,20.55l25.46,2,9.1-10.36-3.8,11.86a6.72,6.72,0,0,1-7,4.65l-28-2.34c-.19,0-3.84,3-6,4.86a4.75,4.75,0,0,1-3.66,1l-31.9-4.5a2,2,0,0,0-1.38,1.46l-8.4,58.56C711.81,531.3,755,512.59,755,512.59l13.15-22.27L767,503.46s17-6,17.25-6.54l2-8.14a6.65,6.65,0,0,1,6.1-5.07l12.36-.67L792.5,489l-1.4,11.89a2,2,0,0,1-.91.84l-16.05,7.41a2.16,2.16,0,0,0-.73.58l-11.81,15a2,2,0,0,1-.44.42l-45,30.26a2,2,0,0,0-.87,1.72l-2,79.1a2,2,0,0,1-2.19,2.05l-58.84.13A2,2,0,0,1,650.51,636Z"/><path class="cls-11" d="M716.3,472.28a.16.16,0,0,0-.21.08c-1.51,3.58-6,12.28-6,12.28l-.78-4.06c-.18-1.52-.33-3.05-.55-4.57v-.08a1.66,1.66,0,0,0-.74-1.17,1.62,1.62,0,0,0-2.26.55l-1.68,2.75c0-.1,0-.2,0-.3.3-2.35.52-4.71.76-7.08v-.09a1,1,0,0,0-.55-1,.93.93,0,0,0-1.23.49c-1.43,3.3-6.34,11.45-6.34,11.45l0-10.28a1.47,1.47,0,0,0-.42-1.09,1.38,1.38,0,0,0-2,0v0c-1.65,1.73-3.21,3.54-4.81,5.3-1.1,1.24-2.17,2.49-3.25,3.73l-1-4.76-.76-3.52c-.22-1.16-.51-2.36-.61-3.5v0a.16.16,0,0,0-.31,0,20.63,20.63,0,0,0-.05,3.68c.06,1.21.13,2.42.22,3.62.2,2.41.46,4.81.75,7.2a1.1,1.1,0,0,0,.31.65,1.08,1.08,0,0,0,1.56,0l.07-.06c1.68-1.69,6.45-5.64,6.45-5.64a128,128,0,0,1,1,13v.06a.6.6,0,0,0,.35.55.58.58,0,0,0,.78-.31,119.59,119.59,0,0,1,6.2-10.71c-.43,2.33-.49,2.59-.88,4.93a1.51,1.51,0,0,0,.61,1.48,1.43,1.43,0,0,0,2-.41l0,0,3-4.47V481c.16,1.52.33,3.05.54,4.57.39,3,.78,6.09,1.23,9.13l0,.09a1.44,1.44,0,0,0,2.82.17q1.61-5.58,3-11.21c1-3.75,1.91-7.51,2.73-11.31A.15.15,0,0,0,716.3,472.28Z"/><path class="cls-11" d="M687.93,452.28a6.65,6.65,0,0,0-.16,4.16,7,7,0,0,0,4.94,4.9,6.85,6.85,0,0,0,4.86-.53,1.75,1.75,0,0,0,.24-3l-8.08-6A1.17,1.17,0,0,0,687.93,452.28Z"/><path class="cls-11" d="M716.09,453.9a6.63,6.63,0,0,1-.33,4.15,7,7,0,0,1-5.46,4.3,6.87,6.87,0,0,1-4.77-1.08,1.76,1.76,0,0,1,.1-3l8.72-5.08A1.18,1.18,0,0,1,716.09,453.9Z"/><path d="M677.56,548.46l27.75-50,32.92-8.94a7,7,0,0,0,5.55-5.55l4.45-23.34-12.92,20.83-28.74,4.15a12.73,12.73,0,0,0-9.88,5.62l-21.13,31.4-6.68-37a6.53,6.53,0,0,0-4.09-4.94l-10.56-4V455.28a5.79,5.79,0,0,0-2.86-5L630.23,438l13.33,18-1.64,19.11A7.54,7.54,0,0,0,645,481.8L658.9,492l-1.34,50-24-9.33L620.9,534l8,5.34L656.23,552l-3.33,72.67h27.33Z"/><polyline class="cls-12" points="741.94 479.48 758.93 477.73 765.11 464.48"/><line class="cls-12" x1="762.67" y1="469.71" x2="773.19" y2="470.21"/><line class="cls-12" x1="665.06" y1="482.96" x2="679.81" y2="461.46"/><line class="cls-12" x1="675.26" y1="468.1" x2="667.06" y2="459.96"/><line class="cls-12" x1="699.06" y1="506.46" x2="729.06" y2="518.71"/><line class="cls-12" x1="711.81" y1="531.3" x2="711.81" y2="512.59"/><line class="cls-12" x1="701.4" y1="524.02" x2="711.81" y2="520.21"/><line class="cls-12" x1="721.56" y1="484.71" x2="721.56" y2="451.96"/><line class="cls-12" x1="730.81" y1="488.96" x2="743.31" y2="503.46"/><polyline class="cls-12" points="721.56 464.03 706.61 459.96 703.56 448.71 706.61 442.71"/><path class="cls-10" d="M-.21,720H975.32V661c-127.42-55-717.53-67.67-975.53.33Z"/><polyline class="cls-13" points="465.56 622.13 390.25 717.84 583.58 717.84 514.27 622.13 465.56 622.13"/><path class="cls-14" d="M282.9,586.58a10.4,10.4,0,0,1-5.38-5,16.15,16.15,0,0,0-14.74-8.55h0a15.89,15.89,0,0,0-2.95.42,9.51,9.51,0,0,1-9.41-3.06,28,28,0,0,0-22.21-9.67c-13.24.55-24,10.5-26.76,23.52a10,10,0,0,1-4.91,6.77A30.44,30.44,0,0,0,181,619.28l.09,2.22a9.81,9.81,0,0,0,9.94,9.65l102.62-4.32a9.8,9.8,0,0,0,9.09-10.46l-.09-2.22C302.11,601.17,293.93,590.45,282.9,586.58Z"/><path class="cls-15" d="M267.14,604.77a5.52,5.52,0,0,1-3.06-2.38,8.89,8.89,0,0,0-8.28-3.95h0a9.13,9.13,0,0,0-1.59.31,5.36,5.36,0,0,1-5.22-1.28,15.68,15.68,0,0,0-26.32,8.7,5.25,5.25,0,0,1-2.5,3.65,15.65,15.65,0,0,0-7.68,15l.11,1.15a5.2,5.2,0,0,0,5.68,4.67l55.84-5.48a5.21,5.21,0,0,0,4.67-5.69l-.11-1.14A15.67,15.67,0,0,0,267.14,604.77Z"/><rect class="cls-16" x="334.72" y="536.07" width="306.68" height="84.52"/><path class="cls-17" d="M642.79,534.7H334.39c-5,0-8.62-4.32-7.48-8.82l15.8-56.73a7.59,7.59,0,0,1,7.47-5.53h275.6a7.61,7.61,0,0,1,7.44,5.41l17,56.73C651.47,530.29,647.8,534.7,642.79,534.7Z"/><rect class="cls-17" x="342.67" y="457.96" width="10.21" height="16.33" rx="5.11" ry="5.11"/><rect class="cls-17" x="623.19" y="457.96" width="10.21" height="16.33" rx="5.11" ry="5.11"/><rect class="cls-18" x="483.82" y="357.76" width="9.54" height="347.08" rx="4.77" ry="4.77" transform="translate(1019.89 42.71) rotate(90)"/><path class="cls-18" d="M581.43,487.57H624a6.25,6.25,0,0,1,6.25,6.25v0a0,0,0,0,1,0,0H575.18a0,0,0,0,1,0,0v0A6.25,6.25,0,0,1,581.43,487.57Z"/><path class="cls-18" d="M600.17,481H614.3a3,3,0,0,1,3,3v0a0,0,0,0,1,0,0H597.17a0,0,0,0,1,0,0v0A3,3,0,0,1,600.17,481Z"/><path class="cls-18" d="M608.28,483.25h11.05a5.56,5.56,0,0,1,5.56,5.56v0a0,0,0,0,1,0,0H602.72a0,0,0,0,1,0,0v0a5.56,5.56,0,0,1,5.56-5.56Z"/><path class="cls-18" d="M609.93,497.18h23.52a4,4,0,0,1,4,4v0a0,0,0,0,1,0,0H606a0,0,0,0,1,0,0v0A4,4,0,0,1,609.93,497.18Z"/><path class="cls-18" d="M600,489.88h10a7.87,7.87,0,0,1,7.87,7.87v0a0,0,0,0,1,0,0H592.11a0,0,0,0,1,0,0v0A7.87,7.87,0,0,1,600,489.88Z"/><rect class="cls-19" x="334.68" y="544.16" width="80.93" height="3.42"/><rect class="cls-19" x="334.68" y="582.09" width="80.93" height="3.42"/><rect class="cls-19" x="334.68" y="538.74" width="80.93" height="3.42"/><rect class="cls-19" x="334.68" y="549.58" width="80.93" height="3.42"/><rect class="cls-19" x="334.68" y="592.92" width="80.93" height="3.42"/><rect class="cls-19" x="334.68" y="571.25" width="80.93" height="3.42"/><rect class="cls-19" x="334.68" y="576.67" width="80.93" height="3.42"/><rect class="cls-19" x="334.68" y="587.5" width="80.93" height="3.42"/><rect class="cls-19" x="334.68" y="565.83" width="80.93" height="3.42"/><rect class="cls-19" x="334.68" y="560.41" width="80.93" height="3.42"/><rect class="cls-19" x="334.68" y="555" width="80.93" height="3.42"/><rect class="cls-20" x="334.68" y="542.16" width="80.93" height="2"/><rect class="cls-20" x="334.68" y="547.58" width="80.93" height="2"/><rect class="cls-20" x="334.68" y="553" width="80.93" height="2"/><rect class="cls-20" x="334.68" y="558.41" width="80.93" height="2"/><rect class="cls-20" x="334.68" y="563.83" width="80.93" height="2"/><rect class="cls-20" x="334.68" y="569.25" width="80.93" height="2"/><rect class="cls-20" x="334.68" y="574.67" width="80.93" height="2"/><rect class="cls-20" x="334.68" y="580.09" width="80.93" height="2"/><rect class="cls-20" x="334.68" y="585.5" width="80.93" height="2"/><rect class="cls-20" x="334.68" y="590.92" width="80.93" height="2"/><rect class="cls-19" x="560.47" y="544.16" width="80.93" height="3.42"/><rect class="cls-19" x="560.47" y="582.09" width="80.93" height="3.42"/><rect class="cls-19" x="560.47" y="538.74" width="80.93" height="3.42"/><rect class="cls-19" x="560.47" y="549.58" width="80.93" height="3.42"/><rect class="cls-19" x="560.47" y="592.92" width="80.93" height="3.42"/><rect class="cls-19" x="560.47" y="571.25" width="80.93" height="3.42"/><rect class="cls-19" x="560.47" y="576.67" width="80.93" height="3.42"/><rect class="cls-19" x="560.47" y="587.5" width="80.93" height="3.42"/><rect class="cls-19" x="560.47" y="565.83" width="80.93" height="3.42"/><rect class="cls-19" x="560.47" y="560.41" width="80.93" height="3.42"/><rect class="cls-19" x="560.47" y="555" width="80.93" height="3.42"/><rect class="cls-20" x="560.47" y="542.16" width="80.93" height="2"/><rect class="cls-20" x="560.47" y="547.58" width="80.93" height="2"/><rect class="cls-20" x="560.47" y="553" width="80.93" height="2"/><rect class="cls-20" x="560.47" y="558.41" width="80.93" height="2"/><rect class="cls-20" x="560.47" y="563.83" width="80.93" height="2"/><rect class="cls-20" x="560.47" y="569.25" width="80.93" height="2"/><rect class="cls-20" x="560.47" y="574.67" width="80.93" height="2"/><rect class="cls-20" x="560.47" y="580.09" width="80.93" height="2"/><rect class="cls-20" x="560.47" y="585.5" width="80.93" height="2"/><rect class="cls-20" x="560.47" y="590.92" width="80.93" height="2"/><rect class="cls-17" x="334.04" y="599.68" width="307.36" height="21.16"/><rect class="cls-17" x="415.61" y="442.38" width="144.86" height="168.02"/><path class="cls-18" d="M642.52,600.47H560.34v-4.13h82.18a2.09,2.09,0,0,1,2.1,2.07h0A2.08,2.08,0,0,1,642.52,600.47Z"/><path class="cls-18" d="M333.43,600.47h82.18v-4.13H333.43a2.09,2.09,0,0,0-2.1,2.07h0A2.08,2.08,0,0,0,333.43,600.47Z"/><path class="cls-17" d="M569.87,444.17H408.79a7.58,7.58,0,0,1-7.61-9.23l16.08-65.32a7.75,7.75,0,0,1,7.61-5.78H552.56a7.78,7.78,0,0,1,7.58,5.66l17.31,65.31A7.58,7.58,0,0,1,569.87,444.17Z"/><rect class="cls-17" x="417.11" y="358.18" width="10.21" height="16.33" rx="5.11" ry="5.11"/><rect class="cls-17" x="550.26" y="358.18" width="10.21" height="16.33" rx="5.11" ry="5.11"/><rect class="cls-21" x="415.29" y="520.2" width="145.18" height="3.42"/><rect class="cls-21" x="415.29" y="525.62" width="145.18" height="3.42"/><rect class="cls-21" x="415.29" y="536.45" width="145.18" height="3.42"/><rect class="cls-21" x="415.29" y="574.38" width="145.18" height="3.42"/><rect class="cls-21" x="415.29" y="531.04" width="145.18" height="3.42"/><rect class="cls-21" x="415.29" y="541.87" width="145.18" height="3.42"/><rect class="cls-21" x="415.29" y="498.53" width="145.18" height="3.42"/><rect class="cls-21" x="415.29" y="493.11" width="145.18" height="3.42"/><rect class="cls-21" x="415.29" y="503.95" width="145.18" height="3.42"/><rect class="cls-21" x="415.29" y="487.69" width="145.18" height="3.42"/><rect class="cls-21" x="415.29" y="509.36" width="145.18" height="3.42"/><rect class="cls-21" x="415.29" y="514.78" width="145.18" height="3.42"/><rect class="cls-21" x="415.29" y="585.22" width="145.18" height="3.42"/><rect class="cls-21" x="415.29" y="563.54" width="145.18" height="3.42"/><rect class="cls-21" x="415.29" y="590.64" width="145.18" height="3.42"/><rect class="cls-21" x="415.29" y="568.96" width="145.18" height="3.42"/><rect class="cls-21" x="415.29" y="579.8" width="145.18" height="3.42"/><rect class="cls-21" x="415.29" y="596.05" width="145.18" height="3.42"/><rect class="cls-21" x="415.29" y="612.31" width="145.18" height="3.42"/><rect class="cls-21" x="415.29" y="558.13" width="145.18" height="3.42"/><rect class="cls-21" x="415.29" y="552.71" width="145.18" height="3.42"/><rect class="cls-21" x="415.29" y="601.47" width="145.18" height="3.42"/><rect class="cls-21" x="415.29" y="606.89" width="145.18" height="3.42"/><rect class="cls-21" x="415.29" y="547.29" width="145.18" height="3.42"/><rect class="cls-21" x="415.29" y="466.02" width="145.18" height="3.42"/><rect class="cls-21" x="415.29" y="476.85" width="145.18" height="3.42"/><rect class="cls-21" x="415.29" y="455.18" width="145.18" height="3.42"/><rect class="cls-21" x="415.29" y="460.6" width="145.18" height="3.42"/><rect class="cls-21" x="415.29" y="482.27" width="145.18" height="3.42"/><rect class="cls-21" x="415.29" y="471.44" width="145.18" height="3.42"/><rect class="cls-21" x="415.29" y="449.76" width="145.18" height="3.42"/><rect class="cls-21" x="415.29" y="444.17" width="145.18" height="3.59"/><rect class="cls-22" x="415.29" y="447.76" width="145.18" height="2"/><rect class="cls-22" x="415.29" y="453.18" width="145.18" height="2"/><rect class="cls-22" x="415.29" y="458.6" width="145.18" height="2"/><rect class="cls-22" x="415.29" y="464.02" width="145.18" height="2"/><rect class="cls-22" x="415.29" y="469.44" width="145.18" height="2"/><rect class="cls-22" x="415.29" y="474.85" width="145.18" height="2"/><rect class="cls-22" x="415.29" y="480.27" width="145.18" height="2"/><rect class="cls-22" x="415.29" y="485.69" width="145.18" height="2"/><rect class="cls-22" x="415.29" y="491.11" width="145.18" height="2"/><rect class="cls-22" x="415.29" y="496.53" width="145.18" height="2"/><rect class="cls-22" x="415.29" y="501.95" width="145.18" height="2"/><rect class="cls-22" x="415.29" y="507.36" width="145.18" height="2"/><rect class="cls-22" x="415.29" y="512.78" width="145.18" height="2"/><polygon class="cls-22" points="560.47 518.2 415.29 518.2 415.29 518.66 415.29 520.2 560.47 520.2 560.47 518.2"/><rect class="cls-22" x="415.29" y="523.62" width="145.18" height="2"/><rect class="cls-22" x="415.29" y="529.04" width="145.18" height="2"/><rect class="cls-22" x="415.29" y="534.45" width="145.18" height="2"/><rect class="cls-22" x="415.29" y="539.87" width="145.18" height="2"/><rect class="cls-22" x="415.29" y="545.29" width="145.18" height="2"/><rect class="cls-22" x="415.29" y="550.71" width="145.18" height="2"/><rect class="cls-22" x="415.29" y="556.13" width="145.18" height="2"/><rect class="cls-22" x="415.29" y="561.54" width="145.18" height="2"/><rect class="cls-22" x="415.29" y="566.96" width="145.18" height="2"/><rect class="cls-22" x="415.29" y="572.38" width="145.18" height="2"/><rect class="cls-22" x="415.29" y="577.8" width="145.18" height="2"/><rect class="cls-22" x="415.29" y="583.22" width="145.18" height="2"/><rect class="cls-22" x="415.29" y="588.64" width="145.18" height="2"/><rect class="cls-22" x="415.29" y="594.05" width="145.18" height="2"/><rect class="cls-22" x="415.29" y="599.47" width="145.18" height="2"/><rect class="cls-22" x="415.29" y="604.89" width="145.18" height="2"/><rect class="cls-22" x="415.29" y="610.31" width="145.18" height="2"/><rect class="cls-22" x="415.29" y="615.73" width="145.18" height="2"/><rect class="cls-18" x="482.85" y="343.92" width="10.21" height="196.92" rx="5.11" ry="5.11" transform="translate(930.34 -45.57) rotate(90)"/><path class="cls-18" d="M465.35,610.39l.13-52.22c0-13.22,10.16-24,22.6-24a21.83,21.83,0,0,1,16,7.09,24.7,24.7,0,0,1,6.58,17l-.13,52.22Z"/><path class="cls-11" d="M488.11,542c-8.94,0-16.21,7.92-16.22,17.72l0,45.54,32.38.08,0-45.55C504.29,550,497.05,542,488.11,542Z"/><path d="M488.06,461.72a10.88,10.88,0,0,0-10.88,10.88v33.89h21.76V472.6A10.88,10.88,0,0,0,488.06,461.72Z"/><rect class="cls-23" x="477.18" y="496.92" width="21.77" height="9.8"/><rect class="cls-18" x="501.23" y="471.25" width="10.69" height="36.29" transform="translate(67.21 -61.13) rotate(7.4)"/><rect class="cls-18" x="466.48" y="471.4" width="10.69" height="35.33"/><path class="cls-11" d="M451.3,472.84a10.89,10.89,0,0,0-21.77,0v24.32H451.3Z"/><rect class="cls-23" x="429.53" y="497.16" width="21.77" height="9.56"/><path class="cls-11" d="M384.29,553.63a10.89,10.89,0,0,0-21.76,0V577h21.76Z"/><rect class="cls-23" x="362.53" y="576.97" width="21.77" height="9.18"/><path d="M384.29,502.17a10.88,10.88,0,1,0-21.76,0v14.66h21.76Z"/><rect class="cls-23" x="362.53" y="516.83" width="21.77" height="9.56"/><path d="M611.17,553.63a10.89,10.89,0,0,0-21.77,0V577h21.77Z"/><rect class="cls-23" x="589.4" y="576.97" width="21.77" height="9.18"/><path d="M451.3,550.59a10.89,10.89,0,1,0-21.77,0v24.32H451.3Z"/><rect class="cls-23" x="429.53" y="574.91" width="21.77" height="9.56"/><path class="cls-11" d="M546.15,550.59a10.88,10.88,0,1,0-21.76,0v24.32h21.76Z"/><rect class="cls-23" x="524.39" y="574.91" width="21.77" height="9.56"/><path d="M546.15,472.84a10.88,10.88,0,0,0-21.76,0v24.32h21.76Z"/><rect class="cls-23" x="524.39" y="497.16" width="21.77" height="9.56"/><path class="cls-24" d="M567.32,610.41V536.07c-1.81-1.05-1.51-8.36.69-9.54s45.54-62.91,45.54-62.91H560.47V610.41h6.85Z"/><rect class="cls-18" x="350.9" y="500.65" width="10.69" height="26.18" transform="translate(-36.31 27.18) rotate(-4.16)"/><rect class="cls-18" x="385.47" y="500.65" width="10.69" height="26.18" transform="translate(48.75 -33.67) rotate(5.26)"/><polygon class="cls-18" points="394.94 586.92 384.29 585.98 387.53 552.23 398.18 553.17 394.94 586.92"/><polygon class="cls-18" points="362.53 586.53 352.49 590.07 340.3 558.26 350.34 554.72 362.53 586.53"/><path class="cls-25" d="M408.43,610.41V536.07c1.82-1.26,1.51-8.36-.68-9.54s-45.55-62.91-45.55-62.91h53.08V610.41h-6.85Z"/><rect class="cls-26" x="483.32" y="526.48" width="10.21" height="167.84" rx="5.11" ry="5.11" transform="translate(1098.83 121.98) rotate(90)"/><rect class="cls-27" x="483.88" y="523.33" width="8.36" height="182.51" rx="4.18" ry="4.18" transform="translate(1102.64 126.53) rotate(90)"/><rect class="cls-28" x="483.79" y="524.14" width="8.53" height="192.9" rx="4.27" ry="4.27" transform="translate(1108.65 132.53) rotate(90)"/><path class="cls-29" d="M531.26,543c-9.41-1.34-17.67,5.19-18.92,15.1l-5.76,46.07,28.8,5.11,3.6-3.89,5.12-41.85C545.35,553.57,540.67,544.28,531.26,543Z"/><path class="cls-28" d="M527.46,545.84c-8.59-1.23-16.52,5.46-17.71,14.93l-5.48,44,31.11,4.45,5.48-44C542.05,555.75,536.05,547.07,527.46,545.84Z"/><rect class="cls-30" x="423.57" y="532.88" width="14.75" height="2.94" rx="1" ry="1" transform="translate(-3.38 2.75) rotate(-0.36)"/><rect class="cls-30" x="433.93" y="530.57" width="15.76" height="2.94" rx="1" ry="1" transform="translate(-3.37 2.81) rotate(-0.36)"/><rect class="cls-30" x="430.92" y="528.65" width="9.61" height="2.94" rx="1" ry="1" transform="translate(-3.36 2.78) rotate(-0.36)"/><rect class="cls-30" x="434.82" y="526.29" width="9.61" height="2.94" rx="1" ry="1" transform="translate(-3.34 2.8) rotate(-0.36)"/><rect class="cls-30" x="534.13" y="520.19" width="12.18" height="2.42" rx="1" ry="1" transform="translate(-3.3 3.44) rotate(-0.36)"/><rect class="cls-30" x="542.68" y="518.29" width="13" height="2.42" rx="1" ry="1" transform="translate(-3.29 3.5) rotate(-0.36)"/><rect class="cls-30" x="540.2" y="516.7" width="7.93" height="2.42" rx="1" ry="1" transform="translate(-3.28 3.46) rotate(-0.36)"/><rect class="cls-17" x="514.67" y="564.38" width="10.08" height="2.01" rx="1" ry="1" transform="translate(-118.48 992.55) rotate(-81.21)"/><rect class="cls-17" x="519.47" y="566.14" width="16.8" height="1.98" rx="0.99" ry="0.99" transform="translate(-113.29 1002.09) rotate(-81.21)"/><rect class="cls-17" x="506.2" y="589.95" width="10.08" height="2.01" rx="1" ry="1" transform="translate(-150.93 1005.84) rotate(-81.21)"/><rect class="cls-17" x="506.66" y="595.02" width="10.98" height="2.19" rx="1" ry="1" transform="translate(-155.25 1011.11) rotate(-81.21)"/><rect class="cls-17" x="508.22" y="584.92" width="24.64" height="2.51" rx="1" ry="1" transform="translate(-138.32 1010.98) rotate(-81.21)"/><rect class="cls-17" x="523.36" y="599.37" width="10.08" height="2.01" rx="1" ry="1" transform="translate(-145.7 1030.77) rotate(-81.21)"/><rect class="cls-17" x="527.26" y="591.55" width="10.08" height="1.67" rx="0.84" ry="0.84" transform="translate(-134.5 1027.87) rotate(-81.21)"/><rect class="cls-17" x="522.34" y="589.49" width="17.83" height="1.27" rx="0.5" ry="0.5" transform="matrix(0.15, -0.99, 0.99, 0.15, -133.15, 1024.93)"/><rect class="cls-17" x="513.95" y="556.81" width="10.77" height="2.01" rx="1" ry="1" transform="translate(-111.31 985.77) rotate(-81.21)"/><rect class="cls-17" x="514.1" y="560.7" width="6.57" height="2.01" rx="1" ry="1" transform="translate(-116.82 987.13) rotate(-81.21)"/><rect class="cls-17" x="512.93" y="557.81" width="6.57" height="2.01" rx="1" ry="1" transform="matrix(0.15, -0.99, 0.99, 0.15, -114.95, 983.53)"/><path class="cls-18" d="M509.19,414.68h51.75a6.25,6.25,0,0,1,6.25,6.25v0a0,0,0,0,1,0,0H502.94a0,0,0,0,1,0,0v0A6.25,6.25,0,0,1,509.19,414.68Z"/><path class="cls-18" d="M531.59,408.15h17.49a3,3,0,0,1,3,3v0a0,0,0,0,1,0,0H528.59a0,0,0,0,1,0,0v0A3,3,0,0,1,531.59,408.15Z"/><path class="cls-18" d="M540.62,410.36h14.75a5.56,5.56,0,0,1,5.56,5.56v0a0,0,0,0,1,0,0H535.06a0,0,0,0,1,0,0v0A5.56,5.56,0,0,1,540.62,410.36Z"/><path class="cls-18" d="M418.14,379.8h21.75a3,3,0,0,1,3,3v0a0,0,0,0,1,0,0H415.14a0,0,0,0,1,0,0v0A3,3,0,0,1,418.14,379.8Z"/><path class="cls-18" d="M423.68,385.07H442a4.4,4.4,0,0,1,4.4,4.4v0a0,0,0,0,1,0,0H419.27a0,0,0,0,1,0,0v0A4.4,4.4,0,0,1,423.68,385.07Z"/><path class="cls-18" d="M435.86,382.43h9.64a3.92,3.92,0,0,1,3.92,3.92v0a0,0,0,0,1,0,0H431.94a0,0,0,0,1,0,0v0a3.92,3.92,0,0,1,3.92-3.92Z"/><path class="cls-18" d="M432.2,407.81h30.6a2.44,2.44,0,0,1,2.44,2.44v2.45a0,0,0,0,1,0,0H427.32a0,0,0,0,1,0,0v0A4.88,4.88,0,0,1,432.2,407.81Z"/><path class="cls-18" d="M452.88,401.21h29.85a6.6,6.6,0,0,1,6.6,6.6v0a0,0,0,0,1,0,0h-43a0,0,0,0,1,0,0v0A6.6,6.6,0,0,1,452.88,401.21Z"/><path class="cls-18" d="M520.27,382.43h38.06a6.54,6.54,0,0,1,6.54,6.54v0a0,0,0,0,1,0,0H513.73a0,0,0,0,1,0,0v0a6.54,6.54,0,0,1,6.54-6.54Z"/><path class="cls-18" d="M514.77,379.16h38.06a6.54,6.54,0,0,1,6.54,6.54v0a0,0,0,0,1,0,0H508.23a0,0,0,0,1,0,0v0A6.54,6.54,0,0,1,514.77,379.16Z"/><path class="cls-18" d="M530.56,417h14.26a7.87,7.87,0,0,1,7.87,7.87v0a0,0,0,0,1,0,0h-30a0,0,0,0,1,0,0v0a7.87,7.87,0,0,1,7.87-7.87Z"/><path d="M610.47,502.17a10.89,10.89,0,0,0-21.77,0v14.66h21.77Z"/><rect class="cls-23" x="588.7" y="516.83" width="21.77" height="9.56"/><path class="cls-31" d="M699.37,598.51,690.81,596l2.07-6.38a4.44,4.44,0,0,0-2.87-5.68c-4-1.14-7.51-1-8.76,2.57l.45,6.18-9.13-3c-2.36-.78-7.88,1.13-8.61,4.18-.57,2.42,3.43,3.58,5.79,4.36l9.13,3-9.59,29.07a4.5,4.5,0,0,0,8.54,2.82L687.42,604l6.82,4.49c2.72.56,7.22-2,8-4.34A4.51,4.51,0,0,0,699.37,598.51Z"/><rect class="cls-28" x="354.42" y="607.68" width="7.58" height="2.82"/><rect class="cls-32" x="382.52" y="609" width="7.58" height="2.82"/><rect class="cls-28" x="359.04" y="604.86" width="7.58" height="2.82"/><rect class="cls-28" x="386.95" y="611.81" width="7.58" height="2.82"/><rect class="cls-32" x="337.84" y="611.81" width="7.58" height="2.82"/><rect class="cls-28" x="342.28" y="614.63" width="7.58" height="2.82"/><rect class="cls-32" x="603.52" y="609.49" width="7.58" height="2.82"/><rect class="cls-28" x="607.95" y="612.31" width="7.58" height="2.82"/><rect class="cls-28" x="580.95" y="603.07" width="7.58" height="2.82"/><rect class="cls-28" x="585.39" y="605.89" width="7.58" height="2.82"/><rect class="cls-28" x="632.39" y="602.48" width="7.58" height="2.82"/><rect class="cls-28" x="636.83" y="605.3" width="4.36" height="2.82"/><path class="cls-28" d="M509.55,522l4.72-2.12-.15-1.71-5.72.5-2.26-.13,7.84-1.34a2.28,2.28,0,0,0-2.39-1.61L462,519.91a2.3,2.3,0,0,0-2.09,2.48l1.58,1.42-1.21,2.79a2.3,2.3,0,0,0,2.49,2.09l49.6-4.37a2.3,2.3,0,0,0,2.09-2.48l0-.31Z"/><path class="cls-28" d="M582.55,577.78l-1.87,1.57.08,1.43,4.37-.35,6.26-.68-10.54,1.85a1.74,1.74,0,0,0,1.79,1.37l37.94-3a1.89,1.89,0,0,0,1.64-2L621,576.67l.66-1.57L616,576.27l6-1.91a1.79,1.79,0,0,0-1.86-1.77l-37.94,3a1.9,1.9,0,0,0-1.64,2.06l0,.26Z"/><path class="cls-28" d="M580.53,554.42,578.66,556l.08,1.43,4.37-.35,6.26-.68-10.55,1.85a1.75,1.75,0,0,0,1.8,1.37l37.94-3a1.88,1.88,0,0,0,1.63-2.05L619,553.31l.66-1.57L614,552.91l6-1.91a1.78,1.78,0,0,0-1.86-1.77l-37.93,3a1.9,1.9,0,0,0-1.64,2.06v.26Z"/><path class="cls-28" d="M616.29,569.61l3.87-1.15.23-1.42-4.29-.29-1.63-.4,6-.12a1.59,1.59,0,0,0-1.44-1.62L581.85,562a2,2,0,0,0-2,1.78l.87,1.35-1.44,2.14a1.64,1.64,0,0,0,1.41,2l37.2,2.58a2,2,0,0,0,2-1.78l0-.26Z"/><g class="cls-33"><circle class="cls-8" cx="737.8" cy="209.79" r="151.25"/></g><circle class="cls-34" cx="736.85" cy="209.79" r="117.21"/><path class="cls-31" d="M288.05,611.91c-.4-2.45-3.57-3.84-6-3.44l-4.27.7c0-.28.05.29,0,0l-.26-1.56a10.93,10.93,0,0,0-9.42-9.08L266,585.81l2.23.6c2.42-1.21,4.11-2.19,3.63-4.69a3.13,3.13,0,0,0-3.55-2.56l-3.3.54-.47-2.83a3,3,0,0,0-3.55-2.56,6.65,6.65,0,0,0-3.66,2.36l1.57,4-3.31.54c-1.68.28-4.47,2.56-4.46,4.22s3.78,2.16,5.46,1.89l3.31-.54L262,599.53a10.94,10.94,0,0,0-6,11.61l.25,1.56-3.64.7c-3.46.94-5.71,3.23-6.06,6.1L253,644.31l39.76-6.64Z"/><path class="cls-35" d="M266.42,580.56l-3.31.54-.46-2.84a3.1,3.1,0,0,0-6.11,1l.47,2.84-3.31.54a3.1,3.1,0,0,0,1,6.11l3.31-.55,2.36,14.48a3.09,3.09,0,1,0,6.11-1l-2.37-14.48,3.31-.55a3.09,3.09,0,0,0-1-6.1Z"/><path class="cls-35" d="M280.24,610.73l-4.27.7c0-.29-.05-.57-.09-.86l-.26-1.56a10.93,10.93,0,0,0-12.55-9h0a11,11,0,0,0-9,12.56l.26,1.56q.07.43.18.84l-4.27.7a4.49,4.49,0,0,0-3.71,5.16l4.61,24.91L290,639.34l-4.6-24.9A4.49,4.49,0,0,0,280.24,610.73Z"/><line class="cls-36" x1="254.81" y1="621.16" x2="277.62" y2="617.43"/><line class="cls-37" x1="255.45" y1="625.09" x2="278.26" y2="621.35"/><line class="cls-37" x1="256.09" y1="629.01" x2="278.9" y2="625.28"/><line class="cls-37" x1="273.17" y1="630.83" x2="263.29" y2="632.45"/><path class="cls-35" d="M696.45,599.83l-9.13-3,2.48-7.5a4.5,4.5,0,0,0-8.55-2.82l-2.47,7.5-9.13-3a4.5,4.5,0,1,0-2.82,8.54l9.13,3-9.59,29.07a4.5,4.5,0,1,0,8.54,2.81l9.59-29.06,9.13,3a4.5,4.5,0,0,0,2.82-8.55Z"/><path class="cls-10" d="M640,629.84s28.83-6.83,50.66,7.84-1,18-1,18Z"/><rect class="cls-10" x="242.33" y="636.05" width="61" height="13.75" transform="translate(-45.89 21.47) rotate(-4.16)"/></svg>