<svg xmlns="http://www.w3.org/2000/svg" viewBox="0 0 103.01 50.32"><title>Asset 3</title><g id="Layer_2" data-name="Layer 2"><g id="Layer_1-2" data-name="Layer 1"><path d="M50.4,33.53,47.92,27.6l.59-.4a36.38,36.38,0,0,0,2.9,3.05,3.13,3.13,0,0,0,2.19.93C54.2,31,54.78,30,55,29.31A15.44,15.44,0,0,1,56.55,25c.36,2.18.73,4.36,1.19,7.14A13.54,13.54,0,0,0,59,30.52,80.19,80.19,0,0,1,76.32,5.93C83.8-1.44,88.81-1.85,97.39,4.19c1.94,1.36,3.66,3,5.62,4.68C99.1,10,95.36,10.4,92.26,12c-3.72,2-3.45,6.21-3.55,10.2C84.87,21,81,19,78,23.21c-2.6,3.63-.76,7.44-.07,11.54-1.71-.53-3.08-1-4.47-1.38C67.44,31.65,63,35,63,41.37a26.1,26.1,0,0,1-.24,4.42,5.38,5.38,0,0,1-9.37,2.65,21.18,21.18,0,0,1-2.23-3.16c-3.66-6.21-9.2-6.76-13.95-1.35-.78.89-1.53,1.79-2.52,3-1.57-3.78-2-8.06-6-9.82C24,35,21.62,38.46,19.1,41.73c-2.28-3.27-4.2-7.12-8.38-6.87-3.54.2-7,1.77-10.72,2.79,1.34-6,3.37-11.79,8.68-15.45A11.66,11.66,0,0,1,16,20.66c11.54,1.24,21.93,5.81,31.66,12L49.86,34Z"/></g></g></svg>