<svg xmlns="http://www.w3.org/2000/svg" viewBox="0 0 39.48 28.16"><title>Asset 26</title><g id="Layer_2" data-name="Layer 2"><g id="Layer_1-2" data-name="Layer 1"><path d="M16,17.57,17.24,15l.3.09A16.33,16.33,0,0,0,17.35,17a1.37,1.37,0,0,0,.33,1,1.29,1.29,0,0,0,1-.06,6.57,6.57,0,0,1,1.88-.72l-2.06,2.46a5,5,0,0,0,.91-.07,35.8,35.8,0,0,1,13.3-1.26c4.65.39,6.24,2,6.68,6.6.1,1,0,2.1,0,3.24a25.45,25.45,0,0,0-4.18-2.71c-1.73-.68-3.08.64-4.46,1.76-.7-1.64-1.12-3.52-3.41-3.32-2,.18-2.73,1.9-3.9,3.31-.32-.72-.57-1.32-.83-1.9-1.17-2.53-3.58-3-5.73-1.22a12,12,0,0,1-1.56,1.2,2.39,2.39,0,0,1-3.6-2.39,9.72,9.72,0,0,1,.42-1.67c1-3-.38-5-3.58-5.08-.52,0-1,0-1.72,0,.82-1.62,2.14-3,1.58-4.85C7.84,9.12,6,9.31,4.15,9.4,4.59,7.69,5.33,5.93,4,4.59a24.62,24.62,0,0,0-4-2.8C2.4.51,4.94-.48,7.71.25a5.19,5.19,0,0,1,2.64,2,32.77,32.77,0,0,1,5.12,14.12c0,.38.11.77.16,1.15Z"/></g></g></svg>