<svg xmlns="http://www.w3.org/2000/svg" viewBox="0 0 58.06 35.85"><title>Asset 27</title><g id="Layer_2" data-name="Layer 2"><g id="Layer_1-2" data-name="Layer 1"><path d="M29.81,25.58l-2.33-3.23.3-.32A22.09,22.09,0,0,0,30,23.46a1.91,1.91,0,0,0,1.45.25c.34-.17.55-.85.59-1.32a10,10,0,0,1,.32-2.8l1.73,4.14a6.75,6.75,0,0,0,.49-1.17,49.75,49.75,0,0,1,7-17.28C45-.22,48-1.17,54,1.26c1.36.55,2.63,1.31,4.05,2-2.2,1.21-4.4,2-6,3.43-2,1.71-1.2,4.23-.7,6.65-2.48-.18-5.08-.88-6.3,2.09-1.06,2.55.59,4.6,1.59,7-1.11-.08-2-.16-2.89-.2-3.89-.19-6.07,2.46-5.2,6.3a15.57,15.57,0,0,1,.47,2.7,3.32,3.32,0,0,1-5.27,2.92,14.23,14.23,0,0,1-1.79-1.59c-3.08-3.23-6.5-2.78-8.61,1.15-.34.64-.66,1.3-1.09,2.14-1.49-2.06-2.33-4.59-5-5.08-3.11-.58-4.08,1.84-5.14,4.17-1.83-1.65-3.53-3.7-6-3C4,32.6,2.1,34,0,35.17c0-3.8.37-7.58,3.06-10.54a7.23,7.23,0,0,1,4.2-2c7.14-.88,14,.41,20.78,2.76l1.52.53Z"/></g></g></svg>