<svg xmlns="http://www.w3.org/2000/svg" viewBox="0 0 629.5 567.88"><defs><style>.cls-1{fill:#8f2329;}</style></defs><title>Asset 24</title><g id="Layer_2" data-name="Layer 2"><g id="Layer_1-2" data-name="Layer 1"><path class="cls-1" d="M885.5,20H256V232.25c11.6,8.48,19.81,18.65,24.2,32.24,3.08,9.52,9.09,16.73,17.33,22.69A60.55,60.55,0,0,1,311.37,302c6.55,9.54,11.77,20,18.28,29.55,12.11,17.83,17.91,37.5,18.15,58.82.52,46.17.73,92.35,1.09,138.53.12,15.15-.09,30.32.67,45.44.48,9.72,4.2,13.6,10.35,13.53s10.19-5.4,10.89-14.3a41.16,41.16,0,0,0,.06-5c-.32-7.8-1-15.6-1-23.41q-.45-79.56-.61-159.13c0-3.52,1.11-7.05,1.71-10.57l2.34-.26c1.11,2.11,2.69,4.09,3.24,6.34,1.17,4.8,2.45,9.73,2.56,14.63q1.29,56.44,2,112.89c.13,11.58-1.1,23.18-1,34.76a25,25,0,0,0,3.52,12.73c1.69,2.65,6,5.08,9.09,5,2.66-.1,6.23-3.41,7.51-6.18,1.71-3.69,2.15-8.23,2.18-12.42.28-40.26.5-80.53.39-120.79,0-9.14,4.13-14.89,12.06-18.07a45.66,45.66,0,0,1,13-3c7.76-.66,10.67,2.25,10.84,10.26.15,7.1,0,14.21-.07,21.31-.1,13.48-.3,26.95-.29,40.42,0,6,3,10.16,9.14,10.67,6.79.58,9.15-4.47,9.62-9.95.74-8.7.88-17.46,1-26.2.17-18-.13-36,.28-54,.19-8.31,7.28-14.81,14.59-14.62,4.83.12,9.65,6.92,10.11,14.52.31,5,.51,9.93.55,14.9.22,31,.23,62.05.65,93.07.15,11,4.32,16.37,11.08,16.17s10.23-5.62,10.22-16.69c0-30.07-.16-60.15-.06-90.23.14-38.83,7.73-76.15,23.56-111.67a70.16,70.16,0,0,1,9.28-15.85,27.72,27.72,0,0,1,47.42,7c1.77,4.28,5.69,9.35,9.71,10.63,5.76,1.83,7.79-4.61,10.08-9,.11-.21.19-.5.37-.6,3.88-2.21,7.74-5.89,11.68-6,2.09-.05,5.28,5.87,6.27,9.55,1.2,4.46.74,9.4.76,14.13.05,13.73-.17,27.46.07,41.18.06,3.44.43,7.81,2.5,10a20.24,20.24,0,0,0,11.14,5.68c1.22.19,4.75-5.67,4.86-8.85a303.82,303.82,0,0,0-.64-31.93c-1.08-15.55-.93-31.16,5.68-45.34,10.28-22,21-44,33.44-64.86,6.5-10.93,16.49-20,25.8-29,6.75-6.51,13.82-5.7,21.08.2a42.22,42.22,0,0,1,15,25.09c5.6,27.8,5.75,55.94,4.89,84.15a252,252,0,0,0,.6,31.1c.28,3,4.07,7.28,7,8,5,1.24,7.68-3.55,8.07-7.89.83-9.38.86-18.83,1.14-28.26.43-14.4,0-28.89,1.38-43.2,2.86-29.38,17.2-54.83,29.62-80.83a30.79,30.79,0,0,1,9.59-11.16c3.14-2.25,8.32-4.06,11.55-3,2.4.81,3.64,6.47,4.43,10.18.87,4.11.1,8.59,1.1,12.65.59,2.38,3,5.68,5,6s6-1.94,6.76-4c1.73-4.46,3-9.56,2.65-14.25-1-12.62,3.36-22.58,12.51-31,7.31-6.73,14.9-13.34,21.1-21,4.29-5.32,6.9-12.21,9.35-18.73Z" transform="translate(-256 -20)"/></g></g></svg>