<svg xmlns="http://www.w3.org/2000/svg" viewBox="0 0 222.64 279.51"><defs><style>.cls-1{fill:#1b1215;opacity:0.58;}.cls-2{fill:#eaeaea;}.cls-3{opacity:0.6;}.cls-4{fill:#f95d28;}.cls-5{fill:#ff8006;}.cls-6{fill:#a22c20;}.cls-7{fill:#f7952b;}.cls-8{fill:#f96d30;}.cls-9{fill:#111110;opacity:0.36;}.cls-10,.cls-11{fill:none;stroke:#000;stroke-linecap:round;stroke-linejoin:round;}.cls-10{stroke-width:1.23px;}.cls-11{stroke-width:1.22px;}</style></defs><title>calender</title><g id="Layer_2" data-name="Layer 2"><g id="움직이는거"><path class="cls-1" d="M213.62,279.41H23.05c-5,0-18.23,2.19-22.51-14.14h0L.83,10.35a9,9,0,0,1,9-9H213.62a9,9,0,0,1,9,9v260A9,9,0,0,1,213.62,279.41Z"/><rect class="cls-2" width="217.72" height="271.23" rx="9.03" ry="9.03"/><rect x="17.11" y="19.89" width="184.03" height="103.68" rx="6.89" ry="6.89"/><g class="cls-3"><path class="cls-4" d="M67.23,77.87,46.63,76c-10.41-.95-17.92-11.86-17-22.27l.15-1.7c1-10.41,12.26-17.89,20.58-17.13L71,36.78c8.61.78,18.08,10.16,17.13,20.57L88,59.05C87,69.46,77.64,78.82,67.23,77.87Z"/><rect class="cls-5" x="57.8" y="28.64" width="5.98" height="12.22" rx="2.13" ry="2.13" transform="translate(3.42 -5.39) rotate(5.22)"/><path class="cls-5" d="M57.16,77l-.54,0C47.17,76,45.21,63.72,46,55.67c1-9.59,6.27-21.35,14.5-20.59l.53.05c8.17.74,11.5,11.37,10.45,22.76C70.85,65.1,67,78.57,57.16,77Z"/><path class="cls-6" d="M54,49.59l-6.36-2.9a.92.92,0,0,0-1.28,1l2.34,4.16a.91.91,0,0,0,1.24.65l4-1.25A.92.92,0,0,0,54,49.59Z"/><path class="cls-6" d="M65.28,50.63l6.79-1.71a.92.92,0,0,1,1.06,1.25l-3,3.67a.92.92,0,0,1-1.34.42l-3.73-2A.91.91,0,0,1,65.28,50.63Z"/><path class="cls-6" d="M45.28,63.14l6-4.69a.87.87,0,0,1,1.33.33l.59,1.33a.87.87,0,0,0,1.28.37l2.7-1.82a.86.86,0,0,1,1.07.07l2.87,2.59a.86.86,0,0,0,1.1,0l2.51-1.88a.88.88,0,0,1,1.22.18l4.88,6.43a.87.87,0,0,1-.78,1.39l-8.94-.81a.93.93,0,0,1-.46-.18l-3-2.31a.87.87,0,0,0-.93-.08l-2.24,1.13a.9.9,0,0,1-.46.09l-8.33-.63A.87.87,0,0,1,45.28,63.14Z"/><path class="cls-6" d="M58.34,52.71a.88.88,0,0,1,1.51.14l.56,1.2L61,55.26a.88.88,0,0,1-.88,1.24l-1.32-.12-1.33-.12a.88.88,0,0,1-.63-1.38l.77-1.08Z"/></g><path class="cls-7" d="M107.09,101.71l-25.88,4.87C68.14,109,55.14,98.3,52.68,85.22l-.4-2.13C49.82,70,61.05,56.92,71.51,55l25.87-4.87c10.82-2,25.68,6.15,28.14,19.23l.4,2.13C128.38,84.53,120.17,99.26,107.09,101.71Z"/><rect class="cls-8" x="80.39" y="43.39" width="7.61" height="15.55" rx="2.13" ry="2.13" transform="translate(-8 16.44) rotate(-10.65)"/><path class="cls-8" d="M94.44,104.09l-.68.13C81.89,106.45,75.2,92.05,73.41,81.91,71.28,69.83,73.65,53.6,84,51.65l.67-.12c10.26-1.93,18,9.93,20.72,24.24C107.08,84.81,107.06,102.65,94.44,104.09Z"/><path class="cls-6" d="M81,71.72l-8.8-1.35A1.17,1.17,0,0,0,71,72.08l4.31,4.29a1.17,1.17,0,0,0,1.75.36l4.49-2.94A1.17,1.17,0,0,0,81,71.72Z"/><path class="cls-6" d="M95.22,69l7.71-4.45a1.17,1.17,0,0,1,1.74,1.16l-2.45,5.56a1.17,1.17,0,0,1-1.5,1l-5.26-1.11A1.17,1.17,0,0,1,95.22,69Z"/><path class="cls-6" d="M75.09,91.32l5.77-7.85a1.11,1.11,0,0,1,1.75,0l1.17,1.41a1.11,1.11,0,0,0,1.71,0l2.67-3.17a1.1,1.1,0,0,1,1.34-.28l4.4,2.17a1.13,1.13,0,0,0,1.38-.32l2.42-3.17a1.11,1.11,0,0,1,1.55-.22L107.46,86a1.11,1.11,0,0,1-.47,2L95.76,90.12a1.09,1.09,0,0,1-.62-.06l-4.45-1.78a1.12,1.12,0,0,0-1.17.22l-2.35,2.16a1.18,1.18,0,0,1-.53.28L76.21,93.07A1.12,1.12,0,0,1,75.09,91.32Z"/><path class="cls-6" d="M87.45,74a1.12,1.12,0,0,1,1.9-.35l1.1,1.28,1.1,1.28A1.11,1.11,0,0,1,90.91,78l-1.66.32-1.67.31a1.11,1.11,0,0,1-1.25-1.46l.56-1.6Z"/><path class="cls-9" d="M108.86,101.3c7.4-14.8,21.71-46.88-3.07-50.78l-.11-.15C97.43,55.67,91.82,66,91.82,77.94c0,10.52,3.5,19,10.2,24.73C107.09,101.71,108.86,101.3,108.86,101.3Z"/><path d="M73.64,137.79h-.7c-.88,0-1.31-.31-1.31-.93a1.18,1.18,0,0,1,.46-1,2.11,2.11,0,0,1,1.29-.35h2.05c.81,0,1.22.33,1.22,1a1.83,1.83,0,0,1-.16.67l-3.91,9.64c-.39,1-.93,1.42-1.61,1.42a1,1,0,0,1-.74-.28.92.92,0,0,1-.3-.69,2,2,0,0,1,.15-.7l.11-.28Z"/><path d="M84.27,135.37a3,3,0,0,1,2.4,1,4.18,4.18,0,0,1,.89,2.8,11.78,11.78,0,0,1-.92,4.45,9,9,0,0,1-2.31,3.46,4.74,4.74,0,0,1-3.23,1.19,3.39,3.39,0,0,1-2.55-1,3.71,3.71,0,0,1-.92-2.65,11.19,11.19,0,0,1,1-4.37A10,10,0,0,1,81,136.74,4.73,4.73,0,0,1,84.27,135.37Zm-.25,2.2c-.82,0-1.64.73-2.46,2.2a13.27,13.27,0,0,0-1,2.43,7.74,7.74,0,0,0-.4,2.21,1.89,1.89,0,0,0,.34,1.19,1.1,1.1,0,0,0,.9.44c.81,0,1.57-.62,2.29-1.87a12,12,0,0,0,1.07-2.54,8.91,8.91,0,0,0,.42-2.47C85.14,138.1,84.77,137.57,84,137.57Z"/><path d="M94.44,141.11h-.51c-1,0-1.43-.33-1.43-1a1.3,1.3,0,0,1,.5-1.08,2.22,2.22,0,0,1,1.4-.39h1.43l.29-.39q3.18-4.35,6.4-4.35a3.76,3.76,0,0,1,2.61.92,3.1,3.1,0,0,1,1,2.38,3.47,3.47,0,0,1-1.92,3.15,7.93,7.93,0,0,1-3.84.74H97.31A10.91,10.91,0,0,0,95.79,146a2.65,2.65,0,0,0,.59,1.8,2,2,0,0,0,1.58.68,3.65,3.65,0,0,0,2.7-1.6,10.16,10.16,0,0,0,2-4l.16-.62c.23-.84.68-1.26,1.36-1.26a1.13,1.13,0,0,1,.88.4,1.55,1.55,0,0,1,.34,1,9.27,9.27,0,0,1-1.72,4.74c-1.59,2.54-3.52,3.82-5.77,3.82a4.53,4.53,0,0,1-3.44-1.41A5.05,5.05,0,0,1,93.13,146,11.44,11.44,0,0,1,94.44,141.11Zm4.46-2.45h2c1.69,0,2.54-.46,2.54-1.38a.85.85,0,0,0-.33-.68,1.33,1.33,0,0,0-.85-.27,3,3,0,0,0-1.69.62A7,7,0,0,0,98.9,138.66Z"/><path d="M111.92,148.1h-3a2.67,2.67,0,0,1-2.09-.9,3.4,3.4,0,0,1-.8-2.33,4.71,4.71,0,0,1,1.32-3.33,4.13,4.13,0,0,1,3.1-1.41,2.85,2.85,0,0,1,2,.67,2.27,2.27,0,0,1,.76,1.76,2,2,0,0,1-.38,1.25,1.2,1.2,0,0,1-1,.48c-.62,0-.94-.29-.94-.88v-.22a1.7,1.7,0,0,0,0-.22.63.63,0,0,0-.7-.72A1.56,1.56,0,0,0,109,143a2.54,2.54,0,0,0-.54,1.58,1.15,1.15,0,0,0,.44,1,2.83,2.83,0,0,0,1.51.3h1.94c.86,0,1.3.3,1.3.91a1.16,1.16,0,0,1-.47,1A2.07,2.07,0,0,1,111.92,148.1Z"/><path d="M119.14,140.27h.32c.87,0,1.3.3,1.3.91a1.13,1.13,0,0,1-.46,1,2.08,2.08,0,0,1-1.27.35h-.75l-1.37,3.37h1.15c.87,0,1.3.3,1.3.91a1.13,1.13,0,0,1-.46,1,2,2,0,0,1-1.27.35H115.8a2,2,0,0,1-1.24-.36,1.17,1.17,0,0,1-.45-1,2.36,2.36,0,0,1,.18-.84l.2-.45,1.2-3h-.15c-.76,0-1.15-.3-1.15-.89a1.21,1.21,0,0,1,.46-1,2.06,2.06,0,0,1,1.27-.35h.48l.54-1.34.11-.28a1.6,1.6,0,0,1,1.52-1.14,1,1,0,0,1,.72.29.88.88,0,0,1,.3.68,2.51,2.51,0,0,1-.27,1Z"/><path d="M125.07,140.13a3.31,3.31,0,0,1,2.44.94,3.19,3.19,0,0,1,1,2.39,5.21,5.21,0,0,1-.5,2.18,4.69,4.69,0,0,1-1.3,1.72,3.09,3.09,0,0,1-1.1.58,6,6,0,0,1-1.59.16,4.33,4.33,0,0,1-2.26-.4,3.16,3.16,0,0,1-1.37-2.78,4.63,4.63,0,0,1,1.41-3.37A4.48,4.48,0,0,1,125.07,140.13Zm-.24,2.18a1.79,1.79,0,0,0-1.39.74,2.55,2.55,0,0,0-.62,1.65c0,.79.44,1.19,1.33,1.19a1.51,1.51,0,0,0,1.2-.48,2.68,2.68,0,0,0,.7-1.8,1.36,1.36,0,0,0-.34-1A1.19,1.19,0,0,0,124.83,142.31Z"/><path d="M134.09,140.27a2.66,2.66,0,0,1,.82-.14,2.39,2.39,0,0,1,1.93.88,3.48,3.48,0,0,1,.73,2.3,5,5,0,0,1-2.1,4.26,2.66,2.66,0,0,1-1.54.53h-1a2.3,2.3,0,0,1-1.73-.73,1.46,1.46,0,0,1-1.36.73,1,1,0,0,1-.74-.29.89.89,0,0,1-.31-.69,1.88,1.88,0,0,1,.16-.71l.12-.28,4.29-10.57.11-.29a1.57,1.57,0,0,1,1.48-1.14,1.12,1.12,0,0,1,.78.28.86.86,0,0,1,.31.69,1.79,1.79,0,0,1-.17.7l-.11.29Zm-2,5a1.5,1.5,0,0,0,1.19.65,1.23,1.23,0,0,0,.83-.28,3.06,3.06,0,0,0,.83-1.12,3.29,3.29,0,0,0,.35-1.34,1.09,1.09,0,0,0-.27-.76.9.9,0,0,0-.69-.29c-.65,0-1.17.48-1.56,1.45Z"/><path d="M140.57,145.1c0,.51.39.77,1.16.77h3c.86,0,1.29.3,1.29.91a1.15,1.15,0,0,1-.45,1,2.09,2.09,0,0,1-1.28.35h-2.9a3.45,3.45,0,0,1-2.46-.8,3.06,3.06,0,0,1-.84-2.33,4.81,4.81,0,0,1,1.33-3.41,4.18,4.18,0,0,1,3.18-1.43,3.19,3.19,0,0,1,2.16.7,2.3,2.3,0,0,1,.81,1.84,2.19,2.19,0,0,1-1.13,2.05,3.64,3.64,0,0,1-1.86.38Zm.49-1.86h1.13c.73,0,1.09-.16,1.07-.48s-.26-.55-.71-.55A1.66,1.66,0,0,0,141.06,143.24Z"/><path d="M149,142.51l-.35.86c-.31.76-.72,1.15-1.23,1.15a1.11,1.11,0,0,1-.76-.28.86.86,0,0,1-.31-.69,2.5,2.5,0,0,1,.22-.79l1.16-2.86c.28-.69.68-1,1.19-1a.86.86,0,0,1,.93.71l.08.32a.43.43,0,0,0,.19.31,1.75,1.75,0,0,0,.6.06h2.4c.89,0,1.34.31,1.34.94,0,.87-.57,1.3-1.7,1.3l-.12.1c-1.08,1-1.62,1.84-1.62,2.41s.31.85.94.85h1.29c.87,0,1.3.3,1.3.9a1.15,1.15,0,0,1-.46,1,2.06,2.06,0,0,1-1.27.35h-2a2.14,2.14,0,0,1-1.67-.71,2.56,2.56,0,0,1-.65-1.83,2.9,2.9,0,0,1,.35-1.39,8.83,8.83,0,0,1,1.22-1.66Z"/><path d="M136.44,164.87h.38c.58,0,.87.2.87.62a.78.78,0,0,1-.31.66,1.41,1.41,0,0,1-.85.23h-.71l-.36.91-.07.19a1.07,1.07,0,0,1-1,.78.71.71,0,0,1-.5-.19.65.65,0,0,1-.2-.47,2,2,0,0,1,.18-.67l.21-.55h-1.4a1.41,1.41,0,0,1-.93-.28.94.94,0,0,1-.33-.77,1.19,1.19,0,0,1,.31-.81l.26-.28,3.41-3.68a2.41,2.41,0,0,1,1.6-1,1,1,0,0,1,.74.28,1,1,0,0,1,.3.72,2.43,2.43,0,0,1-.21.83Zm-1.75,0,1.24-2.82-2.51,2.82Z"/><path d="M132,181h-.42c-.52,0-.79-.21-.79-.63a.85.85,0,0,1,.28-.67,1.13,1.13,0,0,1,.77-.24H133c.5,0,.74.23.74.67a1.27,1.27,0,0,1-.1.45l-2.34,6.5c-.24.64-.56,1-1,1a.6.6,0,0,1-.45-.19.67.67,0,0,1-.18-.47,1.54,1.54,0,0,1,.09-.47l.07-.19Z"/><path d="M137.89,181h-.42c-.53,0-.79-.21-.79-.63a.85.85,0,0,1,.27-.67,1.17,1.17,0,0,1,.78-.24H139c.49,0,.74.23.74.67a1.54,1.54,0,0,1-.1.45l-2.35,6.5c-.23.64-.56,1-1,1a.58.58,0,0,1-.44-.19.67.67,0,0,1-.18-.47,1.54,1.54,0,0,1,.09-.47l.07-.19Z"/><path d="M131.63,200.85h-.42c-.53,0-.79-.2-.79-.62a.82.82,0,0,1,.28-.67,1.13,1.13,0,0,1,.77-.24h1.23c.49,0,.74.23.74.67a1.54,1.54,0,0,1-.1.45l-2.35,6.5c-.23.64-.56,1-1,1a.61.61,0,0,1-.44-.19.67.67,0,0,1-.18-.47,1.54,1.54,0,0,1,.09-.47l.07-.19Z"/><path d="M138.65,203.24a2.11,2.11,0,0,1,.6,1.51,3.23,3.23,0,0,1-.87,2.25,2.68,2.68,0,0,1-2,.94,2.09,2.09,0,0,1-1.56-.62,2.15,2.15,0,0,1-.61-1.59,3.09,3.09,0,0,1,.47-1.67,2.53,2.53,0,0,1,1.23-1,1.82,1.82,0,0,1-.45-1.22,2.43,2.43,0,0,1,.79-1.81,2.63,2.63,0,0,1,1.89-.76,1.91,1.91,0,0,1,1.41.54,2,2,0,0,1,.54,1.44,2.21,2.21,0,0,1-.36,1.25A2.08,2.08,0,0,1,138.65,203.24Zm-1.67.63a1.12,1.12,0,0,0-.9.49,1.68,1.68,0,0,0-.4,1.1,1,1,0,0,0,.21.65.66.66,0,0,0,.54.25,1.15,1.15,0,0,0,.91-.52,1.74,1.74,0,0,0,.41-1.14.88.88,0,0,0-.21-.6A.77.77,0,0,0,137,203.87Zm.93-3.21a1,1,0,0,0-.73.38,1.24,1.24,0,0,0-.33.84.77.77,0,0,0,.19.52.66.66,0,0,0,.5.21,1,1,0,0,0,.72-.37,1.23,1.23,0,0,0,.32-.84C138.58,200.91,138.36,200.66,137.91,200.66Z"/><path d="M131,226.11h1.83c.52,0,.78.2.78.62a.8.8,0,0,1-.27.65,1.16,1.16,0,0,1-.77.24h-3.05a.84.84,0,0,1-.6-.21.75.75,0,0,1-.23-.57,1.11,1.11,0,0,1,.31-.73l3.44-4a1,1,0,0,0,.3-.7.82.82,0,0,0-.23-.58.72.72,0,0,0-.55-.24.74.74,0,0,0-.56.24.85.85,0,0,0-.24.6,1.45,1.45,0,0,0,.17.61,1.23,1.23,0,0,1,.14.51.84.84,0,0,1-.2.57.64.64,0,0,1-.51.22.93.93,0,0,1-.79-.51,2.23,2.23,0,0,1-.33-1.24,2.51,2.51,0,0,1,.7-1.82,2.26,2.26,0,0,1,1.72-.74,2.13,2.13,0,0,1,1.61.66,2.3,2.3,0,0,1,.62,1.68,2.55,2.55,0,0,1-.65,1.71Z"/><path d="M138,220.7l-.46,1.27a1.63,1.63,0,0,1,1.76.56,2.66,2.66,0,0,1,.49,1.68,3.83,3.83,0,0,1-.85,2.53,2.68,2.68,0,0,1-2.12,1,2,2,0,0,1-1.5-.58,2.07,2.07,0,0,1-.58-1.52,2.11,2.11,0,0,1,.27-1.12.8.8,0,0,1,.71-.44.65.65,0,0,1,.48.19.67.67,0,0,1,.18.49,1.2,1.2,0,0,1,0,.31l0,.27a1,1,0,0,0,0,.25.61.61,0,0,0,.62.62,1.2,1.2,0,0,0,1-.63,2.43,2.43,0,0,0,.44-1.41,1,1,0,0,0-.19-.63.59.59,0,0,0-.49-.24.76.76,0,0,0-.42.13l-.41.25a.78.78,0,0,1-.42.11.65.65,0,0,1-.49-.21.79.79,0,0,1-.19-.54,1.46,1.46,0,0,1,.1-.47l1-2.75a1,1,0,0,1,.35-.57,1.24,1.24,0,0,1,.69-.13h2.06a1,1,0,0,1,.62.15.59.59,0,0,1,.19.48.87.87,0,0,1-.29.69,1.16,1.16,0,0,1-.78.24Z"/><path d="M160.81,161.24l-.51,1.27a2,2,0,0,1,.5-.07,1.81,1.81,0,0,1,1.45.64,2.42,2.42,0,0,1,.55,1.67,3.61,3.61,0,0,1-1,2.53,3.1,3.1,0,0,1-2.35,1,2.41,2.41,0,0,1-1.67-.58,2,2,0,0,1-.65-1.52,2,2,0,0,1,.31-1.12.92.92,0,0,1,.78-.44.72.72,0,0,1,.53.19.62.62,0,0,1,.21.49,1.88,1.88,0,0,1,0,.31l-.06.27a1,1,0,0,0,0,.25.59.59,0,0,0,.2.44.71.71,0,0,0,.49.18,1.36,1.36,0,0,0,1.08-.63,2.22,2.22,0,0,0,.49-1.41.92.92,0,0,0-.21-.63.68.68,0,0,0-.54-.24.93.93,0,0,0-.47.13l-.45.25a1,1,0,0,1-.47.12.78.78,0,0,1-.55-.22.76.76,0,0,1-.21-.54,1.28,1.28,0,0,1,.11-.47l1.11-2.75a1.12,1.12,0,0,1,.39-.57,1.69,1.69,0,0,1,.77-.13h2.29a1.2,1.2,0,0,1,.68.15.55.55,0,0,1,.21.48.81.81,0,0,1-.31.69,1.42,1.42,0,0,1-.88.24Z"/><path d="M157.61,181h-.42c-.53,0-.79-.21-.79-.63a.82.82,0,0,1,.28-.67,1.13,1.13,0,0,1,.77-.24h1.23c.49,0,.74.23.74.67a1.54,1.54,0,0,1-.1.45l-2.35,6.5c-.23.64-.55,1-1,1a.58.58,0,0,1-.44-.19.67.67,0,0,1-.18-.47,1.54,1.54,0,0,1,.09-.47l.07-.19Z"/><path d="M162.32,186.47h1.83c.52,0,.78.2.78.62a.81.81,0,0,1-.28.65,1.13,1.13,0,0,1-.77.24h-3a.84.84,0,0,1-.6-.21.74.74,0,0,1-.22-.57,1.06,1.06,0,0,1,.31-.73l3.44-4a1,1,0,0,0,.29-.7.81.81,0,0,0-.22-.58.75.75,0,0,0-.55-.24.78.78,0,0,0-.57.24.88.88,0,0,0-.23.6,1.42,1.42,0,0,0,.16.61,1.23,1.23,0,0,1,.14.51.84.84,0,0,1-.19.57.67.67,0,0,1-.52.22.94.94,0,0,1-.79-.51A2.22,2.22,0,0,1,161,182a2.55,2.55,0,0,1,.69-1.82,2.28,2.28,0,0,1,1.72-.74,2.12,2.12,0,0,1,1.61.66,2.3,2.3,0,0,1,.63,1.68,2.52,2.52,0,0,1-.66,1.71Z"/><path d="M157.44,200.85H157c-.53,0-.79-.2-.79-.62a.85.85,0,0,1,.28-.67,1.13,1.13,0,0,1,.77-.24h1.23c.5,0,.74.23.74.67a1.27,1.27,0,0,1-.1.45l-2.35,6.5q-.35,1-1,1a.62.62,0,0,1-.45-.19.67.67,0,0,1-.18-.47,1.54,1.54,0,0,1,.09-.47l.07-.19Z"/><path d="M162.65,205.05h-.19a1.59,1.59,0,0,1-1.31-.61,2.36,2.36,0,0,1-.5-1.58,4,4,0,0,1,.91-2.57,2.55,2.55,0,0,1,2-1.06,2.08,2.08,0,0,1,1.58.67,2.48,2.48,0,0,1,.61,1.72,3.73,3.73,0,0,1-.54,1.86l-2,3.6a2.52,2.52,0,0,1-.47.65.8.8,0,0,1-.51.17.63.63,0,0,1-.47-.2.7.7,0,0,1-.2-.49,1.83,1.83,0,0,1,.32-.87Zm.86-4.29c-.32,0-.62.21-.92.65a2.38,2.38,0,0,0-.44,1.35.9.9,0,0,0,.21.61.66.66,0,0,0,.52.24,1.2,1.2,0,0,0,.94-.63,2.26,2.26,0,0,0,.44-1.34,1,1,0,0,0-.21-.63A.69.69,0,0,0,163.51,200.76Z"/><path d="M157.19,226.11H159c.52,0,.78.2.78.62a.78.78,0,0,1-.28.65,1.13,1.13,0,0,1-.77.24H155.7a.84.84,0,0,1-.6-.21.74.74,0,0,1-.22-.57,1.06,1.06,0,0,1,.31-.73l3.44-4a1,1,0,0,0,.3-.7.82.82,0,0,0-.23-.58.74.74,0,0,0-.55-.24.78.78,0,0,0-.57.24.88.88,0,0,0-.23.6,1.42,1.42,0,0,0,.16.61,1.09,1.09,0,0,1,.14.51.84.84,0,0,1-.19.57.67.67,0,0,1-.51.22.94.94,0,0,1-.8-.51,2.22,2.22,0,0,1-.32-1.24,2.55,2.55,0,0,1,.69-1.82,2.28,2.28,0,0,1,1.72-.74,2.1,2.1,0,0,1,1.61.66,2.3,2.3,0,0,1,.63,1.68,2.52,2.52,0,0,1-.66,1.71Z"/><path d="M164.1,221.91l.32,0a1.47,1.47,0,0,1,1.2.62,2.41,2.41,0,0,1,.49,1.52,4,4,0,0,1-.88,2.61,2.59,2.59,0,0,1-2.09,1.09,2,2,0,0,1-1.55-.65,2.44,2.44,0,0,1-.59-1.7,5,5,0,0,1,.74-2.33l1.77-3.17c.31-.54.63-.82,1-.82a.62.62,0,0,1,.47.21.66.66,0,0,1,.19.48,1.42,1.42,0,0,1-.2.67l-.11.18Zm-.24,1.39a1.19,1.19,0,0,0-.92.63,2.33,2.33,0,0,0-.43,1.35,1,1,0,0,0,.2.64.61.61,0,0,0,.51.25,1.2,1.2,0,0,0,.94-.63,2.28,2.28,0,0,0,.45-1.35,1,1,0,0,0-.21-.65A.68.68,0,0,0,163.86,223.3Z"/><path d="M186.88,162.45l.35,0a1.67,1.67,0,0,1,1.33.62,2.19,2.19,0,0,1,.55,1.52,3.8,3.8,0,0,1-1,2.61,3,3,0,0,1-2.32,1.09,2.34,2.34,0,0,1-1.72-.65,2.27,2.27,0,0,1-.66-1.7,4.55,4.55,0,0,1,.83-2.33l2-3.17c.34-.54.71-.82,1.1-.82a.72.72,0,0,1,.52.21.64.64,0,0,1,.21.48,1.26,1.26,0,0,1-.22.67l-.12.18Zm-.27,1.39a1.32,1.32,0,0,0-1,.63,2.21,2.21,0,0,0-.48,1.35.92.92,0,0,0,.22.64.72.72,0,0,0,.57.25,1.37,1.37,0,0,0,1-.63,2.14,2.14,0,0,0,.49-1.35.94.94,0,0,0-.23-.65A.78.78,0,0,0,186.61,163.84Z"/><path d="M183.17,181h-.43q-.78,0-.78-.63a.85.85,0,0,1,.27-.67,1.17,1.17,0,0,1,.78-.24h1.23c.49,0,.74.23.74.67a1.54,1.54,0,0,1-.1.45l-2.35,6.5c-.23.64-.56,1-1,1a.58.58,0,0,1-.44-.19.67.67,0,0,1-.18-.47A1.54,1.54,0,0,1,181,187l.07-.19Z"/><path d="M189.89,182.81a2.3,2.3,0,0,1,1,1.95,3.84,3.84,0,0,1-.48,1.85,2.58,2.58,0,0,1-2.39,1.51,2.24,2.24,0,0,1-1.65-.61,2.16,2.16,0,0,1-.62-1.62,2.19,2.19,0,0,1,.31-1.2.88.88,0,0,1,.76-.5.59.59,0,0,1,.44.2.69.69,0,0,1,.2.48,3.13,3.13,0,0,1-.1.53,1.58,1.58,0,0,0-.08.43.77.77,0,0,0,.2.55.77.77,0,0,0,.54.2,1.13,1.13,0,0,0,.92-.56,2,2,0,0,0,.42-1.25,1.1,1.1,0,0,0-.75-1.12A.68.68,0,0,1,188,183a.88.88,0,0,1,.19-.55l.13-.15,1-1.28H188c-.52,0-.78-.2-.78-.61a.82.82,0,0,1,.26-.63.83.83,0,0,1,.63-.27h2.52c.65,0,1,.28,1,.83a1,1,0,0,1-.24.68Z"/><path d="M182.62,206.28h1.83q.78,0,.78.63a.78.78,0,0,1-.28.65,1.12,1.12,0,0,1-.76.24h-3.05a.84.84,0,0,1-.6-.21.75.75,0,0,1-.23-.57,1.15,1.15,0,0,1,.31-.74l3.44-4a1,1,0,0,0,.3-.7.82.82,0,0,0-.23-.58.72.72,0,0,0-.55-.24.74.74,0,0,0-.56.24.85.85,0,0,0-.24.6,1.5,1.5,0,0,0,.16.6,1.19,1.19,0,0,1,.15.52.84.84,0,0,1-.2.57.67.67,0,0,1-.51.22.93.93,0,0,1-.79-.51,2.23,2.23,0,0,1-.33-1.24A2.55,2.55,0,0,1,182,200a2.3,2.3,0,0,1,1.73-.74,2.13,2.13,0,0,1,1.61.66,2.34,2.34,0,0,1,.62,1.68,2.55,2.55,0,0,1-.65,1.71Z"/><path d="M190.25,199.23a1.72,1.72,0,0,1,1.44.7,3.09,3.09,0,0,1,.53,1.89,8.66,8.66,0,0,1-.55,3,6.15,6.15,0,0,1-1.38,2.34,2.72,2.72,0,0,1-1.95.8,1.91,1.91,0,0,1-1.52-.65,2.63,2.63,0,0,1-.56-1.79,8.21,8.21,0,0,1,.58-2.94,6.85,6.85,0,0,1,1.45-2.43A2.7,2.7,0,0,1,190.25,199.23Zm-.15,1.47c-.49,0-1,.5-1.48,1.49a8.85,8.85,0,0,0-.62,1.64,5.91,5.91,0,0,0-.25,1.49,1.38,1.38,0,0,0,.21.8.63.63,0,0,0,.54.3c.49,0,.94-.43,1.37-1.27a8.34,8.34,0,0,0,.65-1.71,6.56,6.56,0,0,0,.25-1.66C190.77,201.06,190.55,200.7,190.1,200.7Z"/><path d="M182.66,226.11h1.83c.52,0,.78.2.78.62a.78.78,0,0,1-.28.65,1.12,1.12,0,0,1-.76.24h-3a.84.84,0,0,1-.6-.21.75.75,0,0,1-.23-.57,1.11,1.11,0,0,1,.31-.73l3.44-4a1,1,0,0,0,.3-.7.82.82,0,0,0-.23-.58.72.72,0,0,0-.55-.24.74.74,0,0,0-.56.24.85.85,0,0,0-.24.6,1.58,1.58,0,0,0,.16.61,1.12,1.12,0,0,1,.15.51.84.84,0,0,1-.2.57.64.64,0,0,1-.51.22.93.93,0,0,1-.79-.51,2.23,2.23,0,0,1-.33-1.24,2.55,2.55,0,0,1,.69-1.82,2.3,2.3,0,0,1,1.73-.74,2.13,2.13,0,0,1,1.61.66,2.34,2.34,0,0,1,.62,1.68,2.55,2.55,0,0,1-.65,1.71Z"/><path d="M190.35,220.7h-1.94c-.53,0-.8-.22-.8-.64a.83.83,0,0,1,.29-.67,1.13,1.13,0,0,1,.78-.25h2.45c.7,0,1.05.29,1.05.86a1.56,1.56,0,0,1-.21.7l-3.35,6.21-.09.18a1,1,0,0,1-.86.63.59.59,0,0,1-.45-.2.71.71,0,0,1-.18-.5,1.87,1.87,0,0,1,.28-.76Z"/><path d="M32.36,181.06H30.42c-.53,0-.79-.22-.79-.64a.82.82,0,0,1,.28-.67,1.14,1.14,0,0,1,.79-.25h2.44c.7,0,1,.29,1,.86a1.56,1.56,0,0,1-.21.7l-3.35,6.21-.09.18a1,1,0,0,1-.86.63.59.59,0,0,1-.45-.2.71.71,0,0,1-.18-.5,1.87,1.87,0,0,1,.28-.76Z"/><path d="M28.54,200.85h-.42c-.53,0-.79-.2-.79-.62a.82.82,0,0,1,.28-.67,1.13,1.13,0,0,1,.77-.24h1.23c.5,0,.74.23.74.67a1.27,1.27,0,0,1-.1.45l-2.35,6.5q-.34,1-1,1a.62.62,0,0,1-.45-.19.67.67,0,0,1-.18-.47,1.54,1.54,0,0,1,.09-.47l.07-.19Z"/><path d="M35.5,204.51h.35c.52,0,.78.2.78.62a.78.78,0,0,1-.28.65,1.13,1.13,0,0,1-.77.24H35l-.32.91-.07.19c-.19.52-.5.78-.91.78a.65.65,0,0,1-.45-.19.67.67,0,0,1-.18-.47,2.13,2.13,0,0,1,.16-.67l.2-.55H32.11a1.16,1.16,0,0,1-.83-.28A1,1,0,0,1,31,205a1.25,1.25,0,0,1,.28-.81l.24-.28,3.06-3.68c.54-.65,1-1,1.44-1a.88.88,0,0,1,.67.28,1,1,0,0,1,.27.72,2.45,2.45,0,0,1-.19.82Zm-1.57,0,1.12-2.82-2.26,2.82Z"/><path d="M28.32,226.11h1.82c.52,0,.78.2.78.62a.8.8,0,0,1-.27.65,1.15,1.15,0,0,1-.77.24H26.83a.84.84,0,0,1-.6-.21.75.75,0,0,1-.23-.57,1.11,1.11,0,0,1,.31-.73l3.44-4a1,1,0,0,0,.3-.7.82.82,0,0,0-.23-.58.71.71,0,0,0-.54-.24.75.75,0,0,0-.57.24.84.84,0,0,0-.23.6,1.42,1.42,0,0,0,.16.61,1.23,1.23,0,0,1,.14.51.84.84,0,0,1-.2.57.64.64,0,0,1-.51.22.93.93,0,0,1-.79-.51,2.23,2.23,0,0,1-.33-1.24,2.51,2.51,0,0,1,.7-1.82,2.26,2.26,0,0,1,1.72-.74,2.13,2.13,0,0,1,1.61.66,2.3,2.3,0,0,1,.62,1.68A2.51,2.51,0,0,1,31,223.1Z"/><path d="M35.44,220.68H35q-.78,0-.78-.63a.85.85,0,0,1,.27-.67,1.16,1.16,0,0,1,.78-.24h1.23c.49,0,.73.23.73.67a1.48,1.48,0,0,1-.09.45l-2.35,6.5c-.24.64-.56,1-1,1a.58.58,0,0,1-.44-.19.68.68,0,0,1-.19-.47,1.59,1.59,0,0,1,.1-.47l.06-.19Z"/><path d="M28,245.92H29.8q.78,0,.78.63a.78.78,0,0,1-.28.65,1.13,1.13,0,0,1-.77.24H26.48a.84.84,0,0,1-.6-.21.74.74,0,0,1-.22-.57,1.1,1.1,0,0,1,.31-.74l3.44-4a1,1,0,0,0,.3-.7.82.82,0,0,0-.23-.58.74.74,0,0,0-.55-.24.78.78,0,0,0-.57.24.88.88,0,0,0-.23.6,1.35,1.35,0,0,0,.16.6,1.16,1.16,0,0,1,.14.52.84.84,0,0,1-.19.57.7.7,0,0,1-.51.22.94.94,0,0,1-.8-.51,2.22,2.22,0,0,1-.32-1.24,2.55,2.55,0,0,1,.69-1.82,2.28,2.28,0,0,1,1.72-.74,2.1,2.1,0,0,1,1.61.66,2.3,2.3,0,0,1,.63,1.68,2.52,2.52,0,0,1-.66,1.71Z"/><path d="M36.2,242.88a2.11,2.11,0,0,1,.6,1.51,3.23,3.23,0,0,1-.87,2.25,2.69,2.69,0,0,1-2,.94,2.11,2.11,0,0,1-1.57-.62,2.18,2.18,0,0,1-.6-1.59,3.09,3.09,0,0,1,.47-1.67,2.53,2.53,0,0,1,1.23-1,1.78,1.78,0,0,1-.46-1.22,2.45,2.45,0,0,1,.8-1.81,2.63,2.63,0,0,1,1.89-.76,1.91,1.91,0,0,1,1.41.54,2,2,0,0,1,.54,1.44,2.14,2.14,0,0,1-.37,1.25A2,2,0,0,1,36.2,242.88Zm-1.67.63a1.16,1.16,0,0,0-.91.49,1.73,1.73,0,0,0-.4,1.1,1,1,0,0,0,.22.65A.66.66,0,0,0,34,246a1.17,1.17,0,0,0,.91-.52,1.79,1.79,0,0,0,.41-1.14.84.84,0,0,0-.22-.6A.73.73,0,0,0,34.53,243.51Zm.92-3.21a1,1,0,0,0-.72.38,1.24,1.24,0,0,0-.33.84.73.73,0,0,0,.19.52.64.64,0,0,0,.5.21,1,1,0,0,0,.72-.37,1.28,1.28,0,0,0,.32-.84C36.13,240.55,35.91,240.3,35.45,240.3Z"/><path d="M57.63,161.44h-.47q-.87,0-.87-.63a.79.79,0,0,1,.3-.66,1.41,1.41,0,0,1,.87-.24h1.36c.55,0,.82.22.82.67a1.12,1.12,0,0,1-.11.45l-2.61,6.5c-.26.63-.61.95-1.07.95a.67.67,0,0,1-.49-.19.6.6,0,0,1-.21-.46,1.37,1.37,0,0,1,.11-.48l.07-.18Z"/><path d="M59,183.65a2.1,2.1,0,0,1,.59,1.5,3.2,3.2,0,0,1-.86,2.25,2.7,2.7,0,0,1-2,.95,2.11,2.11,0,0,1-1.57-.62,2.2,2.2,0,0,1-.6-1.6,3,3,0,0,1,.47-1.66,2.43,2.43,0,0,1,1.23-1,1.79,1.79,0,0,1-.46-1.23,2.42,2.42,0,0,1,.8-1.8,2.64,2.64,0,0,1,1.89-.77,1.88,1.88,0,0,1,1.41.55,1.94,1.94,0,0,1,.54,1.43,2.22,2.22,0,0,1-.37,1.26A2.07,2.07,0,0,1,59,183.65Zm-1.68.62a1.18,1.18,0,0,0-.9.49,1.7,1.7,0,0,0-.4,1.11.92.92,0,0,0,.22.64.67.67,0,0,0,.54.26,1.2,1.2,0,0,0,.91-.52,1.83,1.83,0,0,0,.41-1.14.84.84,0,0,0-.22-.6A.71.71,0,0,0,57.27,184.27Zm.93-3.2a1,1,0,0,0-.73.38,1.27,1.27,0,0,0-.32.83.71.71,0,0,0,.19.52.64.64,0,0,0,.49.21,1,1,0,0,0,.73-.37,1.24,1.24,0,0,0,.32-.84C58.88,181.31,58.65,181.07,58.2,181.07Z"/><path d="M54.26,201.08h-.43c-.52,0-.79-.21-.79-.63a.83.83,0,0,1,.28-.66,1.16,1.16,0,0,1,.78-.24h1.23c.49,0,.73.22.73.67a1.37,1.37,0,0,1-.09.44l-2.35,6.5c-.24.64-.56,1-1,1a.56.56,0,0,1-.44-.19.62.62,0,0,1-.19-.46,1.33,1.33,0,0,1,.1-.48l.06-.18Z"/><path d="M60.08,201.11l-.46,1.26a2,2,0,0,1,.45-.06,1.57,1.57,0,0,1,1.3.63,2.64,2.64,0,0,1,.5,1.67,3.82,3.82,0,0,1-.86,2.53,2.66,2.66,0,0,1-2.11,1,2,2,0,0,1-1.5-.58,2.06,2.06,0,0,1-.59-1.51,2.15,2.15,0,0,1,.28-1.13.82.82,0,0,1,.7-.44.62.62,0,0,1,.48.19.7.7,0,0,1,.19.49,1.76,1.76,0,0,1,0,.31l-.06.27a2,2,0,0,0,0,.25.61.61,0,0,0,.62.62,1.22,1.22,0,0,0,1-.63,2.42,2.42,0,0,0,.43-1.41,1,1,0,0,0-.18-.63.6.6,0,0,0-.49-.24.76.76,0,0,0-.42.13l-.41.25a.79.79,0,0,1-.42.12A.64.64,0,0,1,58,204a.77.77,0,0,1-.2-.54,1.42,1.42,0,0,1,.11-.46l1-2.76a1.18,1.18,0,0,1,.35-.57,1.43,1.43,0,0,1,.7-.12H62a1.05,1.05,0,0,1,.61.14.57.57,0,0,1,.19.48.85.85,0,0,1-.28.69,1.19,1.19,0,0,1-.79.25Z"/><path d="M54,226.33h1.83c.52,0,.78.21.78.62a.81.81,0,0,1-.28.66,1.13,1.13,0,0,1-.77.24h-3a.81.81,0,0,1-.6-.22.78.78,0,0,1-.22-.57,1.08,1.08,0,0,1,.31-.73l3.44-4a1.06,1.06,0,0,0,.3-.71.83.83,0,0,0-.23-.58.74.74,0,0,0-.55-.24.72.72,0,0,0-.56.25.81.81,0,0,0-.24.6,1.35,1.35,0,0,0,.16.6,1.1,1.1,0,0,1,.14.52.79.79,0,0,1-.19.56.64.64,0,0,1-.51.22,1,1,0,0,1-.8-.5,2.34,2.34,0,0,1-.32-1.25,2.56,2.56,0,0,1,.69-1.82,2.27,2.27,0,0,1,1.72-.73,2.13,2.13,0,0,1,1.61.65,2.3,2.3,0,0,1,.63,1.68,2.54,2.54,0,0,1-.66,1.72Z"/><path d="M59.87,226.33h1.82c.52,0,.78.21.78.62a.84.84,0,0,1-.27.66,1.15,1.15,0,0,1-.77.24h-3a.81.81,0,0,1-.6-.22.74.74,0,0,1-.22-.57,1.11,1.11,0,0,1,.3-.73l3.45-4a1.1,1.1,0,0,0,.29-.71.79.79,0,0,0-.23-.58.71.71,0,0,0-.54-.24.75.75,0,0,0-.57.25.85.85,0,0,0-.23.6,1.35,1.35,0,0,0,.16.6,1.23,1.23,0,0,1,.14.52.8.8,0,0,1-.2.56.64.64,0,0,1-.51.22,1,1,0,0,1-.79-.5,2.26,2.26,0,0,1-.33-1.25,2.53,2.53,0,0,1,.7-1.82,2.25,2.25,0,0,1,1.72-.73,2.16,2.16,0,0,1,1.61.65,2.3,2.3,0,0,1,.63,1.68,2.54,2.54,0,0,1-.66,1.72Z"/><path d="M53.79,246.15h1.82c.52,0,.78.2.78.62a.84.84,0,0,1-.27.66,1.16,1.16,0,0,1-.77.24H52.3a.81.81,0,0,1-.6-.22.75.75,0,0,1-.23-.57,1.13,1.13,0,0,1,.31-.73l3.44-4a1,1,0,0,0,.3-.7.83.83,0,0,0-.23-.58.71.71,0,0,0-.54-.24.72.72,0,0,0-.57.25.81.81,0,0,0-.23.6,1.35,1.35,0,0,0,.16.6,1.23,1.23,0,0,1,.14.52.82.82,0,0,1-.2.56.64.64,0,0,1-.51.22.93.93,0,0,1-.79-.51,2.2,2.2,0,0,1-.33-1.24,2.53,2.53,0,0,1,.7-1.82,2.25,2.25,0,0,1,1.72-.73,2.13,2.13,0,0,1,1.61.65,2.3,2.3,0,0,1,.62,1.68,2.53,2.53,0,0,1-.65,1.72Z"/><path d="M60.19,244.91H60a1.63,1.63,0,0,1-1.31-.6,2.45,2.45,0,0,1-.49-1.59,4,4,0,0,1,.91-2.57,2.52,2.52,0,0,1,2-1.05,2,2,0,0,1,1.58.66,2.45,2.45,0,0,1,.61,1.72,3.82,3.82,0,0,1-.53,1.86l-2,3.61a2.05,2.05,0,0,1-.47.64.71.71,0,0,1-.5.17.62.62,0,0,1-.48-.2.73.73,0,0,1-.19-.49,1.9,1.9,0,0,1,.32-.87Zm.86-4.29a1.2,1.2,0,0,0-.91.65,2.38,2.38,0,0,0-.44,1.35.89.89,0,0,0,.21.61.63.63,0,0,0,.52.25,1.22,1.22,0,0,0,.94-.63,2.33,2.33,0,0,0,.44-1.34,1,1,0,0,0-.21-.64A.73.73,0,0,0,61.05,240.62Z"/><path d="M82.65,166.65h2c.58,0,.87.2.87.62a.78.78,0,0,1-.31.66,1.41,1.41,0,0,1-.85.23H81a1,1,0,0,1-.67-.21.73.73,0,0,1-.25-.57,1,1,0,0,1,.35-.73l3.82-4a1,1,0,0,0,.33-.7.79.79,0,0,0-.25-.58.87.87,0,0,0-.61-.24.85.85,0,0,0-.63.25.79.79,0,0,0-.26.6,1.34,1.34,0,0,0,.18.6,1.12,1.12,0,0,1,.15.51.8.8,0,0,1-.21.57.77.77,0,0,1-.57.22,1,1,0,0,1-.88-.51,2.09,2.09,0,0,1-.36-1.24,2.4,2.4,0,0,1,.77-1.82,2.66,2.66,0,0,1,1.91-.74,2.5,2.5,0,0,1,1.79.66,2.2,2.2,0,0,1,.7,1.68,2.41,2.41,0,0,1-.73,1.71Z"/><path d="M82.64,185.23h-.19a1.6,1.6,0,0,1-1.31-.61,2.41,2.41,0,0,1-.5-1.58,4,4,0,0,1,.92-2.57,2.52,2.52,0,0,1,2-1.06,2,2,0,0,1,1.58.67,2.43,2.43,0,0,1,.61,1.72,3.82,3.82,0,0,1-.53,1.86l-2,3.61a2.38,2.38,0,0,1-.47.64.8.8,0,0,1-.51.17.65.65,0,0,1-.47-.2.69.69,0,0,1-.19-.49,1.83,1.83,0,0,1,.31-.87Zm.86-4.29a1.17,1.17,0,0,0-.91.65,2.38,2.38,0,0,0-.44,1.35,1,1,0,0,0,.2.61.67.67,0,0,0,.52.24,1.22,1.22,0,0,0,.95-.63,2.31,2.31,0,0,0,.44-1.34.91.91,0,0,0-.22-.63A.66.66,0,0,0,83.5,180.94Z"/><path d="M80.44,200.85H80c-.53,0-.79-.2-.79-.62a.82.82,0,0,1,.28-.67,1.13,1.13,0,0,1,.77-.24h1.23c.5,0,.74.23.74.67a1.27,1.27,0,0,1-.1.45l-2.35,6.5q-.35,1-1,1a.62.62,0,0,1-.45-.19.67.67,0,0,1-.18-.47,1.54,1.54,0,0,1,.09-.47l.07-.19Z"/><path d="M86.15,202.09l.31,0a1.48,1.48,0,0,1,1.21.62,2.4,2.4,0,0,1,.48,1.52,4.07,4.07,0,0,1-.87,2.61,2.61,2.61,0,0,1-2.09,1.09,2,2,0,0,1-1.55-.65,2.4,2.4,0,0,1-.59-1.7,4.88,4.88,0,0,1,.74-2.33l1.77-3.17c.3-.55.63-.82,1-.82a.61.61,0,0,1,.47.21.66.66,0,0,1,.2.48,1.33,1.33,0,0,1-.21.67l-.1.18Zm-.25,1.39a1.17,1.17,0,0,0-.91.63,2.33,2.33,0,0,0-.43,1.35,1,1,0,0,0,.2.64.6.6,0,0,0,.5.25,1.2,1.2,0,0,0,.95-.63,2.27,2.27,0,0,0,.44-1.35,1,1,0,0,0-.2-.65A.69.69,0,0,0,85.9,203.48Z"/><path d="M79.51,226.11h1.83c.52,0,.78.2.78.62a.81.81,0,0,1-.28.65,1.13,1.13,0,0,1-.77.24H78a.84.84,0,0,1-.6-.21.74.74,0,0,1-.22-.57,1.06,1.06,0,0,1,.31-.73l3.44-4a1,1,0,0,0,.29-.7.81.81,0,0,0-.22-.58.75.75,0,0,0-.55-.24.78.78,0,0,0-.57.24.88.88,0,0,0-.23.6,1.42,1.42,0,0,0,.16.61,1.23,1.23,0,0,1,.14.51.8.8,0,0,1-.2.57.64.64,0,0,1-.51.22.94.94,0,0,1-.79-.51,2.22,2.22,0,0,1-.32-1.24,2.55,2.55,0,0,1,.69-1.82,2.28,2.28,0,0,1,1.72-.74,2.12,2.12,0,0,1,1.61.66,2.3,2.3,0,0,1,.63,1.68,2.52,2.52,0,0,1-.66,1.71Z"/><path d="M87.44,222.45a2.29,2.29,0,0,1,.94,2,3.84,3.84,0,0,1-.48,1.85,2.57,2.57,0,0,1-2.39,1.51,2.22,2.22,0,0,1-1.64-.61,2.16,2.16,0,0,1-.63-1.62,2.19,2.19,0,0,1,.32-1.2.88.88,0,0,1,.75-.5.62.62,0,0,1,.45.2.68.68,0,0,1,.19.48,2.35,2.35,0,0,1-.1.53,2.11,2.11,0,0,0-.08.43.7.7,0,0,0,.74.75,1.13,1.13,0,0,0,.93-.56,2,2,0,0,0,.41-1.25,1.1,1.1,0,0,0-.75-1.12.68.68,0,0,1-.51-.66.88.88,0,0,1,.19-.55l.12-.15,1-1.28H85.54c-.52,0-.78-.2-.78-.61a.85.85,0,0,1,.25-.63.87.87,0,0,1,.64-.27h2.52c.65,0,1,.28,1,.83a1.08,1.08,0,0,1-.24.68Z"/><path d="M81.52,242.27a2.3,2.3,0,0,1,1,1.95,3.84,3.84,0,0,1-.48,1.85,2.57,2.57,0,0,1-2.39,1.51A2.26,2.26,0,0,1,78,247a2.2,2.2,0,0,1-.62-1.63,2.23,2.23,0,0,1,.31-1.2.89.89,0,0,1,.76-.49.62.62,0,0,1,.45.2.73.73,0,0,1,.19.48,3.13,3.13,0,0,1-.1.53,1.58,1.58,0,0,0-.08.43.7.7,0,0,0,.74.75,1.16,1.16,0,0,0,.93-.56,2.08,2.08,0,0,0,.41-1.25,1.1,1.1,0,0,0-.75-1.12.68.68,0,0,1-.52-.66.83.83,0,0,1,.2-.55l.12-.15,1-1.28h-1.4c-.52,0-.78-.2-.78-.61a.86.86,0,0,1,.26-.63.83.83,0,0,1,.63-.27h2.52c.65,0,1,.28,1,.83a1,1,0,0,1-.24.68Z"/><path d="M87.13,238.87a1.69,1.69,0,0,1,1.44.7,3,3,0,0,1,.54,1.89,8.66,8.66,0,0,1-.55,3,6.15,6.15,0,0,1-1.39,2.34,2.68,2.68,0,0,1-1.94.8,1.92,1.92,0,0,1-1.53-.65,2.68,2.68,0,0,1-.56-1.79,8.43,8.43,0,0,1,.58-2.94,7,7,0,0,1,1.45-2.43A2.72,2.72,0,0,1,87.13,238.87ZM87,240.34c-.49,0-1,.5-1.47,1.49a9.63,9.63,0,0,0-.63,1.64,5.83,5.83,0,0,0-.24,1.49,1.46,1.46,0,0,0,.2.8.64.64,0,0,0,.55.3c.48,0,.94-.43,1.37-1.27a8.34,8.34,0,0,0,.64-1.71,6.62,6.62,0,0,0,.26-1.66C87.66,240.7,87.43,240.34,87,240.34Z"/><path d="M110.33,163a2.23,2.23,0,0,1,1,1.95,3.59,3.59,0,0,1-.53,1.85,2.92,2.92,0,0,1-2.66,1.51,2.65,2.65,0,0,1-1.83-.61,2.07,2.07,0,0,1-.69-1.62,2,2,0,0,1,.34-1.2,1,1,0,0,1,.85-.5.7.7,0,0,1,.49.2.67.67,0,0,1,.22.48,2.57,2.57,0,0,1-.11.53,1.71,1.71,0,0,0-.09.43.68.68,0,0,0,.23.55.88.88,0,0,0,.59.2,1.31,1.31,0,0,0,1-.56,1.92,1.92,0,0,0,.46-1.24,1.11,1.11,0,0,0-.84-1.13q-.57-.2-.57-.66a.8.8,0,0,1,.22-.55l.13-.15,1.15-1.27h-1.56c-.57,0-.86-.21-.86-.62a.81.81,0,0,1,.28-.63,1,1,0,0,1,.71-.27h2.8c.72,0,1.09.28,1.09.83a1,1,0,0,1-.27.69Z"/><path d="M105.87,181h-.43c-.52,0-.79-.21-.79-.63a.85.85,0,0,1,.28-.67,1.16,1.16,0,0,1,.78-.24h1.22c.5,0,.74.23.74.67a1.27,1.27,0,0,1-.1.45l-2.34,6.5c-.24.64-.56,1-1,1a.6.6,0,0,1-.45-.19.67.67,0,0,1-.18-.47,1.32,1.32,0,0,1,.1-.47l.06-.19Z"/><path d="M112.28,179.41a1.69,1.69,0,0,1,1.44.7,3,3,0,0,1,.54,1.89,8.71,8.71,0,0,1-.55,3,6.19,6.19,0,0,1-1.39,2.33,2.68,2.68,0,0,1-1.94.8,1.92,1.92,0,0,1-1.53-.65,2.68,2.68,0,0,1-.56-1.79,8.43,8.43,0,0,1,.58-2.94,7.09,7.09,0,0,1,1.45-2.43A2.72,2.72,0,0,1,112.28,179.41Zm-.15,1.47c-.49,0-1,.5-1.47,1.49A9.63,9.63,0,0,0,110,184a5.9,5.9,0,0,0-.24,1.49,1.46,1.46,0,0,0,.2.8.64.64,0,0,0,.55.3c.48,0,.94-.42,1.37-1.27a8.34,8.34,0,0,0,.64-1.71,6.62,6.62,0,0,0,.26-1.66C112.81,181.24,112.58,180.88,112.13,180.88Z"/><path d="M105.91,200.85h-.43c-.52,0-.79-.2-.79-.62a.85.85,0,0,1,.28-.67,1.13,1.13,0,0,1,.77-.24H107c.5,0,.74.23.74.67a1.27,1.27,0,0,1-.1.45l-2.34,6.5c-.24.64-.56,1-1,1a.64.64,0,0,1-.45-.19.67.67,0,0,1-.18-.47,1.32,1.32,0,0,1,.1-.47l.06-.19Z"/><path d="M112.39,200.88h-1.94c-.53,0-.8-.22-.8-.64a.85.85,0,0,1,.28-.68,1.18,1.18,0,0,1,.79-.24h2.44c.71,0,1.06.29,1.06.86a1.56,1.56,0,0,1-.21.7l-3.35,6.21-.09.18a1,1,0,0,1-.86.63.59.59,0,0,1-.45-.2.71.71,0,0,1-.18-.5,1.73,1.73,0,0,1,.28-.76Z"/><path d="M105.3,226.11h1.83c.52,0,.78.2.78.62a.78.78,0,0,1-.28.65,1.13,1.13,0,0,1-.77.24h-3a.81.81,0,0,1-.6-.21.75.75,0,0,1-.23-.57,1.06,1.06,0,0,1,.31-.73l3.44-4a1,1,0,0,0,.3-.7.82.82,0,0,0-.23-.58.72.72,0,0,0-.55-.24.74.74,0,0,0-.56.24.85.85,0,0,0-.24.6,1.58,1.58,0,0,0,.16.61,1.09,1.09,0,0,1,.14.51.84.84,0,0,1-.19.57.64.64,0,0,1-.51.22.94.94,0,0,1-.8-.51,2.31,2.31,0,0,1-.32-1.24,2.55,2.55,0,0,1,.69-1.82,2.29,2.29,0,0,1,1.72-.74,2.14,2.14,0,0,1,1.62.66,2.34,2.34,0,0,1,.62,1.68,2.52,2.52,0,0,1-.66,1.71Z"/><path d="M113.47,224.33h.34c.52,0,.78.2.78.62a.8.8,0,0,1-.27.65,1.15,1.15,0,0,1-.77.24h-.64l-.32.91-.07.19q-.28.78-.9.78a.58.58,0,0,1-.45-.19.68.68,0,0,1-.19-.47,2.46,2.46,0,0,1,.16-.67l.2-.55h-1.26a1.14,1.14,0,0,1-.83-.28,1,1,0,0,1-.31-.77,1.3,1.3,0,0,1,.28-.81l.24-.28,3.06-3.68c.54-.65,1-1,1.45-1a.85.85,0,0,1,.66.28,1,1,0,0,1,.27.72,2.76,2.76,0,0,1-.18.83Zm-1.58,0,1.12-2.82-2.25,2.82Z"/><path d="M107.58,242.27a2.3,2.3,0,0,1,1,1.95,3.84,3.84,0,0,1-.48,1.85,2.57,2.57,0,0,1-2.39,1.51A2.26,2.26,0,0,1,104,247a2.2,2.2,0,0,1-.62-1.63,2.33,2.33,0,0,1,.31-1.2.89.89,0,0,1,.76-.49.62.62,0,0,1,.45.2.68.68,0,0,1,.19.48,2.35,2.35,0,0,1-.1.53,2.11,2.11,0,0,0-.08.43.7.7,0,0,0,.21.54.69.69,0,0,0,.53.21,1.16,1.16,0,0,0,.93-.56,2.08,2.08,0,0,0,.41-1.25,1.1,1.1,0,0,0-.75-1.12.69.69,0,0,1-.52-.66.89.89,0,0,1,.2-.55l.12-.15,1-1.28h-1.4c-.52,0-.78-.2-.78-.61a.86.86,0,0,1,.26-.63.83.83,0,0,1,.63-.27h2.52c.66,0,1,.28,1,.83a1,1,0,0,1-.24.68Z"/><path d="M112.69,240.49h-.42c-.53,0-.79-.2-.79-.62a.82.82,0,0,1,.28-.67,1.13,1.13,0,0,1,.77-.24h1.23c.5,0,.74.23.74.67a1.27,1.27,0,0,1-.1.45l-2.35,6.5q-.35,1-1,1a.62.62,0,0,1-.45-.19.67.67,0,0,1-.18-.47,1.54,1.54,0,0,1,.09-.47l.07-.19Z"/><text></text><line class="cls-10" x1="43.59" y1="155.06" x2="43.59" y2="247.15"/><line class="cls-10" x1="69.8" y1="158.23" x2="69.8" y2="250.32"/><line class="cls-10" x1="174.61" y1="158.23" x2="174.61" y2="250.32"/><line class="cls-10" x1="148.41" y1="158.23" x2="148.41" y2="250.32"/><line class="cls-10" x1="122.2" y1="158.23" x2="122.2" y2="250.32"/><line class="cls-10" x1="96" y1="158.23" x2="96" y2="250.32"/><line class="cls-11" x1="21.44" y1="171.18" x2="197.99" y2="171.18"/><line class="cls-11" x1="21.44" y1="191.98" x2="197.99" y2="191.98"/><line class="cls-11" x1="21.44" y1="212.78" x2="197.99" y2="212.78"/><line class="cls-11" x1="21.44" y1="233.58" x2="197.99" y2="233.58"/><path class="cls-4" d="M160.35,116l-33.24-4c-16.81-2-28.46-20-26.45-36.81l.33-2.74c2-16.8,20.65-28.38,34.08-26.77l33.25,4c13.89,1.67,28.79,17.28,26.77,34.08l-.33,2.74C192.75,103.31,177.16,118,160.35,116Z"/><rect class="cls-5" x="147.07" y="36.06" width="9.68" height="19.77" rx="2.13" ry="2.13" transform="translate(6.56 -17.78) rotate(6.85)"/><path class="cls-5" d="M144.1,114.06l-.87-.1c-15.25-1.83-17.86-21.85-16.16-34.84,2-15.47,11.12-34.25,24.4-32.66l.87.11c13.18,1.58,18.07,18.94,15.86,37.32C166.8,95.51,160,117.14,144.1,114.06Z"/><path class="cls-6" d="M140.15,69.65l-10.15-5a1.48,1.48,0,0,0-2.11,1.61l3.58,6.84a1.49,1.49,0,0,0,2,1.11L140,72.37A1.48,1.48,0,0,0,140.15,69.65Z"/><path class="cls-6" d="M158.45,71.85l11.06-2.45a1.48,1.48,0,0,1,1.66,2.07l-5.1,5.8a1.48,1.48,0,0,1-2.19.6l-5.95-3.35A1.48,1.48,0,0,1,158.45,71.85Z"/><path class="cls-6" d="M125.52,91.18l10-7.32a1.42,1.42,0,0,1,2.15.6l.88,2.17a1.41,1.41,0,0,0,2.07.66l4.44-2.82a1.42,1.42,0,0,1,1.74.17L151.3,89a1.42,1.42,0,0,0,1.79.14l4.15-2.92a1.41,1.41,0,0,1,2,.33l7.6,10.63a1.42,1.42,0,0,1-1.32,2.23L151,97.62a1.41,1.41,0,0,1-.73-.31l-4.72-3.86a1.39,1.39,0,0,0-1.49-.18L140.41,95a1.35,1.35,0,0,1-.74.12l-13.46-1.39A1.41,1.41,0,0,1,125.52,91.18Z"/><path class="cls-6" d="M147.13,74.89a1.41,1.41,0,0,1,2.43.3l.85,2,.85,2a1.41,1.41,0,0,1-1.47,2l-2.14-.26-2.14-.26a1.41,1.41,0,0,1-1-2.25l1.29-1.72Z"/></g></g></svg>