<svg xmlns="http://www.w3.org/2000/svg" viewBox="0 0 44.36 34.25"><defs><style>.cls-1{fill:#336d4c;}.cls-2{fill:#cab381;}.cls-3{fill:#3c7c59;}</style></defs><title>candy</title><g id="Layer_2" data-name="Layer 2"><g id="움직이는거"><path class="cls-1" d="M31.25,21.35a12,12,0,0,0,.58-1.62c.19-.7,0-.34.77-1.14,1.14-1.24,8.22-3.17,10.2-2.87,1.16.18,1.88,1.09,1.42,2.09a4.7,4.7,0,0,1-1.14,1.35l-.7.44A2.14,2.14,0,0,0,41.7,22h0a2.13,2.13,0,0,1-1,2.29l-.7.25a1.59,1.59,0,0,0-.89,1.68l.36,1.08A1.94,1.94,0,0,1,38.59,29l-.85.46a1.7,1.7,0,0,0-.73,2l.1.47A2.1,2.1,0,0,1,37,33.24l-.2.42c-.46,1-1.61.56-2.51-.11-1.18-.87-4-6.44-4-8.66,0-1-.25-1.45.15-2.08a10.5,10.5,0,0,0,.75-1.36Z"/><path class="cls-2" d="M31.19,13.94,14,23.71a11.53,11.53,0,0,0,2.48,2.05l15.7-8.91A10,10,0,0,0,31.19,13.94Z"/><path class="cls-2" d="M26.35,9.12l-15.1,8.56a9.76,9.76,0,0,0,.78,3l17-9.65A11.46,11.46,0,0,0,26.35,9.12Z"/><path class="cls-2" d="M31.89,21.13l-11,6.25a9.84,9.84,0,0,0,10.59-5.15A9.27,9.27,0,0,0,31.89,21.13Z"/><path class="cls-3" d="M29,11.05,12,20.7a11,11,0,0,0,2,3l17.2-9.77A10.86,10.86,0,0,0,29,11.05Z"/><path class="cls-3" d="M32.17,16.85l-15.7,8.91c.37.22.75.43,1.15.62a12,12,0,0,0,3.25,1l11-6.25A9.15,9.15,0,0,0,32.17,16.85Z"/><path class="cls-1" d="M13.06,13a10.29,10.29,0,0,1,.85-1.49c.41-.61.23-.26.36-1.34.21-1.67-2.92-8.31-4.44-9.61-.89-.76-2-.72-2.51.28A4.65,4.65,0,0,0,7,2.55l.12.82a2.16,2.16,0,0,1-1.35,2h0A2.13,2.13,0,0,0,4.73,7.67l.26.7a1.55,1.55,0,0,1-.7,1.76l-1,.44a1.92,1.92,0,0,0-.79,1.8l.2,1a1.7,1.7,0,0,1-1,1.82l-.42.22a2.23,2.23,0,0,0-.92,1l-.19.43c-.46,1,.63,1.58,1.72,1.83,1.42.33,7.5-1.14,9.15-2.61.78-.69,1.27-.76,1.48-1.47A11.63,11.63,0,0,1,13,13.07S13,13,13.06,13Z"/><path class="cls-2" d="M13.31,11.11a9.07,9.07,0,0,0-1.25,1.94.59.59,0,0,0,0,.08l1.8-1,7.64-4.34A10,10,0,0,0,13.31,11.11Z"/><path class="cls-3" d="M25.9,8.89a11.78,11.78,0,0,0-4.44-1.12l-7.65,4.34-1.79,1a9,9,0,0,0-.66,2.1,9.16,9.16,0,0,0-.11,2.45l15.1-8.56Z"/></g></g></svg>