<svg xmlns="http://www.w3.org/2000/svg" viewBox="0 0 46.28 127.82"><defs><style>.cls-1{fill:#ce9142;opacity:0.59;}.cls-2{fill:#d8d7c0;}.cls-3{fill:#bab69d;}.cls-4{fill:#ce5125;}.cls-5{fill:#cc9527;}.cls-6{fill:#402b1e;}</style></defs><title>candle</title><g id="Layer_2" data-name="Layer 2"><g id="움직이는거"><circle class="cls-1" cx="23.05" cy="19.2" r="19.2"/><rect class="cls-2" x="8.7" y="50.63" width="28.7" height="77.2"/><path class="cls-3" d="M36.17,40.44H9.93A3.58,3.58,0,0,0,6.34,44v7.39A3.59,3.59,0,0,0,9.93,55h1V80.88a2.27,2.27,0,1,0,4.53,0v-21a2.26,2.26,0,0,1,4.5.37v4.8a1.17,1.17,0,0,0,2.33,0V52.38a1.07,1.07,0,0,1,2.13,0V55h0v4.24a2.27,2.27,0,0,0,4.54,0V55.15s0-.1,0-.15a2.26,2.26,0,0,1,4.51,0s0,.1,0,.15v10a2.27,2.27,0,1,0,4.54,0V54.43a3.56,3.56,0,0,0,1.67-3V44A3.58,3.58,0,0,0,36.17,40.44Z"/><path class="cls-4" d="M24.86,11.28C18.28,15,13.57,25.78,17,33.58h0c.87,2.7,3.4,4.2,6.39,4.2,3.25,0,6-1.86,6.59-4.93h0C31.88,25.63,24.26,22.1,24.86,11.28Z"/><path class="cls-5" d="M23.36,34.08a3.12,3.12,0,0,1-3.44-1.86c-1.79-4.35-.07-9.2,2.19-12.95.41,4.94,5.08,7.85,4.76,11.51C26.65,33.24,25.12,33.84,23.36,34.08Z"/><rect class="cls-6" y="119.51" width="46.28" height="8.32" rx="4.16" ry="4.16"/></g></g></svg>