<svg xmlns="http://www.w3.org/2000/svg" viewBox="0 0 212.69 191.67"><defs><style>.cls-1{fill:#191817;opacity:0.64;}.cls-2{fill:#e2b72b;}.cls-3{fill:#c6781a;}.cls-4{fill:#aa5b05;}.cls-5{fill:#edbe37;}.cls-6{fill:#8ead3a;}.cls-7{fill:#7c912f;}.cls-8{fill:#56680c;}.cls-9{fill:#c8ccba;}.cls-10{fill:none;stroke:#000;stroke-linecap:round;stroke-miterlimit:10;stroke-width:3px;}.cls-11{fill:#f9f5e5;}</style></defs><title>candybasket</title><g id="Layer_2" data-name="Layer 2"><g id="Layer_7" data-name="Layer 7"><rect class="cls-1" x="15.91" y="176.54" width="176.19" height="15.13" rx="7.57" ry="7.57"/><path class="cls-2" d="M80.6,17.47a16.93,16.93,0,0,1,2.7.48c1.14.29.51.21,2.2-.17,2.63-.59,10.94-8.86,12.1-11.85.67-1.74,0-3.46-1.77-3.62a7.36,7.36,0,0,0-2.78.51l-1.17.61c-1.26.67-2.74,0-3.8-.93h0a3.38,3.38,0,0,0-4-.41l-.91.77a2.51,2.51,0,0,1-3-.11L79,1.4a3.08,3.08,0,0,0-3.14-.22L74.49,2a2.7,2.7,0,0,1-3.28-.55L70.64.93a3.32,3.32,0,0,0-2-.85L67.94,0c-1.76-.16-2.06,1.79-1.85,3.57C66.37,5.9,71.83,14.26,75,16c1.45.79,1.81,1.5,3,1.44a18.74,18.74,0,0,1,2.48.05Z"/><path class="cls-2" d="M73.93,91.73a16.84,16.84,0,0,0,2.75,0c1.16-.09.53-.12,2.13.56,2.48,1,9.18,10.66,9.79,13.81.35,1.83-.63,3.41-2.38,3.25a7.39,7.39,0,0,1-2.65-1l-1-.82c-1.12-.88-2.69-.5-3.9.24h0a3.37,3.37,0,0,1-4-.31l-.76-.91a2.51,2.51,0,0,0-3-.44l-1.44,1.12a3.08,3.08,0,0,1-3.13-.35l-1.15-1a2.7,2.7,0,0,0-3.32,0l-.66.4a3.37,3.37,0,0,1-2.08.49l-.74-.07c-1.75-.15-1.7-2.13-1.18-3.84.68-2.24,7.55-9.49,10.92-10.6,1.57-.53,2.05-1.16,3.2-.89a17.87,17.87,0,0,0,2.45.39Z"/><polygon class="cls-2" points="61.19 81.35 89.31 74.88 90.23 64.56 62.11 71.03 61.19 81.35"/><polygon class="cls-2" points="93.66 26.47 65.53 32.94 64.61 43.26 92.73 36.78 93.66 26.47"/><path class="cls-2" d="M82.82,13l-3.42-.3a12,12,0,0,0-13,10.88l-.06.68,25.45-5.86A12,12,0,0,0,82.82,13Z"/><path class="cls-2" d="M71.89,96.26l3.42.31a12,12,0,0,0,13-10.88l.18-2.08-26.27,6A12,12,0,0,0,71.89,96.26Z"/><polygon class="cls-2" points="63.82 51.99 62.9 62.3 91.02 55.83 91.94 45.52 63.82 51.99"/><path class="cls-3" d="M61,83.24a11.84,11.84,0,0,0,1.23,6.42l26.27-6,.79-8.73L61.18,81.35Z"/><polygon class="cls-3" points="62.11 71.03 90.23 64.56 91.02 55.83 62.9 62.3 62.11 71.03"/><polygon class="cls-3" points="92.73 36.78 64.61 43.26 63.82 51.99 91.94 45.52 92.73 36.78"/><path class="cls-3" d="M93.7,26a12,12,0,0,0-1.93-7.63L66.32,24.21l-.79,8.73,28.12-6.47Z"/><path class="cls-4" d="M23.21,22a18.25,18.25,0,0,1,2.59-.93c1.13-.3.54-.06,1.82-1.24,2-1.81,5.09-13.12,4.6-16.29-.28-1.84-1.73-3-3.33-2.26A7.39,7.39,0,0,0,26.73,3.1L26,4.22c-.76,1.2-2.37,1.37-3.76,1.07h0a3.39,3.39,0,0,0-3.65,1.63L18.2,8a2.52,2.52,0,0,1-2.68,1.41l-1.73-.57A3.07,3.07,0,0,0,11,10.26l-.74,1.36A2.71,2.71,0,0,1,7.1,12.77l-.75-.16a3.46,3.46,0,0,0-2.13.23l-.68.32c-1.59.73-.88,2.58.18,4,1.4,1.88,10.29,6.41,13.84,6.34,1.65,0,2.32.4,3.31-.24a18.29,18.29,0,0,1,2.18-1.19Z"/><path class="cls-3" d="M54.37,89.75a19.07,19.07,0,0,0,2.38-1.36c1-.66.4-.37,2.13-.58,2.67-.32,13.27,4.69,15.36,7.12,1.22,1.41,1.15,3.27-.45,4a7.6,7.6,0,0,1-2.79.46l-1.31-.2c-1.4-.2-2.58.9-3.26,2.16h0a3.38,3.38,0,0,1-3.61,1.71l-1.11-.42a2.52,2.52,0,0,0-2.83,1.12l-.69,1.68a3.07,3.07,0,0,1-2.89,1.25l-1.51-.32A2.74,2.74,0,0,0,50.88,108l-.36.67A3.42,3.42,0,0,1,49,110.13l-.68.31c-1.6.73-2.54-1-2.94-2.75-.51-2.28,1.84-12,4.2-14.63,1.1-1.23,1.21-2,2.34-2.36a18.69,18.69,0,0,0,2.32-.88Z"/><polygon class="cls-3" points="38.15 87.08 59.32 67.48 55 58.07 33.82 77.67 38.15 87.08"/><polygon class="cls-3" points="39.02 23.32 17.84 42.92 22.17 52.33 43.34 32.73 39.02 23.32"/><path class="cls-3" d="M22.9,17l-3.12,1.44a12,12,0,0,0-5.89,15.91l.29.63L33.35,17.21A12,12,0,0,0,22.9,17Z"/><path class="cls-3" d="M54.85,94.69,58,93.26a12,12,0,0,0,5.89-15.92L63,75.44,43.2,93.76A12,12,0,0,0,54.85,94.69Z"/><polygon class="cls-3" points="25.83 60.3 30.16 69.71 51.33 50.1 47.01 40.69 25.83 60.3"/><path class="cls-5" d="M38.94,88.8a11.87,11.87,0,0,0,4.26,5L63,75.44l-3.67-8L38.15,87.08Z"/><polygon class="cls-5" points="33.82 77.67 55 58.07 51.33 50.1 30.16 69.71 33.82 77.67"/><polygon class="cls-5" points="43.34 32.73 22.17 52.33 25.83 60.3 47.01 40.69 43.34 32.73"/><path class="cls-5" d="M38.81,22.87a12,12,0,0,0-5.46-5.66L14.18,35l3.66,8L39,23.32Z"/><path class="cls-6" d="M168.87,184.1H39.14a13.47,13.47,0,0,1-13.36-11.76L13.21,73.43A13.47,13.47,0,0,1,26.57,58.27H181.45a13.47,13.47,0,0,1,13.36,15.16l-12.58,98.91A13.46,13.46,0,0,1,168.87,184.1Z"/><path d="M186.39,79.85a10,10,0,0,1-6.94-2.79l-10.13-9.72-9.95,9.54a10,10,0,0,1-14-.07l-9.52-9.33-8.83,8.65a10,10,0,0,1-14,0l-8.81-8.64-8.93,8.76a10,10,0,0,1-14.52-.5L73.86,68,65.2,76.44a10,10,0,0,1-14.14-.12L42.54,67.7,34,76.32a10,10,0,0,1-14,.26L3.16,60.75A10,10,0,0,1,16.88,46.14l9.74,9.14,8.79-8.88a10,10,0,0,1,14.25,0l8.65,8.73,9-8.85a9.9,9.9,0,0,1,7.36-2.85,10,10,0,0,1,7.15,3.36l6.89,7.77,8.43-8.27a10,10,0,0,1,14,0l8.82,8.64,8.83-8.65a10,10,0,0,1,14,0l9.59,9.4,9.88-9.48a10,10,0,0,1,13.88,0l10,9.56,9.33-9.39a10,10,0,1,1,14.22,14.13L193.5,76.89A10,10,0,0,1,186.39,79.85Z"/><rect class="cls-7" x="14.31" y="116.73" width="179.38" height="22.69" rx="7.45" ry="7.45"/><circle class="cls-8" cx="104.01" cy="128.07" r="14.69"/><rect class="cls-9" x="75.51" y="156.02" width="11.67" height="14.98" rx="2.37" ry="2.37" transform="translate(-10.57 5.7) rotate(-3.77)"/><rect class="cls-9" x="93.83" y="157.05" width="11.67" height="12.91" rx="2.37" ry="2.37" transform="translate(-27.77 20.58) rotate(-10.36)"/><rect class="cls-9" x="111.34" y="153.62" width="11.67" height="16.04" rx="2.37" ry="2.37" transform="translate(45.46 -24.68) rotate(14.89)"/><rect class="cls-9" x="128.7" y="155.3" width="11.67" height="13.77" rx="2.37" ry="2.37"/><line x1="61.99" y1="157.07" x2="145.49" y2="151.07"/><path class="cls-8" d="M62,162.07a5,5,0,0,1-.35-10l83.5-6a5,5,0,0,1,.71,10l-83.5,6Z"/><line class="cls-10" x1="30.37" y1="95.9" x2="76.24" y2="85.18"/><line class="cls-10" x1="38.86" y1="86.08" x2="45.37" y2="101.07"/><line class="cls-10" x1="70.02" y1="78.1" x2="75.85" y2="92.63"/><line class="cls-10" x1="59.63" y1="81.54" x2="60.61" y2="97.16"/><circle class="cls-11" cx="84.2" cy="107.16" r="11.26"/><circle cx="89.32" cy="107.16" r="5.81"/><circle class="cls-11" cx="117.17" cy="104.31" r="11.26"/><circle cx="112.88" cy="104.31" r="5.81"/></g></g></svg>