<svg xmlns="http://www.w3.org/2000/svg" viewBox="0 0 210.25 363.11"><defs><style>.cls-1,.cls-12{fill:#dbdbd5;}.cls-1,.cls-6{opacity:0.56;}.cls-2,.cls-6{fill:#21211f;}.cls-3{fill:#99331e;}.cls-4{fill:#2f0c00;}.cls-5{fill:#66635d;}.cls-7{fill:#5d7264;}.cls-8{fill:#191f1c;}.cls-9{fill:#5f726a;}.cls-10{fill:#769182;}.cls-11{fill:#7e4732;}.cls-13{fill:#f4f4f4;}</style></defs><title>celt</title><g id="Layer_2" data-name="Layer 2"><g id="움직이는거"><path class="cls-1" d="M35.33,49.11V300a16.52,16.52,0,0,0,33,0V256.25c0-5,3.7-9,8.26-9s8.26,4,8.26,9V330a8.14,8.14,0,0,0,8.26,8h3.49a8.14,8.14,0,0,0,8.26-8V277.17c0-4.58,3.41-8.29,7.62-8.29s7.62,3.71,7.62,8.29v69.92a16.53,16.53,0,0,0,33,0v-298Z"/><path class="cls-2" d="M94.25,7.34C69,7.34,47.68,24.94,40.63,49.15A5.56,5.56,0,0,0,45.7,56.4h97.09a5.57,5.57,0,0,0,5.08-7.25C140.81,24.94,119.48,7.34,94.25,7.34Z"/><path class="cls-3" d="M145,64.11a12.19,12.19,0,0,0-12.24,12.14v9.56a12,12,0,0,1-.53,3.52A12.23,12.23,0,0,1,120.54,98H64.31A12.23,12.23,0,0,1,52.6,89.33a11.67,11.67,0,0,1-.53-3.52V76.25a12.25,12.25,0,0,0-24.49,0V124c0,.15,0,.31,0,.46s0,.47,0,.71c0,36,35.68,43.57,67.72,43.57,28.5,0,62-11.27,62-43.57,0-.24,0-.47,0-.71s0-.31,0-.46V76.25A12.19,12.19,0,0,0,145,64.11Z"/><rect class="cls-4" x="73.25" y="101.61" width="42" height="18.5" rx="8.02" ry="8.02"/><path class="cls-5" d="M167.37,32.11,152.88,10.5a3.2,3.2,0,0,0-5.52,2.94l4.46,19.72c.64,2.69.6,5.34-2.55,7.13-2.86,1.62-23.73,6.83-40.78,9.23a5.05,5.05,0,0,1-5.74-5V8.79A8.69,8.69,0,0,0,94.81,0,8.5,8.5,0,0,0,85.75,8.5v36a5.06,5.06,0,0,1-5.75,5c-17-2.4-37.91-7.61-40.78-9.23-3.15-1.79-3.19-4.44-2.55-7.13l4.46-19.72a3.2,3.2,0,0,0-5.52-2.94L21.12,32.11c-5,7.75-1.82,16.67,6,21C36.56,58.4,65.5,66.4,85.75,68.41v4.46a8.5,8.5,0,0,0,17,0V68.41c20.25-2,49.18-10,58.66-15.3C169.19,48.78,172.38,39.86,167.37,32.11Z"/><path class="cls-6" d="M125.73,72.78l-16.25.88a5.36,5.36,0,0,0-4.82,5.64,5.05,5.05,0,0,0,2.88,4.33,5,5,0,0,0,2.52.45h0v0a7.84,7.84,0,0,0,15.67,0,8.3,8.3,0,0,0,0-.87l.63,0a5.36,5.36,0,0,0,4.82-5.64A5,5,0,0,0,125.73,72.78Z"/><path class="cls-6" d="M77.47,73.66l-16.26-.89a5.37,5.37,0,0,0-5.4,5.09,5,5,0,0,0,2.4,4.62,4.84,4.84,0,0,0,2.45.71l.59,0a7.82,7.82,0,0,0,15.52.85h.14A5.35,5.35,0,0,0,82.31,79,5,5,0,0,0,77.47,73.66Z"/><path class="cls-7" d="M172.72,119.65l-1.95-.89c-1.93-.88-8.67,7.6-9.91,10.33L108.43,243.9c-1.24,2.73-.68,5.65,1.25,6.54l3.57,1.63c1.94.88,4.51-.61,5.76-3.34l52.43-114.81C172.68,131.19,174.66,120.54,172.72,119.65Z"/><rect class="cls-8" x="115.59" y="196.66" width="17.26" height="53.35" rx="6.33" ry="6.33" transform="translate(103.99 -31.42) rotate(24.54)"/><path class="cls-9" d="M189.85,143.8a5.54,5.54,0,0,0-4.37,3.25l-2.86,6.25-11.26-5.14-6.69-3-15.9-7.26,2.86-6.26a2.09,2.09,0,0,0-1.1-2.74l-5.9-2.69a2.1,2.1,0,0,0-2.79,1l-6.75,14.79a1.91,1.91,0,0,0-.17,1l1.18,13.85a2.44,2.44,0,0,0,.31.65A2.12,2.12,0,0,0,140,157l3.68-8.07,22.59,10.32c4.61,2,29.07,15.38-.77,45.1C197.14,185.38,194.73,156.62,189.85,143.8Z"/><path class="cls-10" d="M209.9,157.65a5.26,5.26,0,0,0-2.57-6.66l-14.9-6.81a4.82,4.82,0,0,0-2.58-.38c4.88,12.82,7.29,41.58-24.34,60.59C191.44,204,204.72,171.92,209.9,157.65Z"/><rect class="cls-11" x="31.2" y="182.45" width="126.08" height="17.33" rx="3.19" ry="3.19"/><rect class="cls-12" x="107.23" y="124.56" width="26.76" height="65.78" rx="13.38" ry="13.38" transform="translate(-40 41.09) rotate(-16.62)"/><rect class="cls-13" x="98.18" y="125.35" width="26.76" height="44.27" rx="13.38" ry="13.38" transform="translate(51.04 -27.26) rotate(18)"/><rect class="cls-12" x="13.9" y="124.06" width="26.76" height="65.78" rx="13.38" ry="13.38" transform="translate(-43.76 14.36) rotate(-16.62)"/><rect class="cls-13" x="4.02" y="123.45" width="26.76" height="44.27" rx="13.38" ry="13.38" transform="translate(68.76 8.25) rotate(27.32)"/></g></g></svg>