<svg xmlns="http://www.w3.org/2000/svg" viewBox="0 0 239.85 261.38"><defs><style>.cls-1{fill:#402b1e;}.cls-2{fill:none;stroke:#4f3824;stroke-linecap:round;stroke-linejoin:round;stroke-width:12px;}.cls-3{fill:#8f2329;}.cls-4{fill:#9b3b41;}</style></defs><title>chair</title><g id="Layer_2" data-name="Layer 2"><g id="Layer_1-2" data-name="Layer 1"><path class="cls-1" d="M14.67,17.76,2.57,22.69A4,4,0,0,0,.12,27.34l0,0L38,164a12.22,12.22,0,0,0,4.63,6.66l8.09,5.84a11.53,11.53,0,0,0,5.4,2.11l42.2,9.82a4.39,4.39,0,0,0,4.86-5l-7.32-25.77a4.42,4.42,0,0,0-2.73-3.43L48.44,136.52a4.38,4.38,0,0,1-2.57-2.76S16.58,17.76,14.67,17.76Z"/><path class="cls-2" d="M30.19,203.92c2.31,6.77,33.33,58.22,99.83,50.72"/><path class="cls-2" d="M122,190.42c5.77,6.45,47.38,48.46,111.88,30.62"/><rect class="cls-1" x="100.45" y="160.93" width="12.15" height="95.16" rx="6.08" ry="6.08" transform="translate(-24.83 14.68) rotate(-7.06)"/><rect class="cls-1" x="205.88" y="132.78" width="12.15" height="95.16" rx="6.08" ry="6.08" transform="translate(-20.57 27.43) rotate(-7.06)"/><rect class="cls-1" x="50.57" y="145.22" width="12.15" height="95.16" rx="6.08" ry="6.08" transform="translate(-23.28 8.43) rotate(-7.06)"/><rect class="cls-1" x="146.05" y="122.34" width="12.15" height="95.16" rx="6.08" ry="6.08" transform="translate(-19.74 20) rotate(-7.06)"/><path class="cls-3" d="M144.37,113.16C140.09,95.71,123.1,26.31,118.56,5.5A7,7,0,0,0,110.67.08l-95,14.49A7,7,0,0,0,10,23.37L43.21,145.53l104.06-28.24A6.94,6.94,0,0,1,144.37,113.16Z"/><path class="cls-4" d="M205.42,128.71c-13.55-2.62-43.92-8-55.63-10.36a6.8,6.8,0,0,1-2.52-1.06L43.21,145.53l.33,1.22a7,7,0,0,0,4.75,4.83l42.14,10.07,119.94-30.14A9,9,0,0,0,205.42,128.71Z"/><path class="cls-3" d="M212.62,136.27a9,9,0,0,0-2.25-4.76L90.43,161.65l4,1a9,9,0,0,1,6.33,7.27l4.56,25.71a7,7,0,0,0,8.54,5.75l99.05-25.62a7,7,0,0,0,5.32-7.81Z"/></g></g></svg>