<svg xmlns="http://www.w3.org/2000/svg" viewBox="0 0 131.67 37.01"><defs><style>.cls-1{opacity:0.82;}.cls-2{fill:#a1a1a1;}</style></defs><title>Asset 34</title><g id="Layer_2" data-name="Layer 2"><g id="Layer_1-2" data-name="Layer 1"><g class="cls-1"><path class="cls-2" d="M6.75,17.25h82A6.75,6.75,0,0,1,95.5,24v0a0,0,0,0,1,0,0H0a0,0,0,0,1,0,0v0A6.75,6.75,0,0,1,6.75,17.25Z"/><path class="cls-2" d="M29.27,11.5H86A9.52,9.52,0,0,1,95.5,21v2.23a0,0,0,0,1,0,0H19.75a0,0,0,0,1,0,0V21A9.52,9.52,0,0,1,29.27,11.5Z"/><path class="cls-2" d="M47.27,0H62.48A10.77,10.77,0,0,1,73.25,10.77v5a0,0,0,0,1,0,0H36.5a0,0,0,0,1,0,0v-5A10.77,10.77,0,0,1,47.27,0Z"/><path class="cls-2" d="M35.54,23.25h86.24a9.88,9.88,0,0,1,9.88,9.88v0a0,0,0,0,1,0,0h-106a0,0,0,0,1,0,0v0A9.88,9.88,0,0,1,35.54,23.25Z"/><path class="cls-2" d="M40.51,29.25H83.24A7.76,7.76,0,0,1,91,37v0a0,0,0,0,1,0,0H32.75a0,0,0,0,1,0,0v0a7.76,7.76,0,0,1,7.76-7.76Z"/></g></g></g></svg>