<svg xmlns="http://www.w3.org/2000/svg" viewBox="0 0 95.5 36.64"><defs><style>.cls-1{opacity:0.62;}.cls-2{fill:#a1a1a1;}</style></defs><title>Asset 33</title><g id="Layer_2" data-name="Layer 2"><g id="Layer_1-2" data-name="Layer 1"><g class="cls-1"><path class="cls-2" d="M6.75,23.37h82a6.75,6.75,0,0,1,6.75,6.75v0a0,0,0,0,1,0,0H0a0,0,0,0,1,0,0v0A6.75,6.75,0,0,1,6.75,23.37Z"/><path class="cls-2" d="M36.37,12.5h35.7A11.75,11.75,0,0,1,83.82,24.25v0a0,0,0,0,1,0,0H24.63a0,0,0,0,1,0,0v0A11.75,11.75,0,0,1,36.37,12.5Z"/><path class="cls-2" d="M48.5,0h0A10.77,10.77,0,0,1,59.27,10.77v5a0,0,0,0,1,0,0H37.73a0,0,0,0,1,0,0v-5A10.77,10.77,0,0,1,48.5,0Z"/><path class="cls-2" d="M26.39,28.87H63.31a7.76,7.76,0,0,1,7.76,7.76v0a0,0,0,0,1,0,0H18.63a0,0,0,0,1,0,0v0A7.76,7.76,0,0,1,26.39,28.87Z"/></g></g></g></svg>