<svg xmlns="http://www.w3.org/2000/svg" viewBox="0 0 95.5 31.12"><defs><style>.cls-1{opacity:0.42;}.cls-2{fill:#a1a1a1;}</style></defs><title>Asset 32</title><g id="Layer_2" data-name="Layer 2"><g id="Layer_1-2" data-name="Layer 1"><g class="cls-1"><path class="cls-2" d="M6.75,18.75h82A6.75,6.75,0,0,1,95.5,25.5v0a0,0,0,0,1,0,0H0a0,0,0,0,1,0,0v0A6.75,6.75,0,0,1,6.75,18.75Z"/><path class="cls-2" d="M36.37,7.87H67.21A11.75,11.75,0,0,1,79,19.62v0a0,0,0,0,1,0,0H24.63a0,0,0,0,1,0,0v0A11.75,11.75,0,0,1,36.37,7.87Z"/><path class="cls-2" d="M48.5,0h0A10.77,10.77,0,0,1,59.27,10.77v5a0,0,0,0,1,0,0H37.73a0,0,0,0,1,0,0v-5A10.77,10.77,0,0,1,48.5,0Z"/><path class="cls-2" d="M41.93,23.35H78.85a7.76,7.76,0,0,1,7.76,7.76v0a0,0,0,0,1,0,0H34.17a0,0,0,0,1,0,0v0a7.76,7.76,0,0,1,7.76-7.76Z"/></g></g></g></svg>