<svg id="Layer_1" data-name="Layer 1" xmlns="http://www.w3.org/2000/svg" xmlns:xlink="http://www.w3.org/1999/xlink" viewBox="0 0 995.05 720"><defs><style>.cls-1{fill:none;}.cls-2{clip-path:url(#clip-path);}.cls-3{fill:#8f2329;}.cls-4{fill:#21211f;}.cls-5{fill:#d63e46;}.cls-6{fill:#dbdbd5;}.cls-7{fill:#272751;}.cls-8{fill:#dd7c7c;}.cls-9{fill:#f4f4f4;}.cls-10{fill:#0d0d38;}</style><clipPath id="clip-path"><rect class="cls-1" width="995.05" height="720"/></clipPath></defs><title>dracula</title><g class="cls-2"><path class="cls-3" d="M1058.13-96.11l-569.81-.07a.21.21,0,0,1-.2-.21L492-163.12a.19.19,0,0,0-.2-.2l-629.1.26a.19.19,0,0,0-.19.19l-.09,237.18a.21.21,0,0,0,.07.15c11.56,9.48,19.74,20.84,24.12,36,3.07,10.65,9.08,18.72,17.31,25.38,5.4,4.37,10,10.4,13.85,16.59,6.54,10.67,11.76,22.35,18.26,33.06,12.1,19.94,17.9,41.95,18.13,65.8.5,51.66.69,103.33,1,155,.11,16.94-.11,33.92.65,50.83.48,10.87,4.19,15.22,10.34,15.13s10.2-6,10.9-16a51.75,51.75,0,0,0,.06-5.57c-.32-8.73-.95-17.46-1-26.19q-.42-89-.55-178c0-3.89,1.09-7.79,1.7-11.68a.18.18,0,0,1,.16-.16l2.06-.26a.2.2,0,0,1,.2.11c1.11,2.31,2.64,4.49,3.18,7,1.17,5.38,2.44,10.89,2.55,16.37q1.27,63.15,2,126.31c.13,13-1.11,25.93-1,38.89A30.56,30.56,0,0,0-10,437.24c1.69,3,6,5.68,9.08,5.55,2.66-.12,6.24-3.82,7.52-6.92,1.71-4.14,2.15-9.22,2.18-13.9.3-45.05.53-90.1.45-135.15,0-7.25,6.62-17.86,17.83-21.49a12.49,12.49,0,0,1,16.28,11.6c.5,19.14,1.42,55.89,1.42,66.88,0,6.7,3,11.36,9.13,11.93,6.8.64,9.16-5,9.63-11.14.75-9.73.86-69.59,1.27-89.72.19-9.29,7.29-16.57,14.6-16.36,4.83.13,9.65,7.74,10.11,16.24.3,5.55.74,86.09,1.15,120.8.14,12.26,4.31,18.31,11.08,18.08s10.22-6.29,10.22-18.67c0-33.65-.13-67.3,0-101,.15-43.45,7.76-85.21,23.6-124.95a81.49,81.49,0,0,1,9.29-17.74c13.68-18.75,39.35-14.12,47.42,7.76,1.76,4.8,5.68,10.47,9.7,11.9,5.76,2,7.8-5.17,10.09-10,.11-.24.27-.48.36-.67,4.82-9.95,17.48-5.28,18,4,.26,5.12,0,47.94,4.9,62.49,6.86,20.37,18.55,32.61,22.94,47.81,3.07,10.65,9.08,18.71,17.31,25.38,5.39,4.36,10,10.39,13.84,16.59,6.55,10.66,11.77,22.34,18.27,33.05,12.1,19.94,17.9,41.95,18.13,65.8.5,51.66.68,103.33,1,155,.11,17-.11,33.92.64,50.83.49,10.87,4.2,15.22,10.35,15.14s10.19-6.05,10.9-16a51.57,51.57,0,0,0,.06-5.56c-.32-8.74-.95-17.47-1-26.2q-.42-89-.55-178c0-3.89.45-12.57,5.33-12.57,5.88,0,4.52,9.9,4.52,23.91,0,42.11,1.57,84.2,2,126.31.13,13-1.11,25.93-1,38.89a30.56,30.56,0,0,0,3.52,14.24c1.69,3,6,5.68,9.08,5.55,2.66-.12,6.24-3.82,7.52-6.92,1.71-4.14,2.15-9.22,2.18-13.9.3-45,.53-90.09.45-135.14,0-10.23,4.12-16.67,12.06-20.23a41.38,41.38,0,0,1,13-3.33c7.76-.74,10.67,2.51,10.83,11.47.15,7.94,0,15.9-.08,23.85-.1,15.07-.3,30.14-.3,45.22,0,6.7,3,11.36,9.13,11.93,6.8.64,9.16-5,9.63-11.14.75-9.73.89-19.53,1-29.31.17-20.14-.11-40.28.3-60.41.19-9.29,7.29-16.56,14.6-16.36,4.83.14,9.65,7.74,10.11,16.24.3,5.55.5,11.11.54,16.67.21,34.71.2,69.42.61,104.13.14,12.27,4.31,18.31,11.08,18.09s10.22-6.29,10.22-18.68c0-33.65-.14-67.3,0-100.95.15-43.45,7.76-85.21,23.6-125a81.72,81.72,0,0,1,9.29-17.74c13.68-18.75,39.35-14.12,47.42,7.77,1.76,4.79,5.44,11.76,9.7,11.89,12.94.38,9.52-19.29,22.14-17.42,5.27.79,6.67,10,6.27,19.23-.23,5.12.8,45.64.8,61,0,15,18.5,13.05,18.5,0,0-11.89-1.55-70.58,5.07-86.45,10.29-24.66,21-49.22,33.47-72.58l.08-.16c3.15-5.89,12-4.7,12,21.22h0c0,.21.4,21,.4,31.91,0,12.34,17.47,13.34,17.47-.66,0-14.23,0-33.72.06-47.95,0-4.9-.55-10.05.76-14.63,3.95-13.78,14.63-8.75,18.31-3.07,2.76,4.25,3,8.55,8.23,11.65,11.5,6.83,9.38,93,9.42,91.66.3-11.59.58,23.23.58,34.8,0,13.35,15,12.8,15,.11,0-10.53.87-21.08,1.15-31.63.44-16.11,0-32.32,1.4-48.33C747,217,756.33,133.83,776,176.6c2.58,5.62,6.8,10.65,9.28,16.42,15.83,36.8,23.43,75.48,23.57,115.72.11,31.16,0,62.32-.05,93.48,0,11.47,3.33,17.08,10.22,17.29s10.94-5.39,11.09-16.75c.41-32.14.41-64.28.63-96.43,0-5.15.24-10.3.55-15.44.46-7.87,5.28-14.92,10.11-15,7.31-.19,14.4,6.54,14.59,15.15.41,18.64.12,37.29.29,55.94.08,9.05.22,18.13,1,27.14.47,5.69,2.83,10.92,9.63,10.32,6.14-.53,9.12-4.84,9.13-11,0-14-.78-27.93-.29-41.88.92-26.46,16.55-29.63,23.78-29.63,10.45,0,12.08,9.26,12.06,18.73-.1,41.72.13,83.44.41,125.16,0,4.33.47,9,2.18,12.87,1.28,2.86,4.85,6.3,7.52,6.4,3.05.12,7.39-2.39,9.08-5.14a26.66,26.66,0,0,0,3.52-13.19c.1-12-1.14-24-1-36,.44-39,2-78,2-117,0-29.52,9.85-23.55,9.85-10.51,0,55-.3,109.93-.59,164.89,0,8.09-.67,16.17-1,24.26a44.25,44.25,0,0,0,.06,5.15c.71,9.21,4.79,14.74,10.9,14.81s9.86-3.95,10.35-14c.75-15.66.54-31.38.66-47.07.35-47.85.55-95.7,1.07-143.55.24-22.08,6-42.47,18.15-60.94,6.5-9.92,11.72-20.73,18.27-30.61a61.92,61.92,0,0,1,13.84-15.37c8.24-6.18,14.25-13.65,17.32-23.51,4.38-14.05,12.57-24.57,24.12-33.35a.18.18,0,0,0,.08-.15l0-219.63A.19.19,0,0,0,1058.13-96.11Z"/><path class="cls-4" d="M375.49,594.61l48.58-12.86,20.67,21.67,28.72-17,19.54,26,20.4-21.67,26,21.67L561,586.28l51.82,8.33c-.58-1.92-53.16-105.53-53.16-105.53l-107.63-8Z"/><path class="cls-5" d="M434.24,374.34l-20,5.76a21.3,21.3,0,0,0-9.64,35L434.16,443l.08-2Z"/><path class="cls-5" d="M577.7,380.19l-25.62-7.27L552,445.67l35.44-30.43A21.29,21.29,0,0,0,577.7,380.19Z"/><path class="cls-6" d="M434.24,472.75V612.34a16.52,16.52,0,0,0,33,0V568.6c0-5,3.7-9,8.26-9s8.27,4,8.27,9v73.78a8.13,8.13,0,0,0,8.26,8h3.49a8.14,8.14,0,0,0,8.26-8V589.51c0-4.58,3.41-8.28,7.62-8.28s7.61,3.7,7.61,8.28v69.92a16.53,16.53,0,0,0,33.05,0V479.75Z"/><path class="cls-6" d="M552.08,361.46a59,59,0,1,0-118,0c0,1.46.07,2.9.17,4.34V476.12l61.83,66,56-59.75V361.46Z"/><path class="cls-7" d="M584.25,378.93l-32.17-9.13v3.12l25.62,7.27a21.29,21.29,0,0,1,9.73,35.05l-93.26,64.49-89.56-64.6a21.3,21.3,0,0,1,9.64-35l20-5.76v-3.12l-25.47,7.33-29.69,22.81L494,490.82,613,401.38Z"/><path class="cls-4" d="M542.9,329.87a59,59,0,0,0-108.83,31.59c0,3.54.17,10.49.17,10.49a20,20,0,0,0,2.19,0h0a8.91,8.91,0,0,0,8.91-8.91V342.1a22,22,0,0,1,43.77,3.1v1.63a4,4,0,1,0,7.93,0V345.2a22,22,0,0,1,43.77-3.1V363a8.91,8.91,0,0,0,8.91,8.91,23.3,23.3,0,0,0,2.36,0V361.46A58.74,58.74,0,0,0,542.9,329.87Z"/><path class="cls-4" d="M521.7,360.14l-14.6,15.48a2.74,2.74,0,0,0,2.78,4.51l24.11-7.2a2.74,2.74,0,0,0,1-4.69L525.5,360A2.74,2.74,0,0,0,521.7,360.14Z"/><path class="cls-4" d="M466.1,360.14l14.6,15.48a2.74,2.74,0,0,1-2.78,4.51l-24.1-7.2a2.74,2.74,0,0,1-1-4.69l9.51-8.29A2.72,2.72,0,0,1,466.1,360.14Z"/><path class="cls-4" d="M467,382.43v10.21a6.45,6.45,0,0,0,12.89,0v-5.3Z"/><path class="cls-4" d="M519.12,382.43v10.21a6.44,6.44,0,0,1-12.88,0v-5.3Z"/><path class="cls-4" d="M522.19,404.08a45.27,45.27,0,0,1-8.89,4.14l-5,9.95a2.3,2.3,0,0,1-4.1,0l-3.6-7.15a67.26,67.26,0,0,1-14.83,0l-3.61,7.15a2.29,2.29,0,0,1-4.09,0l-5-9.95a44.74,44.74,0,0,1-8.89-4.14,3.52,3.52,0,0,0-5.4,2.92v.06c0,10.48,5.59,19.76,14.19,25.48,2.87-5.15,10.84-8.85,20.23-8.85s17.37,3.7,20.24,8.85c8.59-5.72,14.18-15,14.18-25.48V407A3.52,3.52,0,0,0,522.19,404.08Z"/><path class="cls-8" d="M493.16,423.69c-9.39,0-17.36,3.7-20.23,8.85a37,37,0,0,0,40.47,0C510.53,427.39,502.55,423.69,493.16,423.69Z"/><path class="cls-9" d="M482.14,418.17l3.61-7.15a59.84,59.84,0,0,1-12.72-2.8l5,9.95A2.29,2.29,0,0,0,482.14,418.17Z"/><path class="cls-9" d="M508.28,418.17l5-9.95a60,60,0,0,1-12.72,2.8l3.6,7.15A2.3,2.3,0,0,0,508.28,418.17Z"/><polygon class="cls-10" points="493 487.28 434.25 508.68 375.49 594.61 422.87 435.46 493 487.28 493 487.28"/><polygon class="cls-10" points="495.35 487.28 554.11 508.68 612.86 594.61 565.48 435.46 495.35 487.28 495.35 487.28"/><rect class="cls-6" x="419.72" y="455.85" width="26.76" height="65.78" rx="13.38" ry="13.38" transform="translate(-121.72 144.34) rotate(-16.62)"/><rect class="cls-6" x="543.79" y="456.39" width="26.76" height="65.78" rx="13.38" ry="13.38" transform="translate(814.46 1184.71) rotate(-151.59)"/><rect class="cls-8" x="438.15" y="397.42" width="19" height="8.75" rx="4.37" ry="4.37"/><rect class="cls-8" x="529.1" y="397.42" width="19" height="8.75" rx="4.37" ry="4.37"/><rect class="cls-9" x="409.85" y="455.24" width="26.76" height="44.27" rx="13.38" ry="13.38" transform="translate(266.3 -140.99) rotate(27.32)"/><rect class="cls-9" x="555.78" y="458.03" width="26.76" height="44.27" rx="13.38" ry="13.38" transform="translate(1246.13 790.37) rotate(164.47)"/><path class="cls-6" d="M434.24,410.67h-2.87A12.73,12.73,0,0,1,418.65,398V367.17l15.59,13.08Z"/><path class="cls-6" d="M551.9,410.67h2.87A12.73,12.73,0,0,0,567.5,398V367.17l-15.6,13.08Z"/></g></svg>