<svg xmlns="http://www.w3.org/2000/svg" viewBox="0 0 347.08 266.68"><defs><style>.cls-1{fill:#406b79;}.cls-2{fill:#12444f;}.cls-3{fill:#93a599;}.cls-4{fill:#8e6a50;}.cls-5{fill:#2c5962;}.cls-6{fill:#e1bd89;}.cls-7{fill:#7f9ca5;}.cls-10,.cls-8{fill:#0d383f;}.cls-8{opacity:0.63;}.cls-9{fill:#517885;}.cls-11{fill:#0b383f;}.cls-12{fill:#23515b;}.cls-13{fill:#093135;}</style></defs><title>Asset 9</title><g id="Layer_2" data-name="Layer 2"><g id="Layer_1-2" data-name="Layer 1"><rect class="cls-1" x="19.67" y="158.7" width="306.68" height="103.72"/><path class="cls-1" d="M327.74,176.53H19.34c-4.95,0-8.61-4.32-7.47-8.83L27.66,111a7.59,7.59,0,0,1,7.48-5.52H310.73a7.61,7.61,0,0,1,7.45,5.4l17,56.73C336.42,172.12,332.75,176.53,327.74,176.53Z"/><rect class="cls-1" x="27.62" y="99.78" width="10.21" height="16.33" rx="5.11" ry="5.11"/><rect class="cls-1" x="308.15" y="99.78" width="10.21" height="16.33" rx="5.11" ry="5.11"/><rect class="cls-2" x="168.77" y="-0.42" width="9.54" height="347.08" rx="4.77" ry="4.77" transform="translate(346.66 -0.42) rotate(90)"/><rect class="cls-3" x="19.63" y="185.98" width="80.93" height="3.42"/><rect class="cls-3" x="19.63" y="223.91" width="80.93" height="3.42"/><rect class="cls-3" x="19.63" y="180.56" width="80.93" height="3.42"/><rect class="cls-3" x="19.63" y="191.4" width="80.93" height="3.42"/><rect class="cls-3" x="19.63" y="234.75" width="80.93" height="3.42"/><rect class="cls-3" x="19.63" y="213.07" width="80.93" height="3.42"/><rect class="cls-3" x="19.63" y="218.49" width="80.93" height="3.42"/><rect class="cls-3" x="19.63" y="229.33" width="80.93" height="3.42"/><rect class="cls-3" x="19.63" y="207.66" width="80.93" height="3.42"/><rect class="cls-3" x="19.63" y="202.24" width="80.93" height="3.42"/><rect class="cls-3" x="19.63" y="196.82" width="80.93" height="3.42"/><rect class="cls-4" x="19.63" y="183.98" width="80.93" height="2"/><rect class="cls-4" x="19.63" y="189.4" width="80.93" height="2"/><rect class="cls-4" x="19.63" y="194.82" width="80.93" height="2"/><rect class="cls-4" x="19.63" y="200.24" width="80.93" height="2"/><rect class="cls-4" x="19.63" y="205.66" width="80.93" height="2"/><rect class="cls-4" x="19.63" y="211.07" width="80.93" height="2"/><rect class="cls-4" x="19.63" y="216.49" width="80.93" height="2"/><rect class="cls-4" x="19.63" y="221.91" width="80.93" height="2"/><rect class="cls-4" x="19.63" y="227.33" width="80.93" height="2"/><rect class="cls-4" x="19.63" y="232.75" width="80.93" height="2"/><rect class="cls-3" x="245.42" y="185.98" width="80.93" height="3.42"/><rect class="cls-3" x="245.42" y="223.91" width="80.93" height="3.42"/><rect class="cls-3" x="245.42" y="180.56" width="80.93" height="3.42"/><rect class="cls-3" x="245.42" y="191.4" width="80.93" height="3.42"/><rect class="cls-3" x="245.42" y="234.75" width="80.93" height="3.42"/><rect class="cls-3" x="245.42" y="213.07" width="80.93" height="3.42"/><rect class="cls-3" x="245.42" y="218.49" width="80.93" height="3.42"/><rect class="cls-3" x="245.42" y="229.33" width="80.93" height="3.42"/><rect class="cls-3" x="245.42" y="207.66" width="80.93" height="3.42"/><rect class="cls-3" x="245.42" y="202.24" width="80.93" height="3.42"/><rect class="cls-3" x="245.42" y="196.82" width="80.93" height="3.42"/><rect class="cls-4" x="245.42" y="183.98" width="80.93" height="2"/><rect class="cls-4" x="245.42" y="189.4" width="80.93" height="2"/><rect class="cls-4" x="245.42" y="194.82" width="80.93" height="2"/><rect class="cls-4" x="245.42" y="200.24" width="80.93" height="2"/><rect class="cls-4" x="245.42" y="205.66" width="80.93" height="2"/><rect class="cls-4" x="245.42" y="211.07" width="80.93" height="2"/><rect class="cls-4" x="245.42" y="216.49" width="80.93" height="2"/><rect class="cls-4" x="245.42" y="221.91" width="80.93" height="2"/><rect class="cls-4" x="245.42" y="227.33" width="80.93" height="2"/><rect class="cls-4" x="245.42" y="232.75" width="80.93" height="2"/><rect class="cls-5" x="18.99" y="241.51" width="304.75" height="21.16"/><rect class="cls-1" x="100.56" y="84.21" width="144.86" height="168.02"/><path class="cls-1" d="M255,86H93.93a7.59,7.59,0,0,1-7.61-9.24L102.4,11.44A7.76,7.76,0,0,1,110,5.66H237.69a7.77,7.77,0,0,1,7.58,5.66l17.32,65.32A7.59,7.59,0,0,1,255,86Z"/><rect class="cls-1" x="102.06" width="10.21" height="16.33" rx="5.11" ry="5.11"/><rect class="cls-1" x="235.21" width="10.21" height="16.33" rx="5.11" ry="5.11"/><rect class="cls-3" x="100.24" y="162.02" width="144.86" height="3.42"/><rect class="cls-3" x="100.24" y="167.44" width="144.86" height="3.42"/><rect class="cls-3" x="100.24" y="178.28" width="144.86" height="3.42"/><rect class="cls-3" x="100.24" y="216.21" width="144.86" height="3.42"/><rect class="cls-3" x="100.24" y="172.86" width="144.86" height="3.42"/><rect class="cls-3" x="100.24" y="183.7" width="144.86" height="3.42"/><rect class="cls-3" x="100.24" y="140.35" width="144.86" height="3.42"/><rect class="cls-3" x="100.24" y="134.93" width="144.86" height="3.42"/><rect class="cls-3" x="100.24" y="145.77" width="144.86" height="3.42"/><rect class="cls-3" x="100.24" y="129.51" width="144.86" height="3.42"/><rect class="cls-3" x="100.24" y="151.19" width="144.86" height="3.42"/><rect class="cls-3" x="100.24" y="156.6" width="144.86" height="3.42"/><rect class="cls-3" x="100.24" y="227.04" width="144.86" height="3.42"/><rect class="cls-3" x="100.24" y="205.37" width="144.86" height="3.42"/><rect class="cls-3" x="100.24" y="232.46" width="144.86" height="3.42"/><rect class="cls-3" x="100.24" y="210.79" width="144.86" height="3.42"/><rect class="cls-3" x="100.24" y="221.62" width="144.86" height="3.42"/><rect class="cls-3" x="100.24" y="237.88" width="144.86" height="3.42"/><rect class="cls-3" x="100.24" y="254.13" width="144.86" height="3.42"/><rect class="cls-3" x="100.24" y="199.95" width="144.86" height="3.42"/><rect class="cls-3" x="100.24" y="194.53" width="144.86" height="3.42"/><rect class="cls-3" x="100.24" y="243.3" width="144.86" height="3.42"/><rect class="cls-3" x="100.24" y="248.71" width="144.86" height="3.42"/><rect class="cls-3" x="100.24" y="189.11" width="144.86" height="3.42"/><rect class="cls-3" x="100.24" y="107.84" width="144.86" height="3.42"/><rect class="cls-3" x="100.24" y="118.68" width="144.86" height="3.42"/><rect class="cls-3" x="100.24" y="97.01" width="144.86" height="3.42"/><rect class="cls-3" x="100.24" y="102.42" width="144.86" height="3.42"/><rect class="cls-3" x="100.24" y="124.1" width="144.86" height="3.42"/><rect class="cls-3" x="100.24" y="113.26" width="144.86" height="3.42"/><rect class="cls-3" x="100.24" y="91.59" width="144.86" height="3.42"/><rect class="cls-3" x="100.24" y="86" width="144.86" height="3.59"/><rect class="cls-4" x="100.24" y="89.59" width="144.86" height="2"/><rect class="cls-4" x="100.24" y="95.01" width="144.86" height="2"/><rect class="cls-4" x="100.24" y="100.42" width="144.86" height="2"/><rect class="cls-4" x="100.24" y="105.84" width="144.86" height="2"/><rect class="cls-4" x="100.24" y="111.26" width="144.86" height="2"/><rect class="cls-4" x="100.24" y="116.68" width="144.86" height="2"/><rect class="cls-4" x="100.24" y="122.1" width="144.86" height="2"/><rect class="cls-4" x="100.24" y="127.51" width="144.86" height="2"/><rect class="cls-4" x="100.24" y="132.93" width="144.86" height="2"/><rect class="cls-4" x="100.24" y="138.35" width="144.86" height="2"/><rect class="cls-4" x="100.24" y="143.77" width="144.86" height="2"/><rect class="cls-4" x="100.24" y="149.19" width="144.86" height="2"/><rect class="cls-4" x="100.24" y="154.6" width="144.86" height="2"/><polygon class="cls-4" points="245.1 160.02 100.24 160.02 100.24 160.49 100.24 162.02 245.1 162.02 245.1 160.02"/><rect class="cls-4" x="100.24" y="165.44" width="144.86" height="2"/><rect class="cls-4" x="100.24" y="170.86" width="144.86" height="2"/><rect class="cls-4" x="100.24" y="176.28" width="144.86" height="2"/><rect class="cls-4" x="100.24" y="181.7" width="144.86" height="2"/><rect class="cls-4" x="100.24" y="187.11" width="144.86" height="2"/><rect class="cls-4" x="100.24" y="192.53" width="144.86" height="2"/><rect class="cls-4" x="100.24" y="197.95" width="144.86" height="2"/><rect class="cls-4" x="100.24" y="203.37" width="144.86" height="2"/><rect class="cls-4" x="100.24" y="208.79" width="144.86" height="2"/><rect class="cls-4" x="100.24" y="214.21" width="144.86" height="2"/><rect class="cls-4" x="100.24" y="219.62" width="144.86" height="2"/><rect class="cls-4" x="100.24" y="225.04" width="144.86" height="2"/><rect class="cls-4" x="100.24" y="230.46" width="144.86" height="2"/><rect class="cls-4" x="100.24" y="235.88" width="144.86" height="2"/><rect class="cls-4" x="100.24" y="241.3" width="144.86" height="2"/><rect class="cls-4" x="100.24" y="246.71" width="144.86" height="2"/><rect class="cls-4" x="100.24" y="252.13" width="144.86" height="2"/><rect class="cls-4" x="100.24" y="257.55" width="144.86" height="2"/><rect class="cls-2" x="167.8" y="-14.25" width="10.21" height="196.92" rx="5.11" ry="5.11" transform="translate(257.11 -88.7) rotate(90)"/><path class="cls-2" d="M150.3,252.22l.13-52.22c0-13.23,10.17-24,22.6-24a21.84,21.84,0,0,1,16,7.08,24.65,24.65,0,0,1,6.57,17l-.13,52.22Z"/><path class="cls-6" d="M173.07,183.82c-8.95,0-16.21,7.92-16.23,17.72l0,45.55,32.38.07,0-45.54C189.24,191.81,182,183.84,173.07,183.82Z"/><path d="M173,103.54a10.88,10.88,0,0,0-10.88,10.89v33.88H183.9V114.43A10.89,10.89,0,0,0,173,103.54Z"/><rect class="cls-7" x="162.13" y="138.75" width="21.77" height="9.8"/><rect class="cls-2" x="186.19" y="112.74" width="10.69" height="36.29" transform="translate(18.44 -23.56) rotate(7.4)"/><rect class="cls-2" x="151.44" y="113.23" width="10.69" height="35.33"/><rect class="cls-2" x="274.36" y="118.4" width="37.83" height="7.52" rx="3.76" ry="3.76"/><rect class="cls-2" x="262.83" y="125.93" width="37.83" height="7.52" rx="3.76" ry="3.76"/><rect class="cls-2" x="281.31" y="132.62" width="14.11" height="7.52" rx="3.76" ry="3.76"/><rect class="cls-2" x="289.68" y="138.75" width="19.56" height="7.52" rx="3.76" ry="3.76"/><rect class="cls-2" x="113.08" y="37.76" width="37.22" height="9" rx="4.5" ry="4.5"/><rect class="cls-2" x="186.33" y="57.79" width="37.22" height="9" rx="4.5" ry="4.5"/><rect class="cls-2" x="212.5" y="50.93" width="39.75" height="9" rx="4.5" ry="4.5"/><rect class="cls-2" x="204.94" y="44.93" width="24.24" height="9" rx="4.5" ry="4.5"/><rect class="cls-2" x="214.82" y="37.76" width="24.24" height="9" rx="4.5" ry="4.5"/><rect class="cls-2" x="113.85" y="25.58" width="25.22" height="9" rx="4.5" ry="4.5"/><rect class="cls-2" x="104.31" y="30.08" width="19.08" height="9" rx="4.5" ry="4.5"/><path class="cls-6" d="M136.25,114.67a10.89,10.89,0,1,0-21.77,0V139h21.77Z"/><rect class="cls-7" x="114.48" y="138.99" width="21.77" height="9.56"/><path class="cls-6" d="M69.25,195.45a10.89,10.89,0,0,0-21.77,0v23.34H69.25Z"/><rect class="cls-7" x="47.48" y="218.79" width="21.77" height="9.18"/><path d="M69.25,144a10.89,10.89,0,1,0-21.77,0v14.66H69.25Z"/><rect class="cls-7" x="47.48" y="158.66" width="21.77" height="9.56"/><path d="M295.42,144a10.88,10.88,0,1,0-21.76,0v14.66h21.76Z"/><rect class="cls-7" x="273.66" y="158.66" width="21.77" height="9.56"/><path d="M296.12,195.45a10.89,10.89,0,0,0-21.76,0v23.34h21.76Z"/><rect class="cls-7" x="274.36" y="218.79" width="21.77" height="9.18"/><path d="M136.25,192.41a10.89,10.89,0,0,0-21.77,0v24.32h21.77Z"/><rect class="cls-7" x="114.48" y="216.73" width="21.77" height="9.56"/><path class="cls-6" d="M231.11,192.41a10.89,10.89,0,0,0-21.77,0v24.32h21.77Z"/><rect class="cls-7" x="209.34" y="216.73" width="21.77" height="9.56"/><path d="M231.11,114.67a10.89,10.89,0,1,0-21.77,0V139h21.77Z"/><rect class="cls-7" x="209.34" y="138.99" width="21.77" height="9.56"/><path class="cls-8" d="M252.27,252.23V177.89c-1.8-1-1.5-8.36.69-9.54s45.54-62.9,45.54-62.9H245.42V252.23h6.85Z"/><rect class="cls-2" x="35.85" y="142.48" width="10.69" height="26.18" transform="translate(-11.17 3.4) rotate(-4.16)"/><rect class="cls-2" x="70.42" y="142.48" width="10.69" height="26.18" transform="translate(14.58 -6.29) rotate(5.26)"/><polygon class="cls-2" points="79.89 228.74 69.25 227.8 72.48 194.06 83.13 195 79.89 228.74"/><polygon class="cls-2" points="47.48 228.35 37.44 231.89 25.25 200.09 35.29 196.55 47.48 228.35"/><path class="cls-8" d="M93.39,252.23V177.89c1.82-1.25,1.51-8.36-.69-9.54s-45.54-62.9-45.54-62.9h53.08V252.23H93.39Z"/><rect class="cls-7" x="168.27" y="168.31" width="10.21" height="167.84" rx="5.11" ry="5.11" transform="translate(425.61 78.85) rotate(90)"/><rect class="cls-9" x="168.83" y="165.16" width="8.36" height="182.51" rx="4.18" ry="4.18" transform="translate(429.42 83.4) rotate(90)"/><rect class="cls-10" x="168.75" y="165.96" width="8.53" height="192.9" rx="4.27" ry="4.27" transform="translate(435.43 89.4) rotate(90)"/><path class="cls-11" d="M212.41,187.67c-8.59-1.23-16.52,5.45-17.71,14.92l-5.47,44,31.11,4.46,5.47-44C227,197.57,221,188.9,212.41,187.67Z"/><rect class="cls-12" x="108.52" y="174.7" width="14.75" height="2.94" rx="1" ry="1" transform="translate(-1.12 0.74) rotate(-0.36)"/><rect class="cls-12" x="118.88" y="172.4" width="15.76" height="2.94" rx="1" ry="1" transform="translate(-1.1 0.81) rotate(-0.36)"/><rect class="cls-12" x="115.87" y="170.48" width="9.61" height="2.94" rx="1" ry="1" transform="translate(-1.09 0.77) rotate(-0.36)"/><rect class="cls-12" x="119.77" y="168.11" width="9.61" height="2.94" rx="1" ry="1" transform="translate(-1.07 0.79) rotate(-0.36)"/><rect class="cls-12" x="219.09" y="162.01" width="12.18" height="2.42" rx="1" ry="1" transform="translate(-1.03 1.43) rotate(-0.36)"/><rect class="cls-12" x="227.63" y="160.11" width="13" height="2.42" rx="1" ry="1" transform="translate(-1.02 1.49) rotate(-0.36)"/><rect class="cls-12" x="225.15" y="158.53" width="7.93" height="2.42" rx="1" ry="1" transform="translate(-1.01 1.46) rotate(-0.36)"/><rect class="cls-13" x="199.63" y="206.21" width="10.08" height="2.01" rx="1" ry="1" transform="translate(-31.4 377.79) rotate(-81.21)"/><rect class="cls-13" x="204.42" y="207.96" width="16.8" height="1.98" rx="0.99" ry="0.99" transform="translate(-26.21 387.33) rotate(-81.21)"/><rect class="cls-13" x="191.15" y="231.78" width="10.08" height="2.01" rx="1" ry="1" transform="matrix(0.15, -0.99, 0.99, 0.15, -63.85, 391.08)"/><rect class="cls-13" x="191.61" y="236.84" width="10.98" height="2.19" rx="1" ry="1" transform="translate(-68.17 396.35) rotate(-81.21)"/><rect class="cls-13" x="193.17" y="226.74" width="24.64" height="2.51" rx="1" ry="1" transform="translate(-51.23 396.21) rotate(-81.21)"/><rect class="cls-13" x="208.31" y="241.19" width="10.08" height="2.01" rx="1" ry="1" transform="translate(-58.61 416.01) rotate(-81.21)"/><rect class="cls-13" x="212.21" y="233.37" width="10.08" height="1.67" rx="0.84" ry="0.84" transform="translate(-47.42 413.1) rotate(-81.21)"/><rect class="cls-13" x="207.3" y="231.32" width="17.83" height="1.27" rx="0.5" ry="0.5" transform="matrix(0.15, -0.99, 0.99, 0.15, -46.07, 410.16)"/><rect class="cls-13" x="198.91" y="198.63" width="10.77" height="2.01" rx="1" ry="1" transform="matrix(0.15, -0.99, 0.99, 0.15, -24.23, 371)"/><rect class="cls-13" x="199.05" y="202.52" width="6.57" height="2.01" rx="1" ry="1" transform="matrix(0.15, -0.99, 0.99, 0.15, -29.73, 372.37)"/><rect class="cls-13" x="197.88" y="199.64" width="6.57" height="2.01" rx="1" ry="1" transform="translate(-27.87 368.77) rotate(-81.21)"/><path class="cls-2" d="M18.38,242.3h82.19v-4.13H18.38a2.08,2.08,0,0,0-2.09,2.06h0A2.08,2.08,0,0,0,18.38,242.3Z"/><path class="cls-2" d="M327.48,242.3H245.29v-4.13h82.19a2.08,2.08,0,0,1,2.09,2.06h0A2.08,2.08,0,0,1,327.48,242.3Z"/></g></g></svg>