<svg xmlns="http://www.w3.org/2000/svg" xmlns:xlink="http://www.w3.org/1999/xlink" viewBox="0 0 1950.77 720"><defs><style>.cls-1,.cls-121,.cls-20{fill:none;}.cls-2{fill:#344f47;}.cls-3{fill:#564130;}.cls-4{fill:#4b686e;}.cls-11,.cls-19,.cls-5{fill:#302e2b;}.cls-5,.cls-7{opacity:0.64;}.cls-6{fill:#442e1d;}.cls-7,.cls-8{fill:#191817;}.cls-8{opacity:0.36;}.cls-9{fill:#384059;}.cls-10{fill:#5d6982;}.cls-11{opacity:0.79;}.cls-12{fill:#51504e;}.cls-13{fill:#300e02;}.cls-14{fill:#1b0603;}.cls-15{fill:#7d7a76;}.cls-16{fill:#635f5a;}.cls-17{fill:#77746f;}.cls-18{fill:#6f6b66;}.cls-20{stroke:#1b1215;stroke-width:4px;}.cls-121,.cls-20{stroke-linecap:round;stroke-linejoin:round;}.cls-21{fill:#280e0b;}.cls-22{fill:#f95d28;}.cls-23{fill:#494949;}.cls-24{fill:#303030;}.cls-25{fill:#4c241b;}.cls-26{fill:#442342;}.cls-27{fill:#382138;}.cls-28{fill:#332119;}.cls-29{fill:#281911;}.cls-30{fill:#8f2329;}.cls-31{fill:#9b3b41;}.cls-32{clip-path:url(#clip-path);}.cls-33{fill:#000101;}.cls-34{fill:#010202;}.cls-35{fill:#010303;}.cls-36{fill:#010404;}.cls-37{fill:#020505;}.cls-38{fill:#020606;}.cls-39{fill:#020707;}.cls-40{fill:#030808;}.cls-41{fill:#030909;}.cls-42{fill:#030a0a;}.cls-43{fill:#040b0b;}.cls-44{fill:#040c0c;}.cls-45{fill:#040d0d;}.cls-46{fill:#050e0e;}.cls-47{fill:#050f0f;}.cls-48{fill:#051010;}.cls-49{fill:#061111;}.cls-50{fill:#061212;}.cls-51{fill:#061213;}.cls-52{fill:#071314;}.cls-53{fill:#071415;}.cls-54{fill:#071516;}.cls-55{fill:#081617;}.cls-56{fill:#081718;}.cls-57{fill:#081819;}.cls-58{fill:#09191a;}.cls-59{fill:#091a1b;}.cls-60{fill:#091b1c;}.cls-61{fill:#0a1c1d;}.cls-62{fill:#0a1d1e;}.cls-63{fill:#0a1e1f;}.cls-64{fill:#0b1f20;}.cls-65{fill:#0b2021;}.cls-66{fill:#0b2122;}.cls-67{fill:#0c2223;}.cls-68{fill:#0c2324;}.cls-69{fill:#0c2425;}.cls-70{fill:#0c2526;}.cls-71{fill:#0d2627;}.cls-72{fill:#0d2728;}.cls-73{fill:#0d2829;}.cls-74{fill:#0e292a;}.cls-75{fill:#0e2a2b;}.cls-76{fill:#0e2b2c;}.cls-77{fill:#0f2c2d;}.cls-78{fill:#0f2d2e;}.cls-79{fill:#0f2e2f;}.cls-80{fill:#102f30;}.cls-81{fill:#103031;}.cls-82{fill:#103132;}.cls-83{fill:#113233;}.cls-84{fill:#113334;}.cls-85{fill:#113435;}.cls-86{fill:#123536;}.cls-87{fill:#123637;}.cls-88{fill:#123638;}.cls-89{fill:#133739;}.cls-90{fill:#13383a;}.cls-91{fill:#13393b;}.cls-92{fill:#143a3c;}.cls-93{fill:#143b3d;}.cls-94{fill:#143c3e;}.cls-95{fill:#153d3f;}.cls-96{fill:#153e40;}.cls-97{fill:#153f41;}.cls-98{fill:#164042;}.cls-99{fill:#164143;}.cls-100{fill:#164244;}.cls-101{fill:#174345;}.cls-102{fill:#174446;}.cls-103{fill:#174547;}.cls-104{fill:#184648;}.cls-105{fill:#184749;}.cls-106{fill:#18484a;}.cls-107{fill:#19494c;}.cls-108{fill:#194a4d;}.cls-109{fill:#194b4e;}.cls-110{fill:#1a4c4f;}.cls-111{fill:#1a4d50;}.cls-112{fill:#1a4e51;}.cls-113{fill:#1b4f52;}.cls-114{fill:#1b5053;}.cls-115{fill:#1b5154;}.cls-116,.cls-118{opacity:0.13;}.cls-116{filter:url(#AI_GaussianBlur_7);}.cls-117{fill:#efbe72;}.cls-119{fill:#fff;}.cls-120,.cls-137{fill:#edb55d;}.cls-121{stroke:#edb55d;stroke-width:0;}.cls-122{opacity:0.08;}.cls-123{opacity:0.09;}.cls-124{fill:#1b1215;opacity:0.82;}.cls-125{fill:#5f797e;}.cls-126{fill:#281305;}.cls-127{fill:#72706e;}.cls-128{fill:#111823;}.cls-129{fill:#8c7962;}.cls-130{fill:#152d1f;opacity:0.43;}.cls-131{fill:#323c96;}.cls-132{fill:#b6ea71;}.cls-133{fill:#4e55b7;}.cls-134{fill:#1e874b;}.cls-135{fill:#f4b331;}.cls-136{fill:#3c7c59;}.cls-137{opacity:0.25;}.cls-138{fill:#f9d43a;}.cls-139{fill:#fc720b;}.cls-140{fill:#f9f5e5;}.cls-141{fill:#59a053;}.cls-142{fill:#db6414;}</style><clipPath id="clip-path"><rect class="cls-1" x="1450.19" y="55.39" width="312.26" height="293.15"/></clipPath><filter id="AI_GaussianBlur_7" name="AI_GaussianBlur_7"><feGaussianBlur stdDeviation="7"/></filter></defs><title>Dynamic</title><g id="Layer_1" data-name="Layer 1"><rect class="cls-2" x="0.21" y="-1.95" width="1950.56" height="566.33"/><rect class="cls-3" x="-0.44" y="549.92" width="1951.21" height="170.08"/><rect class="cls-4" x="-0.44" y="520.24" width="1951.21" height="45.18"/><path class="cls-5" d="M861.84,369.8l-26.93-2.22a1.38,1.38,0,0,1-1.17-.91l-2.51-7a1.36,1.36,0,0,0-1.57-.88l-40.07,8.75a1.38,1.38,0,0,1-1.66-1.31l-1.37-51.87a1.38,1.38,0,0,1,.86-1.31l43.52-17.84a1.38,1.38,0,0,0-.59-2.66L801.92,294a1.36,1.36,0,0,1-1.43-1.49L801.74,277a1.38,1.38,0,0,1,1.09-1.24l21.75-4.46a1.39,1.39,0,0,0,1-1.7L821,251.63a1.36,1.36,0,0,0-2.66.08l-2.25,11.7a1.37,1.37,0,0,1-1.15,1.11l-22,3.13a1.37,1.37,0,0,0-1.17,1.26l-1.83,24.6a1.37,1.37,0,0,1-.89,1.19l-10.62,3.95a1.36,1.36,0,0,0-.89,1.15l-4.27,41.49a1.36,1.36,0,0,1-2.5.61L747,305.25a1.36,1.36,0,0,0-1.06-.63l-38.1-2.2a1.34,1.34,0,0,1-1.09-.66l-5.15-8.55a1.37,1.37,0,0,0-2.49,1.08c1.61,5.92,3.47,12.59,3.87,13.41.7,1.4,29.72,5.69,34.37,6.37a1.36,1.36,0,0,1,1,.65l4.88,8a1.38,1.38,0,0,1-.59,2L722.88,334a1.38,1.38,0,0,0,.88,2.59l22-5.2a1.36,1.36,0,0,1,1.43.55l21.42,30.91a1.47,1.47,0,0,1,.25.86l-2.61,54.68H727.56a8.64,8.64,0,0,0,0,17.28h.51l9.14,126.55c.44,6.17,6.08,11,12.87,11h65.76c6.83,0,12.47-4.84,12.88-11L837,435.67h.49a8.64,8.64,0,0,0,0-17.28H790.58l-1.12-34.29a1.38,1.38,0,0,1,1-1.36l28.65-8.88a1.35,1.35,0,0,1,1.71.93L823,382.4a1.36,1.36,0,0,0,1.69.93l37.4-10.83A1.38,1.38,0,0,0,861.84,369.8Z"/><path class="cls-6" d="M760.52,438.26h22.66a1.36,1.36,0,0,0,1.36-1.41L783,389.32a1.37,1.37,0,0,1,1-1.35l28.65-8.79a1.36,1.36,0,0,1,1.71.92l2.23,7.54a1.37,1.37,0,0,0,1.69.92l37.4-10.73a1.36,1.36,0,0,0-.27-2.67L828.42,373a1.35,1.35,0,0,1-1.17-.9l-2.51-6.92a1.35,1.35,0,0,0-1.57-.87l-40.07,8.66a1.38,1.38,0,0,1-1.66-1.3l-1.37-51.35a1.37,1.37,0,0,1,.86-1.3l43.52-17.67a1.37,1.37,0,0,0-.59-2.63l-28.43,1.48a1.36,1.36,0,0,1-1.43-1.47l1.25-15.42a1.37,1.37,0,0,1,1.09-1.22l21.75-4.42a1.36,1.36,0,0,0,1-1.68l-4.65-17.78a1.36,1.36,0,0,0-2.66.09l-2.25,11.58a1.36,1.36,0,0,1-1.15,1.09l-22,3.1a1.37,1.37,0,0,0-1.18,1.25l-1.83,24.36a1.38,1.38,0,0,1-.89,1.18l-10.62,3.9a1.36,1.36,0,0,0-.89,1.14l-4.27,41.07a1.36,1.36,0,0,1-2.5.61l-23.68-36.28a1.36,1.36,0,0,0-1.07-.62l-38.1-2.18a1.35,1.35,0,0,1-1.09-.65l-5.15-8.47a1.37,1.37,0,0,0-2.49,1.07c1.61,5.86,3.47,12.46,3.87,13.28.7,1.38,29.72,5.63,34.37,6.3a1.34,1.34,0,0,1,1,.64l4.88,7.93a1.36,1.36,0,0,1-.59,1.95l-19.75,9.21a1.37,1.37,0,0,0,.88,2.57l22.05-5.16a1.38,1.38,0,0,1,1.43.55l21.42,30.61a1.39,1.39,0,0,1,.25.84l-3.26,67.7A1.36,1.36,0,0,0,760.52,438.26Z"/><rect class="cls-7" x="711.07" y="567.02" width="127.08" height="17.11" rx="8.56" ry="8.56"/><path class="cls-8" d="M298.52,631.43,200,660c-15.88,1.87-37.87-6.46-46.67-10.29s-76.64-45.5-76.64-45.5c-5.38-2.87-4.38-11.22,1.48-12.42l80.33-16.42a5.9,5.9,0,0,1,2.8.1l146.36,44.4C313.79,621.53,304.47,629.39,298.52,631.43Z"/><path class="cls-9" d="M809.35,576.52H743.6c-6.8,0-12.44-4.75-12.88-10.87l-9.3-127.49c-.49-6.71,5.41-12.4,12.87-12.4h83.52c7.43,0,13.32,5.64,12.88,12.33l-8.46,127.49C821.82,571.73,816.18,576.52,809.35,576.52Z"/><rect class="cls-10" x="712.51" y="423.26" width="127.08" height="17.11" rx="8.56" ry="8.56"/><path class="cls-11" d="M687,256H289.39c-6.66,0-12.06,4.92-12.06,11v8.45c0,6.07,5.4,11,12.06,11h8.24a6.12,6.12,0,0,0-.26,1.72v15.51c0,3.58,3.19,6.49,7.12,6.49h1.87v47.61a5.4,5.4,0,0,0,0,10.79V567l16.91,5.69,24-204.19a5.4,5.4,0,0,0,0-10.79V310.12h1.87c3.93,0,7.12-2.91,7.12-6.49V288.12a6.12,6.12,0,0,0-.26-1.72H620.39a6.12,6.12,0,0,0-.26,1.72v15.51c0,3.58,3.19,6.49,7.12,6.49h1.87v47.61a5.4,5.4,0,0,0,0,10.79L655,572.71l15-7.3V368.52a5.4,5.4,0,0,0,0-10.79V310.12h1.87c3.93,0,7.12-2.91,7.12-6.49V288.12a6.12,6.12,0,0,0-.26-1.72H687c6.66,0,12.06-4.93,12.06-11V267C699.09,260.87,693.69,256,687,256Z"/><rect class="cls-12" x="323.27" y="263.19" width="331.76" height="91.18"/><rect class="cls-12" x="323.27" y="280.54" width="64.76" height="292.17"/><rect class="cls-12" x="590.27" y="280.54" width="64.76" height="292.17"/><rect class="cls-13" x="388.03" y="354.37" width="202.24" height="218.34"/><rect class="cls-14" x="410.81" y="396.58" width="156.67" height="176.13"/><rect x="421.85" y="396.58" width="134.6" height="176.13"/><rect class="cls-15" x="375.71" y="285.63" width="226.88" height="51.4" rx="7" ry="7"/><rect class="cls-16" x="382.33" y="292.7" width="213.63" height="37.26" rx="7" ry="7"/><rect class="cls-17" x="386.62" y="296.49" width="205.06" height="29.67" rx="7" ry="7"/><rect class="cls-15" x="378.36" y="351.84" width="221.59" height="10.85" rx="5.43" ry="5.43"/><rect class="cls-18" x="323.27" y="299.47" width="37.35" height="273.25"/><rect class="cls-15" x="318.43" y="351.84" width="47.02" height="10.85" rx="5.43" ry="5.43"/><rect class="cls-15" x="315.07" y="275.76" width="53.74" height="28.5" rx="6.5" ry="6.5"/><rect class="cls-18" x="617.68" y="299.47" width="37.35" height="273.25" transform="translate(1272.71 872.18) rotate(-180)"/><rect class="cls-15" x="612.84" y="351.84" width="47.02" height="10.85" rx="5.43" ry="5.43" transform="translate(1272.71 714.53) rotate(-180)"/><rect class="cls-15" x="609.49" y="275.76" width="53.74" height="28.5" rx="6.5" ry="6.5" transform="translate(1272.71 580.03) rotate(-180)"/><rect class="cls-15" x="296.79" y="250.09" width="384.71" height="30.45" rx="11" ry="11"/><path class="cls-5" d="M690,230.37H670.54l-1.64-3.05L655.64,189.7a8.63,8.63,0,0,1,0-5.72l13.16-37.35a3.35,3.35,0,0,0-1.11-3.83,3.18,3.18,0,0,0-3.94,0L627,170a9,9,0,0,0-3.35,5l-13.27,52.29L609.19,232H593.71a9.31,9.31,0,0,0,0,18.61H690c5,0,9.12-3.84,9.12-9.92C699.09,234.09,695,230.37,690,230.37Z"/><rect class="cls-11" x="315.07" y="280.54" width="348.16" height="10.18"/><path class="cls-19" d="M675.11,640.68H303.19c-10.22,0-16.39-10.44-10.86-18.38l27.13-38.92a13.18,13.18,0,0,1,10.85-5.47H648a13.18,13.18,0,0,1,10.85,5.47L686,622.3C691.49,630.24,685.33,640.68,675.11,640.68Z"/><path class="cls-20" d="M-3.61,149.73c23-11.34,67.7-2.12,87.7,24.53,17.11-54.75,43.66-78,98.33-80-33.33-34-11.33-90,19.33-95.17"/><path class="cls-20" d="M-3.61,109.7C13.92,101.58,51,101.9,66.28,121c13-39.24,29.12-54.84,70.79-56.27C111.66,40.36,130.9,2.8,154.27-.91"/><line class="cls-20" x1="86.09" y1="178.76" x2="28.03" y2="21.49"/><line class="cls-20" x1="186.42" y1="95.93" x2="39.67" y2="8.38"/><path class="cls-20" d="M-3.61,71.52C7.72,68.38,35.75,63.93,49.62,80c4.5-16.75,21.59-37.59,45.28-38.65C91.34,28,89.34,9,105.6-4.24"/><path class="cls-20" d="M-3.61,44.39C.06,41.56,22.42,30.1,37,45.87c4.25-21.75,18.19-24.15,24.62-24.38C57.59,5.26,64.34.51,73.34-2.74"/><line class="cls-20" x1="9.34" y1="20.51" x2="-8.91" y2="42.58"/><path class="cls-20" d="M9.34,20.51c0-9.58-7.73-14.78-7.73-14.78l8.67-17.8L39.67-10.4S32.75.93,39.67,8.38C36.42,10.26,30.59,14.1,28,21.49,25.59,18.26,15.75,16.93,9.34,20.51Z"/><polygon class="cls-21" points="410.81 572.71 423.15 557.75 555.83 557.75 567.49 572.71 410.81 572.71"/><rect class="cls-22" x="520.38" y="409.89" width="6.33" height="104.45" rx="3.17" ry="3.17" transform="matrix(0.95, 0.3, -0.3, 0.95, 163.71, -136.36)"/><rect class="cls-23" x="425.27" y="473.16" width="131.17" height="89.11" rx="42" ry="42"/><rect class="cls-23" x="443.84" y="548.88" width="13.75" height="20.37" rx="6.87" ry="6.87" transform="translate(110.44 -73.32) rotate(10.59)"/><rect class="cls-23" x="524.13" y="548.88" width="13.75" height="20.37" rx="6.87" ry="6.87" transform="translate(1155.73 1011.01) rotate(169.41)"/><rect class="cls-24" x="428.71" y="469.48" width="124.3" height="16.12" rx="8.06" ry="8.06"/><rect class="cls-25" x="405.72" y="391.76" width="166.73" height="12.5" rx="6.25" ry="6.25"/><path class="cls-26" d="M637.25,192.59a20.58,20.58,0,0,1,2.42-13l18.81-34.3a3.23,3.23,0,0,0-3.94,0l-36.76,26.69a8.83,8.83,0,0,0-3.35,4.93l-13.27,51.22h41.21Z"/><path class="cls-27" d="M659.69,228.08l-13.26-36.85a8.28,8.28,0,0,1,0-5.6L659.59,149a3.23,3.23,0,0,0-1.11-3.75l-18.81,34.3a20.58,20.58,0,0,0-2.42,13L641.06,219a7.91,7.91,0,0,1-7.83,9H601.16l-2.54,9.85h64.61Z"/><rect class="cls-26" x="575.38" y="232.66" width="114.49" height="18.23" rx="9.11" ry="9.11"/><path class="cls-28" d="M95.89,410.11,83.79,415a4,4,0,0,0-2.45,4.65v0L119.24,556.3a12.16,12.16,0,0,0,4.63,6.65L132,568.8a11.53,11.53,0,0,0,5.4,2.11l42.2,9.81a4.38,4.38,0,0,0,4.86-5l-7.32-25.77a4.42,4.42,0,0,0-2.73-3.43l-44.71-17.64a4.38,4.38,0,0,1-2.57-2.76S97.8,410.11,95.89,410.11Z"/><path class="cls-29" d="M198.32,653.73c-59.63,0-89.42-46.22-92.59-55.53a6,6,0,0,1,11.35-3.87c.57,1.66,8,15.51,23.86,27.92,19.78,15.44,43.2,21.76,69.63,18.78A6,6,0,0,1,211.91,653,121,121,0,0,1,198.32,653.73Z"/><path class="cls-29" d="M283.58,623.8c-50,0-80.9-32.61-84.86-37a6,6,0,1,1,8.94-8c4.27,4.77,43.46,46.09,105.81,28.85a6,6,0,0,1,3.2,11.56A123.74,123.74,0,0,1,283.58,623.8Z"/><rect class="cls-28" x="181.67" y="553.28" width="12.15" height="95.16" rx="6.08" ry="6.08" transform="translate(-72.46 27.65) rotate(-7.06)"/><rect class="cls-28" x="287.1" y="525.13" width="12.15" height="95.16" rx="6.08" ry="6.08" transform="translate(-68.2 40.4) rotate(-7.06)"/><rect class="cls-28" x="131.79" y="537.57" width="12.15" height="95.16" rx="6.08" ry="6.08" transform="translate(-70.91 21.39) rotate(-7.06)"/><rect class="cls-28" x="227.27" y="514.69" width="12.15" height="95.16" rx="6.08" ry="6.08" transform="translate(-67.37 32.96) rotate(-7.06)"/><path class="cls-30" d="M225.59,505.51c-4.28-17.45-21.27-86.85-25.81-107.66a7,7,0,0,0-7.89-5.42l-95,14.48a7,7,0,0,0-5.68,8.81l33.25,122.16,104.06-28.24A7,7,0,0,1,225.59,505.51Z"/><path class="cls-31" d="M286.64,521.06c-13.55-2.62-43.92-8-55.63-10.36a7,7,0,0,1-2.52-1.06L124.43,537.88l.33,1.22a7,7,0,0,0,4.75,4.83L171.65,554l119.94-30.14A9,9,0,0,0,286.64,521.06Z"/><path class="cls-30" d="M293.84,528.62a9.11,9.11,0,0,0-2.25-4.76L171.65,554l4,1a9,9,0,0,1,6.33,7.27l4.56,25.7a7,7,0,0,0,8.54,5.76l99.05-25.63a7,7,0,0,0,5.32-7.8Z"/><g class="cls-32"><rect x="1450.19" y="55.39" width="312.26" height="8.19"/><rect x="1450.19" y="63.58" width="312.26" height="3.41"/><rect class="cls-33" x="1450.19" y="66.98" width="312.26" height="3.41"/><rect class="cls-34" x="1450.19" y="70.39" width="312.26" height="3.41"/><rect class="cls-35" x="1450.19" y="73.79" width="312.26" height="3.41"/><rect class="cls-36" x="1450.19" y="77.2" width="312.26" height="3.41"/><rect class="cls-37" x="1450.19" y="80.6" width="312.26" height="3.41"/><rect class="cls-38" x="1450.19" y="84.01" width="312.26" height="3.41"/><rect class="cls-39" x="1450.19" y="87.42" width="312.26" height="3.41"/><rect class="cls-40" x="1450.19" y="90.82" width="312.26" height="3.41"/><rect class="cls-41" x="1450.19" y="94.23" width="312.26" height="3.41"/><rect class="cls-42" x="1450.19" y="97.63" width="312.26" height="3.41"/><rect class="cls-43" x="1450.19" y="101.04" width="312.26" height="3.41"/><rect class="cls-44" x="1450.19" y="104.44" width="312.26" height="3.41"/><rect class="cls-45" x="1450.19" y="107.85" width="312.26" height="3.41"/><rect class="cls-46" x="1450.19" y="111.26" width="312.26" height="3.41"/><rect class="cls-47" x="1450.19" y="114.66" width="312.26" height="3.41"/><rect class="cls-48" x="1450.19" y="118.07" width="312.26" height="3.41"/><rect class="cls-49" x="1450.19" y="121.47" width="312.26" height="3.41"/><rect class="cls-50" x="1450.19" y="124.88" width="312.26" height="3.41"/><rect class="cls-51" x="1450.19" y="128.28" width="312.26" height="3.41"/><rect class="cls-52" x="1450.19" y="131.69" width="312.26" height="3.41"/><rect class="cls-53" x="1450.19" y="135.1" width="312.26" height="3.41"/><rect class="cls-54" x="1450.19" y="138.5" width="312.26" height="3.41"/><rect class="cls-55" x="1450.19" y="141.91" width="312.26" height="3.41"/><rect class="cls-56" x="1450.19" y="145.31" width="312.26" height="3.41"/><rect class="cls-57" x="1450.19" y="148.72" width="312.26" height="3.41"/><rect class="cls-58" x="1450.19" y="152.12" width="312.26" height="3.41"/><rect class="cls-59" x="1450.19" y="155.53" width="312.26" height="3.41"/><rect class="cls-60" x="1450.19" y="158.93" width="312.26" height="3.41"/><rect class="cls-61" x="1450.19" y="162.34" width="312.26" height="3.41"/><rect class="cls-62" x="1450.19" y="165.75" width="312.26" height="3.41"/><rect class="cls-63" x="1450.19" y="169.15" width="312.26" height="3.41"/><rect class="cls-64" x="1450.19" y="172.56" width="312.26" height="3.41"/><rect class="cls-65" x="1450.19" y="175.96" width="312.26" height="3.41"/><rect class="cls-66" x="1450.19" y="179.37" width="312.26" height="3.41"/><rect class="cls-67" x="1450.19" y="182.77" width="312.26" height="3.41"/><rect class="cls-68" x="1450.19" y="186.18" width="312.26" height="3.41"/><rect class="cls-69" x="1450.19" y="189.59" width="312.26" height="3.41"/><rect class="cls-70" x="1450.19" y="192.99" width="312.26" height="3.41"/><rect class="cls-71" x="1450.19" y="196.4" width="312.26" height="3.41"/><rect class="cls-72" x="1450.19" y="199.8" width="312.26" height="3.41"/><rect class="cls-73" x="1450.19" y="203.21" width="312.26" height="3.41"/><rect class="cls-74" x="1450.19" y="206.61" width="312.26" height="3.41"/><rect class="cls-75" x="1450.19" y="210.02" width="312.26" height="3.41"/><rect class="cls-76" x="1450.19" y="213.43" width="312.26" height="3.41"/><rect class="cls-77" x="1450.19" y="216.83" width="312.26" height="3.41"/><rect class="cls-78" x="1450.19" y="220.24" width="312.26" height="3.41"/><rect class="cls-79" x="1450.19" y="223.64" width="312.26" height="3.41"/><rect class="cls-80" x="1450.19" y="227.05" width="312.26" height="3.41"/><rect class="cls-81" x="1450.19" y="230.45" width="312.26" height="3.41"/><rect class="cls-82" x="1450.19" y="233.86" width="312.26" height="3.41"/><rect class="cls-83" x="1450.19" y="237.27" width="312.26" height="3.41"/><rect class="cls-84" x="1450.19" y="240.67" width="312.26" height="3.41"/><rect class="cls-85" x="1450.19" y="244.08" width="312.26" height="3.41"/><rect class="cls-86" x="1450.19" y="247.48" width="312.26" height="3.41"/><rect class="cls-87" x="1450.19" y="250.89" width="312.26" height="3.41"/><rect class="cls-88" x="1450.19" y="254.29" width="312.26" height="3.41"/><rect class="cls-89" x="1450.19" y="257.7" width="312.26" height="3.41"/><rect class="cls-90" x="1450.19" y="261.1" width="312.26" height="3.41"/><rect class="cls-91" x="1450.19" y="264.51" width="312.26" height="3.41"/><rect class="cls-92" x="1450.19" y="267.92" width="312.26" height="3.41"/><rect class="cls-93" x="1450.19" y="271.32" width="312.26" height="3.41"/><rect class="cls-94" x="1450.19" y="274.73" width="312.26" height="3.41"/><rect class="cls-95" x="1450.19" y="278.13" width="312.26" height="3.41"/><rect class="cls-96" x="1450.19" y="281.54" width="312.26" height="3.41"/><rect class="cls-97" x="1450.19" y="284.94" width="312.26" height="3.41"/><rect class="cls-98" x="1450.19" y="288.35" width="312.26" height="3.41"/><rect class="cls-99" x="1450.19" y="291.76" width="312.26" height="3.41"/><rect class="cls-100" x="1450.19" y="295.16" width="312.26" height="3.41"/><rect class="cls-101" x="1450.19" y="298.57" width="312.26" height="3.41"/><rect class="cls-102" x="1450.19" y="301.97" width="312.26" height="3.41"/><rect class="cls-103" x="1450.19" y="305.38" width="312.26" height="3.41"/><rect class="cls-104" x="1450.19" y="308.78" width="312.26" height="3.41"/><rect class="cls-105" x="1450.19" y="312.19" width="312.26" height="3.41"/><rect class="cls-106" x="1450.19" y="315.6" width="312.26" height="3.41"/><rect class="cls-107" x="1450.19" y="319" width="312.26" height="3.41"/><rect class="cls-108" x="1450.19" y="322.41" width="312.26" height="3.41"/><rect class="cls-109" x="1450.19" y="325.81" width="312.26" height="3.41"/><rect class="cls-110" x="1450.19" y="329.22" width="312.26" height="3.41"/><rect class="cls-111" x="1450.19" y="332.62" width="312.26" height="3.41"/><rect class="cls-112" x="1450.19" y="336.03" width="312.26" height="3.41"/><rect class="cls-113" x="1450.19" y="339.44" width="312.26" height="3.41"/><rect class="cls-114" x="1450.19" y="342.84" width="312.26" height="3.41"/><rect class="cls-115" x="1450.19" y="346.25" width="312.26" height="2.29"/></g><g class="cls-116"><circle class="cls-117" cx="1668.16" cy="153.82" r="76.83"/></g><g class="cls-118"><path class="cls-119" d="M1701.85,67.41c2.64.79,8.06,3.42,7.83,3.61.1-.08.15-.11.65.08l1.12.5c.27.13.58.26.93.44l1.19.64a8.11,8.11,0,0,0,1.72,1.14c1,.59,2.29,1.45,3.28,2.07a60.46,60.46,0,0,0-8.45-5.17l-1.86-.86-2.19-1c-.78-.35-1.57-.75-2.41-1.09l-2.55-1.05-1.28-.53-1.28-.45-2.46-.85a42.45,42.45,0,0,0-4.14-1.08l2.34.77,1.19.39,1.19.46c.8.31,1.62.62,2.49.93.43.14.87.32,1.31.5Z"/><path class="cls-119" d="M1720.27,78.64l.63.34c-.57-.4-1.13-.81-1.71-1.19l-1.75-1.1-1.76-1.11c-.59-.35-1.2-.68-1.8-1l1.63.89,2.09,1.32c.7.44,1.35.87,1.84,1.2A7.61,7.61,0,0,1,1720.27,78.64Z"/><path class="cls-120" d="M1739.74,96.92c-.58-.49,1.85,3,1.67,3,.28-.39,3.81,5.4,5.59,8.57l.92,1.16c-.18-.4-.41-.88-.68-1.41s-.62-1.11-1-1.74l-1.19-2c-.42-.71-.92-1.43-1.42-2.19a93.69,93.69,0,0,0-7-9.19C1737.72,94.35,1738.74,95.63,1739.74,96.92Z"/><path class="cls-119" d="M1743.53,102.58c.48.64,1,1.26,1.46,1.91C1743.87,102.83,1741.27,99,1743.53,102.58Z"/><path class="cls-119" d="M1741.35,97.85c-3.55-4.79,2.08,2.93-1.59-1.82C1741,97.59,1742.4,99.48,1741.35,97.85Z"/><path class="cls-120" d="M1752.9,119.83c-.83-1.93-1.59-3.89-2.55-5.77l-.68-1.42-.34-.71-.38-.69-1.5-2.77,1.17,2.33.58,1.16.53,1.19c.55,1.11,1.14,2.19,1.65,3.31Z"/><path class="cls-120" d="M1752.61,120.68c-.58-1.53-1.5-3.94-.51-1.81.18.53.39,1,.54,1.51l.48,1.41c.33.91.64,1.75.94,2.59s.53,1.69.8,2.57l.4,1.36c.12.47.22,1,.33,1.47-.33-1.29-.77-2.55-1.18-3.81a7.3,7.3,0,0,0,.38,1.48c.11.38.26.81.39,1.27l.39,1.43c.25,1,.5,1.9.66,2.59s.16,1.15,0,1.12c1.34,5.24-.47-4.1,1.1,2.75-.17-.81-.33-1.6-.49-2.36s-.29-1.51-.48-2.22c-.37-1.44-.68-2.81-1.05-4.14s-.76-2.6-1.14-3.9-.87-2.55-1.32-3.87c.46,1.55.71,2.16,1.38,4.33-.31-.94-.69-1.94-1.08-3-.2-.53-.38-1.08-.61-1.62l-.7-1.64c-.91-2.23-2-4.45-3.05-6.52.45,1.17,1,2.52,1.76,4,.36.74.66,1.56,1,2.39S1752.32,119.76,1752.61,120.68Z"/><path class="cls-120" d="M1757.48,140c.61,4.21,1,10.76,1.15,11.9a25.89,25.89,0,0,0-.11-4.58c-.11-1-.22-1.71-.4-2.71,0-.65-.16-2-.24-3s-.16-1.64,0-.79C1758,141.44,1757.3,138.12,1757.48,140Z"/><path class="cls-120" d="M1758.23,156.68c0,1,.11,2.08.09,3.12l.06-1c0-.33,0-.67,0-1l.2-.22c0-.18-.1-.65-.15-1.6,0-.48,0-1.07,0-1.82s-.06-1.63-.06-2.7c-.07,1.11-.06,1.85,0,2.6S1758.3,155.56,1758.23,156.68Z"/><path class="cls-120" d="M1759.5,157.78l-.08,1c0,.33-.07.65-.11,1-.06.62-.12,1.21-.17,1.81s-.07,1.23-.15,1.9l-.25,2.24c.35-2.31.59-5.13.74-7.55,0-1.2.07-2.31.1-3.2a18.36,18.36,0,0,0,0-1.92l0,.37-.11-2.59c0-.74-.11-1.58-.19-2.42s-.18-1.69-.27-2.46c.11,1.18.21,2.6.29,4s0,2.9,0,4.17C1759.27,156.7,1759.23,158.47,1759.5,157.78Z"/><polygon class="cls-120" points="1759.65 151.8 1759.74 153.51 1759.78 154.36 1759.79 155.22 1759.78 154.36 1759.74 153.51 1759.65 151.8"/><polygon class="cls-120" points="1756.78 169.75 1757.1 168.15 1757.26 167.35 1757.38 166.55 1757.87 163.33 1757.57 164.9 1757.23 167.33 1756.78 169.75"/><path class="cls-120" d="M1758.71,162.14c-.11,1.31-.21,1.78-.19,1.84a3.54,3.54,0,0,0,.17-.68c.08-.37.13-.76.15-.74a1.56,1.56,0,0,1,0,.38c0,.27-.07.68-.15,1.29a27.36,27.36,0,0,0,.32-3.17l.12-1.53c0-.5.07-1,.07-1.41a14.34,14.34,0,0,0,0-1.56c0,.32,0,.8-.05,1.34l0,.86-.07.88A11.28,11.28,0,0,1,1758.71,162.14Z"/><path class="cls-120" d="M1755.87,173.9c-.19.87-.33,1.76-.56,2.62l-.65,2.61.65-2.61C1755.54,175.66,1755.68,174.77,1755.87,173.9Z"/><path class="cls-120" d="M1751.68,186.59l-.26,1c-1.06,2.36-2.32,5.14-3.69,7.66-.64,1.29-1.38,2.47-2,3.55-.33.54-.65,1-1,1.52s-.64.88-.93,1.25c.32-.32.1.18.12.29s.08,0,.31-.29a19.34,19.34,0,0,0,1.21-1.81c.28-.66,1.11-2.07.87-1.9,1-1.66.93-1.26,1.58-2.39a92.64,92.64,0,0,0,4.51-10.3c-.46,1.24-.61,1.52-1,2.42.47-1.35.88-2.4,1.24-3.26s.6-1.57.84-2.16a11,11,0,0,0,1-3.26,27,27,0,0,1-1.21,3.64c-.27.67-.51,1.38-.79,2S1751.91,186,1751.68,186.59Z"/><path class="cls-120" d="M1752.75,186.52c.29-.72.61-1.42.87-2.14l.78-2.18a14,14,0,0,1-.41,1.44c-.18.59-.4,1.23-.66,1.85a22.36,22.36,0,0,0-1,2.77c.21-.22,2-4.49,1.42-2.89-.18-.66,2-6,.81-3.87.5-1.41.69-2.25.88-2.77a7.71,7.71,0,0,1,.39-1,18.52,18.52,0,0,0,1.18-4l.18-1.79c-.38,1.72-.69,3.07-1,4.25s-.64,2.15-.94,3.13-.64,2-1,3.11c-.2.57-.41,1.19-.64,1.87S1753.06,185.69,1752.75,186.52Z"/><path class="cls-120" d="M1744.53,202.3l-1.35,1.79.84-.89-1,1.57-1.07,1.43c-.71.92-1.36,1.81-2.05,2.61l-2,2.27c-.32.35-.63.71-.95,1l-1,1-1.83,1.83c-.58.6-1.21,1.12-1.79,1.67s-1.15,1.08-1.7,1.62-1.14,1-1.7,1.57-1.37,1.34-2.08,2l-2.17,1.81-1.09.89-1.14.83-2.28,1.63c-.76.54-1.57,1-2.35,1.53s-1.57,1-2.4,1.5c-1.65.94-3.29,1.94-5,2.84s-.82.57.47-.1,3-1.66,3.2-1.72a7.41,7.41,0,0,1-2.13,1.33,15.52,15.52,0,0,0-2.66,1.44c-.08.12.33,0,1-.38l1.28-.61c.48-.24,1-.5,1.56-.82,1.09-.62,2.29-1.3,3.39-1.94s2.08-1.31,2.81-1.75l.8-.55.59-.46c.33-.26.56-.46.74-.61.35-.32.49-.49.81-.81a17.29,17.29,0,0,0,1.89-1.23c.76-.56,1.51-1.12,1.85-1.31.57-.51,1.14-1,1.65-1.43l1.45-1.34c.94-.85,1.84-1.61,2.66-2.44s1.69-1.62,2.55-2.52,1.73-1.94,2.7-3.1c1.41-1.28-3,3.4-1.65,1.93.73-.83,1.49-1.63,2.2-2.48l-.25.25c.68-.91,1.52-2,2.43-3.12.47-.56.89-1.18,1.35-1.79l1.35-1.82c.47-.59.87-1.21,1.27-1.79l1.14-1.66c.74-1,1.29-1.94,1.69-2.55a15.77,15.77,0,0,1-1.39,2c-.12.13-.15.12-.07,0s.3-.52.62-1.11l1.31-1.78.66-1.29c.22-.43.41-.88.61-1.32l1.19-2.64c-.46,1-1,2-1.49,3-.25.5-.53,1-.81,1.41l-.79,1.3-1.27,2.13A4.15,4.15,0,0,0,1744.53,202.3Z"/><path class="cls-120" d="M1748.19,197c1.65-3,1.48-2.9,1.35-2.83s-.12.05.06-.36c.09-.2.25-.51.48-1s.52-1.12.93-2l-.83,1.81c-.28.61-.6,1.19-.9,1.78l-.92,1.77c-.15.3-.3.6-.46.88l-.5.87Z"/><path class="cls-119" d="M1727,222.13l-2.73,2a24.34,24.34,0,0,0,3-2.34C1728.09,221.05,1728.37,220.78,1727,222.13Z"/><path class="cls-119" d="M1717,229.61l1.34-1.24-1.29.95c-.43.32-.86.64-1.31.93l.64-.31Z"/><path class="cls-120" d="M1706.8,234.84c-1.12.61-1,.61-.23.31a29.75,29.75,0,0,0,3.42-1.64c-.59.31-1.11.58-1.56.79l-1.11.46C1706.75,235,1706.55,235,1706.8,234.84Z"/><path class="cls-119" d="M1689,240.56c2.77-.69,1.54-.4.11-.1s-3.08.57-1.11,0c-.34.17-1.22.4-1.44.51s-.06.07.3,0l.79-.12Z"/><path class="cls-120" d="M1670.69,242.38a17.36,17.36,0,0,1,3.16-.11C1672.36,242.35,1671.17,242.4,1670.69,242.38Z"/><path class="cls-120" d="M1734,214.43l1.34-1.49Z"/><path class="cls-120" d="M1733.13,215.38c.31-.3.6-.63.9-.95C1733.7,214.79,1733.41,215.12,1733.13,215.38Z"/><path class="cls-120" d="M1697.53,237.6h0l.42-.13Z"/><path class="cls-120" d="M1732.84,89.59l-1.9-1.87,1.88,1.84Z"/><path class="cls-120" d="M1730.93,87.12c.87.8,1.51,1.44,2.07,2a21.93,21.93,0,0,1,1.51,1.81c.5.64,1.07,1.35,1.83,2.24s1.64,2.06,2.88,3.51c-1-1.17-2-2.4-3-3.6l-1.65-1.78c-.56-.59-1.1-1.21-1.7-1.78C1729.93,86.28,1735.33,91.85,1730.93,87.12Z"/><path class="cls-120" d="M1758.66,143.35l0,.26C1758.76,144.07,1758.72,143.84,1758.66,143.35Z"/><path class="cls-119" d="M1577,147.59l.08,0-.13,2.1c0,.7-.11,1.41-.11,2.11,0-.71,0-1.42.07-2.13Z"/><path class="cls-119" d="M1577.2,147c.25-2.37.48-4.74.89-7.08a91,91,0,0,0,3.87,41.69c-.2-.42-.37-.84-.53-1.27a9.88,9.88,0,0,1-.42-1.27c-.27-.87-.7-2.14-1.07-3.72l-.64-2.55c-.18-.91-.37-1.87-.58-2.87l-.3-1.52-.23-1.58c-.15-1.06-.35-2.13-.46-3.2s-.22-2.16-.32-3.22-.13-2.11-.2-3.11c-.15-2-.1-3.88-.12-5.46,0-.79,0-1.51,0-2.13l.06-1.59A5.63,5.63,0,0,0,1577.2,147Z"/><path class="cls-119" d="M1577.25,145c0-1,0-2,.14-2.88s.26-1.78.41-2.69L1578,138l.29-1.46c.21-1,.36-2.11.59-3.36-.29,1.67-.44,3.1-.66,4.51s-.32,2.81-.59,4.41C1577.49,143.08,1577.38,144,1577.25,145Z"/><path class="cls-121" d="M1578.91,130.9c.15-.55.28-1.13.43-1.71l.47-1.69c.3-1.09.54-2.06.77-2.67a14.57,14.57,0,0,1-.65,2.63l-.58,1.8Z"/><path class="cls-120" d="M1579.63,124.7l.34-1-.31,1Z"/><path class="cls-120" d="M1579.66,124.74l.09.09C1579.5,125.54,1579.52,125.33,1579.66,124.74Z"/><path class="cls-120" d="M1580,123.69c.28-.91.61-2,.76-2.56l-.34.93a34,34,0,0,1,1.5-4.13c-1,2.48-1,2.54-.83,2.67l1.63-4a7.86,7.86,0,0,1-.87,2.52A48.73,48.73,0,0,0,1580,123.69Z"/><path class="cls-121" d="M1585.14,111l-.46,1c-.15.34-.28.69-.43,1l-.83,2.07c-.35.52-.11-.14.31-1.12l.7-1.59C1584.67,111.89,1585,111.4,1585.14,111Z"/><path class="cls-120" d="M1588.53,105.4c-.24.46-.91,1.63-1.34,2.4a5.12,5.12,0,0,0-.37.73c0,.06.08-.15.44-.69-.33.62-.69,1.38-1.11,2.16C1587.48,107.4,1585.89,109.66,1588.53,105.4Z"/><path class="cls-120" d="M1586.15,110l-.57,1.11Z"/><path class="cls-121" d="M1576.6,154.66c0-.53.06-.51.08-.28Z"/><path class="cls-120" d="M1593.65,98.15l1-1.34-.78,1.09Z"/><path class="cls-120" d="M1609.23,221.15l-3.13-2.88c-1-1-2-2.05-3.13-3.13s-2.13-2.32-3.32-3.6c-.57-.66-1.14-1.36-1.75-2.08s-1.26-1.45-1.86-2.28c-.1.31-2-2.59-2.53-2.83a104.39,104.39,0,0,1-6.25-10.25c-.51-.89-.93-1.84-1.38-2.75l-.65-1.36q-.33-.66-.6-1.32l-1.05-2.49c-.16-.39-.33-.75-.47-1.11l-.37-1c-1-2.56-1.41-3.74-.86-2.12l.8,1.88-1-1.91c-1.25-3.91-2.43-9.4-3-12.11,0-.1.09.37.27,1.25l.34,1.62.53,2.11a91,91,0,0,0,3.63,11.32c.41,1,.82,2,1.23,3s.89,1.9,1.31,2.82l.63,1.33.66,1.25,1.2,2.26c1.57,2.72,2.62,4.4,2.46,4.1.17.36-.09,0-.68-.93s-1.55-2.37-2.55-4.31-2.23-4.25-3.4-6.86l-.84-2c-.28-.68-.59-1.37-.83-2.09l-.79-2.17-.4-1.1c-.13-.37-.23-.75-.35-1.12a93.39,93.39,0,0,1-3.73-17.18l-.36-3.37c-.06-1-.12-1.92-.17-2.68-.11-1.51-.12-2.46-.14-2.62l.17-.57-.08-2.28c0-.73,0-1.43,0-2.11,0-1.36,0-2.64.06-3.88s.1-2.46.21-3.69.27-2.49.42-3.82l.42-1.16c-.21,1-.32,1.76-.41,2.47s-.16,1.33-.23,1.95c-.17,1.25-.17,2.53-.31,4.52l.2-2.34.09-1c0-.32.08-.62.12-.91l.45-3c.13-.91.34-1.76.51-2.71s.36-2,.68-3.29a4.82,4.82,0,0,0-.52,1.43c0,.13,0,.06.07-.46s.31-1.48.66-3.11c.28-.92.24-.28.29-.14s.14-.23,1-3.09c2.23-6.83,1.41-5.61,3.81-11.43l-.47,1-.42,1-.84,2a60.47,60.47,0,0,1,3.69-8.08l-.53,1c-.19.39-.37.83-.58,1.28-.4.91-.82,1.9-1.2,2.81a12.85,12.85,0,0,0-1,3.36,81.94,81.94,0,0,1,4.53-9.83l-.49,1.33c.67-1.07,1.09-2,1.6-2.93s1.09-2,2-3.29.46-1,.06-.46-.83,1.15-.43.4c.16-.27,1.11-1.58,2.1-3.08L1593,101l.78-1.07c.49-.68.92-1.3,1.2-1.73a8.19,8.19,0,0,0-1.16,1.32,26.94,26.94,0,0,0-1.57,2.26c-.54.86-1.12,1.77-1.72,2.66s-1.13,1.8-1.69,2.55c.48-.79,1-1.59,1.44-2.38l1.56-2.31c.8-1.57-.43.29-1.76,2.34s-2.55,4.41-2.23,3.55a31.65,31.65,0,0,1,3.33-5.49l.93-1.31.45-.65.46-.63a24.65,24.65,0,0,0,1.65-2.56c-.8,1-2.47,3.17-3.7,5.08a33.06,33.06,0,0,1-2,2.92c.77-1.24,1.48-2.28,2.18-3.49.37-.59.72-1.24,1.17-1.92s1-1.41,1.55-2.23c1-1.31,2.1-2.5,3.16-3.74,1.21-1.68.16-.39-.93.82.6-.68,1.21-1.43,1.9-2.21l2.23-2.43c.76-.88,1.63-1.71,2.5-2.59l1.33-1.34c.45-.45.94-.86,1.42-1.31a76.52,76.52,0,0,1,12.59-9.58c.61-.43,1.1-.73,1.48-1l.78-.5c.33-.22.31-.24.2-.2s-.79.33.35-.43c1.42-.75,3.34-1.73,5.25-2.77,1-.51,2-1,2.87-1.41s1.79-.88,2.56-1.18c.93-.36,2.5-1.26,1.58-1-1.28.57-2.59,1.08-3.84,1.73l-1.89.93-.94.46-.92.51c.3-.3-.9.08-3.54,1.55.51-.17.11.11-.77.64l-1.63.95-1,.57c-.34.2-.68.43-1,.65-2.83,1.72-5.77,3.91-5.86,4.29l0-.26c-.73.53-1.41,1.13-2.1,1.71l-2.06,1.74c-.66.6-1.31,1.22-2,1.83s-1.33,1.21-2,1.87l.25-.21a1.74,1.74,0,0,0-.29.27l-.78.79-1.17,1.21c-.44.45-.94,1-1.43,1.53l-1.58,1.8c-.54.61-1.11,1.24-1.63,1.91l-1.58,2-.77.94-.69.91.56-.8c.25-.34.58-.73.91-1.16l2.06-2.57c1.3-1.48,2-2.27-.11-.17.71-.85,1.59-1.84,2.59-3,.49-.56,1-1.11,1.63-1.69l1.82-1.81.48-.47.51-.46,1-.92c.7-.62,1.4-1.28,2.14-1.91l2.29-1.88,1.16-1,1.2-.91-1.36.81a81.79,81.79,0,0,1,11.85-7.89,99.61,99.61,0,0,1,13.62-6.07c-.85.39-1.72.74-2.54,1.18.76-.31,1.61-.57,2.48-.85l2.64-.86,2.63-.78c.84-.27,1.65-.55,2.39-.76-1,.23-1.57.43-1.92.52s-.44.1-.4.06.75-.32,1.08-.47c1.3-.39,2.77-.75,4.35-1.16.79-.19,1.62-.33,2.46-.51s1.71-.36,2.6-.49l2.72-.41,1.37-.2,1.4-.14,2.8-.29,2.8-.18s-.36.06,0,.08c.65,0,1.29-.1,1.94-.13l1.94,0,2-.05c.65,0,1.29,0,1.94,0,1.84.1,3.07.17,4.12.34s1.92.3,3,.47c1.35.14,4.67.62,3.42.31-.71-.11-1.43-.22-1.9-.27,3.93.29,2.71.43,7.58,1.19-3.77-.52,1.1.5.6.65,5.6,1.25.61-.23,1.32-.15l2.28.59,1.84.58c1.12.37,2.07.64,3,1l3,1.1.86.32.93.39,2.19.9a14.08,14.08,0,0,0-2.19-1l-1-.4-.89-.34a9.45,9.45,0,0,1-1.09-.45c1.89.64,4,1.54,4.41,1.62l-2-.84c-.65-.29-1.34-.51-2-.77,1.73.59,3.37,1.35,5,2,.84.33,1.65.74,2.47,1.12l2.48,1.17a110.86,110.86,0,0,1,10,5.67l-.5-.4,2.1,1.38c.7.46,1.36,1,2,1.47l-1.59-.87c1.1.77,2.21,1.63,3.2,2.38s1.8,1.47,2.43,1.85l-.76-.64c.88.69,1.79,1.37,2.66,2.08-.93-.69-1.89-1.35-2.84-2a92,92,0,0,1,12.68,11.66c.2.33-.22-.06-1-.83L1735.52,90l-.79-.84c-.28-.29-.58-.57-.87-.86l-1.8-1.73-.85-.82-.83-.71a13.17,13.17,0,0,0-2.09-1.59c.83.8,2,1.84,3,2.86s2,2,2.51,2.42a26,26,0,0,0-2.48-2.63c.56.52,1.15,1.08,1.75,1.66l.93.9.47.46.44.49,1.82,2,.9,1,.84,1,1.64,2c.54.63,1,1.3,1.45,1.89.9,1.2,1.75,2.19,2.33,3-.39-.66-.83-1.29-1.27-1.92l-1.32-1.89c.8,1.07,1.52,2.07,2.15,3l1.56,2.54c.93,1.49,1.52,2.66,2.09,3.37l-1.25-1.71c-.43-.56-.89-1.1-1.33-1.65.39.56.81,1.12,1.21,1.72l1.17,1.87c.39.64.8,1.28,1.18,1.94l1.1,2c.36.67.74,1.33,1.08,2l1,2c.31.66.64,1.29.93,1.92s.55,1.24.8,1.82c.07,0-.07-.42-.32-1-.13-.31-.27-.68-.44-1.07l-.58-1.21c-.8-1.61-1.43-2.89-1.51-3.06.42.7.8,1.42,1.2,2.12.41.91.72,1.62,1,2.19l.52,1.37.5,1.37.61,1.66c.28.91.78,2.27,1.5,4.55l.18,0c.17.79.49,1.88.84,3,.19.57.33,1.17.49,1.76l.44,1.66.37,1.38c.09.39.14.71.17.91.06.39,0,.34-.26-.43s-.35-1.71-.53-2.56l-.13.26a93.6,93.6,0,0,1,2.18,10.86c-.25-1.05.33,4.26,0,2.86.22,1.34.32,2.7.46,4.06-.1.93-.25-.94-.48-3.08a36.88,36.88,0,0,0-.77-4.76,5.84,5.84,0,0,0,.06,1.2c.06.61.14,1.32.19,1.79-.72-4.83-.68-7.28-1.76-12l-.76-2.31.27.07c-.25-1-.61-1.86-.87-2.59s-.52-1.29-.67-1.62-.13-.58-.21-.88l-.27-.87c-.19-.59-.39-1.18-.6-1.79s-.41-1.22-.67-1.83-.53-1.24-.81-1.88-.56-1.31-.86-2l-1-2.06c-.36-.71-.68-1.46-1.08-2.2l-1.23-2.32c1.47,2.63,1.07,1.75.37.32s-1.8-3.36-1.51-2.93c-.42-.71-1-1.68-1.71-2.75l-2.37-3.36c-.85-1.13-1.71-2.22-2.43-3.2-.35-.5-.7-.94-1-1.33s-.56-.76-.76-1c-1.14-1.57,2.72,3-.17-.57-.49-.57-.93-1.11-1.33-1.54s-.74-.76-1-1c-.47-.45-.54-.43.07.33-1.14-1.22-2.29-2.54-3.59-3.77l-1.94-1.92-2.06-1.86a95.54,95.54,0,0,0-8.74-7l1.5.9-1.36-1c-.45-.34-.93-.63-1.39-.93-.92-.6-1.81-1.17-2.66-1.69-1.74-1-3.26-1.74-4.35-2.25-.52-.35-.86-.48-.19-.23-1.26-.73-2.32-1.3-3.32-1.8s-2-.85-3.08-1.3c-.54-.21-1.1-.47-1.73-.68l-2.05-.74c-.75-.26-1.55-.61-2.48-.9s-1.93-.65-3.06-1a15.74,15.74,0,0,0,2.77,1.16c.36.13.74.25,1.11.4l1.16.45c.78.3,1.56.6,2.27.85l-.83-.06a100.92,100.92,0,0,1,21,11.86l-2.59-1.66c1.11.92,1.89,1.51,2.49,1.94s1,.75,1.4,1,.81.56,1.35,1c.27.22.58.48.94.8s.75.74,1.22,1.23c3,2.61-2.07-2,.25-.1,1,1,.82.94.79,1s0,.15.27.43.75.73,1.57,1.58a93.34,93.34,0,0,0-22.72-16,96.36,96.36,0,0,0-13.32-5.38,93.05,93.05,0,0,0-13.78-3.13c-.36,0,.61.13,1.56.32-.79-.1-2.29-.26-4.3-.54-1-.12-2.14-.19-3.38-.31s-2.6-.18-4-.25a90.81,90.81,0,0,0-19.72,1.3A87.76,87.76,0,0,0,1633.1,69l-1.72.72c-.55.23-1.05.49-1.53.72l-2.51,1.23a15.88,15.88,0,0,0-2.38,1.45c-.86.35,1.74-1.15-1.73.7-.29.23-1.12.8-.28.41a74.16,74.16,0,0,0-13.86,9.54A102.74,102.74,0,0,0,1596.33,97c.14-.07-.23.4-.56.94a8.73,8.73,0,0,0-.7,1.15c-.33.39-.68.83-1,1.3s-.76,1-1.1,1.5c-.72,1.08-1.49,2.24-2.22,3.4s-1.38,2.37-2,3.47-1.14,2.14-1.62,3l.69-1.05a89.38,89.38,0,0,0-4.92,11.05c0,.18.07-.13.25-.58l.62-1.5c-.23.62-.42,1.11-.59,1.51s-.27.71-.38.94a2.32,2.32,0,0,1-.43.75l-.74,2.59L1581,128l-.45,1.42c-.15.48-.26,1-.39,1.46l-.76,3c-.39,2-.87,4.13-1.12,6.29s-.49,4.35-.68,6.59-.19,4.51-.1,6.79a89.09,89.09,0,0,0,1.29,13.78,107.74,107.74,0,0,0,3.18,13.41c.53,1.26,1,2.41,1.59,3.8.27.7.62,1.43,1,2.26l.57,1.32c.19.47.4,1,.65,1.47-.31-.68-.55-1.39-.82-2.08.48,1.05.72,1.6.86,1.87s.12.29.1.29-.14-.07.74,1.69c1.27,2.36.64.6-1-2.64-.79-2.13-.22-.85.49.61a96.32,96.32,0,0,0,10.52,17.9A99.11,99.11,0,0,0,1609.23,221.15Z"/><path class="cls-120" d="M1622.72,229.7c.65.44-.7-.32-1.81-.93s-1.94-1.16-.42,0a81.55,81.55,0,0,0,20,9.5l3,.87c.5.14,1,.3,1.49.42l1.51.36c1,.23,2,.51,3,.7l3,.58a104.12,104.12,0,0,0,11.48,1.35c1,.08,1.74.16,2.43.19l1.87.05,1.79,0c.65,0,1.36,0,2.23-.05.06,0,.06-.08-.1-.11l1.57-.09c.55,0,1.14-.05,1.74-.13l3.75-.4,3.73-.55c1.19-.19,2.29-.42,3.26-.58s1.85-.59-.23-.13c1.45-.31,2.79-.67,4-1l1.83-.42,1.68-.44,1.57-.42c.51-.13,1-.26,1.45-.42.92-.31,1.77-.6,2.55-.92-2.76.87,2.66-1.11-.63,0,1.48-.51,2.52-.93,3.38-1.22s1.5-.48,2.12-.64a31.64,31.64,0,0,0,4.52-1.74c.24-.18.49-.36-.41.09,1.23-.58,2.76-1.34,4.36-2.22l2.38-1.43c.4-.24.8-.47,1.19-.72l1.12-.76,2.09-1.39c.66-.43,1.21-.87,1.72-1.22a8,8,0,0,1,1.86-1.14c.56-.47,1.07-1,1.6-1.5,1-.7,1.35-.94,1.88-1.31a30,30,0,0,0,2.68-2.23c1.87-1.79-.18-.05.47-.73a38.75,38.75,0,0,0,3.54-3.28l.61-.6.59-.64,1.18-1.25c.76-.81,1.5-1.53,2-2.12.09,0-.11.27-.49.7s-1,1-1.61,1.63-1.34,1.39-2,2.07-1.37,1.36-1.89,2c0,.11.3-.2.76-.65a82.13,82.13,0,0,1-8.83,7.65,89.63,89.63,0,0,1-9,5.79,111,111,0,0,1-18.3,8.19,35.26,35.26,0,0,0-3.74,1.08c-1,.35-1.91.63-2.52.89.59-.14,1.47-.3,2.44-.56s2-.56,3-.86a25,25,0,0,0,2.55-.9c.66-.27,1.07-.48,1.08-.59,1.36-.36,2.68-.86,4-1.31,1.47-.63,1.59-.27,2.25-.51-.68.32-1.4.61-2,.9s-1.13.55-1.44.74c-.63.37-.43.42,1.47-.29-3.65,1.54-3.14,1.07-2.51.63.31-.23.65-.47.51-.48a16,16,0,0,0-2.39.81l-.87.6c.6-.3-.53.06-2.08.53-.79.22-1.67.47-2.5.72s-1.58.49-2.13.64c.31-.06.62-.11.92-.18a99.39,99.39,0,0,1-14.63,2.72,92.93,92.93,0,0,1-16.22.32,88.84,88.84,0,0,1-16.4-2.62,90.71,90.71,0,0,1-15.09-5.32c-.53-.34-1.15-.69-1.83-1s-1.38-.79-2.13-1.19-1.57-.8-2.36-1.25l-2.42-1.37-1.21-.68-1.16-.73-2.21-1.43A33.45,33.45,0,0,1,1613,225c-1.87-1.27,2.44,2.1-1.08-.42-1.72-1.34-1.75-1.6-1.65-1.57l-1.57-1.21c-.39-.77.23-.63,2.34.71.52.33,1.14.74,1.85,1.24s1.58,1,2.53,1.61l1.51,1,1.74,1,1.91,1.15C1621.24,228.91,1622,229.29,1622.72,229.7Z"/></g><g class="cls-122"><path class="cls-117" d="M1764.47,222.77c-1,1.41-2.07,2.84-3.16,4.23l-3.34,4.1-3.55,4c-1.23,1.28-2.5,2.53-3.74,3.8a120.12,120.12,0,0,1-36,24.15l-2.15.94-1.08.47-1.1.41-4.39,1.66-4.46,1.43-1.11.36-1.13.3-2.26.6-2.25.6c-.75.18-1.51.33-2.27.49l-2.26.48c-.76.16-1.51.34-2.27.44l-4.54.72c-.75.14-1.51.19-2.27.28l-2.26.24a123,123,0,0,1-14.2.53c-1.23,0-2.47-.12-3.72-.18l-1.88-.1-.94-.05-.94-.1c-2.51-.28-5-.47-7.55-.92-1.25-.2-2.5-.38-3.75-.6l-3.7-.78-1.83-.38-1.81-.47-3.57-.93c-1.18-.33-2.32-.72-3.46-1.07l-1.71-.54-.84-.27-.82-.3-3.24-1.2-1.57-.58-1.52-.65c.28.2-.09.11-.94-.18-.42-.14-1-.34-1.6-.58s-1.39-.51-2.18-.88l-2.6-1.16c-.93-.43-1.92-.84-2.9-1.37-2-1-4.12-2.05-6.11-3.26l-3-1.72c-1-.59-1.86-1.19-2.72-1.73l-2.43-1.55-2-1.36c-2.29-1.57-3.24-2.12-1.61-.72-1.19-.86-2.39-1.87-3.63-2.9l-1.88-1.57c-.64-.52-1.24-1.1-1.86-1.66l-1.84-1.68-.92-.83-.87-.87-3.33-3.34c-4.12-4.37-7-8-7.38-8.32a24.82,24.82,0,0,1-2.4-2.56c-.57-.66-1.25-1.44-2-2.4s-1.57-2.12-2.54-3.45a111,111,0,0,1-6.75-10.89,120.94,120.94,0,0,1-7.81-18.14,112,112,0,0,1-4.68-20.35c-.12-.85-.26-1.68-.35-2.49s-.16-1.61-.23-2.38-.14-1.52-.21-2.23-.15-1.39-.17-2c-.12-2.59-.22-4.59-.3-5.68-.07-1.69-.11-1.55-.13-.49s.06,3.08.11,5.09l0,1.49c0,.49.06,1,.09,1.41.06.88.12,1.66.16,2.19.06,1.08,0,1.23-.17-.48a122.69,122.69,0,0,0,8,33.48c1.12,2.64,2.17,5.31,3.46,7.87s2.59,5.1,4,7.62c.7,1.24,1.47,2.45,2.2,3.68l1.11,1.83,1.2,1.78c.8,1.18,1.57,2.38,2.41,3.53l2.56,3.44.64.85c.21.28.45.55.67.83l1.36,1.65c.91,1.1,1.79,2.22,2.77,3.26l2.87,3.16c1,1,2,2,3,3,.51.5,1,1,1.52,1.51l1.57,1.43,1.58,1.44c.53.48,1,1,1.6,1.41l3.29,2.72c.28.22.55.46.83.67l.85.64,1.71,1.28,1.71,1.28c.56.43,1.16.81,1.75,1.21l3.53,2.39,3.64,2.22c.61.36,1.21.76,1.83,1.09l1.87,1,1.88,1c.62.34,1.24.69,1.89,1l3.84,1.86c.63.32,1.29.59,1.94.87l2,.83,2,.83c.65.29,1.33.51,2,.76l4,1.47,4.07,1.28c.68.21,1.35.43,2,.63l2.06.53c1.38.35,2.75.74,4.14,1,2.79.57,5.56,1.21,8.39,1.58l2.1.33,1.06.16,1.06.11,4.25.44a123.21,123.21,0,0,0,17.08.27c2.85-.08,5.69-.43,8.53-.7.71-.06,1.42-.2,2.12-.29l2.12-.32,2.12-.33c.71-.1,1.41-.27,2.11-.4l4.21-.86,4.16-1.05c.69-.18,1.39-.35,2.08-.54l2.06-.64c1.36-.43,2.74-.82,4.1-1.3l4.05-1.47,1-.37,1-.41,2-.84c2.68-1.06,5.24-2.37,7.84-3.61,1.28-.66,2.54-1.36,3.81-2,.63-.35,1.27-.68,1.9-1l1.85-1.13,1.85-1.12c.62-.38,1.25-.74,1.84-1.15l3.59-2.43c.61-.39,1.19-.82,1.77-1.26l1.74-1.3,1.74-1.3c.58-.44,1.13-.92,1.69-1.37,1.12-.93,2.25-1.84,3.35-2.78l3.23-2.93a126.34,126.34,0,0,0,13.26-14.6l.92-1.24q-.3-3-.47-6C1765.2,221.73,1764.84,222.25,1764.47,222.77Z"/><path class="cls-117" d="M1760.85,72.08a122.34,122.34,0,0,0-16.7-16q-4.7-3.72-9.58-6.86h-9.14c1,.56,2.06,1.14,2.29,1.28l1.47.89c1,.6,2,1.17,2.91,1.8l2.84,1.92,1.42,1,1.38,1,2.74,2c.46.33.9.7,1.34,1.07l1.32,1.08a117.66,117.66,0,0,1,18.93,19.58c-.23-.41-.32-.62.78.82l1.78,2.37,1.61,2.38c-.16-2.85-.35-5.7-.63-8.55C1764.07,75.92,1762.49,74,1760.85,72.08Z"/><path class="cls-117" d="M1600.85,49.27c-2.81,1.83-5.49,3.75-8,5.73a120,120,0,0,0-34.74,43c.59-1.23,1.28-2.37,1.92-3.51s1.25-2.25,1.91-3.3l1.94-3,.93-1.45,1-1.35a116,116,0,0,0-8.32,14.66c-1.13,2.24-2,4.37-2.72,6.15s-1.26,3.3-1.64,4.37c-1.12,3-1.77,5.41-2.36,7.33l-.39,1.34-.28,1.19-.43,1.83c-.45,2-.45,2.29-.17,1.52s.81-2.6,1.51-4.79l1.22-3.45.63-1.79.7-1.71c1.28-3.23,1.17-2.61,1.23-2.46s.2-.2,2.43-5.12l-1.08,2.53c-.34.8-.67,1.55-.93,2.3l-1.56,4.23c-.48,1.38-.89,2.79-1.38,4.3l-.36,1.16-.19.6-.16.62-.7,2.67a28.81,28.81,0,0,0,.89-3.17l1.07-3.46.61-1.93c.2-.66.46-1.29.68-1.94l1.34-3.62c.43-1.1.86-2,1.16-2.76.63-1.43.87-1.91.41-.64a115.74,115.74,0,0,0-7.11,22.53c.1-.33.26-1,.46-1.88.09-.45.23-1,.38-1.5l.48-1.79.54-2,.28-1.07.35-1.08,1.41-4.47a87.58,87.58,0,0,1,4.32-10.54c-.39,1-1.14,2.7-2,4.78-.42,1-.84,2.2-1.3,3.38s-.93,2.39-1.3,3.62l-1.14,3.54-.26.83-.21.81-.39,1.49c-.47,1.87-.8,3.22-.82,3.6,0,.14.47-1.66,1.08-4l.47-1.81.57-1.83,1-3.29-1.28,4.15c-.1.34-.21.67-.3,1l-.26,1-.49,1.94-.46,1.85-.23.89-.17.89-.66,3.32-.3,1.51-.21,1.43-.35,2.53-.29,2.07-.12,1.59c-.13,1.77-.1,2.12.11.68l.2-1.42c.07-.6.19-1.3.34-2.12l.5-2.85.29-1.71.42-1.89a123.91,123.91,0,0,0-1.89,12.78c-.15,1.14-.17,2.29-.25,3.44l-.19,3.4c0,2.23,0,4.4,0,6.39v-.06l0-3.43c0-1.26,0-2.61.1-3.94l.23-3.88,0-.89.09-.84.16-1.51a120.13,120.13,0,0,0-.59,13.55l.12-2.37,0-2.54c0-.84.1-1.69.15-2.54l.15-2.58c0-.43,0-.87.08-1.3l.13-1.31c-.19,1.49-.22,3-.31,4.48s-.2,3-.17,4.51c0-.56,0-1.15.08-1.75l.17-1.86.34-4,.48-3.94.23-1.94.33-1.9.65-3.68c.24-1.2.52-2.35.77-3.48l.37-1.65c.12-.54.24-1.07.4-1.58l.81-2.94.37-1.36c.11-.44.23-.86.37-1.26l.72-2.25c.81-2.78,1.9-5.48,2.9-8.2,1.15-2.67,2.23-5.36,3.56-7.95.64-1.3,1.25-2.62,2-3.88s1.39-2.55,2.11-3.81l2.27-3.72.57-.93.61-.9,1.23-1.8,1.23-1.8c.41-.6.86-1.17,1.3-1.75.88-1.15,1.72-2.34,2.64-3.47l2.78-3.35c.45-.57,1-1.09,1.44-1.63l1.47-1.61a114.42,114.42,0,0,1,12.73-11.88,117.81,117.81,0,0,1,16.66-11.25Z"/></g><g class="cls-123"><path class="cls-117" d="M1541.61,49a2.2,2.2,0,0,1-.2.23h0l3.19-3.82Z"/><path class="cls-117" d="M1540.13,50.24c-.44.51-.83,1.07-1.25,1.61l-1.22,1.63-2.44,3.23c-.8,1.08-1.51,2.21-2.27,3.29.28-.36.81-1.11,1.53-2.13.35-.51.78-1.07,1.26-1.68s1-1.29,1.53-2L1539,52l.91-1.18,1-1.18.28-.33H1541Z"/><path class="cls-117" d="M1540.64,49.94c-.25.31-.51.61-.76.9l-.68.91-1.27,1.67c-1.57,2.09-2.7,3.6-2.93,4.06-.12.16,1.44-1.84,3.4-4.43l1.54-2c.48-.59,1-1.18,1.47-1.77h-.2Z"/><path class="cls-117" d="M1532,63.16l.63-.91C1532.38,62.54,1532.17,62.85,1532,63.16Z"/><path class="cls-117" d="M1540.85,50c-.3.37-.62.72-.9,1.09l-.84,1.12-1.62,2.16c-.54.71-1.06,1.4-1.56,2.08-.26.34-.51.67-.75,1l-.69,1c-.9,1.34-1.75,2.62-2.56,3.81L1530.76,64c-.36.57-.69,1.14-1,1.67-.65,1.08-1.24,2.08-1.78,3l-1.45,2.44-1,1.92c-1.1,2.15-1.27,2.59-.27.88l1-1.69c.2-.34.41-.74.67-1.15l.85-1.34,2.09-3.32,1.25-2c.28-.41.57-.83.87-1.25s.42-.62.63-.91l-.63.91c-1.27,1.87-2.5,4-3.85,6.14l-1.18,1.92q-.56,1-1.11,2l-2.24,4.09-.57,1c-.19.34-.35.7-.52,1.05l-1,2.11-2,4.17c-1.21,2.8-2.33,5.52-3.37,8l0-.07,1.82-4.3c.68-1.57,1.34-3.28,2.17-4.9l2.3-4.76.53-1.09.55-1,1-1.8c-1.53,2.66-2.79,5.47-4.14,8.24l-1,2.08-.89,2.13-1.79,4.26,1.35-2.93c.45-1.06.9-2.12,1.36-3.18s1-2.08,1.5-3.13,1-2.1,1.53-3.16c.26-.53.51-1.06.78-1.59l.86-1.57c-1,1.77-1.84,3.63-2.74,5.47s-1.81,3.66-2.56,5.57c.32-.69.62-1.43,1-2.16l1.15-2.26,2.5-4.91L1526,73.9l1.3-2.32,1.4-2.22,2.72-4.32c.92-1.38,1.87-2.69,2.77-4l1.32-1.89.65-.92c.21-.3.44-.59.66-.88l2.55-3.28,1.17-1.52.56-.72.57-.68c.57-.67,1.12-1.31,1.62-1.91h-1.87Z"/><path class="cls-117" d="M1540.15,49.93l-.55.66-.53.69-2.26,3c-.15.27,1-1.23,2.74-3.52l1.24-1.49h-.08Z"/><path class="cls-117" d="M1538.48,49.78l-1,1.32-1.5,2.07c-1.63,2.25-1.79,2.59-1.07,1.76s2.33-2.86,4.31-5.26l.36-.4h-.71Z"/><path class="cls-117" d="M1752.68,291.29l-3.08,1.84-1.54.92c-.51.31-1,.62-1.56.89l-6.35,3.39-6.53,3.1c-2.21,1-4.46,1.87-6.69,2.81a163.37,163.37,0,0,1-57.78,11.45l-3.19.05-1.59,0-1.6-.06-6.37-.23-6.35-.55-1.58-.14-1.57-.21-3.14-.43-3.14-.44c-1-.16-2.07-.38-3.1-.57l-3.09-.59c-1-.2-2.07-.36-3.08-.63l-6.06-1.48c-1-.23-2-.55-3-.84l-3-.89a166.36,166.36,0,0,1-18.08-6.75l-.58-.24-.57-.27-1.14-.55-2.29-1.1-2.3-1.11-1.16-.55-1.13-.61c-3-1.67-6.08-3.22-9-5.09-1.46-.9-2.94-1.78-4.39-2.71l-4.24-2.9-2.1-1.43c-.68-.52-1.35-1-2-1.53l-4-3-.49-.37-.48-.4-.94-.8-1.88-1.57-1.85-1.56-.92-.78-.88-.8-3.43-3.19-1.67-1.56-1.58-1.61c.27.38-.13.06-1-.76-.45-.41-1-.95-1.69-1.59s-1.46-1.37-2.25-2.25l-2.63-2.84c-.93-1-2-2.06-2.9-3.24l-3-3.57c-.5-.61-1-1.2-1.5-1.84l-1.43-1.9-2.81-3.71c-.88-1.24-1.69-2.46-2.48-3.6l-2.2-3.22-1.72-2.73c-2-3.19-2.87-4.39-1.51-1.81l-.77-1.31c-.13-.22-.26-.44-.4-.66l-.36-.7-1.5-2.85-1.55-2.93c-.52-1-1-2-1.45-3s-1-2-1.44-3.06c-.23-.51-.47-1-.71-1.52l-.63-1.54-2.44-5.91c-2.87-7.62-4.56-13.7-4.85-14.26a16.38,16.38,0,0,1-.66-1.72c-.25-.73-.54-1.64-.89-2.76s-.76-2.45-1.19-4.05-.82-3.48-1.32-5.64a157.56,157.56,0,0,1-2.66-17.11,166.69,166.69,0,0,1-.24-26.67c.19-2.08.38-4.31.62-6.61s.69-4.67,1-7.07l.13-.9.18-.9.36-1.79c.24-1.2.48-2.4.71-3.59l.36-1.78.44-1.74c.29-1.15.58-2.3.87-3.42s.54-2.22.85-3.29.64-2.09.95-3.09l.88-2.88c.29-.92.54-1.82.85-2.63,1.19-3.29,2.11-5.84,2.58-7.24.8-2.15.69-2,.13-.67s-1.5,3.89-2.46,6.42q-.36,1-.72,1.89c-.23.61-.4,1.23-.59,1.8-.38,1.14-.7,2.13-.93,2.82-.46,1.38-.56,1.56.08-.68a165.72,165.72,0,0,0-7.37,45.84c0,3.87,0,7.74.23,11.59l.16,2.89c0,.49,0,1,.09,1.45l.14,1.44.59,5.76c.23,1.91.56,3.81.84,5.72l.43,2.85.57,2.84.57,2.83.29,1.41c.09.47.19,1,.31,1.41l1.41,5.6.35,1.4c.13.46.28.92.41,1.38l.84,2.76c.57,1.83,1.08,3.69,1.77,5.49l1.93,5.42c.71,1.79,1.45,3.56,2.18,5.34.37.88.72,1.78,1.11,2.65l1.22,2.61,1.22,2.61c.41.86.8,1.74,1.27,2.58l2.68,5.09c.23.42.44.85.68,1.27l.73,1.24,1.47,2.47,1.46,2.48c.24.42.5.82.76,1.22l.79,1.2,3.16,4.8,3.39,4.65c.57.77,1.11,1.57,1.71,2.31l1.81,2.24,1.8,2.24c.6.74,1.2,1.5,1.85,2.2l3.82,4.3c.32.35.63.72,1,1.06l1,1,2,2.05,2,2.06c.33.35.68.68,1,1l1.06,1,4.22,3.91,4.41,3.7c.74.61,1.46,1.24,2.21,1.83l2.3,1.74,2.29,1.73,1.15.87c.38.29.76.58,1.16.84,3.19,2.15,6.31,4.39,9.63,6.31l2.46,1.5,1.23.75c.41.24.84.46,1.26.69l5.06,2.75a167.08,167.08,0,0,0,21.14,9.18c3.59,1.39,7.31,2.41,11,3.55.91.3,1.86.49,2.79.74l2.81.7,2.8.69c.94.24,1.89.39,2.84.59l5.68,1.12,5.73.84c1,.13,1.91.29,2.87.4l2.89.28,2.89.27,1.44.13.73.07.72,0,5.81.25,1.45.07c.48,0,1,0,1.45,0h2.91c3.88.06,7.76-.24,11.64-.43,1.93-.16,3.86-.39,5.8-.58,1-.1,1.94-.18,2.9-.31l2.89-.44,2.89-.44c1-.15,1.93-.27,2.88-.48l5.74-1.16c.47-.1,1-.18,1.43-.3l1.42-.36,2.84-.71,2.84-.72c1-.25,1.88-.56,2.82-.83,1.87-.58,3.75-1.12,5.61-1.73l5.54-2a169.25,169.25,0,0,0,24.09-11.3l4-2.38,2.1-1.25,2.09-1.38,4.33-2.86c1.45-1,2.9-2.11,4.4-3.2l1.6-1.16c-.25-1.51-.49-3-.69-4.54A162.46,162.46,0,0,1,1752.68,291.29Z"/></g><path class="cls-124" d="M1745.78,40.15H1465.45c-17.88,0-32.43,11-32.43,24.56V340.09c0,13.54,14.55,24.55,32.43,24.55h280.33c17.88,0,32.43-11,32.43-24.55V64.71C1778.21,51.17,1763.66,40.15,1745.78,40.15ZM1465.45,51.33h280.33c9.74,0,17.66,6,17.66,13.38V261.5H1447.79V64.71C1447.79,57.33,1455.71,51.33,1465.45,51.33Zm280.33,302.13H1465.45c-9.74,0-17.66-6-17.66-13.37V272.68h315.65v67.41C1763.44,347.46,1755.52,353.46,1745.78,353.46Z"/><path class="cls-125" d="M1741.39,45.44H1469.84c-17.32,0-31.41,10.65-31.41,23.75V335.6c0,13.1,14.09,23.76,31.41,23.76h271.55c17.32,0,31.41-10.66,31.41-23.76V69.19C1772.8,56.09,1758.71,45.44,1741.39,45.44ZM1469.84,56.25h271.55c9.43,0,17.11,5.81,17.11,12.94V259.57H1452.73V69.19C1452.73,62.06,1460.4,56.25,1469.84,56.25Zm271.55,292.29H1469.84c-9.44,0-17.11-5.8-17.11-12.94V270.39H1758.5V335.6C1758.5,342.74,1750.82,348.54,1741.39,348.54Z"/><rect class="cls-126" x="676.42" y="52.48" width="78.63" height="101.71" rx="9.21" ry="9.21" transform="translate(12.06 270.05) rotate(-21.54)"/><rect class="cls-127" x="683.71" y="59.42" width="64.05" height="87.83" transform="translate(12.06 270.05) rotate(-21.54)"/><rect class="cls-128" x="284.02" y="14.33" width="110.43" height="136.55" rx="9.21" ry="9.21" transform="translate(12.19 -39.64) rotate(6.81)"/><rect class="cls-129" x="294.26" y="23.65" width="89.95" height="117.91" transform="translate(12.19 -39.64) rotate(6.81)"/><path class="cls-130" d="M182.66,529.27c-9.14,1-14,6-17.83,7.28s-5.17,6.27,6.4,6.27c16.51,0,25.2-13.55,37.73-12.06,2.37.28,11.31,6.5,21.56,5.08s-7-5.75-9.49-8-16.23-6-21.31-5.94S182.66,529.27,182.66,529.27Z"/><path class="cls-131" d="M185.71,517.26a12.08,12.08,0,0,0-.18-1.71c-.14-.72-.12-.32.19-1.36.48-1.62,6-6.46,7.91-7.05,1.12-.35,2.16.15,2.19,1.25a4.77,4.77,0,0,1-.43,1.72l-.44.7a2.15,2.15,0,0,0,.42,2.41h0a2.12,2.12,0,0,1,.09,2.5l-.52.54a1.58,1.58,0,0,0-.06,1.89l.79.82a1.91,1.91,0,0,1,0,2l-.56.79a1.69,1.69,0,0,0,.2,2.07l.3.38a2.13,2.13,0,0,1,.45,1.26v.47c0,1.1-1.21,1.2-2.31,1-1.44-.27-6.43-4-7.36-6-.43-.94-.86-1.2-.77-1.94a11.2,11.2,0,0,0,.07-1.54Z"/><path class="cls-132" d="M182.42,510.63,171.23,527a11.63,11.63,0,0,0,3.14.75l10.2-14.88A9.92,9.92,0,0,0,182.42,510.63Z"/><path class="cls-132" d="M176,508.41l-9.82,14.32a10,10,0,0,0,2,2.38L179.21,509A11.67,11.67,0,0,0,176,508.41Z"/><path class="cls-132" d="M186.19,516.78,179,527.23a9.83,9.83,0,0,0,7.26-9.27A9.24,9.24,0,0,0,186.19,516.78Z"/><path class="cls-131" d="M165.69,517.7a10.76,10.76,0,0,1,.11-1.71c.11-.73.1-.33-.26-1.36-.55-1.59-6.27-6.18-8.21-6.69-1.13-.3-2.15.25-2.13,1.35a4.68,4.68,0,0,0,.51,1.69l.47.69a2.15,2.15,0,0,1-.32,2.42h0a2.1,2.1,0,0,0,0,2.5l.54.52a1.56,1.56,0,0,1,.14,1.89l-.76.85a1.93,1.93,0,0,0,.09,2l.59.76a1.69,1.69,0,0,1-.11,2.08l-.28.39a2.15,2.15,0,0,0-.39,1.28v.47c0,1.1,1.26,1.15,2.35.89,1.42-.33,6.24-4.31,7.08-6.37.39-1,.81-1.23.69-2a11.16,11.16,0,0,1-.14-1.54S165.69,517.74,165.69,517.7Z"/><path class="cls-132" d="M165.11,515.93a8.63,8.63,0,0,0-.28,2.28v.1L166,516.6l5-7.25A10,10,0,0,0,165.11,515.93Z"/><path class="cls-133" d="M175.44,508.41a11.56,11.56,0,0,0-4.47.94l-5,7.25-1.17,1.71a8.69,8.69,0,0,0,.33,2.17,9,9,0,0,0,1,2.25L176,508.41Z"/><path class="cls-133" d="M179.21,509l-11.05,16.13a10.9,10.9,0,0,0,3.07,1.84l11.19-16.32A11,11,0,0,0,179.21,509Z"/><path class="cls-133" d="M184.57,512.82l-10.2,14.88c.43,0,.86.06,1.3.06a11.53,11.53,0,0,0,3.36-.53l7.16-10.45A9,9,0,0,0,184.57,512.82Z"/><path class="cls-130" d="M165.24,520.76s4.18-.77,7.28.76c1.09-5,7.92-8.7,12.56-7.89a7.76,7.76,0,0,1,.5,1,18.73,18.73,0,0,1,7.92,2.14c1.5,1-1,5.61-1,5.61L180.8,525s-8,4.71-8.38,4.29-4.67-4.73-4.67-4.73l-2-2.34Z"/><path class="cls-134" d="M193.87,521.47a10.58,10.58,0,0,0-.73-1.56c-.36-.63-.21-.27-.26-1.35-.07-1.68,3.57-8.06,5.19-9.24.94-.69,2.09-.56,2.47.47a4.72,4.72,0,0,1,.15,1.77l-.18.8a2.16,2.16,0,0,0,1.18,2.14h0a2.12,2.12,0,0,1,.9,2.34l-.32.67a1.59,1.59,0,0,0,.56,1.82l1,.51a1.93,1.93,0,0,1,.64,1.86l-.27.93a1.69,1.69,0,0,0,.87,1.89l.4.26a2.17,2.17,0,0,1,.84,1.05l.16.44c.38,1-.75,1.53-1.86,1.7-1.45.21-7.39-1.73-8.92-3.33-.72-.75-1.21-.85-1.36-1.57a11.51,11.51,0,0,0-.44-1.49A.36.36,0,0,0,193.87,521.47Z"/><path class="cls-135" d="M188.6,516.27l-5.26,19.07a11.4,11.4,0,0,0,3.21-.31l4.8-17.39A10.11,10.11,0,0,0,188.6,516.27Z"/><path class="cls-135" d="M181.76,516.28,177.14,533a10.07,10.07,0,0,0,2.69,1.58l5.2-18.85A11.7,11.7,0,0,0,181.76,516.28Z"/><path class="cls-135" d="M194.17,520.86l-3.37,12.21a9.83,9.83,0,0,0,3.84-11.13A7.49,7.49,0,0,0,194.17,520.86Z"/><path class="cls-136" d="M181.28,516.44a11.65,11.65,0,0,0-3.92,2.34L175,527.26l1.11.37a1.07,1.07,0,0,1,.58,1.56l-1.22,2a9.21,9.21,0,0,0,1.65,1.82l4.62-16.74Z"/><path class="cls-136" d="M185,515.75l-5.2,18.85a10.78,10.78,0,0,0,3.51.74l5.26-19.07A11.14,11.14,0,0,0,185,515.75Z"/><path class="cls-136" d="M191.35,517.64,186.55,535a12.56,12.56,0,0,0,1.25-.37,11.77,11.77,0,0,0,3-1.59l3.37-12.21A9,9,0,0,0,191.35,517.64Z"/><path class="cls-134" d="M175.09,528.4a11.08,11.08,0,0,1-.46-1.66c-.13-.71,0-.34-.68-1.19-1-1.33-7.95-3.81-9.95-3.66-1.16.09-1.95.93-1.57,2a4.71,4.71,0,0,0,1,1.44l.67.49a2.17,2.17,0,0,1,.49,2.4h0a2.1,2.1,0,0,0,.83,2.35l.68.31a1.57,1.57,0,0,1,.75,1.75l-.43,1a1.89,1.89,0,0,0,.72,1.83l.81.53a1.71,1.71,0,0,1,.57,2l-.14.46a2.12,2.12,0,0,0,0,1.34l.16.43c.39,1,1.57.68,2.52.09,1.24-.78,4.5-6.11,4.62-8.33.06-1,.37-1.42,0-2.08a11.19,11.19,0,0,1-.63-1.41S175.1,528.44,175.09,528.4Z"/><path class="cls-135" d="M174,526.91a9.32,9.32,0,0,0,.48,2.25.36.36,0,0,1,0,.09l.55-2,2.34-8.48A10,10,0,0,0,174,526.91Z"/><path class="cls-136" d="M176.13,527.63l-1.11-.37-.55,2a8.21,8.21,0,0,0,1,2l1.22-2A1.07,1.07,0,0,0,176.13,527.63Z"/><circle class="cls-137" cx="1667.7" cy="152.73" r="57.81"/></g><g id="arrow"><rect class="cls-7" x="1381.39" y="614.88" width="33.8" height="10.88" rx="5.44" ry="5.44"/><rect class="cls-7" x="1357.78" y="651.68" width="33.8" height="10.88" rx="5.44" ry="5.44" transform="translate(-134.96 450.87) rotate(-17.77)"/><rect class="cls-7" x="1374.68" y="645.03" width="50.31" height="10.88" rx="5.44" ry="5.44"/><rect class="cls-7" x="1421.03" y="632.31" width="40.25" height="10.88" rx="5.44" ry="5.44"/><path class="cls-138" d="M1420,621.28a2.69,2.69,0,0,0-4.76-1.33l-7.14,8.89,13.39,3.74Z"/><polygon class="cls-139" points="1421.45 632.58 1408.06 628.84 1400.91 637.75 1422.94 643.91 1421.45 632.58"/><path class="cls-140" d="M1422.94,643.91l-22-6.15-4.84,6a2.69,2.69,0,0,0,1.37,4.27l23.13,6.46a2.69,2.69,0,0,0,3.39-2.94Z"/><path class="cls-138" d="M1457.59,638.68a2.68,2.68,0,0,0,1.87-4.57l-8-8.13-5.28,12.86Z"/><polygon class="cls-139" points="1446.19 638.84 1451.47 625.98 1443.46 617.84 1434.76 638.99 1446.19 638.84"/><path class="cls-140" d="M1434.76,639l8.7-21.15-5.43-5.52a2.68,2.68,0,0,0-4.4.86l-9.13,22.21a2.69,2.69,0,0,0,2.52,3.71Z"/><path class="cls-140" d="M1376.5,616.24a2.69,2.69,0,0,0-4.31,2.42l1.25,11.34,12.11-6.82Z"/><polygon class="cls-141" points="1385.55 623.18 1373.44 630 1374.68 641.36 1394.61 630.13 1385.55 623.18"/><path class="cls-142" d="M1394.61,630.13l-19.93,11.22.85,7.7a2.69,2.69,0,0,0,4,2.05l20.92-11.79a2.68,2.68,0,0,0,.32-4.47Z"/><path class="cls-140" d="M1454.36,637.64a2.69,2.69,0,0,0-4.85-.95l-6.42,9.43,13.64,2.67Z"/><polygon class="cls-141" points="1456.73 648.79 1443.09 646.12 1436.66 655.56 1459.11 659.97 1456.73 648.79"/><path class="cls-142" d="M1459.11,660l-22.45-4.41-4.35,6.4a2.69,2.69,0,0,0,1.7,4.15l23.57,4.62a2.68,2.68,0,0,0,3.14-3.19Z"/><path class="cls-138" d="M1384.87,639.74a2.68,2.68,0,0,0-2.2-4.42l-11.38.66,6.2,12.44Z"/><polygon class="cls-139" points="1377.48 648.42 1371.29 635.98 1359.88 636.64 1370.08 657.12 1377.48 648.42"/><path class="cls-140" d="M1370.08,657.12l-10.2-20.48-7.72.45a2.69,2.69,0,0,0-2.25,3.88l10.7,21.5a2.69,2.69,0,0,0,4.45.55Z"/></g></svg>