<svg xmlns="http://www.w3.org/2000/svg" viewBox="0 0 150.78 124.89"><defs><style>.cls-1{fill:#f95d28;}.cls-2{fill:#ff8006;}.cls-3{fill:#a22c20;}</style></defs><title>pumkin</title><g id="Layer_2" data-name="Layer 2"><g id="Layer_1-2" data-name="Layer 1"><path class="cls-1" d="M102,124.82H48.76C21.83,124.82,0,98.6,0,71.68V67.29C0,40.37,27.23,18.54,48.76,18.54H102c22.27,0,48.76,21.83,48.76,48.75v4.39C150.78,98.6,129,124.82,102,124.82Z"/><rect class="cls-2" x="67.69" width="15.4" height="31.46" rx="2.13" ry="2.13"/><path class="cls-2" d="M76,124.82H74.59c-24.44,0-32.36-31.14-32.13-52C42.73,48,53.52,16.63,74.8,16.63h1.39c21.12,0,32.15,26.49,32.14,56C108.32,91.2,101.61,126.67,76,124.82Z"/><path class="cls-3" d="M61.32,55.41l-17-6a2.37,2.37,0,0,0-3,3l7,10.12a2.36,2.36,0,0,0,3.34,1.38l10-4.17A2.36,2.36,0,0,0,61.32,55.41Z"/><path class="cls-3" d="M90.65,55.41l17-6a2.37,2.37,0,0,1,3,3l-7,10.12a2.36,2.36,0,0,1-3.34,1.38l-10-4.17A2.36,2.36,0,0,1,90.65,55.41Z"/><path class="cls-3" d="M42.29,92.19,56.68,78.73a2.26,2.26,0,0,1,3.51.55L62,82.54a2.27,2.27,0,0,0,3.4.65l6.48-5.31a2.25,2.25,0,0,1,2.77-.06l8,6a2.24,2.24,0,0,0,2.85-.13l6-5.39a2.24,2.24,0,0,1,3.16.15l14,15.35A2.25,2.25,0,0,1,107,97.53H83.82a2.25,2.25,0,0,1-1.21-.35L74.43,92A2.26,2.26,0,0,0,72,92l-5.49,3.43a2.17,2.17,0,0,1-1.15.34l-21.53.35A2.24,2.24,0,0,1,42.29,92.19Z"/><path class="cls-3" d="M73.34,62.37a2.25,2.25,0,0,1,3.9,0l1.71,3,1.71,3a2.25,2.25,0,0,1-2,3.38H71.86a2.25,2.25,0,0,1-2-3.38l1.71-3Z"/></g></g></svg>