<svg xmlns="http://www.w3.org/2000/svg" viewBox="0 0 58.92 65.94"><defs><style>.cls-1{fill:#ffe;}.cls-2{fill:#1e1e1c;}.cls-3{fill:none;stroke:#1e1e1c;stroke-linecap:round;stroke-linejoin:round;}</style></defs><title>skull</title><g id="Layer_2" data-name="Layer 2"><g id="움직이는거"><path class="cls-1" d="M58.92,26.65c0,19.77-14.1,19.86-21.22,25.64-2.11,1.71-5.07,1-8.24,1-2.88,0-6,.39-8.31-1.07C10.71,45.61,0,46.59,0,26.65,0,11.93,13.19,0,29.46,0S58.92,11.93,58.92,26.65Z"/><rect class="cls-1" x="14.46" y="46.02" width="9.48" height="19.93" rx="3.01" ry="3.01"/><rect class="cls-1" x="24.72" y="46.02" width="9.48" height="19.93" rx="3.01" ry="3.01"/><rect class="cls-1" x="34.98" y="46.02" width="9.48" height="19.93" rx="3.01" ry="3.01"/><circle class="cls-2" cx="18.32" cy="31.66" r="6.09"/><circle class="cls-2" cx="40.76" cy="31.66" r="6.09"/><path class="cls-2" d="M28.4,36a1.11,1.11,0,0,1,2.13,0l1.08,2.56,1.16,2.73c.45,1-.14,2.33-1.06,2.33H27.22c-.93,0-1.51-1.28-1.07-2.33l1.16-2.73Z"/><polyline class="cls-3" points="45.89 4.53 42.93 12.66 37.21 15.22 34.98 19.6"/><line class="cls-3" x1="38.19" y1="10.83" x2="39.72" y2="13.82"/><polyline class="cls-3" points="14.46 26.94 9.58 25.56 10.19 18.99 7.26 18.99"/></g></g></svg>