<svg xmlns="http://www.w3.org/2000/svg" viewBox="0 0 71.01 71.55"><title>spider</title><g id="Layer_2" data-name="Layer 2"><g id="Layer_1-2" data-name="Layer 1"><path d="M27.48,44.41,0,31.92l.08-.85c4.62,1,9.36,1.71,13.83,3.18C18.6,35.8,23,38.11,27.49,40.06c3.39-4-1.07-3.83-2.09-5.46-1.32-2.12-1.79-4.74-2.9-7a52.23,52.23,0,0,0-3.31-5.23l1.22-.83L23.26,25l3.95-3.45-2.79-3.4,1-1.2,15.81,13c-.68-10.7-6.67-20-3-29.85Q42,14.49,45.7,29.06l1.24.75,12.58-19,.85.43L50,33.13l20.5-6.74.47,1L54.09,36.12C68.87,43.71,71,47,67.67,57.66c-.82-9.06-5.28-15.13-13-17.44-1.73,4.22-2.38,9.44-5.34,12-2.8,2.4-8,2-12.37,2.89.6,7.28,3.08,10.26,14.54,16.08C41.43,72.75,38.3,69.88,32.88,53.89l-11.2,14.9-1-.65c3.16-5.94,6.33-11.88,10-18.78L7.14,55.82l-.35-.93,21-9Z"/></g></g></svg>