<svg xmlns="http://www.w3.org/2000/svg" viewBox="0 0 96.42 102.21"><defs><style>.cls-1{fill:none;stroke:#74c184;stroke-linecap:round;stroke-linejoin:round;stroke-width:3.56px;}</style></defs><title>string</title><g id="Layer_2" data-name="Layer 2"><g id="Layer_7" data-name="Layer 7"><path class="cls-1" d="M1.78,1.78,8.53,6.37a2.38,2.38,0,0,0,1.32.4h6.73a2.35,2.35,0,0,1,2.35,2.35V13a2.35,2.35,0,0,0,1.33,2.12l3.12,1.5a2.35,2.35,0,0,1,1.34,2.12V25a2.34,2.34,0,0,0,1.3,2.1l1.41.71a2.35,2.35,0,0,1,1.3,2.1v4.74a2.3,2.3,0,0,0,.53,1.49l4.5,5.53a2.3,2.3,0,0,1,.53,1.48v3.08a2.37,2.37,0,0,0,1.21,2l8.33,4.64a2.35,2.35,0,0,1-.17,4.19L28,64.28a2.36,2.36,0,0,0-.1,4.23L32.63,71a2.35,2.35,0,0,1,.27,4l-4.73,3.31a2.36,2.36,0,0,0,1.36,4.28l5.58,0A2.34,2.34,0,0,1,37.2,86l-2.75,5.36a2.35,2.35,0,0,0,2.95,3.26l11.08-4.31a2.36,2.36,0,0,1,3.18,2.58h0a2.35,2.35,0,0,0,3.13,2.59L59,93.88a2.35,2.35,0,0,1,2.78.91l3,4.58a2.35,2.35,0,0,0,3.93,0l5.78-8.88A2.35,2.35,0,0,1,78,89.91l5.1,4A2.35,2.35,0,0,0,86.85,92V89a2.35,2.35,0,0,1,3.6-2l4.19,2.63"/></g></g></svg>