<svg xmlns="http://www.w3.org/2000/svg" viewBox="0 0 58.84 61.12"><defs><style>.cls-1{fill:#010303;}</style></defs><title>witch</title><g id="Layer_2" data-name="Layer 2"><g id="움직이는거"><path class="cls-1" d="M55.08,57.62c-2.62-.35-4.86-1.63-7.15-2.82a4.13,4.13,0,0,1-2.51-3.7,3.25,3.25,0,0,0-2.15-3,25.84,25.84,0,0,0-2.7-1.2Q36.33,45.41,32.05,44a7.83,7.83,0,0,0-2.24-.41,1.23,1.23,0,0,0-.95.69,1.17,1.17,0,0,0,.59,1c1.25.39,2.53.66,3.8.94a10.81,10.81,0,0,0,1.42.11l-.59.83.7.36v.28l-2.21,0c.37,1.23,1.07,1.62,2.14,1.35a1.33,1.33,0,0,1,1,.3c.81.67,1.57,1.4,2.33,2.13.46.44.8.68,1.31,0a2.17,2.17,0,0,1,2.6-.57c1,.3,1.14,1.08,1.17,2s0,2.19,1.61,2.65l-.79,1.14a9.52,9.52,0,0,0-1.44-1.51,1.63,1.63,0,0,0-1.39-.12c-.26.13-.26.81-.33,1.25a1.35,1.35,0,0,0,.14.53c.61,1.66.38,2.4-1.2,3.14a13.84,13.84,0,0,1-2.89,1,5,5,0,0,1-1.52-.1v-.29c.74-.36,1.52-.65,2.22-1.08,1.3-.81,1.37-1.68.4-2.86a1.22,1.22,0,0,1-.13-1,1.14,1.14,0,0,0-.48-1.67c-1.17-.65-2.37-1.23-3.6-1.87,0-.18,0-.76-.28-.88a6.24,6.24,0,0,0-1.65-.41c0,.3-.21.66-.1.88a5.93,5.93,0,0,0,3.09,2.66c1,.45,1.19.89.85,2-.28.89-1.16,1.68-.33,2.93L33.7,59.2a6.57,6.57,0,0,0,0-1.38,1,1,0,0,0-.52-.71,1,1,0,0,0-.79.37,5,5,0,0,0-.56,1.3,2.08,2.08,0,0,1-2.26,1.67,21.57,21.57,0,0,1-3.76-.54c-.88-.22-1-.68-1-1.51a22.78,22.78,0,0,0,2.46.25c.93,0,1.77-.48,1.78-1.44a3.42,3.42,0,0,1,1.94-3.12c-.76-.6-1.48-1.17-2.22-1.71A5,5,0,0,0,28,52a9.19,9.19,0,0,0-.36.86c-.09.3-.13.62-.23,1.16l-1.26-1.12L25.62,54c-.13-.09-.25-.14-.24-.17.26-1.94-.71-3.34-2-4.6s-2.73-2.84-5-2.94c-.41,0-1-.82-1.12-1.36a4.59,4.59,0,0,1,.1-1.83c.26-1.86.09-2.14-1.74-2.71l.17-1.24-5.22-1.34c-.1,0-.26-.05-.31,0-1.68,1.57-3.15.06-4.88-.23C6,36.05,5,35.83,4,35.56a21,21,0,0,1-2.8-1A5.26,5.26,0,0,1,0,33.54l.26-.4c1.8.55,3.6,1.09,5.39,1.68.41.14.75.49,1.1-.09a.54.54,0,0,1,.48-.17c1.23.45,2-.43,2.91-.93,1.27-.69,2.73-1,4.06-1.61,1.49-.67,2.94-1.43,4.35-2.24a2.91,2.91,0,0,0,.92-1.19c.81-1.51,1.63-3,2.35-4.58.61-1.33.47-1.54-.91-2.11l.49-1A2.08,2.08,0,0,0,19.34,22a4.7,4.7,0,0,1-.58.91,2.14,2.14,0,0,1-.75.33c-.07-.25-.15-.51-.23-.76-.11-.43-.23-.85-.34-1.27l-.35,0,1.2-1.4-.13-.17a3.68,3.68,0,0,0-.88.53c-.42.45-.74.58-1.28.11-.19-.17-.74.05-1.38.13.06-.52-.07-1.24.22-1.62a1.58,1.58,0,0,0-.32-2.46c-1.36.39-2.78.69-4.15-.65.94-.42,1.79-.78,2.62-1.18,1.72-.81,1.77-.92,1.37-2.74,0-.18-.14-.43-.06-.52,1.25-1.53.87-3.46,1.28-5.18s.55-3.32.83-5A1.9,1.9,0,0,1,16.89,0c.13.26.26.51.37.77,1.5,3.57,3,7.13,4.47,10.72A1.82,1.82,0,0,0,24,12.84a22.83,22.83,0,0,1,3.22-.09l-1.51,2,2.46,1-1.49.21v.18l2.17.86-.08.26L27.46,17a1.34,1.34,0,0,0,1.71.62c2.52-.58,5-1.17,7.6-1.59A20.88,20.88,0,0,1,47.5,17.5a6.13,6.13,0,0,1,.9.42c.11.07.2.19.55.51a13.41,13.41,0,0,1-1.52,0c-.87-.12-1.72-.34-2.59-.43a1,1,0,0,0-.82.33.9.9,0,0,0,.28.82c.94.75,2,1.39,2.9,2.15,1.14.95,2.23,2,3.31,3a2.88,2.88,0,0,1,.55.82c.54,1.11.22,1.65-1,1.51-1-.11-2-.44-3-.64a12.58,12.58,0,0,0-2.26-.39c-1.09,0-1.55.68-.91,1.55A36,36,0,0,0,46.63,30a20.14,20.14,0,0,1,2.12,2.59,1.76,1.76,0,0,1,.1,1.6,1.74,1.74,0,0,1-1.57.21c-2.43-.9-4.81-1.91-7.21-2.9-.63-.26-1.24-.58-2.13-1,.46,1.17.87,2.07,1.18,3,.68,2,1.43,4,1.92,6.05.64,2.68-.42,4.11-3.12,4.59-.24,0-.48.1-1,.2a3.43,3.43,0,0,0,.72.44c2.49.72,5,1.45,7.49,2.11a1.54,1.54,0,0,0,1.14-.28,7.61,7.61,0,0,1,10,0,6.65,6.65,0,0,1,.88,1l-.18.22-2.63-1.44-.06.16L58,49.8l.17.63L56.66,50l-.18.22,2.18,2.15.05.21L56.9,52l1.94,2.65-1.93-.58,1,2.05-.18.18-5.68-3.18-.15.14,2.87,2.84-.56.11,1.89,1.11Z"/></g></g></svg>